<svg width="13" height="25" viewBox="0 0 13 25" fill="none" xmlns="http://www.w3.org/2000/svg">
<path d="M0.588818 13.315H3.3292V24.5968C3.3292 24.8195 3.50967 25 3.73242 25H8.37886C8.60161 25 8.78208 24.8195 8.78208 24.5968V13.3682H11.9324C12.1373 13.3682 12.3096 13.2145 12.333 13.011L12.8115 8.85762C12.8246 8.74336 12.7884 8.62891 12.712 8.54316C12.6354 8.45737 12.5259 8.40825 12.411 8.40825H8.78228V5.80469C8.78228 5.01987 9.20483 4.62187 10.0384 4.62187C10.1572 4.62187 12.411 4.62187 12.411 4.62187C12.6337 4.62187 12.8142 4.44131 12.8142 4.21865V0.406201C12.8142 0.183447 12.6337 0.00297852 12.411 0.00297852H9.14121C9.11816 0.00185547 9.06694 0 8.99146 0C8.42412 0 6.4521 0.111377 4.89434 1.54443C3.16836 3.13252 3.4083 5.03394 3.46563 5.36362V8.40815H0.58877C0.366016 8.40815 0.185547 8.58862 0.185547 8.81138V12.9117C0.185596 13.1344 0.366064 13.315 0.588818 13.315Z" fill="#385C8E"/>
</svg>
