<svg width="30" height="18" viewBox="0 0 30 18" fill="none" xmlns="http://www.w3.org/2000/svg">
<path d="M25.8193 11.3064C26.8144 12.278 27.8647 13.1921 28.7573 14.2617C29.1516 14.737 29.5248 15.2274 29.8104 15.779C30.215 16.5631 29.8485 17.426 29.1455 17.4728L24.775 17.4708C23.6477 17.5643 22.7485 17.1106 21.9924 16.3398C21.3873 15.7235 20.8269 15.0675 20.2451 14.4304C20.0065 14.17 19.7569 13.9249 19.4586 13.7312C18.862 13.344 18.3441 13.4625 18.0032 14.0848C17.6559 14.7177 17.5771 15.4185 17.543 16.1238C17.4962 17.153 17.1851 17.4236 16.1514 17.4707C13.9421 17.5749 11.8454 17.2406 9.89753 16.1261C8.18026 15.1436 6.84866 13.7565 5.68956 12.1863C3.43294 9.12868 1.70472 5.7688 0.151512 2.31481C-0.198117 1.53663 0.0575867 1.11892 0.91622 1.10409C2.34198 1.07638 3.76757 1.07837 5.19503 1.1021C5.77452 1.1106 6.15813 1.44294 6.3819 1.99038C7.15329 3.88712 8.09718 5.69169 9.28195 7.36436C9.59747 7.80968 9.91921 8.25505 10.3773 8.56847C10.8841 8.91552 11.27 8.8005 11.5084 8.23589C11.6597 7.87788 11.726 7.49228 11.7601 7.1089C11.8731 5.78978 11.888 4.47288 11.6899 3.15839C11.5682 2.33802 11.1061 1.80692 10.2875 1.65171C9.86982 1.57255 9.93198 1.4171 10.1342 1.17868C10.4855 0.767471 10.8159 0.511475 11.4746 0.511475H16.4139C17.1915 0.664932 17.3642 1.01427 17.4707 1.79667L17.4749 7.28321C17.4664 7.58608 17.6262 8.48497 18.1717 8.68542C18.6084 8.82815 18.8962 8.47882 19.1582 8.20196C20.3408 6.94683 21.1849 5.46347 21.9389 3.92749C22.2735 3.25208 22.5613 2.55071 22.8401 1.84987C23.0467 1.32985 23.3709 1.07397 23.9567 1.08528L28.7105 1.0895C28.8515 1.0895 28.9941 1.09155 29.1306 1.11493C29.9317 1.25146 30.1512 1.59604 29.9038 2.37827C29.514 3.60552 28.7555 4.62827 28.0138 5.65571C27.2211 6.75265 26.3732 7.81208 25.587 8.91552C24.8647 9.92333 24.922 10.4312 25.8193 11.3064Z" fill="#436EAB"/>
</svg>
