<svg width="15" height="10" viewBox="0 0 15 10" fill="none" xmlns="http://www.w3.org/2000/svg">
<path d="M7.60677 4.64312L3.10982 0.147667C2.9125 -0.0491577 2.5928 -0.0491576 2.39498 0.147667C2.19766 0.344492 2.19766 0.664187 2.39498 0.861012L6.53524 4.99978L2.39548 9.13854C2.19816 9.33536 2.19816 9.65506 2.39548 9.85238C2.5928 10.0492 2.913 10.0492 3.11032 9.85238L7.60727 5.35697C7.80156 5.16218 7.80156 4.83746 7.60677 4.64312Z" fill="#474EBB"/>
<path d="M12.6068 4.64312L8.10982 0.147667C7.9125 -0.0491577 7.5928 -0.0491576 7.39498 0.147667C7.19766 0.344492 7.19766 0.664187 7.39498 0.861012L11.5352 4.99978L7.39548 9.13854C7.19816 9.33536 7.19816 9.65506 7.39548 9.85238C7.5928 10.0492 7.913 10.0492 8.11032 9.85238L12.6073 5.35697C12.8016 5.16218 12.8016 4.83746 12.6068 4.64312Z" fill="#474EBB"/>
</svg>
