<svg width="15" height="10" viewBox="0 0 15 10" fill="none" xmlns="http://www.w3.org/2000/svg">
<path d="M7.39323 5.35688L11.8902 9.85233C12.0875 10.0492 12.4072 10.0492 12.605 9.85233C12.8023 9.65551 12.8023 9.33581 12.605 9.13899L8.46476 5.00023L12.6045 0.861462C12.8018 0.664637 12.8018 0.344942 12.6045 0.147619C12.4072 -0.0492062 12.087 -0.0492062 11.8897 0.147619L7.39273 4.64303C7.19844 4.83782 7.19844 5.16254 7.39323 5.35688Z" fill="#C4C4C4"/>
<path d="M2.39323 5.35688L6.89018 9.85233C7.0875 10.0492 7.4072 10.0492 7.60502 9.85233C7.80234 9.65551 7.80234 9.33581 7.60502 9.13899L3.46476 5.00023L7.60452 0.861462C7.80184 0.664637 7.80184 0.344942 7.60452 0.147619C7.4072 -0.0492062 7.087 -0.0492062 6.88968 0.147619L2.39273 4.64303C2.19844 4.83782 2.19844 5.16254 2.39323 5.35688Z" fill="#C4C4C4"/>
</svg>
