<svg width="15" height="15" viewBox="0 0 15 15" fill="none" xmlns="http://www.w3.org/2000/svg">
<path d="M8.12492 11.25C8.12492 11.5951 7.84512 11.875 7.49996 11.875C7.15481 11.875 6.875 11.5951 6.875 11.25C6.875 10.9048 7.15481 10.625 7.49996 10.625C7.84512 10.625 8.12492 10.9048 8.12492 11.25Z" fill="#E2DFFE"/>
<path d="M7.5 15C3.36433 15 0 11.6357 0 7.5C0 3.36433 3.36433 0 7.5 0C11.6357 0 15 3.36433 15 7.5C15 11.6357 11.6357 15 7.5 15ZM7.5 0.9375C3.88126 0.9375 0.9375 3.88126 0.9375 7.5C0.9375 11.1187 3.88126 14.0625 7.5 14.0625C11.1187 14.0625 14.0625 11.1187 14.0625 7.5C14.0625 3.88126 11.1187 0.9375 7.5 0.9375Z" fill="#E2DFFE"/>
<path d="M7.50004 9.2188C7.24129 9.2188 7.03129 9.0088 7.03129 8.75005V8.11879C7.03129 7.52381 7.40883 6.99063 7.97005 6.79253C8.71689 6.52943 9.21883 5.73373 9.21883 5.15626C9.21883 4.20811 8.44818 3.43747 7.50004 3.43747C6.5519 3.43747 5.78125 4.20811 5.78125 5.15626C5.78125 5.41501 5.57125 5.62501 5.3125 5.62501C5.05375 5.62501 4.84375 5.41501 4.84375 5.15626C4.84375 3.69187 6.03508 2.49997 7.50004 2.49997C8.965 2.49997 10.1563 3.69187 10.1563 5.15626C10.1563 6.19881 9.33315 7.30569 8.2819 7.67693C8.09444 7.74251 7.96879 7.92058 7.96879 8.11936V8.75005C7.96879 9.0088 7.75879 9.2188 7.50004 9.2188Z" fill="#E2DFFE"/>
</svg>
