<svg width="684" height="478" viewBox="0 0 684 478" fill="none" xmlns="http://www.w3.org/2000/svg">
<path fill-rule="evenodd" clip-rule="evenodd" d="M593.907 415.309C579.865 421.042 565.402 425.934 552.067 433.252C535.293 442.482 521.232 454.273 502.165 459.165C489.288 462.432 475.59 462.375 462.464 464.19C448.04 466.101 433.654 468.624 419.115 469.522C418.217 469.522 417.338 469.637 416.44 469.675C411.919 469.942 407.397 470.121 402.875 470.21H400.296H394.813C339.122 470.458 102.757 493.084 57.0762 459.165C50.3512 454.177 60.6489 443.804 57.0762 436.275C-73.4039 422.439 52.5761 378.501 111.576 371.001C127.577 364.791 207.354 372.332 201.011 367.001C192.509 360.026 188.44 356.452 192.987 344.796C207.105 308.068 233.929 277.034 265.892 254.008C310.388 222.038 364.856 203.846 418.523 194.998C448.483 189.988 478.895 188.219 509.234 189.724C516.513 190.106 523.772 190.68 530.994 191.501C537.795 192.266 544.826 194.005 551.609 193.794C569.268 193.604 586.847 196.183 603.708 201.438C614.674 204.744 631.105 208.164 635.824 220.184C637.204 224.001 639.17 227.579 641.651 230.79C645.472 235.663 651.738 236.312 656.801 239.198C662.43 242.433 667.324 246.807 671.168 252.039C676.454 259.697 679.941 268.451 681.371 277.646C683.95 292.016 685.192 308.335 681.6 322.591C677.735 336.927 671.109 350.37 662.093 362.166C646.927 383.123 626.739 399.931 603.383 411.047C600.25 412.614 597.079 413.99 593.907 415.309Z" fill="#E2DFFE"/>
<path fill-rule="evenodd" clip-rule="evenodd" d="M509.701 329.292C508.325 328.011 504.485 329.101 496.881 326.941C489.278 324.782 481.483 326.272 480.164 328.107C478.846 329.941 488.571 337.107 492.277 337.757C495.983 338.407 498.142 343.394 503.11 343.394C504.586 343.373 506.036 343.001 507.342 342.31C508.647 341.619 509.77 340.629 510.618 339.42L509.701 329.292Z" fill="#292949"/>
<path fill-rule="evenodd" clip-rule="evenodd" d="M294.94 400.244C294.94 400.244 309.728 403.608 314.485 403.703C319.242 403.799 323.311 407.124 320.331 410.372C316.222 414.233 310.835 416.444 305.2 416.583C298.513 417.003 289.094 417.71 285.216 417.175C282.77 412.761 282.541 403.646 282.541 403.646L294.94 400.244Z" fill="#292949"/>
<path fill-rule="evenodd" clip-rule="evenodd" d="M469.79 347.484C469.79 347.484 455.002 350.866 450.245 350.942C445.488 351.019 441.419 354.382 444.399 357.631C448.507 361.509 453.902 363.735 459.549 363.879C466.217 364.3 475.636 365.007 479.514 364.453C481.96 360.058 482.189 350.923 482.189 350.923L469.79 347.484Z" fill="#292949"/>
<path fill-rule="evenodd" clip-rule="evenodd" d="M253.94 389.199C255.316 387.919 259.156 389.008 266.741 386.83C274.326 384.651 282.159 386.161 283.458 388.014C284.757 389.868 275.071 397.015 271.364 397.569C267.658 398.123 265.499 403.302 260.532 403.302C259.061 403.282 257.616 402.917 256.312 402.237C255.007 401.556 253.881 400.579 253.023 399.384L253.94 389.199Z" fill="#292949"/>
<path fill-rule="evenodd" clip-rule="evenodd" d="M251.17 417.06C251.149 417.517 250.966 417.95 250.654 418.283C250.087 418.879 249.355 419.291 248.552 419.468C247.215 419.84 245.801 419.84 244.464 419.468L227.728 415.054C224.958 414.328 221.729 415.264 221.137 416.965L217.526 427.303C217.086 428.602 215.118 429.481 212.902 429.481H212.138C210.899 429.423 209.716 428.952 208.776 428.144C208.453 427.851 208.232 427.463 208.145 427.035C208.117 426.858 208.117 426.678 208.145 426.5L209.54 419.181L210.151 415.99C210.476 414.232 207.916 412.761 204.878 412.933L186.403 414.118H185.888C185.151 414.118 184.418 414.015 183.71 413.812C183.155 413.702 182.635 413.461 182.193 413.108C181.75 412.756 181.399 412.302 181.169 411.786C180.767 410.353 182.41 408.977 184.894 408.69L202.987 406.588C203.699 406.512 204.395 406.325 205.05 406.034C206.636 405.27 207.266 403.951 206.33 402.767L199.892 394.703L198.593 393.078C198.384 392.811 198.246 392.496 198.191 392.161C198.182 392.085 198.182 392.008 198.191 391.932C198.191 390.938 199.147 390.021 200.77 389.505C201.831 389.162 202.959 389.082 204.057 389.272C205.155 389.461 206.191 389.915 207.075 390.594L216.227 399.9C217.267 400.681 218.503 401.158 219.798 401.279C221.092 401.401 222.396 401.161 223.563 400.588L237.147 393.403C238.168 392.895 239.292 392.63 240.433 392.63C241.573 392.63 242.698 392.895 243.719 393.403C244.126 393.578 244.473 393.869 244.718 394.239C244.962 394.609 245.093 395.042 245.094 395.486C245.045 395.848 244.908 396.192 244.694 396.488C244.481 396.785 244.199 397.025 243.872 397.187L242.802 397.875L231.472 405.117C229.447 406.397 229.982 408.423 232.561 409.302L248.743 414.672C250.291 415.169 251.17 416.105 251.17 417.06Z" fill="#3C3C6D"/>
<path fill-rule="evenodd" clip-rule="evenodd" d="M205.07 406.054L198.65 397.951C198.434 397.681 198.296 397.358 198.249 397.015V392.161C198.304 392.496 198.442 392.811 198.65 393.078L199.949 394.703L206.35 402.786C207.286 403.971 206.655 405.289 205.07 406.054Z" fill="#3C3C6D"/>
<path fill-rule="evenodd" clip-rule="evenodd" d="M236.803 406.379C236.794 406.315 236.794 406.251 236.803 406.187C236.793 406.105 236.793 406.021 236.803 405.939V406.379Z" fill="#3C3C6D"/>
<path fill-rule="evenodd" clip-rule="evenodd" d="M210.17 415.99L209.559 419.182C208.91 418.658 208.164 418.268 207.364 418.035C206.564 417.802 205.725 417.731 204.897 417.825L186.422 418.99H185.906C183.595 418.99 181.57 418.016 181.188 416.678V411.805C181.418 412.322 181.769 412.775 182.211 413.128C182.654 413.48 183.174 413.721 183.728 413.831C184.437 414.034 185.17 414.137 185.906 414.137H186.518L204.992 412.952C207.935 412.761 210.495 414.232 210.17 415.99Z" fill="#3C3C6D"/>
<path fill-rule="evenodd" clip-rule="evenodd" d="M219.761 425.201V426.138C219.647 425.836 219.647 425.503 219.761 425.201Z" fill="#3C3C6D"/>
<path fill-rule="evenodd" clip-rule="evenodd" d="M251.17 417.061V421.972C251.141 422.415 250.958 422.833 250.654 423.157C249.809 423.867 248.8 424.354 247.719 424.575C246.638 424.795 245.519 424.741 244.464 424.418L227.728 419.984C224.958 419.258 221.729 420.195 221.136 421.895L217.526 432.233C217.042 432.994 216.353 433.602 215.538 433.988C214.723 434.373 213.816 434.52 212.921 434.412H212.138C209.941 434.202 208.317 433.17 208.145 431.928V427.093C208.232 427.52 208.453 427.909 208.775 428.201C209.716 429.01 210.899 429.481 212.138 429.539H212.902C215.118 429.539 217.086 428.66 217.526 427.361L221.136 417.022C221.729 415.303 224.958 414.366 227.728 415.112L244.464 419.526C245.801 419.897 247.215 419.897 248.552 419.526C249.355 419.349 250.087 418.936 250.654 418.341C250.979 417.993 251.163 417.537 251.17 417.061Z" fill="#3C3C6D"/>
<path fill-rule="evenodd" clip-rule="evenodd" d="M245.114 395.562V400.282C245.101 400.682 244.981 401.07 244.765 401.406C244.55 401.743 244.248 402.015 243.891 402.193L232.562 409.321C229.983 408.442 229.448 406.417 231.473 405.136L242.821 397.97L243.891 397.282C244.221 397.119 244.505 396.876 244.718 396.576C244.931 396.276 245.067 395.928 245.114 395.562Z" fill="#3C3C6D"/>
<path fill-rule="evenodd" clip-rule="evenodd" d="M250.845 426.023C250.797 426.863 250.501 427.67 249.994 428.341C249.486 429.013 248.791 429.518 247.995 429.793C247.2 430.068 246.341 430.1 245.528 429.885C244.714 429.67 243.983 429.218 243.427 428.586C242.871 427.955 242.515 427.172 242.406 426.337C242.296 425.503 242.436 424.655 242.81 423.901C243.183 423.146 243.772 422.52 244.502 422.102C245.232 421.684 246.07 421.492 246.909 421.551C247.463 421.583 248.004 421.724 248.502 421.967C249.001 422.209 249.446 422.548 249.812 422.964C250.178 423.38 250.458 423.865 250.635 424.39C250.813 424.915 250.884 425.47 250.845 426.023Z" fill="#3C3C6D"/>
<path fill-rule="evenodd" clip-rule="evenodd" d="M217.087 436.514C217.037 437.358 216.736 438.169 216.222 438.841C215.708 439.513 215.005 440.016 214.204 440.286C213.402 440.555 212.538 440.579 211.723 440.353C210.907 440.128 210.178 439.664 209.629 439.021C209.079 438.377 208.734 437.585 208.639 436.744C208.543 435.903 208.701 435.053 209.092 434.303C209.483 433.553 210.089 432.937 210.833 432.534C211.577 432.131 212.424 431.96 213.266 432.042C214.359 432.144 215.369 432.668 216.082 433.503C216.796 434.338 217.156 435.418 217.087 436.514Z" fill="#3C3C6D"/>
<path fill-rule="evenodd" clip-rule="evenodd" d="M189.594 421.284C189.547 422.123 189.251 422.93 188.745 423.601C188.238 424.272 187.544 424.777 186.75 425.053C185.956 425.329 185.098 425.362 184.284 425.149C183.471 424.936 182.74 424.486 182.183 423.856C181.626 423.226 181.268 422.445 181.156 421.612C181.044 420.779 181.182 419.931 181.552 419.176C181.922 418.421 182.509 417.794 183.236 417.373C183.964 416.952 184.801 416.757 185.639 416.812C186.756 416.881 187.801 417.391 188.542 418.229C189.284 419.068 189.662 420.166 189.594 421.284Z" fill="#3C3C6D"/>
<path fill-rule="evenodd" clip-rule="evenodd" d="M205.031 403.589C204.983 404.429 204.687 405.236 204.18 405.907C203.672 406.578 202.977 407.084 202.181 407.358C201.386 407.633 200.527 407.665 199.714 407.45C198.9 407.236 198.169 406.784 197.613 406.152C197.057 405.52 196.702 404.737 196.592 403.903C196.482 403.069 196.622 402.221 196.996 401.466C197.369 400.712 197.958 400.086 198.688 399.668C199.418 399.249 200.256 399.058 201.095 399.117C201.648 399.151 202.188 399.294 202.685 399.537C203.182 399.781 203.626 400.12 203.992 400.535C204.357 400.951 204.637 401.434 204.816 401.958C204.994 402.482 205.067 403.036 205.031 403.589Z" fill="#3C3C6D"/>
<path fill-rule="evenodd" clip-rule="evenodd" d="M246.623 405.461C246.575 406.301 246.279 407.108 245.772 407.78C245.264 408.451 244.569 408.956 243.773 409.231C242.978 409.506 242.119 409.538 241.306 409.323C240.492 409.108 239.761 408.656 239.205 408.024C238.649 407.393 238.293 406.61 238.183 405.776C238.073 404.941 238.214 404.093 238.587 403.339C238.961 402.585 239.55 401.959 240.28 401.54C241.01 401.122 241.848 400.93 242.687 400.99C243.801 401.063 244.84 401.575 245.578 402.413C246.315 403.251 246.691 404.347 246.623 405.461Z" fill="#3C3C6D"/>
<path fill-rule="evenodd" clip-rule="evenodd" d="M223.047 411.805C223.047 417.366 211.183 416.277 211.183 411.805V372.975H223.047V411.805Z" fill="#56548C"/>
<path fill-rule="evenodd" clip-rule="evenodd" d="M208.489 337.91C208.489 337.91 242.554 326.215 256.959 327.954C271.364 329.693 268.136 392.027 268.136 392.027C263.069 392.789 257.918 392.789 252.852 392.027C249.623 374.714 244.426 355.72 244.426 355.72C244.426 355.72 213.266 364.72 208.489 360.191C203.713 355.662 208.489 337.91 208.489 337.91Z" fill="#3C3C6D"/>
<path fill-rule="evenodd" clip-rule="evenodd" d="M208.489 337.91C208.489 337.91 242.554 326.215 256.959 327.954C271.364 329.693 268.136 392.027 268.136 392.027C266.989 394.378 257.59 399.212 252.852 392.027C249.623 374.714 244.426 355.72 244.426 355.72C244.426 355.72 213.266 364.72 208.489 360.191C203.713 355.662 208.489 337.91 208.489 337.91Z" fill="#5D66D3"/>
<path fill-rule="evenodd" clip-rule="evenodd" d="M264.161 372.765C261.162 375.594 224.938 395.696 218.175 399.346C217.77 399.585 217.308 399.711 216.838 399.711C216.367 399.711 215.906 399.585 215.5 399.346C211.679 396.939 209.864 388.416 217.124 383.008C219.264 381.422 257.856 355.471 263.989 357.249H264.18C264.391 357.334 264.586 357.457 264.753 357.612C267.696 360.115 267.314 369.803 264.161 372.765Z" fill="#56548C"/>
<path fill-rule="evenodd" clip-rule="evenodd" d="M263.951 357.229C257.818 355.433 219.226 381.403 217.086 382.989C209.826 388.397 211.679 396.919 215.462 399.327L172.609 374.542L171.138 373.682C167.776 370.816 166.439 362.905 173.335 357.783C175.513 356.178 214.985 329.616 220.41 332.101L220.773 332.311L263.951 357.229Z" fill="#3C3C6D"/>
<path fill-rule="evenodd" clip-rule="evenodd" d="M359.056 180.985C357.91 171.851 353.63 116.587 345.682 110.28C345.682 110.28 340.18 104.452 337.696 106.898L297.576 130.097L299.486 155.092L316.929 212.267L355.865 189.775C358.139 189.183 359.667 185.819 359.056 180.985Z" fill="#3C3C6D"/>
<path fill-rule="evenodd" clip-rule="evenodd" d="M304.97 133.766C313.013 140.072 317.312 195.336 318.458 204.47C319.604 213.604 313.051 217.273 307.11 207.986C301.168 198.699 295.799 146.015 295.799 135.008C295.799 124.001 304.97 133.766 304.97 133.766Z" fill="#46467C"/>
<path fill-rule="evenodd" clip-rule="evenodd" d="M370.042 103.497C358.808 102.923 339.722 116.223 331.087 127.116C322.451 138.008 327.801 149.837 330.705 161.512C333.609 173.188 329.119 202.425 329.1 205.234C342.473 214.139 374.436 215.42 378.104 202.272C379.671 187.94 369.201 172.844 369.068 164.455C369.603 146.435 384.887 108.924 370.042 103.497Z" fill="#F9FBFC"/>
<path fill-rule="evenodd" clip-rule="evenodd" d="M360.222 106.115C366.068 131.511 364.234 158.971 362.935 169.748C361.635 180.526 361.406 216.337 361.406 216.337C370.061 211.961 374.207 203.878 374.398 200.189C374.589 196.501 371.245 165.43 371.494 162.888C371.742 160.347 376.136 136.365 375.678 123.37C375.219 110.376 370.328 108.408 370.328 108.408L359.19 103.42L360.222 106.115Z" fill="#474EBB"/>
<path fill-rule="evenodd" clip-rule="evenodd" d="M361.216 112.478L362.725 113.147C362.533 113.957 362.405 114.781 362.343 115.612C362.352 115.459 362.352 115.306 362.343 115.153L361.216 112.478Z" fill="#FBD15B"/>
<path fill-rule="evenodd" clip-rule="evenodd" d="M343.964 108.771C352.599 127.269 348.434 144.218 348.071 159.429C347.708 174.64 339.799 217.388 339.799 217.388C324.648 213.566 322.833 203.457 319.91 198.279C312.918 162.697 321.821 133.804 328.316 123.122C333.475 114.656 343.964 108.771 343.964 108.771Z" fill="#474EBB"/>
<path fill-rule="evenodd" clip-rule="evenodd" d="M334.469 132.294C320.446 128.778 327.514 161.837 334.469 174.984C337.946 181.615 340.697 185.475 344.881 187.597C346.257 178.653 347.479 169.538 347.957 163.079C344.327 151.174 341.595 135.791 334.469 132.294Z" fill="#474EBB"/>
<path d="M276.656 252.606L284.566 247.064H287.183L286.075 248.746L277.631 254.574L276.656 252.606Z" fill="#3C3C6D"/>
<path fill-rule="evenodd" clip-rule="evenodd" d="M264.257 226.713C263.111 217.56 258.812 162.296 250.769 156.009C250.769 156.009 245.286 150.276 242.802 152.646L202.624 175.806L204.535 200.82L221.958 257.976L260.876 235.503C263.34 234.815 264.849 231.529 264.257 226.713Z" fill="#3C3C6D"/>
<path fill-rule="evenodd" clip-rule="evenodd" d="M210.113 179.628C218.157 185.934 222.436 241.198 223.602 250.332C224.767 259.466 218.195 263.116 212.253 253.829C206.311 244.542 200.943 191.858 200.943 180.851C200.943 169.844 210.113 179.628 210.113 179.628Z" fill="#46467C"/>
<path fill-rule="evenodd" clip-rule="evenodd" d="M516.387 41.3151C507.064 45.9777 489.85 83.7758 492.773 92.6425C495.696 101.509 503.644 96.6364 509.108 88.8207C516.75 78.0813 524.182 54.7298 523.246 48.8823C522.874 47.1271 522.043 45.5019 520.838 44.1726C519.633 42.8432 518.097 41.8572 516.387 41.3151Z" fill="#353A85"/>
<path fill-rule="evenodd" clip-rule="evenodd" d="M518.679 237.453C518.679 237.453 504.217 254.364 500.358 255.492C496.498 256.619 499.975 260.613 502.937 260.9C505.898 261.186 515.317 260.804 518.068 258.11C520.819 255.415 528.557 252.53 528.557 252.53C528.653 247.688 527.943 242.864 526.455 238.255L518.679 237.453Z" fill="#56548C"/>
<path fill-rule="evenodd" clip-rule="evenodd" d="M513.597 118.058C513.597 118.058 511.687 155.474 512.413 167.742C513.139 180.01 516.1 240.911 516.1 240.911C520.345 241.985 524.79 241.985 529.034 240.911C531.652 194.189 531.575 180.775 532.32 173.895C533.065 167.016 533.982 146.817 533.982 146.817C539.561 135.352 533.734 120.217 530.983 116.606C528.232 112.994 513.597 118.058 513.597 118.058Z" fill="#292949"/>
<path fill-rule="evenodd" clip-rule="evenodd" d="M542.312 253.504C541.834 260.346 539.37 268.391 538.739 272.499C538.474 273.843 538.496 275.227 538.806 276.562C539.116 277.896 539.705 279.149 540.535 280.238C541.471 281.557 553.03 277.735 554.616 273.283C556.202 268.83 552.954 264.932 552.705 256.562C548.961 249.893 542.312 253.504 542.312 253.504Z" fill="#56548C"/>
<path fill-rule="evenodd" clip-rule="evenodd" d="M525.614 120.963C525.614 120.963 527.525 155.015 530.754 166.347C533.982 177.679 536.714 210.948 538.033 216.757C539.351 222.567 541.013 258.377 541.013 258.377C545.222 259.477 549.643 259.477 553.852 258.377C553.699 224.821 554.52 197.553 553.852 188.342C553.183 179.131 554.119 151.881 554.119 151.881C557.1 139.174 557.271 137.549 554.119 129.122C550.967 120.695 537.402 114.007 525.614 120.963Z" fill="#292949"/>
<path fill-rule="evenodd" clip-rule="evenodd" d="M519.061 40.1303C529.512 39.6716 553.699 45.0987 561.666 55.2457C569.633 65.3927 558.055 83.4127 555.246 94.2286C552.438 105.044 556.526 132.218 556.526 134.836C544.165 143.034 514.381 144.066 511.037 131.836C509.662 118.459 512.718 102.732 512.948 94.9356C512.508 78.215 505.248 45.1178 519.061 40.1303Z" fill="#F9FBFC"/>
<path fill-rule="evenodd" clip-rule="evenodd" d="M528.022 42.6528C521.316 66.2336 519.731 92.719 520.38 102.732C521.03 112.746 521.316 145.117 521.316 145.117C513.483 140.989 510.063 133.46 510.063 130.02C510.063 126.581 513.006 97.3052 512.91 94.9357C512.815 92.5662 508.974 65.6985 510.063 53.6215C511.152 41.5444 519.062 40.245 519.062 40.245H529.13L528.022 42.6528Z" fill="#353A85"/>
<path fill-rule="evenodd" clip-rule="evenodd" d="M521.545 14.1608C516.96 15.6131 521.545 26.0658 521.545 26.0658V14.1608Z" fill="#3C3C6D"/>
<path fill-rule="evenodd" clip-rule="evenodd" d="M521.316 15.5367C520.334 19.0723 519.966 22.7498 520.227 26.4098C520.876 31.1681 521.316 40.6462 525.519 43.6082C529.722 46.5701 535.778 43.1304 539.771 39.7863C542.275 37.6529 544.308 35.0225 545.742 32.062C547.175 29.1015 547.979 25.8753 548.101 22.588C548.197 14.9443 545.235 5.73363 534.326 6.19225C523.417 6.65087 521.316 15.5367 521.316 15.5367Z" fill="#F7B690"/>
<path fill-rule="evenodd" clip-rule="evenodd" d="M542.522 33.0598C542.522 33.0598 541.663 42.8246 544.223 46.4363C544.414 48.825 537.536 59.0102 530.677 57.233C526.703 56.2011 527.181 51.5003 527.181 51.5003C527.402 47.4585 527.402 43.4076 527.181 39.3659L542.522 33.0598Z" fill="#F7B690"/>
<path fill-rule="evenodd" clip-rule="evenodd" d="M518.622 7.37703C517.075 12.9952 518.851 15.0207 523.589 16.6259C528.327 18.2311 540.918 14.5812 540.918 14.5812C540.271 17.6577 540.633 20.8609 541.949 23.7154C544.032 17.7916 545.923 20.8108 546.114 25.5308C546.305 30.2508 543.65 30.1553 543.65 30.1553C543.55 32.0449 544.066 33.9159 545.121 35.4868C550.184 31.9898 557.081 8.5618 547.948 8.02674C547.834 -0.152023 521.966 -4.66181 518.622 7.37703Z" fill="#292949"/>
<path fill-rule="evenodd" clip-rule="evenodd" d="M544.643 44.8694C536.523 62.0677 532.282 77.6227 532.55 91.7444C532.817 105.866 535.74 147.028 535.74 147.028C549.84 143.607 559.43 139.632 562.182 134.817C556.144 118.918 553.947 108.217 555.189 103.688C556.431 99.1588 567.053 64.6475 561.532 54.4049C556.278 48.6912 544.643 44.8694 544.643 44.8694Z" fill="#353A85"/>
<path fill-rule="evenodd" clip-rule="evenodd" d="M542.848 42.5763C543.387 43.385 543.988 44.1516 544.644 44.8694C544.644 44.8694 541.128 52.5131 539.867 55.9528C538.794 58.3446 537.217 60.4761 535.244 62.2015L530.678 57.214C536.982 53.889 542.848 42.5763 542.848 42.5763Z" fill="#F9FBFC"/>
<path fill-rule="evenodd" clip-rule="evenodd" d="M527.754 45.0414C528.175 44.5063 529.168 54.596 530.677 57.214C529.315 58.6151 527.742 59.795 526.016 60.711C526.016 60.711 524.277 49.3601 527.754 45.0414Z" fill="#F9FBFC"/>
<path fill-rule="evenodd" clip-rule="evenodd" d="M531.079 57.0038L527.258 59.3924C527.77 61.0772 528.091 62.8144 528.213 64.5711H531.862L534.575 60.7492L531.079 57.0038Z" fill="#FF151F"/>
<path fill-rule="evenodd" clip-rule="evenodd" d="M528.136 64.571C522.71 92.7189 523.264 110.108 523.264 110.108L526.016 117.848L531.957 109.191C531.957 109.191 527.659 76.1321 531.785 64.571C531.28 64.1289 530.632 63.8851 529.961 63.8851C529.29 63.8851 528.641 64.1289 528.136 64.571Z" fill="#FF151F"/>
<path fill-rule="evenodd" clip-rule="evenodd" d="M275.243 149.206C263.99 148.652 239.401 156.372 230.766 167.283C222.13 178.195 232.982 195.565 235.905 207.222C238.828 218.878 234.281 248.135 234.281 250.944C247.655 259.849 279.618 261.129 283.286 247.982C284.853 233.669 274.383 218.554 274.249 210.165C274.803 192.164 290.087 154.614 275.243 149.206Z" fill="#F9FBFC"/>
<path fill-rule="evenodd" clip-rule="evenodd" d="M265.423 151.824C271.269 177.239 269.435 204.699 268.136 215.458C266.837 226.216 266.588 262.065 266.588 262.065C275.262 257.689 279.408 249.587 279.599 245.899C279.79 242.211 276.446 211.139 276.695 208.598C276.943 206.056 284.585 176.723 284.127 163.729C283.668 150.735 275.224 149.206 275.224 149.206H264.391L265.423 151.824Z" fill="#FF151F"/>
<path fill-rule="evenodd" clip-rule="evenodd" d="M275.586 122.835C276.163 126.717 276.527 130.627 276.675 134.549C276.847 142.938 275.433 149.837 270.943 153.104C266.454 156.372 258.047 154.213 253.749 150.544C249.45 146.875 246.794 138.39 246.737 130.211C246.68 122.033 249.909 112.077 261.677 112.65C273.446 113.223 275.586 122.835 275.586 122.835Z" fill="#F7B690"/>
<path fill-rule="evenodd" clip-rule="evenodd" d="M250.024 141.409C250.024 141.409 250.884 151.939 248.113 155.799C247.903 158.378 255.259 169.366 262.652 167.494C266.951 166.404 266.473 161.398 266.473 161.398C266.231 157.051 266.231 152.693 266.473 148.346L250.024 141.409Z" fill="#F7B690"/>
<path fill-rule="evenodd" clip-rule="evenodd" d="M274.65 114.484C268.116 105.388 243.872 112.918 245.992 121.478C236.612 124.479 242.687 148.709 253.787 150.544C253.787 150.544 258.946 145.346 258.506 144.066C257.456 144.543 256.023 144.524 255.392 141.581C254.341 136.594 257.456 133.364 261.124 138.963C261.335 135.376 260.68 131.791 259.213 128.511C259.213 128.511 271.784 127.345 275.835 123.81C277.974 121.937 278.318 119.587 274.65 114.484Z" fill="#292949"/>
<path fill-rule="evenodd" clip-rule="evenodd" d="M247.655 154.117C256.309 172.615 253.635 189.928 253.253 205.158C252.87 220.388 244.999 263.097 244.999 263.097C229.849 259.275 228.034 249.166 225.111 243.988C218.118 208.425 222.703 175.94 229.276 165.277C234.434 156.869 247.655 154.117 247.655 154.117Z" fill="#FF151F"/>
<path fill-rule="evenodd" clip-rule="evenodd" d="M253.043 209.133C248.61 196.597 244.866 179.188 237.415 175.519C223.391 172.022 227.575 207.069 234.453 220.216C238.637 228.184 242.821 232.599 249.737 234.586C251.228 225.49 252.527 215.935 253.043 209.133Z" fill="#D81B34"/>
<path fill-rule="evenodd" clip-rule="evenodd" d="M249.565 151.671C248.986 152.53 248.347 153.347 247.654 154.117C247.654 154.117 251.475 162.43 252.755 166.099C253.885 168.681 255.568 170.983 257.684 172.844L262.633 167.494C255.869 163.882 249.565 151.671 249.565 151.671Z" fill="#F9FBFC"/>
<path fill-rule="evenodd" clip-rule="evenodd" d="M265.862 154.404C265.403 153.83 264.276 164.742 262.633 167.493C264.094 169.018 265.782 170.308 267.638 171.315C267.638 171.315 269.568 159.085 265.862 154.404Z" fill="#F9FBFC"/>
<path d="M246.967 250.122L371.609 322.107L525.959 232.962L401.318 160.996L246.967 250.122Z" fill="#83C9FF"/>
<path d="M256.195 252.339C255.011 252.94 253.702 253.253 252.374 253.253C251.046 253.253 249.737 252.94 248.553 252.339C248.092 252.182 247.692 251.885 247.408 251.489C247.125 251.093 246.973 250.618 246.973 250.132C246.973 249.645 247.125 249.17 247.408 248.774C247.692 248.378 248.092 248.081 248.553 247.924C249.738 247.326 251.047 247.015 252.374 247.015C253.701 247.015 255.01 247.326 256.195 247.924C256.656 248.081 257.056 248.378 257.339 248.774C257.623 249.17 257.775 249.645 257.775 250.132C257.775 250.618 257.623 251.093 257.339 251.489C257.056 251.885 256.656 252.182 256.195 252.339Z" fill="#83C9FF"/>
<path d="M524.392 235.178C523.208 235.779 521.899 236.093 520.571 236.093C519.243 236.093 517.934 235.779 516.75 235.178C514.629 233.955 514.629 231.987 516.75 230.783C517.935 230.185 519.243 229.874 520.571 229.874C521.898 229.874 523.207 230.185 524.392 230.783C524.846 230.944 525.239 231.242 525.517 231.635C525.795 232.029 525.944 232.499 525.944 232.981C525.944 233.463 525.795 233.933 525.517 234.326C525.239 234.72 524.846 235.018 524.392 235.178Z" fill="#83C9FF"/>
<path d="M523.361 352.357C522.496 352.795 521.541 353.023 520.571 353.023C519.602 353.023 518.647 352.795 517.782 352.357C517.449 352.24 517.161 352.023 516.957 351.735C516.753 351.448 516.644 351.104 516.644 350.751C516.644 350.399 516.753 350.055 516.957 349.767C517.161 349.48 517.449 349.263 517.782 349.146C518.643 348.708 519.596 348.48 520.562 348.48C521.528 348.48 522.48 348.708 523.342 349.146C523.675 349.261 523.965 349.476 524.17 349.763C524.376 350.049 524.488 350.392 524.49 350.745C524.492 351.097 524.384 351.442 524.182 351.731C523.98 352.019 523.693 352.238 523.361 352.357Z" fill="#878CF0"/>
<path d="M515.164 232.962L516.635 350.732H524.506L525.958 232.962H515.164Z" fill="#878CF0"/>
<path d="M375.047 320.903C373.863 321.504 372.554 321.817 371.226 321.817C369.899 321.817 368.589 321.504 367.405 320.903C365.285 319.68 365.266 317.692 367.405 316.489C368.59 315.891 369.899 315.579 371.226 315.579C372.554 315.579 373.862 315.891 375.047 316.489C377.13 317.731 377.149 319.699 375.047 320.903Z" fill="#83C9FF"/>
<path d="M374.016 438.081C373.15 438.515 372.195 438.74 371.227 438.74C370.258 438.74 369.303 438.515 368.437 438.081C368.107 437.96 367.821 437.74 367.619 437.451C367.418 437.162 367.31 436.818 367.31 436.466C367.31 436.114 367.418 435.77 367.619 435.481C367.821 435.192 368.107 434.973 368.437 434.851C369.302 434.413 370.257 434.185 371.227 434.185C372.196 434.185 373.151 434.413 374.016 434.851C374.355 434.964 374.651 435.18 374.86 435.47C375.07 435.76 375.182 436.108 375.182 436.466C375.182 436.824 375.07 437.172 374.86 437.462C374.651 437.752 374.355 437.969 374.016 438.081Z" fill="#878CF0"/>
<path d="M365.82 318.705L367.291 436.475H375.144L376.615 318.705H365.82Z" fill="#8CABEF"/>
<path d="M404.909 166.251C403.725 166.852 402.416 167.166 401.088 167.166C399.76 167.166 398.451 166.852 397.267 166.251C396.806 166.095 396.406 165.798 396.123 165.402C395.839 165.006 395.687 164.531 395.687 164.044C395.687 163.558 395.839 163.083 396.123 162.687C396.406 162.291 396.806 161.994 397.267 161.837C398.451 161.236 399.76 160.923 401.088 160.923C402.416 160.923 403.725 161.236 404.909 161.837C407.011 163.137 407.011 165.105 404.909 166.251Z" fill="#83C9FF"/>
<path d="M403.877 283.487C403.015 283.92 402.063 284.146 401.098 284.146C400.132 284.146 399.18 283.92 398.318 283.487C396.77 282.589 396.77 281.155 398.318 280.276C399.178 279.834 400.131 279.603 401.098 279.603C402.065 279.603 403.018 279.834 403.877 280.276C405.406 281.175 405.406 282.608 403.877 283.487Z" fill="#83C9FF"/>
<path d="M395.7 164.111L397.152 281.882H405.023L406.475 164.111H395.7Z" fill="#83C9FF"/>
<path d="M566.194 205.865C566.194 219.356 557.979 232.217 541.357 241.829L386.969 330.973C350.077 352.261 285.712 349.605 243.069 324.992C220.258 311.826 208.355 295.048 207.858 278.996V286.009C208.317 302.061 220.239 318.858 243.069 332.043C285.654 356.656 350.058 359.312 386.969 338.025L541.319 248.88C557.998 239.325 566.156 226.369 566.156 212.859V205.846L566.194 205.865Z" fill="#8CABEF"/>
<path d="M243.184 325.107C285.864 349.7 350.191 352.376 387.122 331.069L541.472 241.943C558.131 232.389 566.308 219.452 566.308 205.961C566.308 189.603 554.444 172.328 531.098 158.837C488.512 134.243 424.071 131.568 387.122 152.875L232.848 242.001C215.653 251.899 207.553 265.218 208.011 279.111C208.47 295.143 220.372 311.941 243.184 325.107Z" fill="#5D66D3"/>
<path fill-rule="evenodd" clip-rule="evenodd" d="M519.081 231.854L495.849 218.477L456.607 241.16L453.57 241.599V242.383C453.565 242.538 453.604 242.692 453.681 242.827C453.759 242.962 453.872 243.073 454.009 243.147L477.68 256.81C478.125 257.013 478.61 257.108 479.098 257.088C479.586 257.068 480.062 256.934 480.489 256.696L519.769 234.013C520.266 233.726 520.495 233.344 520.438 233V231.701L519.081 231.854Z" fill="#3C3C6D"/>
<path fill-rule="evenodd" clip-rule="evenodd" d="M495.85 217.139L453.57 241.561L443.673 210.298C443.531 209.86 443.53 209.388 443.671 208.949C443.811 208.51 444.086 208.126 444.457 207.852L484.406 184.787C485.132 184.367 485.934 184.787 486.316 185.724L495.85 217.139Z" fill="#56548C"/>
<path fill-rule="evenodd" clip-rule="evenodd" d="M493.615 215.859L454.583 238.389L445.661 210.757L485.075 187.998L493.615 215.859Z" fill="#E2DFFE"/>
<path fill-rule="evenodd" clip-rule="evenodd" d="M519.769 232.675L480.489 255.358C480.064 255.6 479.587 255.737 479.099 255.757C478.61 255.777 478.124 255.68 477.68 255.473L453.57 241.561L495.849 217.139L519.96 231.07C520.686 231.471 520.591 232.198 519.769 232.675Z" fill="#56548C"/>
<path fill-rule="evenodd" clip-rule="evenodd" d="M519.769 232.675L480.489 255.358C480.064 255.6 479.587 255.737 479.099 255.757C478.61 255.777 478.124 255.68 477.68 255.473L453.57 241.561L495.849 217.139L519.96 231.07C520.686 231.471 520.591 232.198 519.769 232.675Z" fill="#56548C"/>
<path fill-rule="evenodd" clip-rule="evenodd" d="M507.504 226.197L469.255 248.287L457.85 241.695L496.098 219.604L507.504 226.197Z" fill="#112B46"/>
<path fill-rule="evenodd" clip-rule="evenodd" d="M502.173 239.956L493.059 245.211C492.79 245.349 492.492 245.42 492.19 245.42C491.888 245.42 491.59 245.349 491.321 245.211L486.946 242.689C486.506 242.421 486.564 241.981 487.08 241.676L496.193 236.421C496.462 236.283 496.76 236.211 497.062 236.211C497.364 236.211 497.662 236.283 497.931 236.421L502.306 238.943C502.746 239.192 502.688 239.65 502.173 239.956Z" fill="#3C3C6D"/>
<path d="M235.083 300.322C236.057 298.411 254.188 264.473 254.188 264.473L281.145 273.263C281.145 273.263 265.326 315.132 263.187 314.234C261.047 313.336 235.083 300.322 235.083 300.322Z" fill="#F9FBFC"/>
<path d="M291.864 228.395L313.892 211.54L354.109 215.114L331.03 232.408L291.864 228.395Z" fill="#F9FBFC"/>
<path d="M318.821 293.519H318.496C318.448 293.464 318.389 293.419 318.324 293.385L299.888 282.818C299.436 282.606 298.94 282.506 298.441 282.526C297.942 282.546 297.455 282.685 297.022 282.933L272.071 297.341C271.936 297.41 271.813 297.5 271.708 297.609H271.364V298.258C271.37 298.406 271.418 298.55 271.503 298.671C271.588 298.793 271.705 298.888 271.841 298.946L290.316 309.571C290.767 309.774 291.259 309.869 291.753 309.849C292.247 309.829 292.73 309.695 293.163 309.456L318.114 295.029C318.298 294.946 318.46 294.819 318.583 294.659C318.706 294.499 318.788 294.311 318.821 294.112V293.519Z" fill="#A5B7C6"/>
<path d="M290.317 308.998L271.861 298.354C271.135 297.914 271.231 297.188 272.071 296.691L297.022 282.283C297.458 282.04 297.944 281.903 298.442 281.883C298.94 281.863 299.435 281.961 299.888 282.168L318.344 292.812C319.07 293.232 318.993 293.978 318.134 294.455L293.182 308.883C292.747 309.124 292.261 309.261 291.763 309.28C291.265 309.3 290.77 309.203 290.317 308.998Z" fill="#56548C"/>
<path d="M292.169 307.813L273.924 297.264L298.665 282.99L316.91 293.519L292.169 307.813Z" fill="#E2DFFE"/>
<path fill-rule="evenodd" clip-rule="evenodd" d="M278.49 150.601C288.979 155.321 286.591 183.335 294.615 190.367C299.162 194.361 321.515 199.463 327.705 199.578C330.15 204.585 325.794 210.164 325.794 210.164C287.584 207.107 284.967 206.171 276.121 190.769C269.339 178.749 264.467 147.41 278.49 150.601Z" fill="#FF151F"/>
<path d="M326.463 201.126C326.463 201.126 336.78 199.884 338.71 200.782C341.434 202.088 343.998 203.704 346.352 205.597C347.575 206.84 351.472 210.165 348.262 210.986C345.437 210.65 342.672 209.924 340.047 208.827C338.481 208.12 335.653 207.298 335.653 208.005C335.653 208.712 342.856 210.604 341.862 212.209C340.869 213.814 339.111 212.572 334.048 210.872C330.712 209.774 327.303 208.912 323.846 208.292C322.986 204.623 324.075 202.425 326.463 201.126Z" fill="#F7B690"/>
<path d="M310.052 207.126L302.697 216.509C302.616 216.641 302.587 216.799 302.616 216.952C302.644 217.105 302.728 217.241 302.851 217.336C302.974 217.431 303.128 217.477 303.283 217.465C303.438 217.454 303.583 217.385 303.69 217.273L311.046 207.91C311.099 207.845 311.14 207.77 311.164 207.689C311.188 207.609 311.196 207.524 311.187 207.44C311.178 207.357 311.153 207.276 311.112 207.202C311.071 207.128 311.016 207.064 310.95 207.011C310.815 206.91 310.646 206.865 310.478 206.887C310.31 206.908 310.158 206.994 310.052 207.126Z" fill="#3C3C6D"/>
<path fill-rule="evenodd" clip-rule="evenodd" d="M296.296 211.846C299.582 213.509 305.065 212.477 305.065 213.107C304.884 213.853 304.45 214.512 303.836 214.972C303.223 215.432 302.469 215.665 301.703 215.63C299.391 215.63 296.296 211.846 296.296 211.846Z" fill="#FFC8AF"/>
<path fill-rule="evenodd" clip-rule="evenodd" d="M287.183 216.891C289.094 214.789 293.946 209.954 297.825 212.477C300.146 213.967 302.746 214.968 305.467 215.42C306.728 213.509 308.619 214.999 309.88 217.732C311.141 220.464 302.945 223.828 301.684 224.879C300.423 225.93 287.164 223.789 287.164 223.789L287.183 216.891Z" fill="#F7B690"/>
<path fill-rule="evenodd" clip-rule="evenodd" d="M237.415 167.513C247.903 172.672 251.075 205.082 259.08 212.763C263.627 217.12 281.815 213.642 288.024 213.776C290.45 219.222 287.164 225.834 287.164 225.834C252.183 230 243.222 229.045 234.453 212.209C227.575 199.062 223.391 164.016 237.415 167.513Z" fill="#FF151F"/>
<path fill-rule="evenodd" clip-rule="evenodd" d="M531.595 87.5213C530.662 84.0875 528.569 81.0828 525.672 79.0176C524.889 78.4972 524.049 78.0677 523.169 77.7373C522.775 77.5687 522.355 77.4654 521.927 77.4316C521.603 77.4316 520.934 77.2405 520.667 77.4316C520.605 77.5289 520.573 77.6415 520.573 77.7564C520.573 77.8713 520.605 77.9839 520.667 78.0813C521.109 78.8439 521.776 79.4512 522.577 79.8202C523.717 80.5525 524.531 81.6952 524.851 83.0115C523.662 81.5962 522.323 80.3147 520.858 79.1896C519.315 78.2563 517.675 77.4938 515.967 76.9156C515.25 76.5843 514.46 76.446 513.674 76.5143C512.795 76.6481 512.413 77.3742 513.005 78.1004C513.637 78.636 514.354 79.0623 515.126 79.3616C516.06 79.909 516.937 80.5493 517.743 81.2725C518.138 81.6034 518.497 81.9749 518.813 82.3809C519.004 82.6675 519.272 83.2981 519.616 83.451C518.661 83.0497 517.705 82.572 516.807 82.0751C515.909 81.5783 515.183 81.4063 514.362 81.005C513.54 80.6037 513.005 80.126 512.299 79.7438C512.122 79.6226 511.92 79.5425 511.709 79.5094C511.497 79.4763 511.281 79.4911 511.076 79.5527C510.941 79.6372 510.831 79.7561 510.757 79.8971C510.683 80.0381 510.648 80.1962 510.655 80.3553C510.688 80.674 510.792 80.9813 510.961 81.2534C511.381 81.9324 511.974 82.4866 512.681 82.8586C513.274 83.2204 513.842 83.6227 514.381 84.0625C515.132 84.5593 515.858 85.0944 516.559 85.6677C516.903 85.9352 517.247 86.2409 517.572 86.5467C517.896 86.8524 518.145 87.2919 518.45 87.4448C516.998 86.6613 515.585 85.8205 514.19 84.9224C513.653 84.5921 513.142 84.2216 512.662 83.8141C512.135 83.2995 511.472 82.9478 510.751 82.8013C510.579 82.735 510.388 82.735 510.216 82.8013C510.116 82.869 510.041 82.9663 510 83.0795C509.958 83.1927 509.954 83.316 509.987 83.4319C510.044 83.6646 510.155 83.8807 510.312 84.0625C511.155 85.2736 512.129 86.3886 513.216 87.3875C514.162 88.4398 515.33 89.2687 516.635 89.8144C514.91 89.4325 513.307 88.6244 511.974 87.4639C511.411 86.838 510.672 86.3981 509.853 86.2027C509.728 86.1792 509.6 86.1879 509.479 86.2281C509.359 86.2682 509.251 86.3384 509.165 86.432C509.032 86.6613 509.165 86.948 509.299 87.1773C510.2 88.8925 511.555 90.327 513.216 91.324C514.133 91.7635 514.935 92.4706 515.814 92.9865C516.693 93.5025 517.724 94.0757 518.68 94.649C521.001 96.1088 523.507 97.2526 526.131 98.0505C526.85 98.2595 527.598 98.3562 528.347 98.3371C528.676 98.3501 529.004 98.2977 529.312 98.1829C529.62 98.0681 529.903 97.8932 530.143 97.6683C531.159 96.7474 531.86 95.531 532.149 94.1904C532.461 92.6096 532.428 90.9801 532.053 89.4131C531.936 88.7743 531.783 88.1427 531.595 87.5213Z" fill="#F7B690"/>
<path fill-rule="evenodd" clip-rule="evenodd" d="M508.363 88.9354C507.637 84.6931 506.643 79.7438 503.988 76.2659C503.945 76.1831 503.885 76.1098 503.813 76.0507C503.741 75.9916 503.657 75.9478 503.567 75.922C503.147 75.8073 502.86 76.3424 502.822 76.7628C502.826 78.0105 503.1 79.2426 503.625 80.3744C503.979 81.7668 504.044 83.2172 503.816 84.6358L503.567 84.2536C501.447 81.4637 500.396 77.6227 498.982 74.3932C498.81 74.0302 498.562 73.5906 498.161 73.5715C497.759 73.5524 497.358 74.2977 497.358 74.871C497.353 77.3724 497.936 79.84 499.059 82.0752C497.906 80.3708 496.945 78.5443 496.193 76.629C496.002 76.1513 495.734 75.5971 495.238 75.5589C493.193 75.4251 495.772 83.2981 496.155 84.2727C495.084 82.821 494.346 81.1505 493.996 79.3807C493.948 79.0326 493.838 78.6959 493.671 78.3871C493.461 78.0431 492.926 77.7182 492.601 78.0622C492.347 78.5238 492.222 79.0452 492.238 79.5718C492.165 80.7365 492.368 81.9019 492.83 82.9733C493.442 84.5402 494.34 85.9734 494.875 87.5786L492.2 84.2536C492.009 84.0243 491.78 83.7759 491.474 83.8141C491.168 83.8523 490.977 84.4065 491.092 84.7696C491.902 87.33 493.229 89.6973 494.989 91.7253C495.849 92.6999 496.9 93.4452 497.74 94.4388C498.607 95.432 499.693 96.2104 500.912 96.7128C502.172 97.247 503.54 97.4762 504.905 97.3817C505.351 97.4017 505.795 97.3089 506.195 97.1118C506.596 96.9147 506.941 96.6198 507.197 96.2542C507.791 95.5435 508.198 94.6964 508.382 93.7891C508.64 92.181 508.633 90.5415 508.363 88.9354Z" fill="#F7B690"/>
<path fill-rule="evenodd" clip-rule="evenodd" d="M532.321 86.7378L549.668 92.6426C547.949 69.9026 551.961 45.7485 561.456 54.4241C566.939 59.4116 567.187 101.911 563.042 108.178C558.896 114.446 540.708 105.446 528.06 99.0824C527.812 93.6363 532.321 86.7378 532.321 86.7378Z" fill="#353A85"/>
<path fill-rule="evenodd" clip-rule="evenodd" d="M223.907 214.025C228.662 213.19 233.536 213.327 238.236 214.426C241.349 215.216 244.175 216.872 246.386 219.202C248.598 221.532 250.104 224.441 250.731 227.592C252.431 234.281 252.947 245.421 249.107 251.632C246.719 255.454 241.465 254.785 237.644 253.791C232.527 252.624 227.652 250.574 223.238 247.733C217.985 243.759 215.195 235.045 214.889 228.758C214.603 223.35 217.411 215.114 223.964 214.025" fill="#FFC8AF"/>
<path fill-rule="evenodd" clip-rule="evenodd" d="M218.481 215.248C214.278 218.018 214.66 224.363 214.832 228.739C215.138 235.026 217.927 243.739 223.181 247.714C225.152 249.491 227.536 250.746 230.116 251.364C230.892 250.902 231.639 250.391 232.352 249.835C233.426 249.07 234.235 247.989 234.667 246.742C235.098 245.496 235.13 244.145 234.759 242.88C233.975 240.357 233.899 237.319 235.332 236.535C237.682 235.255 239.248 239.803 239.248 239.803C239.732 239.672 240.181 239.438 240.566 239.118C240.95 238.797 241.261 238.397 241.477 237.946C241.693 237.494 241.808 237.001 241.816 236.5C241.824 235.999 241.724 235.503 241.522 235.045C240.862 233.256 240.862 231.291 241.522 229.503C245.668 229.503 247.597 223.923 248.916 223.197C251.705 221.611 252.737 220.98 252.202 218.324C251.966 216.546 251.154 214.895 249.89 213.623C247.339 211.905 244.526 210.614 241.56 209.801C230.021 207.011 221.118 209.075 218.481 215.248Z" fill="#56548C"/>
<path fill-rule="evenodd" clip-rule="evenodd" d="M244.177 256.944C233.822 253.122 221.843 246.262 205.069 259.696C188.295 273.13 192.88 327.534 197.026 339.955C201.171 352.376 229.008 353.331 237.299 352.318C245.591 351.306 237.414 336.878 240.184 327.362C242.954 317.845 264.849 264.607 244.177 256.944Z" fill="#56548C"/>
<path fill-rule="evenodd" clip-rule="evenodd" d="M249.698 259.199C254.074 261.855 265.384 294.952 265.384 294.952L269.491 268.983C269.491 268.983 278.757 264.569 284.145 270.435C280.439 295.602 278.413 321.438 269.491 322.89C260.569 324.342 245.744 300.475 237.777 288.818C229.81 277.162 236.401 251.097 249.698 259.199Z" fill="#56548C"/>
<path d="M277.038 253.351L285.463 247.065L287.661 246.415L286.629 247.905L277.63 254.574L277.038 253.351Z" fill="#3C3C6D"/>
<path fill-rule="evenodd" clip-rule="evenodd" d="M271.383 270.473C271.383 269.671 268.135 261.74 269.472 258.778C270.265 257.043 271.28 255.418 272.491 253.944C273.886 249.396 277.707 249.893 280.706 252.855C283.706 255.817 287.928 263.155 282.617 269.327C281.167 270.791 279.255 271.706 277.205 271.915C275.156 272.124 273.098 271.615 271.383 270.473Z" fill="#FFC8AF"/>
<path fill-rule="evenodd" clip-rule="evenodd" d="M164.299 278.232V278.652C160.994 278.365 157.25 281.155 155.74 285.073C153.008 292.105 156.657 368.695 163.229 367.071C165.331 369.249 210.992 394.684 210.992 394.684L213.629 306.666C213.629 306.666 181.379 278.69 164.299 278.232Z" fill="#46467C"/>
<path fill-rule="evenodd" clip-rule="evenodd" d="M211.03 394.683C204.458 396.308 200.809 319.718 203.521 312.686C206.234 305.653 216.131 302.233 217.831 313.794C219.532 325.355 228.396 390.365 211.03 394.683Z" fill="#EC827D"/>
<path fill-rule="evenodd" clip-rule="evenodd" d="M391.115 166.137C394.382 167.799 399.865 166.767 399.865 167.398C399.684 168.143 399.25 168.802 398.636 169.263C398.023 169.723 397.268 169.955 396.502 169.92C394.191 169.92 391.115 166.137 391.115 166.137Z" fill="#FFC8AF"/>
<path fill-rule="evenodd" clip-rule="evenodd" d="M382.002 171.182C383.913 169.079 388.746 164.226 392.624 166.767C394.945 168.258 397.546 169.259 400.267 169.71C401.547 167.799 403.438 169.29 404.699 172.022C405.96 174.755 397.745 178.118 396.484 179.169C395.223 180.22 381.983 178.08 381.983 178.08L382.002 171.182Z" fill="#FFC8AF"/>
<path fill-rule="evenodd" clip-rule="evenodd" d="M553.585 279.933C553.585 279.933 519.54 268.238 505.134 269.977C490.729 271.716 493.939 334.05 493.939 334.05C499.005 334.812 504.157 334.812 509.223 334.05C512.452 316.737 517.648 297.742 517.648 297.742C517.648 297.742 548.981 306.8 553.661 302.271C558.342 297.742 553.585 279.933 553.585 279.933Z" fill="#292949"/>
<path fill-rule="evenodd" clip-rule="evenodd" d="M510.923 359.083C510.938 359.537 511.114 359.97 511.42 360.306C511.994 360.892 512.723 361.303 513.522 361.491C514.859 361.862 516.273 361.862 517.61 361.491L534.346 357.057C537.136 356.331 540.345 357.287 540.957 358.968L544.567 369.306C545.007 370.587 546.975 371.485 549.191 371.485H549.936C551.182 371.434 552.374 370.962 553.318 370.147C553.638 369.863 553.853 369.479 553.929 369.058C553.967 368.882 553.967 368.699 553.929 368.523L552.534 361.204L551.923 358.013C551.598 356.255 554.158 354.764 557.196 354.955L575.651 356.14H576.263C577.007 356.144 577.748 356.034 578.46 355.815C579.013 355.716 579.533 355.48 579.974 355.13C580.414 354.78 580.76 354.326 580.982 353.809C581.383 352.357 579.74 351 577.275 350.694L559.068 348.63C558.355 348.547 557.659 348.354 557.005 348.057C555.419 347.312 554.789 345.993 555.725 344.808L562.125 336.725L563.405 335.082C563.633 334.824 563.779 334.505 563.825 334.165C563.835 334.095 563.835 334.024 563.825 333.954C563.825 332.942 562.889 332.043 561.246 331.508C560.187 331.173 559.062 331.099 557.968 331.292C556.873 331.485 555.842 331.939 554.961 332.617L545.79 341.904C544.754 342.684 543.521 343.162 542.229 343.284C540.937 343.405 539.637 343.166 538.473 342.592L524.889 335.426C523.898 334.935 522.805 334.686 521.699 334.7C520.519 334.674 519.353 334.957 518.317 335.521C517.909 335.692 517.56 335.979 517.312 336.345C517.064 336.712 516.929 337.143 516.922 337.585C516.978 337.947 517.118 338.291 517.33 338.59C517.542 338.889 517.821 339.133 518.145 339.305L519.234 339.974L530.582 347.14C532.608 348.42 532.054 350.465 529.494 351.344L513.388 356.637C511.783 357.191 510.923 358.128 510.923 359.083Z" fill="#3C3C6D"/>
<path fill-rule="evenodd" clip-rule="evenodd" d="M557.023 348.057L563.423 339.974C563.649 339.7 563.795 339.37 563.844 339.018V334.165C563.797 334.505 563.651 334.824 563.423 335.082L562.143 336.725L555.743 344.808C554.807 345.993 555.437 347.312 557.023 348.057Z" fill="#3C3C6D"/>
<path fill-rule="evenodd" clip-rule="evenodd" d="M525.29 348.401C525.3 348.331 525.3 348.26 525.29 348.191C525.29 348.191 525.29 348.038 525.29 347.942V348.401Z" fill="#3C3C6D"/>
<path fill-rule="evenodd" clip-rule="evenodd" d="M551.922 358.013L552.534 361.204C553.181 360.679 553.927 360.289 554.728 360.056C555.528 359.823 556.367 359.752 557.195 359.847L575.651 361.013H576.262C578.593 361.013 580.618 360.038 580.981 358.682V353.809C580.76 354.326 580.413 354.78 579.973 355.13C579.533 355.48 579.013 355.716 578.459 355.815C577.748 356.034 577.007 356.144 576.262 356.14H575.746L557.291 354.955C554.158 354.764 551.598 356.255 551.922 358.013Z" fill="#3C3C6D"/>
<path fill-rule="evenodd" clip-rule="evenodd" d="M542.331 367.224V368.084C542.407 367.802 542.407 367.505 542.331 367.224Z" fill="#3C3C6D"/>
<path fill-rule="evenodd" clip-rule="evenodd" d="M510.923 359.083V363.994C510.947 364.434 511.122 364.853 511.419 365.179C512.266 365.886 513.275 366.37 514.357 366.587C515.438 366.804 516.556 366.747 517.609 366.421L534.346 362.007C537.135 361.28 540.345 362.217 540.956 363.918L544.567 374.256C545.043 375.02 545.728 375.633 546.54 376.022C547.352 376.411 548.258 376.561 549.152 376.453C549.419 376.453 549.687 376.453 549.935 376.453C552.132 376.262 553.756 375.23 553.928 373.969V369.153C553.852 369.575 553.637 369.958 553.317 370.243C552.373 371.058 551.181 371.529 549.935 371.58H549.19C546.974 371.58 545.006 370.682 544.567 369.402L540.956 359.064C540.345 357.344 537.135 356.388 534.346 357.153L517.609 361.586C516.272 361.958 514.858 361.958 513.521 361.586C512.722 361.398 511.994 360.987 511.419 360.401C511.092 360.041 510.914 359.57 510.923 359.083Z" fill="#3C3C6D"/>
<path fill-rule="evenodd" clip-rule="evenodd" d="M517.036 337.585V342.324C517.06 342.72 517.185 343.104 517.399 343.438C517.613 343.773 517.909 344.047 518.259 344.235L529.607 351.382C532.167 350.503 532.721 348.458 530.696 347.178L519.348 340.012L518.259 339.343C517.93 339.168 517.648 338.917 517.436 338.611C517.223 338.306 517.086 337.954 517.036 337.585Z" fill="#3C3C6D"/>
<path fill-rule="evenodd" clip-rule="evenodd" d="M511.305 368.045C511.352 368.885 511.648 369.691 512.154 370.362C512.66 371.033 513.355 371.539 514.149 371.815C514.943 372.09 515.801 372.124 516.614 371.91C517.428 371.697 518.159 371.247 518.716 370.618C519.273 369.988 519.63 369.207 519.743 368.373C519.855 367.54 519.717 366.692 519.347 365.937C518.976 365.183 518.39 364.555 517.662 364.134C516.935 363.713 516.098 363.518 515.259 363.574C514.142 363.643 513.098 364.152 512.357 364.991C511.615 365.829 511.237 366.928 511.305 368.045Z" fill="#3C3C6D"/>
<path fill-rule="evenodd" clip-rule="evenodd" d="M544.93 378.536C544.978 379.377 545.274 380.184 545.781 380.855C546.289 381.526 546.984 382.031 547.78 382.306C548.575 382.581 549.434 382.613 550.247 382.398C551.061 382.183 551.792 381.731 552.348 381.1C552.904 380.468 553.259 379.685 553.369 378.851C553.479 378.016 553.339 377.168 552.965 376.414C552.592 375.66 552.003 375.034 551.273 374.615C550.543 374.197 549.705 374.005 548.866 374.065C548.313 374.099 547.773 374.242 547.276 374.485C546.779 374.728 546.335 375.067 545.969 375.483C545.604 375.898 545.323 376.382 545.145 376.906C544.967 377.43 544.894 377.984 544.93 378.536Z" fill="#3C3C6D"/>
<path fill-rule="evenodd" clip-rule="evenodd" d="M572.44 363.306C572.487 364.146 572.784 364.953 573.291 365.625C573.798 366.296 574.494 366.801 575.289 367.076C576.085 367.351 576.944 367.383 577.757 367.168C578.571 366.953 579.302 366.501 579.858 365.869C580.414 365.238 580.769 364.455 580.879 363.621C580.989 362.786 580.849 361.938 580.475 361.184C580.102 360.43 579.513 359.804 578.783 359.385C578.053 358.967 577.215 358.775 576.375 358.835C575.823 358.869 575.283 359.011 574.786 359.255C574.289 359.498 573.845 359.837 573.479 360.253C573.113 360.668 572.833 361.152 572.655 361.676C572.477 362.2 572.403 362.754 572.44 363.306Z" fill="#3C3C6D"/>
<path fill-rule="evenodd" clip-rule="evenodd" d="M557.042 345.592C557.093 346.426 557.39 347.226 557.895 347.891C558.401 348.556 559.092 349.056 559.882 349.328C560.671 349.6 561.524 349.632 562.332 349.419C563.139 349.207 563.866 348.759 564.419 348.134C564.973 347.508 565.328 346.732 565.441 345.904C565.553 345.077 565.418 344.234 565.051 343.483C564.685 342.732 564.104 342.107 563.383 341.687C562.661 341.266 561.831 341.069 560.997 341.12C559.88 341.189 558.836 341.699 558.094 342.537C557.353 343.376 556.975 344.474 557.042 345.592Z" fill="#3C3C6D"/>
<path fill-rule="evenodd" clip-rule="evenodd" d="M515.469 347.465C515.52 348.299 515.818 349.1 516.324 349.765C516.831 350.431 517.523 350.93 518.314 351.202C519.105 351.473 519.958 351.503 520.766 351.289C521.574 351.075 522.3 350.625 522.853 349.998C523.405 349.37 523.759 348.592 523.869 347.764C523.979 346.935 523.841 346.092 523.472 345.342C523.102 344.591 522.519 343.968 521.795 343.55C521.071 343.132 520.239 342.938 519.405 342.993C518.291 343.067 517.252 343.579 516.515 344.416C515.777 345.254 515.401 346.35 515.469 347.465Z" fill="#3C3C6D"/>
<path fill-rule="evenodd" clip-rule="evenodd" d="M539.045 353.828C539.045 359.389 550.91 358.299 550.91 353.828V314.998H539.045V353.828Z" fill="#56548C"/>
<path fill-rule="evenodd" clip-rule="evenodd" d="M497.931 314.768C500.95 317.616 537.173 337.7 543.936 341.369C544.339 341.604 544.797 341.727 545.264 341.727C545.731 341.727 546.189 341.604 546.592 341.369C550.413 338.98 552.323 330.457 544.968 325.049C542.828 323.444 504.255 297.494 498.103 299.271H497.912C497.708 299.367 497.52 299.496 497.358 299.653C494.397 302.118 494.779 311.806 497.931 314.768Z" fill="#56548C"/>
<path fill-rule="evenodd" clip-rule="evenodd" d="M498.123 299.233C504.274 297.456 542.848 323.406 544.987 325.011C552.266 330.419 550.394 338.942 546.611 341.33L589.483 316.488L590.954 315.629C594.317 312.743 595.635 304.832 588.738 299.73C586.579 298.105 547.108 271.563 541.663 274.047L541.3 274.257L498.123 299.233Z" fill="#3C3C6D"/>
<path fill-rule="evenodd" clip-rule="evenodd" d="M476.706 239.918C476.122 238.196 475.094 236.66 473.725 235.465C471.662 233.936 468.682 231.777 467.287 232.599C465.892 233.42 470.458 236.975 470.458 236.975C466.689 235.539 462.718 234.701 458.69 234.491C456.569 234.376 450.283 236.784 451.525 238.656C452.767 240.529 457.734 243.147 459.874 244.389C464.163 246.532 468.939 247.514 473.725 247.236C478.654 246.51 476.706 239.918 476.706 239.918Z" fill="#F7B690"/>
<path fill-rule="evenodd" clip-rule="evenodd" d="M553.585 284.461C555.037 307.392 529.169 318.285 491.971 307.889C491.971 307.889 489.411 318.457 482.209 350.312C476.642 351.303 470.944 351.303 465.377 350.312C465.377 350.312 464.288 288.035 482.209 285.34C500.129 282.646 535.97 282.283 535.894 281.404L553.585 284.461Z" fill="#292949"/>
<path fill-rule="evenodd" clip-rule="evenodd" d="M538.166 156.028C533.419 155.187 528.552 155.318 523.856 156.41C520.741 157.207 517.914 158.867 515.7 161.2C513.487 163.532 511.976 166.443 511.343 169.596C509.642 176.284 509.145 187.425 512.966 193.635C515.374 197.457 520.609 196.788 524.43 195.775C529.549 194.617 534.426 192.566 538.835 189.718C544.089 185.743 546.859 177.048 547.184 170.761C547.47 165.353 544.662 157.098 538.09 156.028" fill="#F7B690"/>
<path fill-rule="evenodd" clip-rule="evenodd" d="M543.612 157.27C547.796 160.041 547.433 166.366 547.261 170.761C546.936 177.048 544.166 185.743 538.912 189.718C536.945 191.504 534.56 192.766 531.977 193.387C531.194 192.926 530.44 192.415 529.722 191.858C528.654 191.087 527.85 190.006 527.419 188.761C526.989 187.516 526.952 186.168 527.315 184.902C528.099 182.361 528.175 179.322 526.742 178.558C524.411 177.278 522.921 181.826 522.921 181.826C522.435 181.695 521.984 181.461 521.597 181.139C521.211 180.817 520.899 180.415 520.683 179.961C520.467 179.507 520.352 179.012 520.346 178.509C520.339 178.006 520.442 177.507 520.648 177.048C521.307 175.267 521.307 173.307 520.648 171.526C516.502 171.526 514.572 165.946 513.254 165.2C510.445 163.634 509.433 163.003 509.949 160.328C510.194 158.558 511.005 156.916 512.26 155.646C514.82 153.931 517.639 152.641 520.609 151.824C532.072 149.053 540.956 151.098 543.612 157.27Z" fill="#292949"/>
<path fill-rule="evenodd" clip-rule="evenodd" d="M516.138 198.928C525.099 192.641 536.887 184.348 553.642 197.782C570.397 211.215 569.193 269.556 565.105 281.977C561.016 294.398 533.123 295.449 524.812 294.36C516.501 293.271 524.678 278.996 521.908 269.441C519.138 259.887 498.16 211.559 516.138 198.928Z" fill="#F9FBFC"/>
<path fill-rule="evenodd" clip-rule="evenodd" d="M512.375 211.617C510.886 213.085 509.721 214.849 508.955 216.795C508.783 228.261 512.681 242.249 516.311 253.103C519.119 249.014 521.832 244.79 524.297 241.179C532.321 229.579 525.672 203.514 512.375 211.617Z" fill="#DCE6EA"/>
<path fill-rule="evenodd" clip-rule="evenodd" d="M597.775 220.254V220.675C601.099 220.388 604.824 223.178 606.353 227.095C609.085 234.127 605.417 310.717 598.845 309.093C596.762 311.272 551.082 336.687 551.082 336.687L548.445 248.67C548.445 248.67 580.714 220.713 597.775 220.254Z" fill="#46467C"/>
<path fill-rule="evenodd" clip-rule="evenodd" d="M551.063 336.687C557.635 338.33 561.284 261.74 558.552 254.708C555.82 247.676 545.942 244.255 544.242 255.816C542.542 267.378 533.677 332.387 551.063 336.687Z" fill="#56548C"/>
<path fill-rule="evenodd" clip-rule="evenodd" d="M513.216 202.655C508.841 205.33 496.308 242.669 496.308 242.669L477.432 237.128C474.987 237.128 469.37 241.465 470.555 246.912C482.4 255.836 488.857 259.18 497.818 260.632C506.778 262.084 517.152 243.95 525.138 232.293C533.124 220.636 526.59 194.571 513.216 202.655Z" fill="#F9FBFC"/>
<path fill-rule="evenodd" clip-rule="evenodd" d="M428.504 284.366L405.272 270.99L366.107 293.615L363.088 294.073V294.857C363.079 295.011 363.114 295.164 363.189 295.3C363.263 295.435 363.374 295.546 363.509 295.621L387.122 309.284C387.567 309.487 388.053 309.582 388.54 309.562C389.028 309.542 389.505 309.408 389.931 309.17L429.154 286.487C429.67 286.2 429.88 285.818 429.822 285.474V284.175L428.504 284.366Z" fill="#3C3C6D"/>
<path fill-rule="evenodd" clip-rule="evenodd" d="M405.272 269.652L362.993 294.073L353.096 262.81C352.948 262.373 352.944 261.899 353.085 261.458C353.226 261.018 353.504 260.635 353.88 260.364L393.809 237.28C393.993 237.175 394.199 237.116 394.411 237.11C394.622 237.103 394.832 237.15 395.021 237.244C395.211 237.339 395.374 237.479 395.495 237.652C395.617 237.825 395.694 238.026 395.72 238.236L405.272 269.652Z" fill="#56548C"/>
<path fill-rule="evenodd" clip-rule="evenodd" d="M403.037 268.371L364.005 290.901L355.064 263.269L394.497 240.51L403.037 268.371Z" fill="#E2DFFE"/>
<path fill-rule="evenodd" clip-rule="evenodd" d="M429.153 285.187L389.873 307.87C389.447 308.108 388.97 308.242 388.483 308.262C387.995 308.282 387.509 308.187 387.065 307.985L362.973 294.073L405.253 269.652L429.363 283.563C430.089 283.984 429.994 284.729 429.153 285.187Z" fill="#56548C"/>
<path fill-rule="evenodd" clip-rule="evenodd" d="M429.153 285.187L389.873 307.87C389.447 308.108 388.97 308.242 388.483 308.262C387.995 308.282 387.509 308.187 387.065 307.985L362.973 294.073L405.253 269.652L429.363 283.563C430.089 283.984 429.994 284.729 429.153 285.187Z" fill="#56548C"/>
<path fill-rule="evenodd" clip-rule="evenodd" d="M416.907 278.709L378.659 300.8L367.253 294.207L405.501 272.117L416.907 278.709Z" fill="#112B46"/>
<path fill-rule="evenodd" clip-rule="evenodd" d="M411.596 292.468L402.406 297.723C402.135 297.864 401.834 297.937 401.528 297.937C401.222 297.937 400.92 297.864 400.649 297.723L396.293 295.201C395.834 294.933 395.892 294.475 396.407 294.188L405.521 288.914C405.792 288.773 406.094 288.7 406.399 288.7C406.705 288.7 407.007 288.773 407.278 288.914L411.634 291.436C412.169 291.704 412.112 292.162 411.596 292.468Z" fill="#3C3C6D"/>
<path fill-rule="evenodd" clip-rule="evenodd" d="M208.852 343.968C207.4 366.899 233.268 377.772 270.466 367.376C270.466 367.376 273.026 377.963 280.248 409.818C290.526 411.366 296.697 402.442 296.697 402.442C296.697 402.442 298.169 347.541 280.248 344.808C262.327 342.076 226.467 341.732 226.639 340.872L208.852 343.968Z" fill="#5D66D3"/>
<path fill-rule="evenodd" clip-rule="evenodd" d="M223.907 214.025C228.662 213.19 233.536 213.327 238.236 214.426C241.349 215.216 244.175 216.872 246.386 219.202C248.598 221.532 250.104 224.441 250.731 227.592C252.431 234.281 252.947 245.421 249.107 251.632C246.719 255.454 241.465 254.785 237.644 253.791C232.527 252.624 227.652 250.574 223.238 247.733C217.985 243.759 215.195 235.045 214.889 228.758C214.603 223.35 217.411 215.114 223.964 214.025" fill="#F7B690"/>
<path fill-rule="evenodd" clip-rule="evenodd" d="M218.481 215.248C214.278 218.018 214.182 224.611 214.412 229.006C214.736 235.293 217.927 243.739 223.181 247.714C225.151 249.491 227.536 250.746 230.116 251.364C230.892 250.902 231.639 250.391 232.351 249.835C233.426 249.07 234.235 247.989 234.667 246.742C235.098 245.496 235.13 244.145 234.759 242.88C233.975 240.357 233.899 237.319 235.332 236.535C237.682 235.255 239.248 239.803 239.248 239.803C239.731 239.672 240.181 239.438 240.565 239.118C240.95 238.797 241.261 238.397 241.477 237.946C241.692 237.494 241.808 237.001 241.816 236.5C241.824 235.999 241.723 235.503 241.522 235.045C240.862 233.256 240.862 231.291 241.522 229.503C245.668 229.503 247.597 223.923 248.915 223.197C251.705 221.611 252.736 220.98 252.201 218.324C251.966 216.546 251.154 214.895 249.89 213.623C247.339 211.905 244.526 210.614 241.56 209.801C230.02 207.011 221.117 209.075 218.481 215.248Z" fill="#292949"/>
<path fill-rule="evenodd" clip-rule="evenodd" d="M244.177 256.944C233.822 253.122 221.843 246.262 205.069 259.696C188.295 273.13 192.88 327.534 197.026 339.955C201.171 352.376 229.008 353.331 237.299 352.318C245.591 351.306 237.414 336.878 240.184 327.362C242.954 317.845 264.849 264.607 244.177 256.944Z" fill="#FF151F"/>
<path fill-rule="evenodd" clip-rule="evenodd" d="M249.698 259.199C254.074 261.855 265.384 294.952 265.384 294.952L269.491 268.983C269.491 268.983 278.757 264.569 284.145 270.435C280.439 295.602 278.413 321.438 269.491 322.89C260.569 324.342 245.744 300.475 237.777 288.818C229.81 277.162 236.401 251.097 249.698 259.199Z" fill="#FF151F"/>
<path d="M277.038 253.351L285.463 247.065L287.661 246.415L286.629 247.905L277.63 254.574L277.038 253.351Z" fill="#3C3C6D"/>
<path fill-rule="evenodd" clip-rule="evenodd" d="M271.383 270.473C271.383 269.671 268.135 261.74 269.472 258.778C270.265 257.043 271.28 255.418 272.491 253.944C273.886 249.396 277.707 249.893 280.706 252.855C283.706 255.817 287.928 263.155 282.617 269.327C281.167 270.791 279.255 271.706 277.205 271.915C275.156 272.124 273.098 271.615 271.383 270.473Z" fill="#F7B690"/>
<path fill-rule="evenodd" clip-rule="evenodd" d="M164.299 278.232V278.652C160.994 278.365 157.25 281.155 155.74 285.073C153.008 292.105 156.657 368.695 163.229 367.071C165.331 369.249 210.992 394.684 210.992 394.684L213.629 306.666C213.629 306.666 181.379 278.69 164.299 278.232Z" fill="#46467C"/>
<path fill-rule="evenodd" clip-rule="evenodd" d="M211.03 394.683C204.458 396.308 200.809 319.718 203.521 312.686C206.234 305.653 216.131 302.233 217.831 313.794C219.532 325.355 228.396 390.365 211.03 394.683Z" fill="#56548C"/>
<path fill-rule="evenodd" clip-rule="evenodd" d="M478.273 435.52L463.772 434.221C463.772 434.221 454.506 436.82 449.023 437.603C443.54 438.387 439.604 437.469 438.305 439.514C438.07 439.919 437.963 440.385 437.999 440.852C437.732 443.737 440.273 446.451 441.705 447.483C444.533 449.565 447.647 450.827 456.13 450.081C458.346 449.202 462.32 448.61 463.772 450.827C465.988 451.859 474.471 453.043 478.273 450.827V448.916C480.489 446.623 478.273 435.52 478.273 435.52Z" fill="#292949"/>
<path fill-rule="evenodd" clip-rule="evenodd" d="M484.558 302.042C489.335 326.731 472.217 353.733 473.611 373.663C475.522 400.971 476.553 412.914 479.343 435.157C479.343 435.157 468.243 441.731 460.085 434.221C451.717 390.633 448.01 382.817 449.176 303.074L484.558 302.042Z" fill="#292949"/>
<path fill-rule="evenodd" clip-rule="evenodd" d="M417.155 188.495C412.245 194.227 416.372 217.694 423.25 223.388C430.128 229.083 435.821 227.076 441.782 221.993C447.743 216.91 451.239 204.298 449.806 194.762C447.876 181.806 431.064 172.194 417.155 188.495Z" fill="#F7B690"/>
<path fill-rule="evenodd" clip-rule="evenodd" d="M415.455 190.883C414.768 193.057 414.617 195.365 415.016 197.61C415.502 200.534 416.457 203.36 417.843 205.98C418.627 207.891 418.359 209.286 419.181 210.05C420.002 210.814 419.869 204.642 421.798 203.094C423.728 201.546 426.517 208.235 422.639 212.343C422.066 216.413 427.32 223.274 429.249 224.401C431.179 225.528 439.222 224.305 444.189 219.394C449.157 214.483 450.227 206.591 451.411 196.463C452.596 186.335 444.973 182.896 444.973 182.896C444.858 176.36 423.136 178.176 415.36 181.596C410.66 183.889 415.455 190.883 415.455 190.883Z" fill="#292949"/>
<path fill-rule="evenodd" clip-rule="evenodd" d="M385.632 315.667C385.632 315.667 384.295 316.125 381.123 317.444C376.524 318.856 371.669 319.228 366.909 318.533C362.668 317.864 356.803 316.909 357.93 315.361C359.057 313.813 380.455 308.463 381.353 308.883C382.251 309.303 385.632 315.667 385.632 315.667Z" fill="#F7B690"/>
<path fill-rule="evenodd" clip-rule="evenodd" d="M450.512 448.667L436.012 447.368C436.012 447.368 426.746 449.967 421.262 450.75C415.779 451.534 411.863 450.616 410.564 452.661C410.312 453.059 410.204 453.531 410.258 453.999C409.99 456.884 412.531 459.598 413.945 460.63C416.792 462.712 419.887 463.974 428.389 463.209C430.605 462.349 434.56 461.757 436.031 463.974C438.266 465.006 446.749 466.19 450.531 463.974V462.063C452.729 459.77 450.512 448.667 450.512 448.667Z" fill="#292949"/>
<path fill-rule="evenodd" clip-rule="evenodd" d="M473.63 308.271C475.216 333.438 454.621 360.975 453.417 381.307C451.793 409.149 451.736 428.851 451.678 451.534C451.678 451.534 433.146 460.305 432.325 446.756C429.593 402.308 426.689 390.632 438.171 309.322L473.63 308.271Z" fill="#292949"/>
<path fill-rule="evenodd" clip-rule="evenodd" d="M425.142 227.535C435.497 222.375 452.252 208.234 465.95 226.732C478.789 244.064 484.062 296.156 485.533 306.532C487.443 320.597 448.354 328.107 439.681 327.744C438.797 327.794 437.924 327.524 437.222 326.984C436.521 326.443 436.037 325.669 435.86 324.801C435.134 322.24 437.216 320.387 436.662 318.036C436.233 316.713 435.53 315.495 434.599 314.463C433.668 313.424 433.011 312.17 432.688 310.813C432.363 308.577 433.758 306.475 434.006 304.239C434.09 302.594 433.863 300.947 433.338 299.386C429.803 286.143 423.613 273.894 420.193 260.575C417.863 251.574 414.462 237.261 421.951 229.79C422.823 228.798 423.916 228.026 425.142 227.535Z" fill="#FF151F"/>
<path fill-rule="evenodd" clip-rule="evenodd" d="M418.798 234.51C410.507 260.785 409.743 273.798 401.604 284.194C401.012 284.958 378.678 309.036 378.678 309.036C379.901 310.873 381.498 312.433 383.365 313.611C385.231 314.79 387.325 315.562 389.51 315.877C402.024 310.526 416.258 290.863 419.964 286.64C422.161 284.194 434.503 261.549 436.375 250.026C438.247 238.503 422.257 224.133 418.798 234.51Z" fill="#FF151F"/>
<path fill-rule="evenodd" clip-rule="evenodd" d="M431.829 168.774L408.597 155.397L369.336 178.023L366.298 178.481V179.265C366.295 179.42 366.335 179.573 366.412 179.708C366.49 179.842 366.602 179.953 366.737 180.029L390.409 193.692C390.853 193.895 391.339 193.99 391.827 193.97C392.314 193.95 392.791 193.816 393.217 193.578L432.497 170.895C432.994 170.608 433.223 170.226 433.166 169.863V168.564L431.829 168.774Z" fill="#3C3C6D"/>
<path fill-rule="evenodd" clip-rule="evenodd" d="M432.497 169.596L393.217 192.278C392.791 192.516 392.314 192.651 391.826 192.671C391.339 192.691 390.853 192.595 390.409 192.393L366.298 178.481L408.597 154.06L432.688 167.971C433.414 168.392 433.319 169.118 432.497 169.596Z" fill="#56548C"/>
<path fill-rule="evenodd" clip-rule="evenodd" d="M432.497 169.596L393.217 192.278C392.791 192.516 392.314 192.651 391.826 192.671C391.339 192.691 390.853 192.595 390.409 192.393L366.298 178.481L408.597 154.06L432.688 167.971C433.414 168.392 433.319 169.118 432.497 169.596Z" fill="#56548C"/>
<path fill-rule="evenodd" clip-rule="evenodd" d="M430.338 169.271L392.089 191.342L380.684 184.768L418.932 162.678L430.338 169.271Z" fill="#3C3C6D"/>
<path fill-rule="evenodd" clip-rule="evenodd" d="M403.037 168.43L393.924 173.685C393.655 173.822 393.357 173.894 393.054 173.894C392.752 173.894 392.454 173.822 392.185 173.685L387.81 171.162C387.371 170.895 387.428 170.455 387.944 170.15L397.057 164.895C397.326 164.757 397.624 164.685 397.926 164.685C398.228 164.685 398.526 164.757 398.796 164.895L403.171 167.417C403.61 167.665 403.553 168.162 403.037 168.43Z" fill="#3C3C6D"/>
<path fill-rule="evenodd" clip-rule="evenodd" d="M334.392 123.351C344.881 128.51 345.855 159.353 353.88 167.054C358.427 171.411 376.615 167.933 382.824 168.048C385.25 173.513 381.964 180.125 381.964 180.125C347.307 181.825 343.143 182.895 334.335 166.041C327.457 152.875 320.369 119.854 334.392 123.351Z" fill="#474EBB"/>
<path fill-rule="evenodd" clip-rule="evenodd" d="M404.03 159.296C394.764 154.671 392.853 150.964 388.23 147.142C380.206 140.11 377.034 112.019 370.309 108.503C365.934 107.51 363.623 109.573 362.667 113.242C362.475 114.053 362.348 114.877 362.285 115.707C362.182 121.338 363.108 126.94 365.017 132.237C366.435 136.78 368.432 141.122 370.959 145.155C372.59 147.73 374.363 150.211 376.27 152.588C380.817 158.073 386.74 162.544 399.808 167.494C399.865 167.398 406.456 164.34 404.03 159.296Z" fill="#474EBB"/>
<path fill-rule="evenodd" clip-rule="evenodd" d="M400.248 166.366C401.333 167.93 402.547 169.4 403.878 170.761C405.482 172.672 408.023 175.711 408.826 174.946C409.628 174.182 408.081 171.124 408.081 171.124C410.098 172.984 411.97 174.997 413.678 177.144C414.519 178.653 414.041 174.297 412.819 172.29C415.856 176.895 416.64 178.023 416.831 176.781C417.022 175.539 414.557 169.366 414.92 169.978C418.436 175.252 419.773 175.997 419.41 173.551C418.345 170.435 416.292 167.751 413.564 165.908C419.639 169.844 420.06 169.424 418.55 167.666C414.544 163.783 409.404 161.28 403.878 160.519C399.101 164.933 400.248 166.366 400.248 166.366Z" fill="#F7B690"/>
<path fill-rule="evenodd" clip-rule="evenodd" d="M404.317 176.074C402.406 173.016 399.502 169.538 395.872 168.544C393.317 168.027 390.667 168.246 388.23 169.175C385.926 169.697 383.65 170.335 381.41 171.086C380.534 173.136 380.06 175.335 380.015 177.564C380.45 177.706 380.898 177.802 381.353 177.851C383.455 178.312 385.587 178.625 387.734 178.787C389.385 178.959 391.05 178.959 392.701 178.787C392.166 178.94 391.555 179.207 391.459 179.742C391.454 179.973 391.529 180.199 391.672 180.38C391.815 180.561 392.017 180.687 392.242 180.736C395.337 181.558 397.974 177.774 399.884 176.016C399.674 176.131 406.839 180.01 404.317 176.074Z" fill="#F7B690"/>
<path fill-rule="evenodd" clip-rule="evenodd" d="M371.705 77.6035L371.838 77.7946C372.999 80.013 373.446 82.5357 373.118 85.0179C372.832 89.5277 369.794 95.0694 371.934 99.4263C372.851 101.337 374.723 102.618 375.296 104.605C376.08 107.338 374.093 110.147 371.724 111.694C370.243 112.674 368.563 113.312 366.805 113.563C365.047 113.814 363.256 113.672 361.56 113.147C359.885 112.586 358.396 111.577 357.254 110.229C356.113 108.882 355.362 107.247 355.083 105.503C354.644 101.28 357.242 97.2669 359.611 93.6362C361.313 91.5083 362.485 89.0063 363.031 86.3364C363.165 84.0051 361.923 81.9413 362.381 79.438C362.519 78.532 362.872 77.6722 363.411 76.9307C363.949 76.1893 364.657 75.5878 365.476 75.1766C366.636 74.8311 367.879 74.8822 369.007 75.3217C370.135 75.7612 371.084 76.5641 371.705 77.6035Z" fill="#292949"/>
<path fill-rule="evenodd" clip-rule="evenodd" d="M346.486 97.458C346.486 97.458 349.275 107.127 342.894 111.159C342.703 113.51 349.39 123.504 356.096 121.803C359.917 120.81 361.999 115.23 361.999 115.23C361.392 111.581 360.601 107.964 359.63 104.395L346.486 97.458Z" fill="#F7B690"/>
<path fill-rule="evenodd" clip-rule="evenodd" d="M369.106 77.8328C370.077 81.3702 370.438 85.0471 370.176 88.7059C369.526 93.4642 369.087 102.942 364.884 105.904C360.681 108.866 354.624 105.427 350.631 102.082C348.131 99.9467 346.099 97.3158 344.666 94.3558C343.232 91.3958 342.427 88.1708 342.302 84.8841C342.206 77.2404 345.167 68.0297 356.095 68.5075C367.024 68.9852 369.106 77.8328 369.106 77.8328Z" fill="#F7B690"/>
<path fill-rule="evenodd" clip-rule="evenodd" d="M361.445 73.2085C364.272 76.6672 362.935 80.8522 359.534 83.4701C357.872 84.674 355.904 85.3811 354.242 86.6805C353.363 87.2302 352.644 88.0017 352.158 88.9175C351.672 89.8333 351.435 90.861 351.472 91.8973C351.758 93.8082 353.382 95.4516 352.924 97.2861C352.561 98.7767 350.899 99.7321 350.593 101.261C350.287 102.79 351.472 104.165 352.217 105.541C352.825 106.688 353.156 107.961 353.182 109.259C353.209 110.557 352.931 111.843 352.37 113.013C349.829 118.268 343.314 117.924 338.71 115.727C336.228 114.646 334.199 112.736 332.972 110.323C331.745 107.91 331.396 105.145 331.985 102.503C332.768 99.6557 334.64 97.2288 335.595 94.4388C336.818 90.9036 336.455 87.0436 336.703 83.2981C337.162 76.1895 342.435 68.24 349.962 67.1508C354.758 66.4247 358.464 69.5777 361.445 73.2085Z" fill="#292949"/>
<path fill-rule="evenodd" clip-rule="evenodd" d="M365.17 68.9662C363.03 67.533 354.376 64.8386 354.338 69.2528C354.299 73.667 360.776 78.1004 364.215 80.0686C365.749 80.8337 367.23 81.7019 368.647 82.6675C370.443 84.0625 370.558 86.7187 372.163 87.9225C374.57 85.6103 373.959 79.9158 372.984 77.0685C371.647 73.2657 368.342 71.1255 365.17 68.9662Z" fill="#292949"/>
<path fill-rule="evenodd" clip-rule="evenodd" d="M432.497 169.596L393.217 192.278L407.125 163.098C407.623 162.117 408.359 161.276 409.265 160.652L446.195 139.326C446.921 138.906 447.131 139.326 446.673 140.263L432.497 169.596Z" fill="#56548C"/>
<path fill-rule="evenodd" clip-rule="evenodd" d="M238.102 254.574V252.339C234.598 250.14 230.611 248.828 226.486 248.517C220.545 248.402 217.736 249.778 217.507 250.428C217.313 251.337 217.166 252.255 217.067 253.179L238.102 254.574Z" fill="#FF151F"/>
<path fill-rule="evenodd" clip-rule="evenodd" d="M360.375 107.013C360.138 108.542 360.029 110.089 360.05 111.637C360.28 112.306 361.617 113.089 361.617 113.089H364.196L360.375 107.013Z" fill="#292949"/>
<path fill-rule="evenodd" clip-rule="evenodd" d="M377.684 132.409C377.73 128.656 377.043 124.929 375.659 121.44C375.659 122.052 375.659 122.682 375.774 123.351C375.731 131.895 375.034 140.424 373.691 148.862C374.589 150.123 375.468 151.308 376.423 152.474C377.336 145.825 377.758 139.119 377.684 132.409Z" fill="#474EBB"/>
<path fill-rule="evenodd" clip-rule="evenodd" d="M284.145 164.99C284.145 173.093 281.546 186.259 279.426 196.043C280.231 197.233 281.105 198.375 282.043 199.463C283.954 190.004 285.864 179.016 285.654 172.328C285.598 169.811 285.086 167.325 284.145 164.99Z" fill="#D81B34"/>
<path fill-rule="evenodd" clip-rule="evenodd" d="M290.03 100.783L280.038 95.0121V67.8005L290.03 73.5715V100.783Z" fill="#353A85"/>
<path fill-rule="evenodd" clip-rule="evenodd" d="M274.287 91.6871L264.276 85.9161V48.4047L274.287 54.1757V91.6871Z" fill="#474EBB"/>
<path fill-rule="evenodd" clip-rule="evenodd" d="M305.791 109.898L295.78 104.108V48.9971L305.791 54.7872V109.898Z" fill="#8CABEF"/>
<path fill-rule="evenodd" clip-rule="evenodd" d="M439.967 79.8967C439.844 78.7729 439.425 77.7018 438.754 76.7922C438.083 75.8826 437.183 75.1669 436.146 74.7181C433.363 73.3048 430.287 72.5682 427.166 72.5682C424.046 72.5682 420.969 73.3048 418.187 74.7181C417.156 75.1677 416.268 75.8887 415.615 76.8041C414.962 77.7195 414.57 78.795 414.48 79.9158V91.496C414.605 92.6192 415.024 93.6895 415.695 94.5988C416.366 95.5081 417.265 96.2241 418.301 96.6746C421.089 98.0836 424.168 98.8178 427.29 98.8178C430.413 98.8178 433.492 98.0836 436.279 96.6746C437.311 96.2217 438.201 95.4974 438.854 94.5787C439.506 93.66 439.898 92.5814 439.986 91.4578L439.967 79.8967Z" fill="#292949"/>
<path fill-rule="evenodd" clip-rule="evenodd" d="M450.035 54.1373C451.787 51.4759 453.229 48.6228 454.334 45.6337C455.845 41.2738 456.708 36.7153 456.894 32.1043C457.19 27.5523 456.312 23.0004 454.345 18.8848C452.378 14.7692 449.388 11.2278 445.66 8.59994C445.056 8.17605 444.417 7.80522 443.749 7.4916C436.012 3.82263 420.479 1.9117 408.863 10.0905C402.463 12.8231 395.776 23.6771 398.05 35.8689C399.456 43.4277 402.297 50.6473 406.418 57.1375C410.468 63.4626 413.792 69.2145 414.977 76.5716V76.9347C414.71 78.7118 415.894 80.5272 418.55 81.884C421.274 83.0979 424.222 83.7253 427.204 83.7253C430.186 83.7253 433.135 83.0979 435.859 81.884C438.514 80.5081 439.68 78.6736 439.374 76.8773C440.763 70.8348 443.152 65.067 446.443 59.8128C447.647 57.9018 448.869 56.0291 450.035 54.1373Z" fill="#FF151F"/>
<path d="M424.072 74.2786L419.754 34.0154L422.563 38.4678C422.713 38.7071 422.949 38.8799 423.222 38.9509C423.496 39.022 423.786 38.9859 424.034 38.85L427.74 36.748L430.892 43.2069C431.016 43.454 431.228 43.6458 431.486 43.7448C431.744 43.8438 432.03 43.8428 432.287 43.742L436.108 42.2706L430.606 77.8711C430.581 78.0144 430.586 78.1611 430.619 78.3026C430.652 78.4441 430.713 78.5775 430.799 78.695C430.884 78.8126 430.992 78.9118 431.117 78.9869C431.241 79.062 431.379 79.1115 431.523 79.1323C431.811 79.1764 432.106 79.1048 432.342 78.933C432.578 78.7613 432.737 78.5033 432.784 78.2151L438.515 40.7036C438.551 40.5113 438.532 40.3128 438.462 40.1305C438.391 39.9482 438.27 39.7893 438.114 39.6717C437.962 39.5536 437.781 39.4774 437.59 39.4506C437.399 39.4238 437.204 39.4473 437.025 39.5188L432.402 41.3151L429.154 34.7224C429.014 34.4512 428.774 34.2454 428.485 34.1491C428.343 34.1076 428.193 34.0947 428.046 34.1111C427.898 34.1275 427.755 34.1729 427.625 34.2447L423.804 36.404L419.009 28.7603C418.879 28.5458 418.678 28.383 418.441 28.2994C418.204 28.2158 417.946 28.2166 417.71 28.3017C417.475 28.3861 417.276 28.547 417.145 28.7585C417.013 28.97 416.956 29.2197 416.984 29.4674L421.875 74.527C421.913 74.8161 422.062 75.0791 422.29 75.2608C422.518 75.4425 422.807 75.5288 423.098 75.5016C423.243 75.4874 423.383 75.4442 423.512 75.3746C423.64 75.305 423.753 75.2104 423.843 75.0963C423.934 74.9822 424.001 74.8511 424.041 74.7106C424.08 74.5701 424.09 74.4232 424.072 74.2786Z" fill="white"/>
<path fill-rule="evenodd" clip-rule="evenodd" d="M598.174 184.94C596.785 186.088 595.303 187.117 593.742 188.017C586.1 192.393 579.509 191.839 575.611 187.31L593.742 163.079L598.174 184.94Z" fill="#D81B34"/>
<path fill-rule="evenodd" clip-rule="evenodd" d="M615.484 150.524C615.484 162.563 608.052 176.876 598.175 184.921L593.742 163.06V138.123C605.74 131.186 615.484 136.747 615.484 150.524Z" fill="#8CABEF"/>
<path fill-rule="evenodd" clip-rule="evenodd" d="M593.743 138.123V163.079L575.612 187.272C573.048 183.938 571.766 179.795 572.001 175.596C572.001 161.856 581.745 145.059 593.743 138.123Z" fill="#474EBB"/>
<path fill-rule="evenodd" clip-rule="evenodd" d="M206.388 99.9041C201.535 108.045 206.044 115.535 215.501 116.051C224.576 116.548 234.453 109.745 239.076 102.293C241.827 97.8594 243.547 89.9481 238.159 86.5849C236.38 85.658 234.362 85.2916 232.37 85.5339C222.378 86.1263 211.603 91.1329 206.388 99.9041Z" fill="#E2DFFE"/>
<path fill-rule="evenodd" clip-rule="evenodd" d="M469.522 65.2972C470.289 65.2264 471.063 65.3109 471.796 65.5456C477.279 67.2846 476.114 74.9665 472.254 77.7756C471.232 78.4966 469.976 78.8083 468.734 78.6491C467.493 78.4899 466.357 77.8715 465.549 76.9157C461.632 73.1702 464.536 65.775 469.522 65.2972Z" fill="#EDEEF7"/>
</svg>
