<svg width="180" height="125" viewBox="0 0 180 125" fill="none" xmlns="http://www.w3.org/2000/svg">
<g opacity="0.1">
<path opacity="0.1" d="M166.76 12.1119L139.646 8.37143L139.344 10.495L166.76 12.1119Z" fill="black"/>
</g>
<path d="M133.74 43.1811L123.525 41.8682L115.859 32.3871L113.223 34.8014L121.206 46.1616L131.624 48.7037L135.048 45.8907L134.836 43.1459L133.74 43.1811Z" fill="#3B3387"/>
<path d="M44.4869 35.5328C44.6699 35.4953 48.1471 36.3522 48.1471 36.3522L57.1324 43.0754H69.4522L70.0347 46.5031L55.1082 49.3668L44.4869 35.5328Z" fill="#3B3387"/>
<path d="M62.8725 69.2829L65.2695 91.2213L63.8367 119.938L60.6117 120.244L56.0297 94.3075L49.0709 68.5978L62.8725 69.2829Z" fill="#292949"/>
<path d="M37.981 120.308L40.436 122.98L39.5656 124.253L34.602 122.504L34.9435 119.916L37.981 120.308Z" fill="#242956"/>
<path d="M49.8433 79.1077L44.7457 100.015L38.9229 120.757L34.6288 120L37.6865 98.0942L37.7735 77.4269L44.2525 75.4047L49.8433 79.1077Z" fill="#292949"/>
<path d="M43.8396 35.2442C43.8396 35.2442 49.9236 37.3546 56.0545 47.5803C62.2947 57.9822 65.5889 72.9815 65.5889 72.9815C65.5889 72.9815 37.1754 85.3176 36.546 80.2752C36.546 80.2752 25.5252 41.1126 38.4453 36.8787C39.0345 36.6849 43.4535 35.079 43.8396 35.2442Z" fill="#353A85"/>
<path d="M42.2905 35.5328C45.9039 40.3659 49.4458 46.1638 53.1105 50.9529C55.2843 53.7923 56.1436 57.1077 57.2014 60.445L60.3528 70.3954L61.6919 74.5984L49.6154 78.9645C49.2918 74.7108 49.0753 70.4482 48.6714 66.2011C48.2987 62.2844 48.1223 57.8302 46.4395 54.1999C45.6249 52.4376 44.7835 50.6753 43.9622 48.913C42.4535 45.6792 41.284 42.2758 39.7418 39.0552C39.6324 38.8349 39.3892 36.7774 39.4048 36.5219L42.2905 35.5328Z" fill="white"/>
<path d="M42.5829 36.2377L39.5923 36.7201C39.3762 35.9543 39.2218 35.1727 39.1303 34.3829C38.2376 34.3146 37.1975 34.1384 36.8315 33.3409C36.7298 33.0835 36.6732 32.8108 36.6641 32.5347C36.5585 31.398 36.4551 30.262 36.3539 29.1268C36.2917 28.7354 36.3084 28.3356 36.403 27.9505C36.615 27.2896 37.2533 26.8491 37.8894 26.5693C39.5142 25.8269 41.4603 25.7036 43.0896 26.457C43.5315 26.6406 43.9165 26.9362 44.2055 27.3139C44.6228 27.9109 44.6519 28.6841 44.6519 29.4088C44.6519 30.0785 44.6519 30.7481 44.6519 31.4178C44.6519 32.1866 44.5983 33.0766 43.9689 33.5326C43.6341 33.7727 43.1833 33.8476 42.9043 34.1472C42.4111 34.6781 42.728 35.5328 42.5829 36.2377Z" fill="#EACDB0"/>
<path d="M46.0469 27.6553L44.5962 31.5962L44.5515 28.1465L46.0469 27.6553Z" fill="#292949"/>
<path d="M49.1555 22.8927C48.9675 22.1575 48.6918 21.4469 48.3342 20.7758C47.7606 19.6743 46.2229 19.5179 44.9865 19.7514C42.3306 20.2559 39.4984 19.7514 37.1929 21.3155C35.8761 22.212 33.9523 22.8575 32.8297 23.917C32.3711 24.379 32.034 24.9447 31.8477 25.5648C31.5138 26.6341 31.4901 27.7745 31.7792 28.8564C32.0683 29.9384 32.6588 30.9188 33.4836 31.6865C33.8634 32.0182 34.271 32.3174 34.7022 32.5809C35.5949 33.136 36.6573 33.8277 37.675 33.852C37.4719 33.0105 35.99 30.5829 36.4564 29.726C37.1929 28.3712 39.6256 28.1355 40.9759 28.0672C42.4489 27.9901 43.9553 28.6378 45.3949 28.4836C46.4304 28.3712 47.5687 27.5562 48.2784 26.8248C49.3965 25.6815 49.4836 24.2475 49.1555 22.8927Z" fill="#292949"/>
<path d="M63.8682 119.872L66.8433 121.608L66.4638 122.912L61.3663 122.412L61.0896 120.198L63.8682 119.872Z" fill="#242956"/>
<path d="M64.4373 16.1718C64.6248 17.2732 65.4751 18.1411 66.3254 18.8504C71.972 23.5624 83.2271 27.3073 88.7397 21.8023C87.9586 21.853 86.0303 22.3596 84.4234 22.4191C80.6114 22.5645 77.3038 19.5157 74.514 16.7335C72.8045 15.0263 71.048 9.3671 68.5193 9.17105C66.1089 8.98381 64.0668 13.9447 64.4373 16.1718Z" fill="#D81B34"/>
<path d="M85.7244 14.2861C83.2426 11.3189 81.0376 9.57198 78.2366 7.69735C75.4356 5.82271 72.0075 4.73229 68.8116 5.49448C68.4228 5.56419 68.0573 5.72679 67.747 5.9681C67.4265 6.29918 67.1862 6.69758 67.0439 7.13341C66.0686 9.48828 63.8993 12.8609 64.3657 15.6938C69.7668 13.8411 76.0606 14.2905 81.417 16.5022C85.4164 18.1522 88.5856 22.2032 88.9405 22.1085C92.3262 21.2251 86.8917 15.6849 85.7244 14.2861Z" fill="#FF151F"/>
<path d="M110.514 9.66889C110.688 10.7835 110.15 11.8718 109.567 12.7948C105.695 19.0135 96.1897 26.0406 89.2085 22.5116C89.9651 22.3178 91.9604 22.2054 93.5048 21.767C97.1717 20.7273 99.35 16.8128 101.118 13.3102C102.202 11.1624 102.082 5.24333 104.418 4.27847C106.65 3.35547 110.163 7.4484 110.514 9.66889Z" fill="#D81B34"/>
<path d="M89.6947 14.4425C91.1119 10.8563 92.6586 8.51681 94.723 5.87337C96.7875 3.22993 99.7 1.135 102.981 0.879467C103.372 0.827193 103.77 0.869527 104.141 1.00283C104.549 1.2165 104.903 1.51759 105.177 1.88397C106.849 3.82911 109.984 6.35579 110.431 9.1997C104.708 9.09836 98.8787 11.462 94.4887 15.2157C91.2123 18.0178 89.4849 22.8421 89.1166 22.8641C85.6171 23.0689 89.0274 16.1299 89.6947 14.4425Z" fill="#FF151F"/>
<path d="M55.3255 27.7762L121.581 17.3015L130.532 72.4587L64.2764 82.9334L55.3255 27.7762Z" fill="#8CABEF"/>
<path d="M50.7942 28.4937L126.109 16.5868L128.37 30.5142L53.0544 42.4211L50.7942 28.4937Z" fill="#8CABEF"/>
<path opacity="0.1" d="M57.5856 41.7096L87.9251 36.9118L91.1457 36.3148L91.159 36.4007L121.021 31.6778L91.534 38.7402L97.7742 77.5877L92.0429 78.5041L86.0035 40.139L58.3935 46.6771L57.5856 41.7096Z" fill="black"/>
<path d="M93.875 78.2684L102.075 76.9709L93.009 21.1238C92.9901 20.9912 92.9449 20.8637 92.876 20.7484C92.8071 20.6331 92.7158 20.5323 92.6074 20.4519C92.4989 20.3715 92.3755 20.313 92.2441 20.2797C92.1127 20.2465 91.976 20.2391 91.8418 20.2581L85.644 21.2384C85.3744 21.2861 85.1351 21.4375 84.9786 21.6593C84.8221 21.8811 84.7612 22.1552 84.8093 22.4213L93.875 78.2684Z" fill="#FF151F"/>
<path opacity="0.1" d="M71.9141 63.3836L58.3066 63.3308L57.2598 56.8742L71.0459 60.3789L71.9141 63.3836Z" fill="black"/>
<path d="M36.2646 38.0639C36.2646 38.0639 38.9227 38.9759 39.1147 39.4495C39.3066 39.9231 48.292 53.799 48.292 53.799L66.8452 58.2047L65.9726 62.3901L48.8723 60.5309L42.641 60.1014L32.6424 45.7981L32.9727 40.7646L36.2646 38.0639Z" fill="#353A85"/>
<path d="M66.6983 59.0924H70.6107L73.2197 61.6654L71.9141 63.3836L66.0466 62.0289L66.6983 59.0924Z" fill="#EACDB0"/>
<path d="M148.943 120.693L149.292 122.037L147.044 124.114L145.397 123.136L146.345 121.427L148.593 119.35L148.943 120.693Z" fill="#242956"/>
<path d="M142.48 78.9667L143.54 83.0486L141.962 97.8563L148.966 120.222L146.529 121.482L136.322 100.149L134.249 93.8096L132.178 80.0417L142.48 78.9667Z" fill="#292949"/>
<path d="M123.485 82.8085L125.045 121.942L127.518 122.185L130.453 97.4862L136.704 80.5616L123.485 82.8085Z" fill="#292949"/>
<path d="M127.536 121.879L127.395 123.264L124.581 124.39L123.382 122.872L124.86 121.616L127.536 121.879Z" fill="#242956"/>
<path d="M144.343 74.561C142.219 60.7864 142.978 50.7546 142.868 48.001C142.839 47.1991 142.64 46.4121 142.283 45.6911C141.926 44.9701 141.42 44.3311 140.797 43.8156C139.938 43.6283 139.19 43.082 138.322 42.8661C132.45 41.4078 129.247 45.8334 127.051 50.6048C124.345 56.49 122.065 62.5572 120.229 68.7608C118.613 74.2019 116.997 79.6914 116.318 85.3374C116.039 87.6658 115.807 89.8753 118.389 90.904C122.509 92.5408 127.136 92.5055 131.486 93.0298C136.481 93.6334 141.485 94.074 146.513 94.281C149.14 94.389 146.466 88.3333 144.343 74.561Z" fill="#474EBB"/>
<path d="M139.523 43.375C139.523 43.375 139.34 47.7124 136.702 47.849C134.064 47.9856 132.537 46.7476 132.685 45.2474C132.832 43.7473 133.577 43.0446 133.577 43.0446C133.577 43.0446 136.793 41.6391 139.523 43.375Z" fill="#FFF5CC"/>
<path d="M117.149 42.4409L124.732 51.7018L139.032 45.1593L142.623 45.9325L142.777 47.708L142.219 52.312L124.103 58.7488L119.758 56.6032L113.959 43.7296L117.149 42.4409Z" fill="#474EBB"/>
<path d="M130.176 39.0816C131.582 38.434 132.102 37.1277 132.292 36.3478C132.323 36.1275 132.359 35.9183 132.399 35.7222C132.941 32.9796 134.106 32.4311 134.106 32.4311C134.517 32.0963 134.998 31.8569 135.515 31.7306C136.31 32.4474 136.791 33.4426 136.854 34.504H136.97C136.485 34.5175 136.007 34.6222 135.561 34.8124C135.22 37.1827 134.704 40.954 134.684 42.0555C134.658 43.6988 134.263 43.7297 133.144 44.0909C132.446 44.3112 131.727 44.0425 131.281 43.8023C129.761 43.4631 128.094 40.0398 130.176 39.0816Z" fill="#292949"/>
<path d="M133.49 35.7222C135.251 31.9377 140.094 33.8542 140.724 37.4228C141.083 39.4517 139.992 42.9763 137.539 43.0093C137.414 43.3529 137.202 44.0006 136.869 44.168C136.537 44.3354 135.646 43.8816 135.307 43.7098C135.208 43.6683 135.123 43.6013 135.059 43.516C134.99 43.4036 135.037 43.1569 135.102 42.8881C134.828 42.8001 134.568 42.6788 134.325 42.5269C133.254 41.866 132.676 40.5883 132.62 39.3371C132.564 38.0859 132.961 36.8545 133.49 35.7222Z" fill="#EACDB0"/>
<path d="M136.766 35.0547C134.001 34.0723 134.791 31.9377 134.791 31.9377C137.059 28.7281 141.904 30.812 141.904 30.812C141.904 30.812 144.435 32.1866 144.913 35.1671C144.957 35.438 144.988 35.6936 145.013 35.9337C145.144 36.9784 145.193 38.0316 145.158 39.0838C145.158 40.0442 145.216 40.7712 145.93 41.6722C147.236 43.3221 145.642 44.0491 144.997 44.5359C144.352 45.0227 145.616 48.7412 140.846 47.3379C137.733 45.7519 137.003 45.7475 138.155 44.0777C138.648 43.2714 139.77 42.17 140.281 40.7403C141.087 38.4802 139.534 36.0394 136.766 35.0547Z" fill="#292949"/>
<path d="M116.798 42.5819L115.553 40.1522L112.656 39.7248V43.1569L114.292 43.5953L116.798 42.5819Z" fill="#EACDB0"/>
<g opacity="0.1">
<path opacity="0.1" d="M179.665 66.8333L137.449 61.0133L136.983 64.3176L179.665 66.8333Z" fill="black"/>
</g>
<g opacity="0.1">
<path opacity="0.1" d="M33.2207 58.3457L1.14922 53.9245L0.79213 56.4358L33.2207 58.3457Z" fill="black"/>
</g>
</svg>
