<svg width="20" height="20" viewBox="0 0 20 20" fill="none" xmlns="http://www.w3.org/2000/svg">
<g clip-path="url(#clip0)">
<path d="M4.11523 11.8332C4.13346 11.8211 4.15413 11.8125 4.1735 11.7998C4.15413 11.8132 4.13346 11.8218 4.11523 11.8332Z" fill="#FFCD00"/>
<path d="M9.62695 11.7407C9.65169 11.7306 9.67839 11.7246 9.70394 11.7163C9.67839 11.7246 9.65169 11.7303 9.62695 11.7407Z" fill="#FFCD00"/>
<path d="M9.82617 11.6844C9.85482 11.6794 9.88477 11.6781 9.91455 11.6753C9.88477 11.6781 9.85514 11.6794 9.82617 11.6844Z" fill="#FFCD00"/>
<path d="M15.5742 11.7002C15.5939 11.7052 15.6125 11.7122 15.6318 11.7181C15.6128 11.7111 15.5939 11.7048 15.5742 11.7002Z" fill="#FFCD00"/>
<path d="M14.7812 11.8332C14.7995 11.8211 14.8201 11.8125 14.8395 11.7998C14.8201 11.8132 14.7995 11.8218 14.7812 11.8332Z" fill="#FFCD00"/>
<path d="M4.29297 11.7407C4.31771 11.7306 4.3444 11.7246 4.36995 11.7163C4.3444 11.7246 4.31771 11.7303 4.29297 11.7407Z" fill="#FFCD00"/>
<path d="M15.4064 11.6694C15.3947 11.6694 15.3836 11.6694 15.373 11.6694C15.4064 11.6694 15.4364 11.6748 15.4676 11.6789C15.4463 11.6776 15.4274 11.6709 15.4064 11.6694Z" fill="#FFCD00"/>
<path d="M15.1602 11.6844C15.1888 11.6794 15.2187 11.6781 15.2485 11.6753C15.2187 11.6781 15.1891 11.6794 15.1602 11.6844Z" fill="#FFCD00"/>
<path d="M14.9609 11.7407C14.9857 11.7306 15.0124 11.7246 15.0379 11.7163C15.0124 11.7246 14.9857 11.7303 14.9609 11.7407Z" fill="#FFCD00"/>
<path d="M10.2422 11.7002C10.2619 11.7052 10.2804 11.7122 10.2998 11.7181C10.2808 11.7111 10.2619 11.7048 10.2422 11.7002Z" fill="#FFCD00"/>
<path d="M4.49219 11.6844C4.52083 11.6794 4.55078 11.6781 4.58057 11.6753C4.55078 11.6781 4.52116 11.6794 4.49219 11.6844Z" fill="#FFCD00"/>
<path d="M9.44922 11.8332C9.46745 11.8211 9.48812 11.8125 9.50749 11.7998C9.48812 11.8132 9.46745 11.8218 9.44922 11.8332Z" fill="#FFCD00"/>
<path d="M4.7404 11.6694C4.72868 11.6694 4.71761 11.6694 4.70703 11.6694C4.7404 11.6694 4.77035 11.6748 4.8016 11.6789C4.78027 11.6776 4.76139 11.6709 4.7404 11.6694Z" fill="#FFCD00"/>
<path d="M4.9082 11.7002C4.9279 11.7052 4.94645 11.7122 4.96582 11.7181C4.94678 11.7111 4.9279 11.7048 4.9082 11.7002Z" fill="#FFCD00"/>
<path d="M10.0724 11.6694C10.0607 11.6694 10.0496 11.6694 10.0391 11.6694C10.0724 11.6694 10.1024 11.6748 10.1336 11.6789C10.1123 11.6776 10.0934 11.6709 10.0724 11.6694Z" fill="#FFCD00"/>
<path d="M16.8206 15.1801C16.509 14.8664 16.334 14.4423 16.334 14V12.723C16.3381 12.2732 16.0573 11.8698 15.634 11.7173C15.6146 11.7113 15.596 11.7043 15.5763 11.6994C15.5407 11.6911 15.5046 11.6846 15.4683 11.6801C15.437 11.676 15.4056 11.6721 15.3737 11.6708C15.3317 11.6696 15.2897 11.6711 15.248 11.6753C15.2183 11.6781 15.1883 11.6794 15.1597 11.6845C15.1187 11.6931 15.0783 11.7041 15.0386 11.7177C15.013 11.7261 14.9863 11.732 14.9616 11.7421C14.9201 11.7598 14.8797 11.7803 14.841 11.8038C14.8216 11.8147 14.8009 11.8235 14.7827 11.8371C14.7269 11.8737 14.675 11.9161 14.6276 11.9631C14.4404 12.1495 14.3348 12.4026 14.334 12.6667V13.3334C14.334 14.2538 13.5877 15 12.6673 15C11.7469 15 11.0007 14.2538 11.0007 13.3334V12.723C11.0047 12.2732 10.724 11.8698 10.3006 11.7173C10.2812 11.7113 10.2627 11.7043 10.243 11.6994C10.2074 11.6911 10.1712 11.6846 10.1349 11.6801C10.1037 11.676 10.0723 11.6721 10.0404 11.6708C9.99837 11.6696 9.95638 11.6711 9.91471 11.6753C9.88493 11.6781 9.85498 11.6794 9.82633 11.6845C9.78532 11.6931 9.74495 11.7041 9.70524 11.7177C9.67969 11.7261 9.65299 11.732 9.62825 11.7421C9.58675 11.7598 9.54639 11.7803 9.50765 11.8038C9.48828 11.8147 9.46761 11.8235 9.44938 11.8371C9.39355 11.8737 9.34163 11.9161 9.29427 11.9631C9.1071 12.1495 9.00146 12.4026 9.00065 12.6667V14.6667C9.00065 15.5871 8.25439 16.3334 7.33398 16.3334C6.41357 16.3334 5.66732 15.5871 5.66732 14.6667V12.723C5.67139 12.2732 5.39062 11.8698 4.96728 11.7173C4.94792 11.7113 4.92936 11.7043 4.90967 11.6994C4.87402 11.6911 4.83789 11.6846 4.80159 11.6801C4.77034 11.676 4.73893 11.6721 4.70703 11.6708C4.66504 11.6696 4.62305 11.6711 4.58138 11.6753C4.55159 11.6781 4.52165 11.6794 4.493 11.6845C4.45199 11.6931 4.41162 11.7041 4.37191 11.7177C4.34635 11.7261 4.31966 11.732 4.29492 11.7421C4.25342 11.7598 4.21305 11.7803 4.17432 11.8038C4.15495 11.8147 4.13428 11.8235 4.11605 11.8371C4.06022 11.8737 4.0083 11.9161 3.96094 11.9631C3.77376 12.1495 3.66813 12.4026 3.66732 12.6667V14C3.66862 14.4424 3.49349 14.8672 3.18066 15.1801C2.86784 15.4929 2.44303 15.668 2.00065 15.6667C1.77148 15.6666 1.54476 15.62 1.33398 15.53V19.6667H18.6673V15.53C18.4565 15.62 18.2298 15.6666 18.0007 15.6667C17.5584 15.6667 17.1343 15.4917 16.8206 15.1801Z" fill="#E2DFFE"/>
<path d="M18.334 9.6665H1.66732C0.93099 9.6665 0.333984 10.2635 0.333984 10.9998V13.9998C0.333984 14.4421 0.508952 14.8662 0.820638 15.1799C1.13298 15.4935 1.55811 15.6688 2.00065 15.6665C2.44303 15.6678 2.86784 15.4927 3.18066 15.1799C3.49349 14.867 3.66862 14.4422 3.66732 13.9998V12.6665C3.66732 12.4014 3.77279 12.147 3.96061 11.9598C4.00798 11.9128 4.0599 11.8706 4.11572 11.8338C4.13395 11.8218 4.15462 11.8132 4.17399 11.8005C4.21273 11.7772 4.25309 11.7565 4.2946 11.7388C4.31934 11.7285 4.34603 11.7228 4.37158 11.7145C4.4113 11.701 4.45166 11.6898 4.49268 11.6812C4.52165 11.6761 4.55127 11.6748 4.58105 11.6722C4.61068 11.6694 4.6377 11.6665 4.66732 11.6665C4.68066 11.6665 4.69336 11.6698 4.70671 11.6706C4.72005 11.6712 4.729 11.6681 4.73991 11.6706C4.76091 11.6706 4.77995 11.6785 4.80062 11.6812C4.83691 11.6857 4.87305 11.6922 4.90869 11.7005C4.92839 11.7059 4.94727 11.7122 4.96631 11.7184C5.38232 11.847 5.66634 12.2311 5.66732 12.6665V14.6665C5.66732 15.5869 6.41357 16.3332 7.33398 16.3332C8.25439 16.3332 9.00065 15.5869 9.00065 14.6665V12.6665C9.00065 12.4014 9.10612 12.147 9.29395 11.9598C9.34131 11.9128 9.39323 11.8706 9.44906 11.8338C9.46729 11.8218 9.48796 11.8132 9.50732 11.8005C9.54606 11.7772 9.58643 11.7565 9.62793 11.7388C9.65267 11.7285 9.67936 11.7228 9.70492 11.7145C9.74463 11.701 9.78499 11.6898 9.82601 11.6812C9.85498 11.6761 9.8846 11.6748 9.91439 11.6722C9.94401 11.6694 9.97103 11.6665 10.0007 11.6665C10.014 11.6665 10.0267 11.6698 10.04 11.6706C10.0534 11.6712 10.0623 11.6681 10.0732 11.6706C10.0942 11.6706 10.1133 11.6785 10.134 11.6812C10.1702 11.6857 10.2064 11.6922 10.242 11.7005C10.2617 11.7059 10.2806 11.7122 10.2996 11.7184C10.7157 11.847 10.9997 12.2311 11.0007 12.6665V13.3332C11.0007 14.2536 11.7469 14.9998 12.6673 14.9998C13.5877 14.9998 14.334 14.2536 14.334 13.3332V12.6665C14.334 12.4014 14.4395 12.147 14.6273 11.9598C14.6746 11.9128 14.7266 11.8706 14.7824 11.8338C14.8006 11.8218 14.8213 11.8132 14.8407 11.8005C14.8794 11.7772 14.9198 11.7565 14.9613 11.7388C14.986 11.7285 15.0127 11.7228 15.0382 11.7145C15.078 11.701 15.1183 11.6898 15.1593 11.6812C15.1883 11.6761 15.2179 11.6748 15.2477 11.6722C15.2773 11.6694 15.3044 11.6665 15.334 11.6665C15.3473 11.6665 15.36 11.6698 15.3734 11.6706C15.3867 11.6712 15.3957 11.6681 15.4066 11.6706C15.4276 11.6706 15.4466 11.6785 15.4673 11.6812C15.5036 11.6857 15.5397 11.6922 15.5754 11.7005C15.5951 11.7059 15.6139 11.7122 15.633 11.7184C16.049 11.847 16.333 12.2311 16.334 12.6665V13.9998C16.3327 14.4422 16.5078 14.867 16.8206 15.1799C17.1335 15.4927 17.5583 15.6678 18.0007 15.6665C18.2298 15.6663 18.4565 15.6198 18.6673 15.5298C19.2738 15.2624 19.6659 14.6628 19.6673 13.9998V10.9998C19.6673 10.2635 19.0703 9.6665 18.334 9.6665Z" fill="#5D66D3"/>
<path d="M3.18066 15.18C3.49235 14.8664 3.66732 14.4422 3.66732 14V14.6667C3.66862 15.1091 3.49349 15.5339 3.18066 15.8467C2.86784 16.1595 2.44303 16.3346 2.00065 16.3333C1.55811 16.3356 1.13298 16.1603 0.820638 15.8467C0.508952 15.533 0.333984 15.1089 0.333984 14.6667V14C0.333984 14.4422 0.508952 14.8664 0.820638 15.18C1.13298 15.4937 1.55811 15.6689 2.00065 15.6667C2.44287 15.6667 2.86703 15.4917 3.18066 15.18Z" fill="#474EBB"/>
<path d="M8.5127 15.8465C8.82438 15.5329 8.99935 15.1087 8.99935 14.6665V15.3332C8.99935 16.2536 8.25309 16.9998 7.33268 16.9998C6.41227 16.9998 5.66602 16.2536 5.66602 15.3332V14.6665C5.66683 15.3407 6.07308 15.9481 6.69564 16.2062C7.31836 16.4642 8.03532 16.3224 8.5127 15.8465Z" fill="#474EBB"/>
<path d="M13.8467 14.5135C14.1584 14.1999 14.3333 13.7757 14.3333 13.3335V14.0002C14.3333 14.9206 13.5871 15.6668 12.6667 15.6668C11.7463 15.6668 11 14.9206 11 14.0002V13.3335C11.0008 14.0076 11.4071 14.6151 12.0296 14.8732C12.6523 15.1312 13.3693 14.9894 13.8467 14.5135Z" fill="#474EBB"/>
<path d="M19.6673 14V14.6667C19.6659 15.3296 19.2738 15.9292 18.6673 16.1966C18.4565 16.2866 18.2298 16.3332 18.0007 16.3333C17.5583 16.3346 17.1335 16.1595 16.8206 15.8467C16.5078 15.5339 16.3327 15.109 16.334 14.6667V14C16.3327 14.4424 16.5078 14.8672 16.8206 15.18C17.1335 15.4928 17.5583 15.668 18.0007 15.6667C18.2298 15.6665 18.4565 15.62 18.6673 15.5299C19.2738 15.2625 19.6659 14.6629 19.6673 14Z" fill="#474EBB"/>
<path d="M19.6667 20.0002H0.333333C0.149251 20.0002 0 19.8509 0 19.6668C0 19.4827 0.149251 19.3335 0.333333 19.3335H19.6667C19.8507 19.3335 20 19.4827 20 19.6668C20 19.8509 19.8507 20.0002 19.6667 20.0002Z" fill="#BCBEC0"/>
<path d="M14.627 11.96C14.6743 11.9129 14.7262 11.8708 14.7821 11.834C14.7262 11.8708 14.6743 11.9129 14.627 11.96Z" fill="#FFCD00"/>
<path d="M5.66878 12.723V12.6667C5.66846 12.2311 5.38477 11.8464 4.96875 11.7173C5.39209 11.8698 5.67285 12.2731 5.66878 12.723Z" fill="#FFCD00"/>
<path d="M10.1348 11.6797C10.1711 11.6842 10.2072 11.6908 10.2428 11.6991C10.2072 11.6908 10.1711 11.6842 10.1348 11.6797Z" fill="#FFCD00"/>
<path d="M11.0008 12.723V12.6667C11.0005 12.2311 10.7168 11.8464 10.3008 11.7173C10.7241 11.8698 11.0049 12.2731 11.0008 12.723Z" fill="#FFCD00"/>
<path d="M16.3348 12.723V12.6667C16.3345 12.2311 16.0508 11.8464 15.6348 11.7173C16.0581 11.8698 16.3389 12.2731 16.3348 12.723Z" fill="#FFCD00"/>
<path d="M9.70508 11.716C9.74479 11.7025 9.78516 11.6914 9.82617 11.6826C9.78516 11.6914 9.74479 11.7025 9.70508 11.716Z" fill="#FFCD00"/>
<path d="M4.66829 11.6665C4.63867 11.6665 4.611 11.6729 4.58203 11.6751C4.6237 11.6709 4.66569 11.6694 4.70768 11.6706C4.69434 11.6698 4.68164 11.6665 4.66829 11.6665Z" fill="#FFCD00"/>
<path d="M4.80078 11.6797C4.83708 11.6842 4.87321 11.6908 4.90885 11.6991C4.87321 11.6908 4.83708 11.6842 4.80078 11.6797Z" fill="#FFCD00"/>
<path d="M15.3343 11.6665C15.3047 11.6665 15.277 11.6729 15.248 11.6751C15.2897 11.6709 15.3317 11.6694 15.3737 11.6706C15.3604 11.6698 15.3477 11.6665 15.3343 11.6665Z" fill="#FFCD00"/>
<path d="M4.17383 11.8024C4.21257 11.779 4.25293 11.7585 4.29443 11.7407C4.25293 11.7585 4.21257 11.779 4.17383 11.8024Z" fill="#FFCD00"/>
<path d="M14.8418 11.8024C14.8805 11.779 14.9209 11.7585 14.9624 11.7407C14.9209 11.7585 14.8805 11.779 14.8418 11.8024Z" fill="#FFCD00"/>
<path d="M15.0391 11.716C15.0788 11.7025 15.1191 11.6914 15.1602 11.6826C15.1191 11.6914 15.0788 11.7025 15.0391 11.716Z" fill="#FFCD00"/>
<path d="M3.96094 11.96C4.0083 11.9129 4.06022 11.8708 4.11605 11.834C4.06022 11.8708 4.0083 11.9129 3.96094 11.96Z" fill="#FFCD00"/>
<path d="M4.37305 11.716C4.41276 11.7025 4.45312 11.6914 4.49414 11.6826C4.45312 11.6914 4.41276 11.7025 4.37305 11.716Z" fill="#FFCD00"/>
<path d="M10.0003 11.6665C9.9707 11.6665 9.94303 11.6729 9.91406 11.6751C9.95573 11.6709 9.99772 11.6694 10.0397 11.6706C10.0264 11.6698 10.0137 11.6665 10.0003 11.6665Z" fill="#FFCD00"/>
<path d="M9.29492 11.96C9.34229 11.9129 9.39421 11.8708 9.45003 11.834C9.39421 11.8708 9.34229 11.9129 9.29492 11.96Z" fill="#FFCD00"/>
<path d="M15.4668 11.6797C15.5031 11.6842 15.5392 11.6908 15.5749 11.6991C15.5392 11.6908 15.5031 11.6842 15.4668 11.6797Z" fill="#FFCD00"/>
<path d="M9.50781 11.8024C9.54655 11.779 9.58691 11.7585 9.62842 11.7407C9.58691 11.7585 9.54655 11.779 9.50781 11.8024Z" fill="#FFCD00"/>
<path d="M9 5.3335H11V9.66683H9V5.3335Z" fill="#FF9811"/>
<path d="M8.66602 2.66667C8.66602 3.40299 9.26302 4 9.99935 4C10.7357 4 11.3327 3.40299 11.3327 2.66667C11.3327 1.93034 9.99935 0 9.99935 0C9.99935 0 8.66602 1.93034 8.66602 2.66667Z" fill="#FF151F"/>
<path d="M14.666 6H16.666V9.66667H14.666V6Z" fill="#FF9811"/>
<path d="M14.334 3.33317C14.334 4.0695 14.931 4.6665 15.6673 4.6665C16.4036 4.6665 17.0007 4.0695 17.0007 3.33317C17.0007 2.59684 15.6673 0.666504 15.6673 0.666504C15.6673 0.666504 14.334 2.59684 14.334 3.33317Z" fill="#FF151F"/>
<path d="M3.33398 6H5.33398V9.66667H3.33398V6Z" fill="#FF9811"/>
<path d="M5.66667 3.33317C5.66618 4.00391 5.16846 4.57015 4.50326 4.65658H4.5C4.44466 4.66325 4.389 4.66667 4.33333 4.6665C3.59701 4.6665 3 4.0695 3 3.33317C3 2.59652 4.33333 0.666504 4.33333 0.666504C4.33333 0.666504 4.40006 0.763184 4.5 0.916504C4.86003 1.46322 5.66667 2.75977 5.66667 3.33317Z" fill="#FF151F"/>
<path d="M4.5 4.65658C4.44466 4.66325 4.389 4.66667 4.33333 4.6665C3.59701 4.6665 3 4.0695 3 3.33317C3 2.59652 4.33333 0.666504 4.33333 0.666504C4.33333 0.666504 4.40006 0.763184 4.5 0.916504C4.13997 1.46322 3.33333 2.75977 3.33333 3.33317C3.33415 4.00488 3.83366 4.57145 4.5 4.65658Z" fill="#E5583C"/>
<path d="M10.166 3.99007C10.1107 3.99674 10.055 4.00016 9.99935 4C9.26302 4 8.66602 3.40299 8.66602 2.66667C8.66602 1.93001 9.99935 0 9.99935 0C9.99935 0 10.0661 0.0966797 10.166 0.25C9.80599 0.796712 8.99935 2.09326 8.99935 2.66667C9.00016 3.33838 9.49967 3.90495 10.166 3.99007Z" fill="#FF151F"/>
<path d="M15.834 4.65658C15.7786 4.66325 15.723 4.66667 15.6673 4.6665C14.931 4.6665 14.334 4.0695 14.334 3.33317C14.334 2.59652 15.6673 0.666504 15.6673 0.666504C15.6673 0.666504 15.7341 0.763184 15.834 0.916504C15.474 1.46322 14.6673 2.75977 14.6673 3.33317C14.6681 4.00488 15.1676 4.57145 15.834 4.65658Z" fill="#E5583C"/>
<path d="M3.33398 6H5.33398V6.66667H3.33398V6Z" fill="#E5890F"/>
<path d="M9 5.3335H11V6.00016H9V5.3335Z" fill="#E5890F"/>
<path d="M14.666 6H16.666V6.66667H14.666V6Z" fill="#E5890F"/>
</g>
<defs>
<clipPath id="clip0">
<rect width="20" height="20" fill="white"/>
</clipPath>
</defs>
</svg>
