<svg width="497" height="192" viewBox="0 0 497 192" fill="none" xmlns="http://www.w3.org/2000/svg">
<path d="M182.74 146.069C182.74 146.069 211.922 112.821 175.06 76.788C172.366 74.1541 152.088 52.9312 160.869 37.787C160.879 37.7936 96.8363 115.95 182.74 146.069Z" fill="#D81B34"/>
<path d="M157.395 43.8758C156.82 44.9594 156.333 46.0715 155.824 47.1802C154.874 49.4054 154.049 51.6821 153.354 53.9998C152.701 56.3041 152.167 58.6406 151.753 61C151.373 63.3448 151.112 65.7074 150.97 68.0788C150.845 70.2042 150.833 72.3264 150.907 74.4334C150.183 73.7645 149.45 73.1006 148.708 72.4417C148.007 71.8297 147.304 71.2176 146.578 70.6256C146.219 70.3246 145.857 70.0286 145.486 69.7377C145.115 69.4467 144.746 69.1557 144.366 68.8748C144.634 69.246 144.912 69.6111 145.2 69.9701C145.481 70.3347 145.77 70.6909 146.06 71.0437C146.636 71.7578 147.229 72.4534 147.835 73.1474C148.871 74.3314 149.932 75.4953 151.019 76.6392C151.137 78.4921 151.317 80.3383 151.56 82.1778C151.857 84.509 152.299 86.8134 152.792 89.1061C153.052 90.3201 153.341 91.5275 153.65 92.7299L151.897 92.1513C150.601 91.7265 149.291 91.3269 147.989 90.9121C146.686 90.4974 145.369 90.1161 144.045 89.7415C143.386 89.5509 142.725 89.3636 142.06 89.1863C141.396 89.0091 140.724 88.8301 140.057 88.6646C140.668 88.9522 141.283 89.2309 141.901 89.5007C142.519 89.7783 143.14 90.0442 143.763 90.3084C145.005 90.8469 146.267 91.3469 147.516 91.8637C148.765 92.3804 150.034 92.867 151.303 93.3487C152.234 93.6982 153.164 94.0527 154.097 94.4022C154.236 94.9039 154.378 95.4056 154.526 95.9072C155.872 100.403 157.485 104.815 159.356 109.118C159.633 109.75 159.919 110.379 160.206 111.006L156.717 110.045C154.899 109.543 153.069 109.076 151.246 108.592C149.423 108.107 147.58 107.665 145.743 107.225C144.823 107 143.907 106.777 142.98 106.556C142.053 106.336 141.132 106.13 140.204 105.929C141.081 106.254 141.961 106.57 142.845 106.879C143.726 107.193 144.613 107.496 145.499 107.797C147.271 108.409 149.057 108.983 150.842 109.575C152.626 110.167 154.415 110.724 156.208 111.279L161.026 112.757C161.461 113.675 161.906 114.589 162.361 115.501C163.408 117.605 164.532 119.682 165.692 121.727C166.852 123.773 168.06 125.803 169.332 127.794C169.452 127.983 169.575 128.171 169.697 128.36L166.594 127.508C164.946 127.06 163.286 126.641 161.634 126.204C159.981 125.768 158.315 125.368 156.643 124.973C155.809 124.773 154.974 124.575 154.139 124.388C153.304 124.201 152.461 124.01 151.618 123.834C152.409 124.135 153.205 124.428 154.004 124.711C154.802 125 155.602 125.279 156.405 125.555C158.004 126.117 159.62 126.641 161.23 127.182C162.839 127.724 164.46 128.233 166.085 128.738L170.926 130.231C171.695 131.394 172.481 132.548 173.283 133.693C174.656 135.624 176.06 137.539 177.532 139.403C178.27 140.337 179.015 141.263 179.78 142.178C180.544 143.092 181.329 143.992 182.137 144.873C181.417 143.93 180.731 142.969 180.053 142.002C179.376 141.036 178.701 140.069 178.05 139.091C176.738 137.136 175.449 135.169 174.22 133.171C173.492 132.007 172.779 130.836 172.081 129.659C173.24 127.549 174.38 125.43 175.501 123.304L177.215 120.022L178.9 116.727C180.008 114.526 181.107 112.321 182.167 110.102C183.227 107.882 184.272 105.655 185.244 103.401C183.858 105.521 182.571 107.645 181.304 109.786C180.037 111.926 178.8 114.077 177.579 116.234L175.768 119.478L173.985 122.732C173.023 124.516 172.073 126.3 171.133 128.084C170.952 127.77 170.77 127.457 170.589 127.142C169.435 125.109 168.297 123.07 167.221 121.002C165.694 118.043 164.226 115.06 162.869 112.033C164.113 109.755 165.342 107.47 166.554 105.177L168.485 101.486L170.389 97.7852C171.642 95.3119 172.893 92.8353 174.093 90.3419C175.294 87.8485 176.489 85.3518 177.599 82.825C176.097 85.2013 174.661 87.6044 173.247 90.0158C171.833 92.4272 170.452 94.8604 169.09 97.2902L167.06 100.942L165.056 104.606C164.054 106.475 163.057 108.347 162.063 110.222C161.801 109.613 161.542 109.005 161.29 108.382C159.495 104.121 157.942 99.7609 156.638 95.3236C156.52 94.934 156.411 94.5427 156.304 94.153C157.293 92.357 158.264 90.5543 159.218 88.7449C159.719 87.7983 160.211 86.8518 160.697 85.902L162.148 83.0457C163.099 81.136 164.043 79.2229 164.946 77.2947C165.849 75.3666 166.739 73.4334 167.554 71.4701C166.35 73.2812 165.216 75.1207 164.108 76.9686C162.999 78.8165 161.917 80.6761 160.851 82.5407L159.266 85.3535C158.744 86.2899 158.231 87.2298 157.719 88.1713C157.034 89.4355 156.358 90.7025 155.69 91.9724C155.411 90.8653 155.126 89.7583 154.884 88.6445C154.383 86.397 153.945 84.1293 153.608 81.8534C153.356 80.1811 153.141 78.4954 152.985 76.8047C153.643 75.3298 154.281 73.8481 154.899 72.3598C155.536 70.823 156.163 69.2828 156.757 67.7343C157.351 66.1857 157.926 64.6322 158.476 63.0686C159.027 61.505 159.547 59.9347 159.996 58.3427C159.139 59.8126 158.365 61.3077 157.6 62.806C156.835 64.3044 156.114 65.8161 155.406 67.3312C154.698 68.8463 154.019 70.3698 153.349 71.8982C153.149 72.3631 152.95 72.8314 152.752 73.298C152.752 73.2829 152.752 73.2679 152.752 73.2528L152.712 72.3882L152.695 71.522C152.685 70.9434 152.657 70.3664 152.663 69.7878L152.677 68.0503C152.732 65.7342 152.909 63.4147 153.177 61.097C153.469 58.7694 153.878 56.4582 154.403 54.172C154.949 51.8602 155.615 49.5783 156.398 47.3357C156.815 46.2136 157.218 45.0832 157.7 43.9761C158.136 42.854 158.672 41.7637 159.171 40.6566C158.572 41.7235 157.931 42.7821 157.395 43.8758Z" fill="#FF151F"/>
<path d="M183.207 145.91C183.207 145.91 149.03 160.83 129.624 121.91C128.212 119.055 116.408 97.2752 102 100.444C102 100.444 181.17 69.0386 183.207 145.91Z" fill="#D81B34"/>
<path d="M107.782 99.2067C108.799 99.0244 109.815 98.9174 110.835 98.7936C112.865 98.6025 114.903 98.5255 116.941 98.5628C118.957 98.6298 120.968 98.8006 122.966 99.0745C124.945 99.3727 126.907 99.7707 128.846 100.267C130.581 100.713 132.287 101.25 133.965 101.854C133.612 101.099 133.268 100.339 132.933 99.5729C132.623 98.8505 132.312 98.128 132.025 97.3989C131.876 97.0327 131.731 96.6648 131.594 96.2919C131.457 95.9189 131.319 95.546 131.19 95.1681C131.419 95.4808 131.641 95.7969 131.858 96.1196C132.075 96.4424 132.289 96.7618 132.497 97.0879C132.923 97.735 133.332 98.3956 133.728 99.0578C134.411 100.195 135.071 101.348 135.708 102.518C137.164 103.09 138.598 103.71 140.01 104.377C141.803 105.213 143.538 106.168 145.249 107.153C146.155 107.676 147.05 108.217 147.934 108.777C147.934 108.256 147.93 107.737 147.922 107.219C147.914 106.065 147.922 104.909 147.936 103.755C147.949 102.601 147.969 101.442 148.014 100.282C148.032 99.7016 148.052 99.1214 148.081 98.5411C148.109 97.9608 148.138 97.3705 148.178 96.7952C148.251 97.3627 148.317 97.9301 148.375 98.4976C148.438 99.0645 148.491 99.6331 148.542 100.202C148.653 101.339 148.73 102.481 148.822 103.621C148.914 104.762 148.977 105.906 149.037 107.051C149.079 107.887 149.123 108.724 149.163 109.57C149.531 109.813 149.898 110.058 150.263 110.304C153.521 112.544 156.643 114.977 159.612 117.59C160.048 117.976 160.479 118.368 160.909 118.761L161.035 115.705C161.105 114.113 161.202 112.528 161.278 110.929C161.355 109.331 161.467 107.752 161.589 106.147C161.644 105.351 161.702 104.553 161.771 103.754C161.839 102.954 161.904 102.158 161.981 101.359C162.016 102.148 162.044 102.938 162.065 103.729C162.086 104.519 162.103 105.31 162.116 106.101C162.152 107.683 162.152 109.269 162.168 110.852C162.185 112.436 162.168 114.021 162.153 115.608L162.098 119.864C162.722 120.451 163.341 121.044 163.955 121.645C165.374 123.028 166.749 124.462 168.09 125.926C169.431 127.391 170.751 128.881 172.018 130.418C172.14 130.564 172.259 130.711 172.379 130.858L172.494 128.142C172.561 126.701 172.649 125.258 172.726 123.816C172.803 122.374 172.907 120.928 173.023 119.483C173.077 118.761 173.134 118.038 173.2 117.309C173.267 116.58 173.329 115.863 173.406 115.135C173.443 115.849 173.472 116.564 173.494 117.281C173.517 117.998 173.536 118.714 173.553 119.43C173.591 120.861 173.596 122.296 173.616 123.731C173.636 125.166 173.626 126.6 173.616 128.037L173.568 132.315C174.302 133.233 175.026 134.162 175.738 135.102C176.933 136.704 178.105 138.326 179.224 139.99C179.781 140.825 180.329 141.667 180.87 142.514C181.403 143.367 181.927 144.226 182.425 145.104C181.855 144.283 181.256 143.482 180.66 142.689C180.064 141.897 179.456 141.102 178.842 140.323C177.613 138.763 176.368 137.219 175.08 135.716C174.333 134.832 173.578 133.957 172.815 133.09C170.825 133.481 168.833 133.853 166.84 134.206L163.766 134.741L160.691 135.243C158.641 135.577 156.589 135.885 154.535 136.166C152.482 136.447 150.428 136.716 148.37 136.917C150.406 136.363 152.448 135.877 154.49 135.412C156.532 134.947 158.575 134.504 160.621 134.074L163.679 133.448L166.748 132.853C168.424 132.541 170.103 132.238 171.786 131.943C171.583 131.72 171.378 131.493 171.172 131.263C169.836 129.811 168.501 128.37 167.113 126.973C165.137 124.982 163.12 123.033 161.045 121.162C158.895 121.577 156.747 121.976 154.599 122.361L151.143 122.966L147.683 123.543C145.378 123.916 143.071 124.281 140.762 124.609C138.453 124.936 136.142 125.252 133.828 125.5C136.122 124.9 138.418 124.366 140.715 123.849C143.012 123.333 145.313 122.846 147.613 122.371L151.064 121.677L154.517 121.008C156.275 120.674 158.034 120.353 159.792 120.045C159.372 119.677 158.949 119.313 158.524 118.951C155.567 116.411 152.47 114.04 149.248 111.849C148.966 111.653 148.68 111.465 148.395 111.274C146.701 111.608 145.005 111.926 143.308 112.225C142.421 112.383 141.535 112.538 140.646 112.684L137.975 113.117C136.199 113.391 134.422 113.657 132.643 113.888C130.863 114.118 129.083 114.336 127.3 114.486C129.063 113.985 130.83 113.546 132.598 113.128C134.366 112.71 136.134 112.321 137.903 111.943L140.566 111.396C141.453 111.217 142.339 111.046 143.224 110.876C144.414 110.653 145.604 110.435 146.795 110.222C145.979 109.72 145.166 109.199 144.334 108.717C142.665 107.73 140.957 106.801 139.217 105.943C137.937 105.309 136.645 104.702 135.329 104.142C133.975 104.29 132.623 104.419 131.27 104.536C129.875 104.653 128.479 104.76 127.083 104.841C125.687 104.921 124.293 104.986 122.899 105.023C121.505 105.06 120.11 105.076 118.726 105.023C120.126 104.713 121.525 104.474 122.923 104.245C124.32 104.016 125.719 103.824 127.117 103.645C128.514 103.466 129.911 103.31 131.307 103.167L132.584 103.045L132.549 103.031L131.866 102.777L131.175 102.54C130.714 102.382 130.259 102.205 129.793 102.068L128.379 101.636C126.507 101.085 124.601 100.633 122.674 100.247C120.732 99.8818 118.773 99.6156 116.804 99.4491C114.81 99.2941 112.81 99.2422 110.81 99.2936C109.809 99.3421 108.792 99.3739 107.78 99.4776C106.768 99.5394 105.755 99.6899 104.738 99.812C105.753 99.5996 106.765 99.3588 107.782 99.2067Z" fill="#FF151F"/>
<path d="M359.649 51.4378V127.38C359.422 133.79 358.413 141.014 356.503 147.28C356.503 147.569 355.168 151.461 354.296 153.543C353.763 154.836 353.195 156.092 352.593 157.312C352.515 157.479 352.426 157.636 352.355 157.797C352.216 158.071 352.076 158.345 351.934 158.618C351.652 159.158 351.365 159.693 351.067 160.22C350.927 160.473 350.782 160.722 350.638 160.974C350.628 160.99 350.619 161.007 350.612 161.024C350.461 161.277 350.311 161.526 350.159 161.782C350.053 161.959 349.946 162.135 349.839 162.309C349.048 163.59 348.217 164.825 347.346 166.014C347.191 166.227 347.037 166.438 346.878 166.647C346.745 166.824 346.613 166.998 346.479 167.17L346.339 167.354C346.202 167.521 346.067 167.7 345.932 167.869C345.773 168.07 345.616 168.265 345.456 168.459C345.296 168.653 345.137 168.849 344.977 169.036C344.662 169.414 344.341 169.786 344.014 170.152C343.847 170.334 343.69 170.515 343.528 170.69L343.216 171.025C343.06 171.192 342.905 171.359 342.748 171.526C342.551 171.73 342.354 171.936 342.157 172.138C342.153 172.141 342.149 172.145 342.147 172.15L341.546 172.752C341.294 173.001 341.045 173.254 340.788 173.49C340.533 173.727 340.277 173.966 340.02 174.202C339.763 174.438 339.497 174.677 339.234 174.909H339.225C338.963 175.138 338.699 175.366 338.437 175.592C338.207 175.786 337.977 175.976 337.745 176.169C336.022 177.581 334.213 178.886 332.329 180.073C331.634 180.508 330.974 180.898 330.349 181.244C329.724 181.6 329.136 181.913 328.591 182.185L328.362 182.301C327.114 182.927 325.832 183.482 324.522 183.963C324.483 183.973 170.333 183.963 170.293 183.963V51.4161L359.649 51.4378Z" fill="white"/>
<path d="M360.325 19.9788V51.4445H170.683C170.552 51.4451 170.421 51.4356 170.291 51.4161C169.61 51.3217 168.987 50.9833 168.537 50.4636C168.086 49.9439 167.839 49.2781 167.842 48.5899V19.9788C167.841 18.1756 168.556 16.4459 169.827 15.1697C171.099 13.8935 172.825 13.1752 174.625 13.1726H353.53C354.86 13.1725 356.161 13.5636 357.271 14.2972C358.381 15.0309 359.252 16.0749 359.775 17.2998C360.139 18.1458 360.326 19.0576 360.325 19.9788Z" fill="#474EBB"/>
<path d="M212.921 28.2633C215.889 28.2633 218.295 25.8532 218.295 22.8802C218.295 19.9072 215.889 17.4971 212.921 17.4971C209.953 17.4971 207.547 19.9072 207.547 22.8802C207.547 25.8532 209.953 28.2633 212.921 28.2633Z" fill="url(#paint0_linear)"/>
<path d="M212.919 30.9122C217.348 30.9122 220.938 27.3161 220.938 22.8802C220.938 18.4442 217.348 14.8482 212.919 14.8482C208.49 14.8482 204.9 18.4442 204.9 22.8802C204.9 27.3161 208.49 30.9122 212.919 30.9122Z" fill="url(#paint1_linear)"/>
<path d="M261.511 30.9122C265.94 30.9122 269.53 27.3161 269.53 22.8802C269.53 18.4442 265.94 14.8482 261.511 14.8482C257.082 14.8482 253.492 18.4442 253.492 22.8802C253.492 27.3161 257.082 30.9122 261.511 30.9122Z" fill="url(#paint2_linear)"/>
<path d="M310.78 30.9122C315.209 30.9122 318.799 27.3161 318.799 22.8802C318.799 18.4442 315.209 14.8482 310.78 14.8482C306.352 14.8482 302.762 18.4442 302.762 22.8802C302.762 27.3161 306.352 30.9122 310.78 30.9122Z" fill="url(#paint3_linear)"/>
<path d="M212.921 27.5927C211.673 27.5927 210.476 27.096 209.593 26.212C208.711 25.3279 208.215 24.1288 208.215 22.8785V4.71417C208.215 3.4639 208.711 2.26483 209.593 1.38075C210.476 0.49667 211.673 0 212.921 0V0C214.169 0 215.367 0.49667 216.249 1.38075C217.132 2.26483 217.628 3.4639 217.628 4.71417V22.8802C217.628 23.4992 217.506 24.1121 217.269 24.684C217.033 25.2558 216.686 25.7754 216.249 26.213C215.812 26.6507 215.293 26.9977 214.722 27.2345C214.151 27.4712 213.539 27.5929 212.921 27.5927Z" fill="#89A6EB"/>
<path d="M261.511 27.5927C260.893 27.5931 260.281 27.4715 259.71 27.2348C259.138 26.998 258.619 26.6508 258.182 26.2129C257.745 25.7751 257.398 25.2552 257.162 24.6831C256.926 24.1109 256.804 23.4977 256.805 22.8785V4.71417C256.804 4.09498 256.926 3.48177 257.162 2.90962C257.398 2.33747 257.745 1.81761 258.182 1.37977C258.619 0.94193 259.138 0.594704 259.71 0.357951C260.281 0.121197 260.893 -0.000438583 261.511 1.18823e-06C262.759 0.000444422 263.956 0.497257 264.839 1.38124C265.721 2.26522 266.217 3.46403 266.217 4.71417V22.8802C266.217 24.1301 265.72 25.3284 264.838 26.2121C263.955 27.0957 262.759 27.5923 261.511 27.5927Z" fill="#89A6EB"/>
<path d="M310.781 27.7098C309.533 27.7093 308.336 27.2125 307.453 26.3285C306.571 25.4446 306.075 24.2457 306.074 22.9956V4.82956C306.075 3.57942 306.571 2.38061 307.453 1.49663C308.336 0.612644 309.533 0.115831 310.781 0.115388C311.399 0.114949 312.011 0.236572 312.582 0.473305C313.154 0.710038 313.673 1.05724 314.11 1.49506C314.547 1.93287 314.894 2.45272 315.131 3.02488C315.367 3.59704 315.489 4.21029 315.489 4.82956V22.9956C315.488 24.246 314.992 25.4451 314.109 26.3291C313.226 27.2132 312.029 27.7098 310.781 27.7098Z" fill="#89A6EB"/>
<path d="M364.637 24.8201V54.866L364.443 54.7138L363.023 53.5884L361.583 52.4445L360.323 51.4412V19.9788C360.325 19.0588 360.138 18.1482 359.775 17.3031L364.637 24.8201Z" fill="url(#paint4_linear)"/>
<path opacity="0.59" d="M356.675 152.77H335.088V174.393H356.675V152.77Z" fill="url(#paint5_linear)"/>
<path d="M365 182.321H328.354C328.956 182.017 329.619 181.667 330.327 181.264H363.582L363.023 53.5884L364.444 54.7138L365 182.321Z" fill="url(#paint6_linear)"/>
<path d="M362.143 180.087H332.32C334.205 178.899 336.014 177.595 337.736 176.182C337.968 175.99 338.199 175.799 338.429 175.605C338.691 175.379 338.955 175.152 339.217 174.923H339.225C339.486 174.695 339.75 174.46 340.012 174.215C340.274 173.971 340.513 173.747 340.78 173.503C341.034 173.259 341.281 173.015 341.538 172.765C341.74 172.568 341.938 172.367 342.139 172.163C342.141 172.159 342.145 172.155 342.149 172.152C342.346 171.949 342.543 171.744 342.74 171.54C342.897 171.372 343.052 171.205 343.207 171.038L343.519 170.704C343.686 170.536 343.843 170.347 344.005 170.165C344.331 169.798 344.653 169.426 344.969 169.05C345.136 168.862 345.286 168.668 345.448 168.473C345.61 168.277 345.768 168.08 345.924 167.882C346.059 167.715 346.194 167.548 346.331 167.367L346.471 167.183C346.605 167.016 346.737 166.837 346.87 166.66C347.037 166.451 347.186 166.24 347.338 166.028C348.211 164.837 349.042 163.602 349.83 162.322C349.942 162.148 350.048 161.973 350.151 161.795C350.303 161.546 350.453 161.294 350.603 161.038C350.611 161.02 350.62 161.004 350.63 160.988C350.774 160.738 350.919 160.486 351.059 160.233C351.356 159.71 351.647 159.176 351.926 158.631C352.072 158.359 352.211 158.088 352.346 157.81C352.43 157.655 352.513 157.496 352.585 157.339V157.325C353.187 156.104 353.755 154.848 354.288 153.556C355.154 151.481 356.495 147.583 356.495 147.293C358.405 141.032 359.413 133.808 359.64 127.393V51.4445H360.308L361.569 52.4479L362.143 180.087Z" fill="white"/>
<path d="M363.581 181.264H330.326C330.953 180.913 331.613 180.523 332.306 180.093H362.142L361.583 52.4512L363.022 53.5951L363.581 181.264Z" fill="#89A6EB"/>
<path opacity="0.18" d="M230.209 157.669L230.152 174.729L253.09 174.805L253.146 157.745L230.209 157.669Z" fill="url(#paint7_linear)"/>
<path opacity="0.18" d="M253.537 157.746L253.48 174.806L276.418 174.883L276.474 157.822L253.537 157.746Z" fill="url(#paint8_linear)"/>
<path opacity="0.18" d="M276.863 157.822L276.807 174.882L299.744 174.958L299.801 157.898L276.863 157.822Z" fill="url(#paint9_linear)"/>
<path opacity="0.18" d="M300 158V175.061H322.938V158H300Z" fill="url(#paint10_linear)"/>
<g opacity="0.3">
<path opacity="0.3" d="M183.307 69.9467L182.973 175.03L346.636 175.563L346.97 70.4801L183.307 69.9467ZM346.252 175.175L183.363 174.643L183.697 70.3346L346.586 70.8664L346.252 175.175Z" fill="url(#paint11_linear)"/>
</g>
<g opacity="0.3">
<path opacity="0.3" d="M206.577 87.4705V87.8585L323.203 88.2398V87.8518L206.577 87.4705ZM206.577 87.4705V87.8585L323.203 88.2398V87.8518L206.577 87.4705ZM206.577 87.4705V87.8585L323.203 88.2398V87.8518L206.577 87.4705ZM183.307 69.9467L183.25 87.7832L346.913 88.3167L346.972 70.4801L183.307 69.9467ZM183.641 87.3969L183.697 70.3396L346.586 70.8664L346.531 87.9237L183.641 87.3969ZM206.58 87.4705V87.8585L323.206 88.2398V87.8518L206.58 87.4705ZM206.58 87.4705V87.8585L323.206 88.2398V87.8518L206.58 87.4705Z" fill="url(#paint12_linear)"/>
</g>
<g opacity="0.3">
<path opacity="0.3" d="M229.843 104.998V105.386L299.819 105.613V105.225L229.843 104.998ZM229.843 104.998V105.386L276.494 105.538V105.15L229.843 104.998ZM253.168 105.075V105.461H253.555V105.073L253.168 105.075ZM183.25 87.3953L183.191 105.234L346.855 105.767L346.918 87.9288L183.25 87.3953ZM346.469 105.377L183.579 104.852L183.636 87.795L346.524 88.3251L346.469 105.377ZM253.168 105.075V105.461H253.555V105.073L253.168 105.075ZM229.843 104.998V105.386L276.88 105.54V105.152L229.843 104.998Z" fill="url(#paint13_linear)"/>
</g>
<g opacity="0.3">
<path opacity="0.3" d="M346.799 123.216L183.139 122.682L183.194 104.852L346.857 105.386L346.799 123.216ZM183.519 122.296L346.418 122.828L346.473 105.77L183.584 105.239L183.519 122.296Z" fill="url(#paint14_linear)"/>
</g>
<g opacity="0.3">
<path opacity="0.3" d="M346.742 140.666L183.078 140.137L183.138 122.294L346.802 122.828L346.742 140.666ZM183.462 139.745L346.351 140.276L346.406 123.219L183.522 122.684L183.462 139.745Z" fill="url(#paint15_linear)"/>
</g>
<g opacity="0.3">
<path opacity="0.3" d="M346.685 158.115L183.021 157.581L183.08 139.745L346.743 140.278L346.685 158.115ZM183.405 157.195L346.294 157.725L346.349 140.668L183.472 140.138L183.405 157.195Z" fill="url(#paint16_linear)"/>
</g>
<g opacity="0.3">
<path opacity="0.3" d="M346.628 175.565L182.965 175.03L183.023 157.195L346.687 157.728L346.628 175.565ZM183.349 174.643L346.238 175.175L346.293 158.118L183.404 157.588L183.349 174.643Z" fill="url(#paint17_linear)"/>
</g>
<path opacity="0.3" d="M206.575 87.8585L206.346 157.658H206.733L206.96 87.8585H206.575ZM183.307 69.9467L182.973 175.03L206.68 175.108L207.014 70.0236L183.307 69.9467ZM206.293 174.719L183.355 174.643L183.689 70.3346L206.626 70.4099L206.293 174.719ZM206.575 87.8585L206.346 157.658H206.733L206.96 87.8585H206.575Z" fill="url(#paint18_linear)"/>
<path opacity="0.3" d="M229.842 105.386L229.728 140.283H230.115L230.229 105.386H229.842ZM229.842 105.386L229.785 122.834H230.172L230.229 105.386H229.842ZM206.635 70.0219L206.293 175.107L230 175.184L230.334 70.1005L206.635 70.0219ZM229.62 174.794L206.679 174.72L207.013 70.4116L229.95 70.4868L229.62 174.794ZM229.845 105.394L229.733 139.903H230.12L230.232 105.394H229.845Z" fill="url(#paint19_linear)"/>
<path opacity="0.3" d="M229.957 70.0988L229.623 175.182L253.33 175.261L253.672 70.1758L229.957 70.0988ZM252.941 174.871L230.004 174.796L230.338 70.4868L253.275 70.5621L252.941 174.871Z" fill="url(#paint20_linear)"/>
<path opacity="0.3" d="M253.283 70.1741L252.949 175.259L276.656 175.336L276.99 70.2527L253.283 70.1741ZM276.267 174.946L253.33 174.873L253.664 70.5637L276.601 70.639L276.267 174.946Z" fill="url(#paint21_linear)"/>
<path opacity="0.3" d="M276.551 88.0876L276.437 122.987H276.823L276.936 88.086L276.551 88.0876ZM276.607 70.251L276.273 175.334L299.981 175.411L300.315 70.328L276.607 70.251ZM299.593 175.023L276.654 174.948L276.988 70.639L299.927 70.7143L299.593 175.023ZM276.554 88.0876L276.44 122.987H276.826L276.94 88.086L276.554 88.0876Z" fill="url(#paint22_linear)"/>
<g opacity="0.3">
<path opacity="0.3" d="M299.875 88.1629L299.708 140.505H300.095L300.262 88.1629H299.875ZM299.932 70.3263L299.598 175.411L323.305 175.488L323.639 70.4032L299.932 70.3263ZM322.918 175.098L299.98 175.025L300.314 70.7159L323.251 70.7912L322.918 175.098Z" fill="url(#paint23_linear)"/>
</g>
<g opacity="0.3">
<path opacity="0.3" d="M346.627 175.565L322.92 175.486L323.254 70.4032L346.961 70.4801L346.627 175.565ZM323.304 175.1L346.241 175.175L346.575 70.8664L323.638 70.7912L323.304 175.1Z" fill="url(#paint24_linear)"/>
</g>
<g filter="url(#filter0_d)">
<path d="M359.651 127.38C359.424 133.786 358.44 140.925 356.505 147.28C356.505 147.559 350.922 169.678 330.329 181.269C327.903 182.645 325.662 183.61 324.539 183.98C330.294 181.622 322.881 156.201 320.984 150.312C332.569 150.392 343.259 146.78 351.557 138.691C357.38 133.01 359.651 127.38 359.651 127.38Z" fill="white"/>
</g>
<path d="M226.404 73.4819C226.382 73.4802 226.36 73.4802 226.339 73.4819C222.833 73.7277 220.1 76.1375 217.891 78.4636C217.831 78.5255 217.776 78.5907 217.724 78.6526C216.424 77.5721 214.959 76.7067 213.386 76.089C213.29 76.0466 213.186 76.025 213.081 76.0253C212.976 76.0257 212.872 76.0481 212.775 76.0911C212.679 76.1341 212.593 76.1967 212.523 76.275C212.452 76.3532 212.399 76.4454 212.366 76.5455C212.323 76.6569 212.301 76.7755 212.301 76.895C212.299 77.076 212.353 77.2533 212.454 77.4029C212.556 77.5525 212.702 77.667 212.871 77.7312C214.216 78.2655 215.468 79.0093 216.582 79.9352C214.649 82.1978 212.984 84.677 211.62 87.3234C211.547 87.4566 211.512 87.6071 211.518 87.7589C211.524 87.9106 211.572 88.0578 211.655 88.1846C211.738 88.3145 211.851 88.4219 211.985 88.4972C212.119 88.5724 212.269 88.6133 212.423 88.6161H212.462C212.603 88.6089 212.739 88.5637 212.857 88.4851C212.974 88.4065 213.069 88.2974 213.129 88.1696C214.431 85.6324 216.021 83.2539 217.866 81.0807C219.841 83.0206 221.442 85.3735 222.926 87.5608C223.003 87.6799 223.109 87.7777 223.233 87.8452C223.358 87.9127 223.497 87.9478 223.639 87.9471C223.831 87.9459 224.019 87.8877 224.178 87.7799C224.269 87.7229 224.348 87.6477 224.409 87.5589C224.47 87.4702 224.512 87.3698 224.533 87.264C224.553 87.1583 224.552 87.0494 224.528 86.9443C224.505 86.8391 224.46 86.7399 224.397 86.6528C222.894 84.4454 221.188 81.9286 219.004 79.8081C221.023 77.6342 223.414 75.4234 226.38 75.216C226.499 75.2081 226.614 75.1764 226.72 75.1227C226.826 75.0691 226.92 74.9946 226.996 74.9037C227.072 74.8128 227.13 74.7075 227.164 74.5939C227.199 74.4803 227.211 74.3609 227.198 74.2428C227.192 74.0369 227.105 73.8419 226.956 73.6996C226.808 73.5573 226.609 73.4791 226.404 73.4819Z" fill="#FF151F"/>
<path d="M227.117 107.667H209.1V108.926H227.117V107.667Z" fill="#89A6EB"/>
<path d="M227.117 110.396H209.1V111.655H227.117V110.396Z" fill="#89A6EB"/>
<path d="M227.117 113.123H209.1V114.383H227.117V113.123Z" fill="#89A6EB"/>
<path d="M227.117 115.851H209.1V117.11H227.117V115.851Z" fill="#89A6EB"/>
<path d="M219.366 118.58H209.1V119.839H219.366V118.58Z" fill="#89A6EB"/>
<path d="M250.582 142.924H232.564V144.183H250.582V142.924Z" fill="#89A6EB"/>
<path d="M250.582 145.651H232.564V146.91H250.582V145.651Z" fill="#89A6EB"/>
<path d="M250.582 148.379H232.564V149.638H250.582V148.379Z" fill="#89A6EB"/>
<path d="M250.582 151.108H232.564V152.367H250.582V151.108Z" fill="#89A6EB"/>
<path d="M242.83 153.835H232.564V155.094H242.83V153.835Z" fill="#89A6EB"/>
<path d="M320.557 90.4589H302.539V91.7182H320.557V90.4589Z" fill="url(#paint25_linear)"/>
<path d="M320.557 93.1881H302.539V94.4473H320.557V93.1881Z" fill="url(#paint26_linear)"/>
<path d="M320.557 95.9156H302.539V97.1748H320.557V95.9156Z" fill="url(#paint27_linear)"/>
<path d="M320.557 98.6431H302.539V99.9023H320.557V98.6431Z" fill="url(#paint28_linear)"/>
<path d="M312.805 101.372H302.539V102.631H312.805V101.372Z" fill="url(#paint29_linear)"/>
<path d="M271.038 138.832L268.752 136.064L266.289 133.574C275.125 119.036 287.315 114.409 287.315 114.409L289.957 117.058L292.284 119.9C292.284 119.9 286.422 131.53 271.038 138.832Z" fill="#89A6EB"/>
<path d="M292.286 119.898L289.955 117.063L287.317 114.408L288.113 111.448L289.598 110.058C291.447 113.214 293.945 115.943 296.929 118.063L295.078 119.552L292.286 119.898Z" fill="#474EBB"/>
<path d="M320.379 73.3643C323.942 74.652 327.177 76.7055 329.856 79.3797C332.535 82.0539 334.593 85.2833 335.884 88.8396C337.174 92.3959 337.667 96.192 337.325 99.9595C336.984 103.727 335.817 107.374 333.908 110.642C331.999 113.91 329.394 116.719 326.277 118.871C323.161 121.023 319.609 122.465 315.873 123.096C312.136 123.726 308.307 123.528 304.656 122.518C301.005 121.507 297.622 119.708 294.744 117.247C293.414 116.115 292.203 114.849 291.133 113.469C287.696 109.049 285.792 103.633 285.706 98.037C285.62 92.4412 287.358 86.9688 290.658 82.4439C293.958 77.9191 298.64 74.5869 304.001 72.9493C309.362 71.3117 315.11 71.4573 320.379 73.3643ZM306.815 76.7541C303.71 77.4576 300.8 78.8424 298.298 80.8081C295.795 82.7738 293.763 85.271 292.347 88.1184C290.931 90.9659 290.169 94.0921 290.114 97.2702C290.059 100.448 290.714 103.599 292.031 106.492C293.348 109.386 295.293 111.95 297.726 114C300.16 116.049 303.02 117.531 306.099 118.339C309.178 119.147 312.398 119.261 315.527 118.671C318.656 118.082 321.614 116.804 324.187 114.932C324.197 114.931 324.206 114.92 324.214 114.912C324.351 114.814 324.487 114.712 324.619 114.608C324.636 114.596 324.653 114.583 324.669 114.569C324.815 114.459 324.958 114.343 325.102 114.225C325.107 114.225 325.112 114.225 325.117 114.224C325.418 113.981 325.711 113.726 325.995 113.466C326.14 113.336 326.282 113.203 326.422 113.067C326.561 112.934 326.7 112.799 326.834 112.656C326.969 112.513 327.105 112.384 327.234 112.242C327.368 112.102 327.496 111.962 327.623 111.813C327.75 111.663 327.839 111.567 327.938 111.449L328.032 111.334C328.149 111.2 328.256 111.064 328.364 110.926C328.472 110.789 328.603 110.623 328.72 110.466L328.737 110.442C328.964 110.141 329.184 109.83 329.391 109.516C329.493 109.366 329.591 109.215 329.686 109.063L329.766 108.937C329.838 108.822 329.906 108.706 329.973 108.592C330 108.551 330.025 108.51 330.046 108.471C330.127 108.339 330.197 108.206 330.276 108.071L330.321 107.989C330.406 107.84 330.489 107.689 330.565 107.536C330.571 107.523 330.578 107.51 330.586 107.497C330.675 107.32 330.762 107.157 330.844 106.986C330.925 106.815 331.014 106.632 331.094 106.456C331.254 106.103 331.407 105.739 331.547 105.373C331.62 105.197 331.691 105.004 331.752 104.819C331.814 104.634 331.884 104.45 331.942 104.263C331.996 104.104 332.045 103.945 332.093 103.783C332.108 103.731 332.125 103.679 332.138 103.625C332.19 103.45 332.235 103.292 332.272 103.124C332.309 102.956 332.374 102.741 332.418 102.547C332.551 101.986 332.66 101.418 332.746 100.842L332.768 100.684C332.789 100.546 332.806 100.408 332.823 100.269C332.834 100.191 332.842 100.114 332.85 100.035C332.858 99.9561 332.874 99.8408 332.879 99.7449C332.884 99.6491 332.897 99.5731 332.904 99.484C332.919 99.3124 332.931 99.1564 332.941 98.9903L332.94 98.9716C332.949 98.8568 332.954 98.7388 332.959 98.6292C332.969 98.3898 332.977 98.1506 332.978 97.9118L332.98 97.6253L332.977 97.2846C332.973 97.1144 332.969 96.9442 332.962 96.7742C332.957 96.7115 332.952 96.6454 332.947 96.5792C332.936 96.4198 332.924 96.2587 332.912 96.0976C332.9 95.9365 332.887 95.7585 332.875 95.5889L332.87 95.5194L332.825 95.1408C332.82 95.0764 332.816 95.0136 332.803 94.9515C332.792 94.804 332.764 94.6577 332.745 94.5108C332.726 94.3639 332.703 94.2479 332.68 94.1183C332.657 93.9887 332.637 93.8606 332.613 93.7328C332.598 93.6504 332.583 93.5645 332.566 93.4857L332.528 93.3009L332.526 93.2771C332.46 92.9615 332.387 92.6481 332.307 92.3368C332.267 92.1795 332.228 92.0221 332.182 91.8669C332.111 91.6096 332.034 91.3527 331.956 91.0993C331.904 90.9326 331.847 90.7662 331.789 90.6C331.722 90.4072 331.654 90.2162 331.576 90.0257C331.519 89.8697 331.458 89.719 331.394 89.5651C331.375 89.512 331.352 89.4608 331.332 89.4095C331.28 89.2854 331.228 89.1647 331.173 89.0426C331.146 88.9764 331.114 88.9106 331.085 88.8445C330.929 88.4968 330.762 88.1532 330.585 87.8139C330.511 87.6659 330.432 87.5183 330.347 87.3727C330.307 87.2921 330.262 87.2085 330.214 87.1319C330.153 87.0221 330.092 86.9141 330.027 86.8045L330.002 86.7604C327.691 82.8581 324.199 79.7888 320.028 77.9943C315.858 76.1998 311.225 75.7727 306.796 76.7743L306.815 76.7541Z" fill="#89A6EB"/>
<path opacity="0.47" d="M292.579 87.6602C284.726 102.496 296.358 120.209 313.114 118.983C329.181 117.807 338.115 100.086 330.053 86.7823L330.028 86.7382C321.47 72.3095 300.387 72.8758 292.579 87.6602Z" fill="url(#paint30_linear)"/>
<path d="M171.791 187.54C192.396 187.54 209.1 170.809 209.1 150.17C209.1 129.53 192.396 112.799 171.791 112.799C151.186 112.799 134.482 129.53 134.482 150.17C134.482 170.809 151.186 187.54 171.791 187.54Z" fill="#474EBB"/>
<path d="M171.791 180.829C188.696 180.829 202.4 167.102 202.4 150.17C202.4 133.237 188.696 119.51 171.791 119.51C154.886 119.51 141.182 133.237 141.182 150.17C141.182 167.102 154.886 180.829 171.791 180.829Z" fill="url(#paint31_linear)"/>
<path d="M171.79 154.17C173.996 154.17 175.784 152.379 175.784 150.17C175.784 147.96 173.996 146.169 171.79 146.169C169.585 146.169 167.797 147.96 167.797 150.17C167.797 152.379 169.585 154.17 171.79 154.17Z" fill="url(#paint32_linear)"/>
<path d="M171.79 154.17C173.996 154.17 175.784 152.379 175.784 150.17C175.784 147.96 173.996 146.169 171.79 146.169C169.585 146.169 167.797 147.96 167.797 150.17C167.797 152.379 169.585 154.17 171.79 154.17Z" fill="url(#paint33_linear)"/>
<path d="M171.79 154.17C173.996 154.17 175.784 152.379 175.784 150.17C175.784 147.96 173.996 146.169 171.79 146.169C169.585 146.169 167.797 147.96 167.797 150.17C167.797 152.379 169.585 154.17 171.79 154.17Z" fill="url(#paint34_linear)"/>
<path d="M171.79 154.17C173.996 154.17 175.784 152.379 175.784 150.17C175.784 147.96 173.996 146.169 171.79 146.169C169.585 146.169 167.797 147.96 167.797 150.17C167.797 152.379 169.585 154.17 171.79 154.17Z" fill="url(#paint35_linear)"/>
<path d="M171.79 154.17C173.996 154.17 175.784 152.379 175.784 150.17C175.784 147.96 173.996 146.169 171.79 146.169C169.585 146.169 167.797 147.96 167.797 150.17C167.797 152.379 169.585 154.17 171.79 154.17Z" fill="url(#paint36_linear)"/>
<path d="M171.79 154.17C173.996 154.17 175.784 152.379 175.784 150.17C175.784 147.96 173.996 146.169 171.79 146.169C169.585 146.169 167.797 147.96 167.797 150.17C167.797 152.379 169.585 154.17 171.79 154.17Z" fill="url(#paint37_linear)"/>
<path d="M171.79 154.17C173.996 154.17 175.784 152.379 175.784 150.17C175.784 147.96 173.996 146.169 171.79 146.169C169.585 146.169 167.797 147.96 167.797 150.17C167.797 152.379 169.585 154.17 171.79 154.17Z" fill="url(#paint38_linear)"/>
<path d="M171.79 154.17C173.996 154.17 175.784 152.379 175.784 150.17C175.784 147.96 173.996 146.169 171.79 146.169C169.585 146.169 167.797 147.96 167.797 150.17C167.797 152.379 169.585 154.17 171.79 154.17Z" fill="url(#paint39_linear)"/>
<path d="M171.79 154.17C173.996 154.17 175.784 152.379 175.784 150.17C175.784 147.96 173.996 146.169 171.79 146.169C169.585 146.169 167.797 147.96 167.797 150.17C167.797 152.379 169.585 154.17 171.79 154.17Z" fill="url(#paint40_linear)"/>
<path d="M171.79 154.17C173.996 154.17 175.784 152.379 175.784 150.17C175.784 147.96 173.996 146.169 171.79 146.169C169.585 146.169 167.797 147.96 167.797 150.17C167.797 152.379 169.585 154.17 171.79 154.17Z" fill="url(#paint41_linear)"/>
<path d="M171.79 154.17C173.996 154.17 175.784 152.379 175.784 150.17C175.784 147.96 173.996 146.169 171.79 146.169C169.585 146.169 167.797 147.96 167.797 150.17C167.797 152.379 169.585 154.17 171.79 154.17Z" fill="url(#paint42_linear)"/>
<path d="M171.783 126.166C173.167 126.166 174.289 125.042 174.289 123.655C174.289 122.269 173.167 121.145 171.783 121.145C170.399 121.145 169.277 122.269 169.277 123.655C169.277 125.042 170.399 126.166 171.783 126.166Z" fill="url(#paint43_linear)"/>
<path d="M185.07 127.717C185.928 127.717 186.623 127.021 186.623 126.162C186.623 125.303 185.928 124.607 185.07 124.607C184.213 124.607 183.518 125.303 183.518 126.162C183.518 127.021 184.213 127.717 185.07 127.717Z" fill="#89A6EB"/>
<path d="M195.252 137.673C196.109 137.673 196.805 136.976 196.805 136.117C196.805 135.258 196.109 134.562 195.252 134.562C194.394 134.562 193.699 135.258 193.699 136.117C193.699 136.976 194.394 137.673 195.252 137.673Z" fill="#89A6EB"/>
<path d="M198.258 152.236C199.642 152.236 200.764 151.113 200.764 149.726C200.764 148.34 199.642 147.216 198.258 147.216C196.874 147.216 195.752 148.34 195.752 149.726C195.752 151.113 196.874 152.236 198.258 152.236Z" fill="url(#paint44_linear)"/>
<path d="M195.275 165.018C196.133 165.018 196.828 164.321 196.828 163.463C196.828 162.604 196.133 161.907 195.275 161.907C194.418 161.907 193.723 162.604 193.723 163.463C193.723 164.321 194.418 165.018 195.275 165.018Z" fill="#89A6EB"/>
<path d="M185.066 175.209C185.924 175.209 186.619 174.512 186.619 173.653C186.619 172.795 185.924 172.098 185.066 172.098C184.209 172.098 183.514 172.795 183.514 173.653C183.514 174.512 184.209 175.209 185.066 175.209Z" fill="#89A6EB"/>
<path d="M157.904 175.215C158.762 175.215 159.457 174.519 159.457 173.66C159.457 172.801 158.762 172.105 157.904 172.105C157.047 172.105 156.352 172.801 156.352 173.66C156.352 174.519 157.047 175.215 157.904 175.215Z" fill="#89A6EB"/>
<path d="M171.799 179.18C173.183 179.18 174.305 178.057 174.305 176.67C174.305 175.284 173.183 174.16 171.799 174.16C170.415 174.16 169.293 175.284 169.293 176.67C169.293 178.057 170.415 179.18 171.799 179.18Z" fill="#89A6EB"/>
<path d="M147.861 165.029C148.719 165.029 149.414 164.333 149.414 163.474C149.414 162.615 148.719 161.919 147.861 161.919C147.004 161.919 146.309 162.615 146.309 163.474C146.309 164.333 147.004 165.029 147.861 165.029Z" fill="#89A6EB"/>
<path d="M145.352 152.686C146.736 152.686 147.858 151.563 147.858 150.176C147.858 148.79 146.736 147.666 145.352 147.666C143.968 147.666 142.846 148.79 142.846 150.176C142.846 151.563 143.968 152.686 145.352 152.686Z" fill="url(#paint45_linear)"/>
<path d="M147.853 137.684C148.711 137.684 149.406 136.988 149.406 136.129C149.406 135.27 148.711 134.574 147.853 134.574C146.996 134.574 146.301 135.27 146.301 136.129C146.301 136.988 146.996 137.684 147.853 137.684Z" fill="url(#paint46_linear)"/>
<path d="M157.576 127.724C158.434 127.724 159.129 127.028 159.129 126.169C159.129 125.31 158.434 124.614 157.576 124.614C156.719 124.614 156.023 125.31 156.023 126.169C156.023 127.028 156.719 127.724 157.576 127.724Z" fill="url(#paint47_linear)"/>
<path d="M178.327 133.099L179.591 133.829C179.636 133.855 179.669 133.898 179.682 133.949C179.696 134 179.689 134.053 179.663 134.099L171.605 148.084L170 147.157L178.057 133.172C178.07 133.15 178.087 133.13 178.107 133.114C178.128 133.098 178.151 133.086 178.177 133.079C178.202 133.072 178.228 133.071 178.254 133.074C178.279 133.077 178.304 133.086 178.327 133.099Z" fill="#DDDDDD"/>
<path d="M183 168.71L181.731 169.441C181.686 169.467 181.632 169.474 181.581 169.46C181.53 169.447 181.487 169.414 181.461 169.368L170.667 150.555L172.279 149.627L183.071 168.435C183.085 168.458 183.094 168.483 183.098 168.509C183.101 168.535 183.1 168.562 183.093 168.588C183.087 168.613 183.075 168.637 183.059 168.658C183.043 168.679 183.023 168.697 183 168.71Z" fill="#DDDDDD"/>
<path d="M171.79 154.17C173.996 154.17 175.784 152.379 175.784 150.17C175.784 147.96 173.996 146.169 171.79 146.169C169.585 146.169 167.797 147.96 167.797 150.17C167.797 152.379 169.585 154.17 171.79 154.17Z" fill="url(#paint48_linear)"/>
<path d="M491.61 128.33L468 122L474.33 145.61L479.27 140.68L489.5 150.91L496.91 143.5L486.67 133.27L491.61 128.33Z" fill="white"/>
<path d="M418.845 4H471.075C474.305 4 476.919 6.8666 476.919 10.4016V41.5405C476.919 45.0755 474.305 47.9421 471.075 47.9421H427.727C424.756 51.1206 417.879 58.4208 416.193 59.0817C414.025 59.9878 413 59.9432 413 41.5034V10.4016C413 6.8666 415.614 4 418.845 4Z" fill="#FF151F"/>
<path d="M435.696 26.0787C435.696 27.68 435.06 29.2157 433.928 30.348C432.795 31.4803 431.26 32.1164 429.658 32.1164C428.865 32.1174 428.079 31.9619 427.346 31.659C426.612 31.356 425.946 30.9114 425.384 30.3506C424.823 29.7899 424.377 29.124 424.074 28.391C423.77 27.658 423.613 26.8722 423.613 26.0787C423.612 25.2846 423.768 24.4981 424.071 23.7642C424.375 23.0304 424.82 22.3636 425.382 21.802C425.943 21.2405 426.61 20.7952 427.344 20.4918C428.078 20.1883 428.864 20.0327 429.658 20.0336C430.452 20.0336 431.238 20.19 431.971 20.4939C432.704 20.7978 433.37 21.2432 433.93 21.8047C434.491 22.3661 434.936 23.0326 435.239 23.7659C435.542 24.4993 435.697 25.2852 435.696 26.0787Z" fill="white"/>
<path d="M451.625 26.0787C451.623 27.6807 450.986 29.2164 449.852 30.3485C448.719 31.4805 447.182 32.1164 445.58 32.1164C443.978 32.1164 442.442 31.4805 441.308 30.3485C440.175 29.2164 439.537 27.6807 439.535 26.0787C439.535 24.4755 440.172 22.9379 441.306 21.8042C442.439 20.6705 443.977 20.0336 445.58 20.0336C447.184 20.0336 448.721 20.6705 449.855 21.8042C450.988 22.9379 451.625 24.4755 451.625 26.0787Z" fill="white"/>
<path d="M467.548 26.0787C467.548 26.8722 467.391 27.658 467.087 28.391C466.783 29.124 466.338 29.7899 465.777 30.3506C465.215 30.9114 464.549 31.356 463.815 31.659C463.082 31.9619 462.296 32.1174 461.503 32.1164C459.901 32.1164 458.366 31.4803 457.233 30.348C456.101 29.2157 455.465 27.68 455.465 26.0787C455.464 25.2852 455.619 24.4993 455.922 23.7659C456.225 23.0326 456.67 22.3661 457.231 21.8047C457.791 21.2432 458.457 20.7978 459.19 20.4939C459.923 20.19 460.709 20.0336 461.503 20.0336C462.297 20.0327 463.083 20.1883 463.817 20.4918C464.551 20.7952 465.218 21.2405 465.779 21.802C466.341 22.3636 466.786 23.0304 467.089 23.7642C467.393 24.4981 467.549 25.2846 467.548 26.0787Z" fill="white"/>
<path d="M368.665 105.847C368.027 105.783 367.383 105.846 366.769 106.03C366.155 106.215 365.583 106.519 365.087 106.925C363.427 108.273 365.647 107.583 370.293 106.764L368.665 105.847Z" fill="#F7B690"/>
<path d="M368.632 106.171C367.693 106.507 366.788 106.93 365.926 107.432C364.987 107.927 364.096 108.508 363.264 109.167C362.585 109.663 363.426 109.695 363.469 109.728C363.512 109.76 363.361 109.728 363.469 109.954C363.628 110.142 363.832 110.286 364.062 110.374L364.827 110.601C365.743 110.87 367.446 111.409 370.507 109.523C370.529 109.544 370.809 106.57 368.632 106.171Z" fill="#F7B690"/>
<path d="M389.874 78.5129C389.874 78.5129 394.628 74.7727 396.859 77.1117C401.914 82.3824 394.779 102.29 370.807 110.105C370.807 110.105 367.11 107.27 368.975 105.449C372.101 102.387 376.067 100.76 380.648 93.6568C382.761 90.3909 384.464 83.3633 389.874 78.5129Z" fill="white"/>
<path d="M407.607 55.5761V55.6408C407.941 56.4168 410.948 63.908 406.367 66.0745L407.596 55.5977" fill="#4D59A1"/>
<path d="M398.552 182.526C398.552 182.526 399.124 182.817 399.134 183.001C399.266 184.051 399.316 185.111 399.285 186.169C399.134 186.611 391.395 187.463 391.395 187.463C391.395 187.463 387.472 187.269 387.084 186.762C386.696 186.256 386.858 185.878 387.084 185.814C387.31 185.749 396.353 182.311 396.353 182.311L398.552 182.526Z" fill="#292949"/>
<path d="M407.501 184.38C407.501 184.38 408.072 184.66 408.072 184.854C408.208 185.901 408.262 186.957 408.234 188.013C408.083 188.454 400.333 189.306 400.333 189.306C400.333 189.306 396.42 189.123 396.022 188.616C395.623 188.11 395.784 187.732 396.022 187.668C396.259 187.603 405.291 184.165 405.291 184.165L407.501 184.38Z" fill="#292949"/>
<path d="M407.361 180.791C407.361 180.791 407.458 184.682 407.436 184.757C407.253 185.339 405.582 185.383 405.086 184.93L404.105 181.19L407.361 180.791Z" fill="#F7B690"/>
<path d="M398.725 179.293C398.725 179.293 398.79 183.162 398.725 183.259C398.553 183.852 396.946 183.96 396.451 183.507L395.729 179.616L398.725 179.293Z" fill="#F7B690"/>
<path d="M388.379 109.717C388.379 109.717 389.618 137.741 390.977 150.934C390.977 150.934 398.047 149.792 398.759 146.763C399.47 143.734 398.08 111.28 398.08 111.28L388.379 109.717Z" fill="#292949"/>
<path d="M399.374 110.892C399.266 112.315 388.951 110.245 388.854 111.7C388.509 117.154 397.229 132.406 397.207 132.6C400.592 156.13 402.877 177.471 404.138 182.429C404.655 184.488 408.18 182.505 408.18 182.505C408.934 155.763 409.441 113.101 409.441 113.101C406.779 111.388 402.974 110.849 399.374 110.892Z" fill="#292949"/>
<path d="M398.715 75.8183C398.715 75.8183 406.821 75.344 411.337 79.289C411.337 79.289 416.618 102.873 409.44 112.961C409.44 112.961 396.085 119.428 388.249 111.948C388.249 111.948 385.113 87.707 389.553 79.3644C389.553 79.3967 390.373 76.0338 398.715 75.8183Z" fill="white"/>
<path d="M405.624 67.8959C404.83 70.9378 404.25 74.0317 403.889 77.1548C403.889 77.1548 401.226 79.5476 398.92 77.338C398.92 77.338 398.025 68.4888 396.139 67.1307C394.253 65.7726 405.624 67.8959 405.624 67.8959Z" fill="#F7B690"/>
<path d="M405.278 55.5653C405.278 55.5653 396.364 52.8168 392.344 56.7725C392.344 56.7725 393.055 61.7738 393.486 65.5894C393.917 69.405 394.834 73.0374 397.658 73.2314C397.658 73.2314 405.645 72.9835 406.733 67.508C407.671 62.5929 407.154 56.8264 405.278 55.5653Z" fill="#F7B690"/>
<path d="M405.377 65.9236C404.924 67.5512 405.291 69.0709 406.218 69.3296C407.145 69.5883 408.255 68.4889 408.708 66.8721C409.16 65.2553 408.794 63.7247 407.878 63.4661C406.962 63.2074 405.841 64.3068 405.377 65.9236Z" fill="#F7B690"/>
<path d="M405.559 119.202C404.904 119.46 404.307 119.847 403.803 120.339C403.3 120.832 402.9 121.42 402.627 122.069C401.668 124.3 403.478 122.468 407.531 119.288L405.559 119.202Z" fill="#F7B690"/>
<path d="M405.678 119.547C404.938 120.36 404.271 121.237 403.684 122.166C403.017 123.155 402.44 124.201 401.959 125.292C401.539 126.143 402.358 125.755 402.423 125.755C402.487 125.755 402.326 125.842 402.541 125.993C402.781 126.101 403.045 126.141 403.307 126.111L404.137 125.96C405.15 125.777 407.036 125.475 409.084 122.015C409.084 122.048 407.952 118.846 405.678 119.547Z" fill="#F7B690"/>
<path d="M406.368 83.2231C406.368 83.2231 408.631 76.4865 411.046 79.1273C420.984 90.0029 423.096 114.966 408.717 123.179C407.937 123.02 407.212 122.657 406.618 122.127C406.023 121.597 405.58 120.919 405.333 120.161C404.255 117.391 409.44 108.154 409.44 108.154C406.982 102.495 405.236 91.4041 406.368 83.2231Z" fill="white"/>
<path d="M396.603 145.189C396.603 145.189 398.468 144.866 398.759 145.879C399.05 146.892 399.147 174.421 399.147 181.535C399.147 181.535 396.581 182.85 395.719 181.535C394.383 179.53 390.977 150.934 390.977 150.934L396.603 145.189Z" fill="#292949"/>
<path d="M407.488 53.7437C395.503 49.8203 389.822 53.7437 389.822 53.7437C389.962 55.4144 393.379 58.2061 394.683 58.4324C397.858 58.4257 401.025 58.1044 404.136 57.4731C405.43 57.139 405.484 58.9606 405.408 59.9738C405.408 60.0492 405.408 60.1354 405.408 60.2217C405.397 60.3519 405.379 60.4814 405.354 60.6097C405.247 61.2845 405.247 61.9721 405.354 62.6468C405.482 64.551 405.315 66.4634 404.858 68.3164C404.406 69.3942 402.94 70.1056 401.258 70.3643C400.418 69.2865 396.473 64.2313 393.562 67.1307L393.433 67.2924C392.851 68.1978 393.562 71.4529 393.929 72.4769C394.845 75.0961 402.767 73.2206 404.61 72.4769C405.215 72.2375 405.712 71.7858 406.008 71.2064C406.303 70.6271 406.378 69.9598 406.216 69.3296C406.005 68.0118 406.045 66.6658 406.335 65.3631C406.589 64.6079 406.929 63.8846 407.348 63.2073L407.855 61.375C408.987 58.2061 407.488 53.7437 407.488 53.7437Z" fill="#4D59A1"/>
<path d="M55.8392 13H5.6218C2.51756 13 0 15.7552 0 19.1565V49.0775C0 52.4788 2.51756 55.234 5.6218 55.234H47.2989C50.1357 58.2937 56.7601 65.3043 58.3865 65.9875C60.4659 66.8564 61.4536 66.8118 61.4536 49.0775V19.1565C61.4536 15.7552 58.9658 13 55.8392 13Z" fill="#FF151F"/>
<path d="M51.4651 26.2041C51.4661 26.8328 51.3431 27.4555 51.1032 28.0366C50.8633 28.6177 50.5111 29.1458 50.0669 29.5907C49.6227 30.0356 49.0952 30.3886 48.5144 30.6294C47.9337 30.8702 47.3112 30.9941 46.6825 30.9941H13.6646C12.3994 30.9863 11.1886 30.4782 10.2967 29.5807C9.40486 28.6833 8.90427 27.4694 8.9043 26.2041C8.90819 24.9414 9.4105 23.7313 10.302 22.8371C11.1934 21.9428 12.402 21.4368 13.6646 21.4289H46.6528C47.2827 21.425 47.9072 21.5456 48.4904 21.7837C49.0736 22.0218 49.604 22.3728 50.0512 22.8166C50.4983 23.2603 50.8534 23.7879 51.0961 24.3693C51.3387 24.9506 51.4641 25.5742 51.4651 26.2041Z" fill="white"/>
<path d="M51.4655 41.9779C51.4665 42.6065 51.3435 43.2292 51.1036 43.8104C50.8637 44.3915 50.5115 44.9196 50.0673 45.3645C49.6231 45.8094 49.0956 46.1623 48.5148 46.4031C47.9341 46.6439 47.3116 46.7679 46.6829 46.7679H13.665C12.3946 46.7679 11.1763 46.2632 10.278 45.3649C9.37966 44.4666 8.875 43.2483 8.875 41.9779C8.875 40.7075 9.37966 39.4891 10.278 38.5908C11.1763 37.6925 12.3946 37.1878 13.665 37.1878H46.6532C47.2819 37.1878 47.9044 37.3118 48.4851 37.5526C49.0659 37.7934 49.5934 38.1463 50.0376 38.5912C50.4818 39.0361 50.834 39.5642 51.0739 40.1453C51.3138 40.7265 51.4368 41.3492 51.4358 41.9779H51.4655Z" fill="white"/>
<path d="M49.3878 117.884C50.171 117.914 50.9379 118.117 51.6342 118.477C52.3305 118.837 52.9393 119.345 53.4175 119.966C55.1772 122.121 52.6678 120.778 47.3574 118.821L49.3878 117.884Z" fill="#CF8072"/>
<path d="M49.8035 117.936C50.9401 118.72 51.9069 119.726 52.6461 120.893C53.4407 122.055 54.1372 123.281 54.7285 124.558C55.2388 125.599 54.3121 125.141 54.2496 125.151C54.1871 125.162 54.3641 125.245 54.1246 125.433C53.8712 125.586 53.577 125.659 53.2812 125.641L52.3545 125.505C51.2404 125.349 49.2308 124.464 46.7734 120.435C46.8047 120.435 47.2524 117.238 49.8035 117.936Z" fill="#CF8072"/>
<path d="M35.0295 84.7928C35.7375 82.0959 38.6114 87.6041 38.6114 87.6041C41.1728 94.6013 42.0995 98.1415 42.6618 105.076C46.4728 114.729 48.6698 117.821 48.6698 117.821L49.8464 118.644L49.1592 119.362C50.1275 119.799 49.2529 120.081 48.3054 120.247L47.7223 120.851L47.4099 120.372L46.806 120.435C40.4752 115.968 31.6454 97.673 35.0295 84.7928Z" fill="#F7B690"/>
<path d="M40.0578 99.818C38.7666 100.151 37.4963 100.536 36.2052 100.859C36.4863 100.797 36.1323 100.859 35.6845 100.859C34.2268 95.4239 33.727 89.7075 35.0286 84.772C35.7366 82.0752 38.6104 87.5834 38.6104 87.5834C40.1136 91.3609 41.2401 95.2776 41.9737 99.2765L40.0578 99.818Z" fill="#474EBB"/>
<path d="M28.7695 81.6378C28.7695 81.6378 30.1336 68.6014 36.3706 67.3831C36.3706 67.3831 36.4539 68.0391 36.5789 69.0699L36.7767 67.9037C36.5797 70.2099 37.1232 72.5187 38.3282 74.4948C38.3282 74.4948 40.0566 79.8052 38.5468 81.7835C38.5468 81.7835 44.1591 89.3534 40.2961 92.4355C40.2961 92.4355 39.5672 88.7703 37.1724 87.1564C34.7775 85.5424 31.2685 84.1159 31.3622 83.3975C31.3622 83.0539 31.4768 82.5228 31.5392 82.0543C30.6043 82.0089 29.6764 81.8694 28.7695 81.6378Z" fill="#292949"/>
<path d="M36.9859 127.099C37.0698 127.433 37.2812 127.722 37.575 127.903C37.8687 128.084 38.2215 128.142 38.5581 128.067L57.4463 123.069C57.7758 122.97 58.0527 122.745 58.2166 122.442C58.3805 122.14 58.418 121.785 58.321 121.455L55.1972 109.481C55.1581 109.315 55.0866 109.159 54.9868 109.021C54.887 108.883 54.7608 108.766 54.6157 108.677C54.4705 108.588 54.3091 108.528 54.1409 108.502C53.9727 108.475 53.8008 108.482 53.6354 108.523L34.7472 113.51C34.4174 113.609 34.1397 113.834 33.9741 114.136C33.8085 114.438 33.7683 114.793 33.8621 115.124L36.9859 127.099Z" fill="#FF151F"/>
<path d="M33.082 179.525C33.082 179.525 33.207 183.315 33.2382 183.409C33.4361 183.982 34.9667 184.013 35.4144 183.544L35.9142 179.692L33.082 179.525Z" fill="#F7B690"/>
<path d="M39.9963 113.916C43.6095 122.403 43.1201 143.415 40.8189 155.056C40.8189 155.056 34.332 154.223 33.4261 151.318C32.5202 148.413 30.9375 115.728 30.9375 115.728C30.9375 115.728 34.6652 101.369 39.9963 113.916Z" fill="#292949"/>
<path d="M34.8722 145.549C34.8722 145.549 33.0917 152.338 32.7898 153.338C32.4878 154.337 32.5815 174.257 32.6127 181.243C32.6127 181.243 35.0701 182.514 35.8823 181.243C37.1422 179.255 41.3488 152.401 41.3488 152.401L34.8722 145.549Z" fill="#292949"/>
<path d="M22.5759 183.097C22.5759 183.097 22.4822 186.918 22.503 186.991C22.68 187.564 24.2731 187.605 24.7417 187.158L25.6684 183.482L22.5759 183.097Z" fill="#F7B690"/>
<path d="M30.1861 114.458C30.2798 115.853 40.1508 114.77 40.2445 116.207C40.5777 121.559 37.5685 131.899 34.3615 140.479C32.2873 155.364 29.3776 170.121 25.6463 184.679C25.1465 186.699 21.7937 184.752 21.7937 184.752C21.4396 171.778 21.4396 133.107 20.3776 130.462C17.9098 124.214 20.3776 123.402 22.1789 116.072C23.7095 109.751 26.7604 114.458 30.1861 114.458Z" fill="#292949"/>
<path d="M23.0123 65.6755L21.1068 67.3832C21.1068 67.3832 20.3675 79.9302 16.6086 84.9178C12.8497 89.9053 12.3915 90.5925 12.0583 92.4564C11.7251 94.3202 12.6102 99.7451 20.2634 100.234C27.9165 100.724 24.2513 96.3506 24.2513 95.174C24.2513 93.9974 25.9798 71.4961 23.0123 65.6755Z" fill="#292949"/>
<path d="M25.0232 72.8081C25.471 74.3908 25.1065 75.9318 24.2006 76.1505C23.2948 76.3691 22.2015 75.3175 21.7537 73.7244C21.306 72.1313 21.6704 70.6006 22.5763 70.382C23.4822 70.1633 24.5755 71.2045 25.0232 72.8081Z" fill="#E3988A"/>
<path d="M21.6284 118.519C21.6284 118.519 22.5967 110.803 23.5651 106.815L20.2852 87.5833V85.1259C20.2852 85.1259 21.9511 83.7098 27.3864 83.2621C30.224 83.0951 33.0682 83.448 35.7789 84.3033C35.7789 84.3033 38.0071 89.6658 40.3187 92.4147C42.9739 95.5384 40.1625 100.526 39.6731 102.067C37.4345 109.158 41.058 116.478 41.3496 117.998C41.6411 119.518 34.5606 122.507 21.6284 118.519Z" fill="#474EBB"/>
<path d="M23.0117 83.9702C24.2686 83.6409 25.5449 83.3905 26.8331 83.2205C27.3954 83.2205 31.3208 83.106 33.5491 83.7724C34.9236 84.1889 35.9856 93.5288 35.8399 93.6642C35.6941 93.7996 28.0409 87.9478 23.0117 83.9702Z" fill="#F7B690"/>
<path d="M24.752 74.7239C25.531 77.7137 26.0981 80.7548 26.4492 83.8244C26.4492 83.8244 29.0731 86.1672 31.3326 83.991C31.3326 83.991 32.2177 75.307 34.0607 73.9742C35.9037 72.6414 24.752 74.7239 24.752 74.7239Z" fill="#F7B690"/>
<path d="M23.3157 124.87C24.4693 125.668 25.2624 126.887 25.5232 128.265C26.1167 130.753 24.7631 128.598 21.6289 124.735L23.3157 124.87Z" fill="#E3988A"/>
<path d="M23.7119 125.099C24.1371 126.191 24.4851 127.312 24.7531 128.452C25.0674 129.692 25.297 130.951 25.4403 132.221C25.5757 133.263 24.9926 132.565 24.9509 132.555C24.9093 132.544 25.0134 132.669 24.7948 132.753C24.5707 132.798 24.3377 132.761 24.1388 132.648L23.4932 132.232C22.7123 131.732 21.2337 130.826 20.3695 126.62C20.2966 126.62 21.9834 123.673 23.7119 125.099Z" fill="#E3988A"/>
<path d="M22.8568 126.547L23.6898 126.089L22.8568 124.766C22.8568 124.766 21.7531 120.684 21.0554 109.147C22.5444 101.796 22.7214 97.7667 22.3986 89.5304C22.3986 89.5304 21.4735 82.6664 20.0678 85.155C13.2893 97.0148 15.9429 119.445 20.4099 126.63L20.9721 126.817L21.1179 127.442L21.826 127.057C22.7318 127.328 23.6065 127.39 22.8568 126.547Z" fill="#F7B690"/>
<path d="M16.2448 98.1728C17.6412 98.9439 19.1373 99.5185 20.6909 99.8805C21.2523 99.9724 21.8194 100.025 22.3881 100.037C22.5772 96.5684 23.0603 93.5305 22.8712 90.0623C22.8712 90.0623 21.4727 82.6664 20.0671 85.155C17.9639 88.6602 16.2031 93.5675 16.2031 98.1937L16.2448 98.1728Z" fill="#474EBB"/>
<path d="M25.117 62.6247C25.117 62.6247 31.7393 59.2615 35.7273 63.1557C36.2947 66.224 36.5009 69.3482 36.3416 72.4645C35.9147 76.2129 35.4253 79.7532 32.6452 79.9614C32.6452 79.9614 24.8046 79.7115 23.7321 74.3491C22.7742 69.5177 23.274 63.8638 25.117 62.6247Z" fill="#F7B690"/>
<path d="M22.9294 62.6871C24.1061 61.6324 25.5446 60.9131 27.0944 60.6046C27.4552 60.5121 27.8257 60.4631 28.1981 60.4589C29.1054 60.3953 30.017 60.4619 30.9054 60.6567C32.6443 60.9066 34.2374 61.2815 34.2374 61.2815C34.805 61.5038 35.3223 61.8376 35.7586 62.2633C36.195 62.6889 36.5416 63.1977 36.778 63.7596C37.1547 64.6365 37.3429 65.5828 37.3303 66.5371C37.3178 67.4914 37.1048 68.4324 36.7051 69.2991C36.0804 70.0592 34.0708 70.3403 31.957 70.4236C32.0403 69.2678 32.3111 65.8213 32.4464 65.2903L30.7179 70.434C29.6767 70.434 28.6355 70.434 27.7712 70.3403C27.1361 75.0363 28.9478 84.6366 31.124 87.9269C33.4668 91.4776 30.5097 94.9866 30.5097 94.9866L29.4685 92.4876C28.4272 89.9886 23.7937 88.2289 22.388 85.7195C20.9823 83.2101 22.388 82.1584 22.388 82.1584L23.096 80.9298C22.0734 80.2719 21.2264 79.3749 20.6283 78.3162C20.6283 78.3162 19.8786 65.7901 22.9294 62.6871Z" fill="#292949"/>
<path d="M40.6734 185.585C40.6734 185.585 36.5084 184.128 35.3943 183.097L33.1973 183.44C33.1973 183.44 33.1973 185.086 38.5805 186.023L40.6734 185.585Z" fill="#F7B690"/>
<path d="M30.2924 188.761C30.2924 188.761 26.0233 187.72 24.7947 186.814L22.5039 186.991C22.5039 186.991 22.7746 189.011 28.2516 189.407L30.2924 188.761Z" fill="#F7B690"/>
<path d="M72.3705 60.1646C72.3705 60.1646 71.4334 64.8294 73.0577 65.829C73.0577 65.829 76.5459 58.5403 74.099 59.04C71.652 59.5398 72.3705 60.1646 72.3705 60.1646Z" fill="#4D59A1"/>
<path d="M115.219 58.2487C115.213 56.9642 115.714 55.7293 116.614 54.8126C118.124 53.2923 117.218 55.4373 115.937 59.9563L115.219 58.2487Z" fill="#F7B690"/>
<path d="M115.541 58.2487C116.486 56.4348 117.681 54.7628 119.092 53.282C119.654 52.6572 119.602 53.5006 119.623 53.5423C119.644 53.5839 119.623 53.4382 119.852 53.5423C120.024 53.719 120.146 53.9382 120.206 54.1775C120.206 54.3024 120.31 54.7501 120.352 54.948C120.539 55.8851 120.893 57.6344 118.738 60.4874C118.696 60.477 115.718 60.4458 115.541 58.2487Z" fill="#F7B690"/>
<path d="M85.9807 76.5434C85.9807 76.5434 82.4196 86.3103 84.5125 88.7676C89.2398 94.3071 112.126 85.217 119.228 60.8102C119.228 60.8102 116.781 56.8535 114.792 58.5195C111.439 61.31 106.722 67.0993 99.1733 70.9311C95.7684 72.6908 91.3015 71.6496 85.9807 76.5434Z" fill="white"/>
<path d="M83.5439 183.885C83.5439 183.885 82.9712 184.167 82.9712 184.354C82.8368 185.389 82.7846 186.434 82.8151 187.478C82.9608 187.915 90.6869 188.769 90.6869 188.769C90.6869 188.769 94.5915 188.581 94.9976 188.071C95.4037 187.561 95.2267 187.197 94.9976 187.134C94.7685 187.072 85.7618 183.635 85.7618 183.635L83.5439 183.885Z" fill="#4D59A1"/>
<path d="M77.0675 184.656C77.0675 184.656 77.6506 184.895 77.6715 185.083C77.8774 186.113 78.0027 187.157 78.0463 188.207C77.9318 188.654 70.289 190.05 70.289 190.05C70.289 190.05 66.3844 190.133 65.9366 189.664C65.4889 189.196 65.6451 188.8 65.8742 188.717C66.1032 188.633 74.8393 184.552 74.8393 184.552L77.0675 184.656Z" fill="#4D59A1"/>
<path d="M74.7673 182.126C74.7673 182.126 74.6736 186.01 74.6944 186.082C74.8819 186.665 76.5478 186.707 77.0476 186.259L78.016 182.521L74.7673 182.126Z" fill="#F7B690"/>
<path d="M83.3774 180.668C83.3774 180.668 83.3149 184.531 83.3774 184.625C83.5544 185.218 85.1579 185.322 85.6473 184.875L86.3658 180.991L83.3774 180.668Z" fill="#F7B690"/>
<path d="M93.6941 111.3C93.6941 111.3 92.4655 139.278 91.1119 152.377C91.1119 152.377 84.0626 151.232 83.3546 148.212C82.6465 145.193 83.9897 112.81 83.9897 112.81L93.6941 111.3Z" fill="#5D66D3"/>
<path d="M82.7323 112.466C82.8364 113.882 93.1447 111.821 93.2176 113.268C93.5612 118.714 84.8876 133.906 84.8876 134.093C81.514 157.531 79.2441 178.814 77.9842 183.75C77.4636 185.832 73.9546 183.823 73.9546 183.823C73.2049 157.177 72.7051 114.653 72.7051 114.653C75.3603 112.914 79.1504 112.425 82.7323 112.466Z" fill="#5D66D3"/>
<path d="M79.9424 77.6575C78.2728 77.5781 76.6042 77.8329 75.0343 78.4068C73.4645 78.9808 72.025 79.8624 70.8003 80.9999C70.8003 80.9999 67.7807 103.855 70.8628 113.893C70.8628 113.893 85.8151 120.682 93.614 113.174C93.614 113.174 97.6436 84.1445 90.8235 73.2947C90.8235 73.2947 83.5243 73.8778 79.9424 77.6575Z" fill="white"/>
<path d="M76.4844 69.6087C77.2736 72.6431 77.8477 75.7294 78.2024 78.8446C78.2024 78.8446 80.868 81.229 83.1692 79.0216C83.1692 79.0216 84.0542 70.2022 85.9285 68.8486C87.8027 67.495 76.4844 69.6087 76.4844 69.6087Z" fill="#F7B690"/>
<path d="M84.4813 58.3945C84.4813 58.3945 78.2859 55.5623 74.2251 59.5087C74.2251 59.5087 72.2467 64.5795 72.6736 68.3905C73.1005 72.2014 74.0168 75.8042 76.8386 76.002C76.8386 76.002 84.7937 75.7521 85.8766 70.296C86.8137 65.3917 86.3452 59.6544 84.4813 58.3945Z" fill="#F7B690"/>
<path d="M84.7307 68.1613C84.2725 69.7753 84.6474 71.2851 85.5637 71.5558C86.48 71.8265 87.5941 70.7124 88.0418 69.0985C88.4896 67.4845 88.1252 65.9747 87.2089 65.704C86.2926 65.4333 85.168 66.5474 84.7307 68.1613Z" fill="#F7B690"/>
<path d="M76.9722 85.9979C76.9722 85.9979 75.6706 79.7504 72.2449 80.0836C67.0387 80.6667 61.5618 92.2454 66.0703 105.448C68.1528 111.529 84.136 105.448 88.4259 101.814C88.4259 101.814 92.5909 98.0972 86.5829 97.3475C82.1381 96.8608 77.6438 97.0999 73.2758 98.0555C74.317 98.0555 78.1071 93.6198 76.9722 85.9979Z" fill="white"/>
<path d="M85.4912 146.65C85.4912 146.65 83.6273 146.328 83.3462 147.338C83.0651 148.348 82.9609 175.774 82.9609 182.875C82.9609 182.875 85.5224 184.177 86.3866 182.875C87.7194 180.876 91.1139 152.377 91.1139 152.377L85.4912 146.65Z" fill="#5D66D3"/>
<path d="M101.766 91.8913C101.91 91.901 102.052 91.9409 102.18 92.0084C102.309 92.0759 102.422 92.1695 102.512 92.2832C102.602 92.397 102.667 92.5283 102.704 92.6688C102.74 92.8094 102.747 92.9559 102.723 93.0992L100.349 109.186C100.331 109.33 100.283 109.469 100.208 109.593C100.133 109.717 100.034 109.824 99.915 109.907C99.7964 109.991 99.6617 110.048 99.5196 110.076C99.3774 110.105 99.2309 110.103 99.0895 110.071L88.7499 108.52C88.4631 108.486 88.2013 108.34 88.0219 108.114C87.8424 107.887 87.7597 107.599 87.792 107.312L90.1973 91.2249C90.2167 91.081 90.2659 90.9427 90.342 90.8189C90.418 90.6951 90.5191 90.5886 90.6387 90.5063C90.7584 90.4239 90.8939 90.3674 91.0367 90.3406C91.1794 90.3137 91.3262 90.317 91.4676 90.3503L101.766 91.8913Z" fill="#FF151F"/>
<path d="M95.4145 99.0968C95.6393 99.144 95.8454 99.256 96.0073 99.4189C96.1693 99.5819 96.2799 99.7887 96.3257 100.014C96.3715 100.239 96.3504 100.472 96.2649 100.686C96.1795 100.899 96.0336 101.083 95.845 101.214C95.6565 101.345 95.4337 101.418 95.204 101.424C94.9744 101.431 94.748 101.369 94.5528 101.248C94.3575 101.127 94.202 100.952 94.1053 100.743C94.0086 100.535 93.9751 100.303 94.0088 100.076C94.0365 99.9188 94.0948 99.769 94.1805 99.6349C94.2662 99.5007 94.3775 99.3849 94.5082 99.2939C94.6388 99.2029 94.7861 99.1387 94.9417 99.1049C95.0972 99.071 95.2579 99.0683 95.4145 99.0968Z" fill="white"/>
<path d="M88.5946 97.5349C89.3263 97.2818 90.1022 97.1818 90.8741 97.2409C91.6461 97.3 92.3977 97.517 93.0823 97.8785C95.3418 99.1176 93.2906 98.9197 87.418 98.5657L88.5946 97.5349Z" fill="#F7B690"/>
<path d="M88.5935 97.5349C89.7923 97.7883 90.9692 98.1364 92.1129 98.5761C93.3379 98.9841 94.5258 99.4962 95.6635 100.107C96.5694 100.544 95.5282 100.69 95.4761 100.721C95.424 100.752 95.6219 100.721 95.4761 100.961C95.2925 101.189 95.0518 101.365 94.7785 101.471C94.6327 101.533 94.1329 101.898 93.9038 101.981C92.8001 102.377 91.3632 103.199 87.3127 101.585C87.3336 101.554 85.9487 98.2013 88.5935 97.5349Z" fill="#F7B690"/>
<path d="M77.5572 60.1542C77.5572 60.1542 78.8172 61.9555 81.6285 61.0809C81.6285 61.0809 81.3474 64.4025 83.9713 64.8814C84.149 65.7702 84.0546 66.6919 83.7006 67.5262C83.479 67.8835 83.3871 68.3062 83.4402 68.7233C83.4932 69.1404 83.6881 69.5265 83.9921 69.817C84.3774 70.1085 84.3774 69.0881 84.3774 69.0881C84.3774 69.0881 85.0646 67.0056 85.9809 66.8286C86.8972 66.6516 87.0222 67.1722 87.3241 67.3284C87.6261 67.4846 88.2613 67.7657 88.6257 66.7765C88.9901 65.7873 88.4383 64.6003 88.6257 64.2046C88.8131 63.809 90.2917 62.7156 90.2396 61.6536C90.1875 60.5915 89.594 58.6756 87.3866 58.9255C87.4263 58.1936 87.1974 57.4724 86.7431 56.8973C86.2887 56.3221 85.64 55.9326 84.9188 55.8018C84.9188 55.8018 81.7014 53.5006 79.494 54.9792C79.494 54.9792 73.9962 52.0533 72.7259 55.5102C72.7259 55.5102 68.9149 55.3436 69.0919 58.1758C69.2689 61.008 72.1428 61.9764 74.7875 60.9247C74.7875 60.8726 76.7555 61.3829 77.5572 60.1542Z" fill="#292949"/>
<path d="M32.7879 182.691C32.7879 182.691 32.2464 182.972 32.2464 183.159C32.1246 184.196 32.0863 185.24 32.1319 186.283C32.2673 186.72 39.6601 187.48 39.6601 187.48C39.6601 187.48 43.3878 187.262 43.8251 186.751C44.2624 186.241 44.0437 185.887 43.8251 185.825C43.6064 185.762 34.9641 182.472 34.9641 182.472L32.7879 182.691Z" fill="#292949"/>
<path d="M22.4388 186.616C22.4388 186.616 21.8974 186.897 21.8869 187.085C21.7639 188.121 21.7152 189.165 21.7412 190.208C21.8869 190.646 29.259 191.479 29.259 191.479C29.259 191.479 32.997 191.291 33.4239 190.802C33.8509 190.313 33.6426 189.927 33.4239 189.865C33.2053 189.802 24.5942 186.418 24.5942 186.418L22.4388 186.616Z" fill="#292949"/>
<path d="M195.25 58V65H193.64V59.32H190.48V65H188.87V58H195.25ZM196.865 59.62H198.415V61.72H200.755V59.62H202.315V65H200.755V62.99H198.415V65H196.865V59.62Z" fill="#FF151F"/>
<path d="M218.72 61.35C219.147 61.4767 219.473 61.6833 219.7 61.97C219.927 62.2567 220.04 62.61 220.04 63.03C220.04 63.65 219.803 64.1333 219.33 64.48C218.863 64.8267 218.193 65 217.32 65H213.87V58H217.13C217.943 58 218.577 58.1567 219.03 58.47C219.483 58.7833 219.71 59.23 219.71 59.81C219.71 60.1567 219.623 60.4633 219.45 60.73C219.277 60.99 219.033 61.1967 218.72 61.35ZM215.48 60.9H216.99C217.343 60.9 217.61 60.83 217.79 60.69C217.97 60.5433 218.06 60.33 218.06 60.05C218.06 59.7767 217.967 59.5667 217.78 59.42C217.6 59.2733 217.337 59.2 216.99 59.2H215.48V60.9ZM217.26 63.8C218.02 63.8 218.4 63.5 218.4 62.9C218.4 62.32 218.02 62.03 217.26 62.03H215.48V63.8H217.26ZM225.721 60.9H223.901V65H222.351V60.9H220.531V59.62H225.721V60.9Z" fill="#F2F1F1"/>
<path d="M240.18 65.12C239.467 65.12 238.82 64.9667 238.24 64.66C237.667 64.3467 237.213 63.9167 236.88 63.37C236.553 62.8167 236.39 62.1933 236.39 61.5C236.39 60.8067 236.553 60.1867 236.88 59.64C237.213 59.0867 237.667 58.6567 238.24 58.35C238.82 58.0367 239.47 57.88 240.19 57.88C240.797 57.88 241.343 57.9867 241.83 58.2C242.323 58.4133 242.737 58.72 243.07 59.12L242.03 60.08C241.557 59.5333 240.97 59.26 240.27 59.26C239.837 59.26 239.45 59.3567 239.11 59.55C238.77 59.7367 238.503 60 238.31 60.34C238.123 60.68 238.03 61.0667 238.03 61.5C238.03 61.9333 238.123 62.32 238.31 62.66C238.503 63 238.77 63.2667 239.11 63.46C239.45 63.6467 239.837 63.74 240.27 63.74C240.97 63.74 241.557 63.4633 242.03 62.91L243.07 63.87C242.737 64.2767 242.323 64.5867 241.83 64.8C241.337 65.0133 240.787 65.12 240.18 65.12ZM247.176 59.54C247.676 59.54 248.129 59.6567 248.536 59.89C248.949 60.1167 249.273 60.44 249.506 60.86C249.739 61.2733 249.856 61.7567 249.856 62.31C249.856 62.8633 249.739 63.35 249.506 63.77C249.273 64.1833 248.949 64.5067 248.536 64.74C248.129 64.9667 247.676 65.08 247.176 65.08C246.489 65.08 245.949 64.8633 245.556 64.43V66.94H243.996V59.62H245.486V60.24C245.873 59.7733 246.436 59.54 247.176 59.54ZM246.906 63.8C247.306 63.8 247.633 63.6667 247.886 63.4C248.146 63.1267 248.276 62.7633 248.276 62.31C248.276 61.8567 248.146 61.4967 247.886 61.23C247.633 60.9567 247.306 60.82 246.906 60.82C246.506 60.82 246.176 60.9567 245.916 61.23C245.663 61.4967 245.536 61.8567 245.536 62.31C245.536 62.7633 245.663 63.1267 245.916 63.4C246.176 63.6667 246.506 63.8 246.906 63.8Z" fill="#F2F1F1"/>
<path d="M266.62 58V65H265.02V62.48C264.413 62.7 263.85 62.81 263.33 62.81C262.39 62.81 261.67 62.5867 261.17 62.14C260.67 61.6867 260.42 61.0367 260.42 60.19V58H262.02V60.01C262.02 60.49 262.147 60.8533 262.4 61.1C262.66 61.34 263.033 61.46 263.52 61.46C264.053 61.46 264.553 61.3567 265.02 61.15V58H266.62ZM272.76 60.9H270.94V65H269.39V60.9H267.57V59.62H272.76V60.9Z" fill="#F2F1F1"/>
<path d="M290.25 58V65H288.64V59.32H285.48V65H283.87V58H290.25ZM296.385 60.9H294.565V65H293.015V60.9H291.195V59.62H296.385V60.9Z" fill="#F2F1F1"/>
<path d="M311.18 65.12C310.467 65.12 309.82 64.9667 309.24 64.66C308.667 64.3467 308.213 63.9167 307.88 63.37C307.553 62.8167 307.39 62.1933 307.39 61.5C307.39 60.8067 307.553 60.1867 307.88 59.64C308.213 59.0867 308.667 58.6567 309.24 58.35C309.82 58.0367 310.47 57.88 311.19 57.88C311.797 57.88 312.343 57.9867 312.83 58.2C313.323 58.4133 313.737 58.72 314.07 59.12L313.03 60.08C312.557 59.5333 311.97 59.26 311.27 59.26C310.837 59.26 310.45 59.3567 310.11 59.55C309.77 59.7367 309.503 60 309.31 60.34C309.123 60.68 309.03 61.0667 309.03 61.5C309.03 61.9333 309.123 62.32 309.31 62.66C309.503 63 309.77 63.2667 310.11 63.46C310.45 63.6467 310.837 63.74 311.27 63.74C311.97 63.74 312.557 63.4633 313.03 62.91L314.07 63.87C313.737 64.2767 313.323 64.5867 312.83 64.8C312.337 65.0133 311.787 65.12 311.18 65.12ZM317.969 59.99C318.483 59.99 318.933 60.0967 319.319 60.31C319.706 60.5167 320.003 60.81 320.209 61.19C320.423 61.57 320.529 62.01 320.529 62.51C320.529 63.0233 320.403 63.48 320.149 63.88C319.903 64.2733 319.556 64.58 319.109 64.8C318.663 65.0133 318.156 65.12 317.589 65.12C316.649 65.12 315.909 64.82 315.369 64.22C314.836 63.6133 314.569 62.7267 314.569 61.56C314.569 60.48 314.803 59.62 315.269 58.98C315.743 58.3333 316.466 57.91 317.439 57.71L319.999 57.2L320.209 58.54L317.949 58.99C317.336 59.11 316.879 59.31 316.579 59.59C316.286 59.87 316.113 60.2667 316.059 60.78C316.293 60.5267 316.573 60.3333 316.899 60.2C317.226 60.06 317.583 59.99 317.969 59.99ZM317.599 63.91C317.999 63.91 318.319 63.78 318.559 63.52C318.806 63.26 318.929 62.93 318.929 62.53C318.929 62.1233 318.806 61.8 318.559 61.56C318.319 61.32 317.999 61.2 317.599 61.2C317.193 61.2 316.866 61.32 316.619 61.56C316.373 61.8 316.249 62.1233 316.249 62.53C316.249 62.9367 316.376 63.27 316.629 63.53C316.883 63.7833 317.206 63.91 317.599 63.91Z" fill="#F2F1F1"/>
<path d="M334.72 61.35C335.147 61.4767 335.473 61.6833 335.7 61.97C335.927 62.2567 336.04 62.61 336.04 63.03C336.04 63.65 335.803 64.1333 335.33 64.48C334.863 64.8267 334.193 65 333.32 65H329.87V58H333.13C333.943 58 334.577 58.1567 335.03 58.47C335.483 58.7833 335.71 59.23 335.71 59.81C335.71 60.1567 335.623 60.4633 335.45 60.73C335.277 60.99 335.033 61.1967 334.72 61.35ZM331.48 60.9H332.99C333.343 60.9 333.61 60.83 333.79 60.69C333.97 60.5433 334.06 60.33 334.06 60.05C334.06 59.7767 333.967 59.5667 333.78 59.42C333.6 59.2733 333.337 59.2 332.99 59.2H331.48V60.9ZM333.26 63.8C334.02 63.8 334.4 63.5 334.4 62.9C334.4 62.32 334.02 62.03 333.26 62.03H331.48V63.8H333.26ZM339.761 65.08C339.188 65.08 338.671 64.9633 338.211 64.73C337.758 64.49 337.401 64.16 337.141 63.74C336.888 63.32 336.761 62.8433 336.761 62.31C336.761 61.7767 336.888 61.3 337.141 60.88C337.401 60.46 337.758 60.1333 338.211 59.9C338.671 59.66 339.188 59.54 339.761 59.54C340.328 59.54 340.821 59.66 341.241 59.9C341.668 60.1333 341.978 60.47 342.171 60.91L340.961 61.56C340.681 61.0667 340.278 60.82 339.751 60.82C339.345 60.82 339.008 60.9533 338.741 61.22C338.475 61.4867 338.341 61.85 338.341 62.31C338.341 62.77 338.475 63.1333 338.741 63.4C339.008 63.6667 339.345 63.8 339.751 63.8C340.285 63.8 340.688 63.5533 340.961 63.06L342.171 63.72C341.978 64.1467 341.668 64.48 341.241 64.72C340.821 64.96 340.328 65.08 339.761 65.08Z" fill="#F2F1F1"/>
<defs>
<filter id="filter0_d" x="317.984" y="122.38" width="44.6662" height="62.6002" filterUnits="userSpaceOnUse" color-interpolation-filters="sRGB">
<feFlood flood-opacity="0" result="BackgroundImageFix"/>
<feColorMatrix in="SourceAlpha" type="matrix" values="0 0 0 0 0 0 0 0 0 0 0 0 0 0 0 0 0 0 127 0"/>
<feOffset dy="-2"/>
<feGaussianBlur stdDeviation="1.5"/>
<feColorMatrix type="matrix" values="0 0 0 0 0 0 0 0 0 0 0 0 0 0 0 0 0 0 0.05 0"/>
<feBlend mode="normal" in2="BackgroundImageFix" result="effect1_dropShadow"/>
<feBlend mode="normal" in="SourceGraphic" in2="effect1_dropShadow" result="shape"/>
</filter>
<linearGradient id="paint0_linear" x1="207.547" y1="22.8802" x2="218.295" y2="22.8802" gradientUnits="userSpaceOnUse">
<stop stop-color="white"/>
<stop offset="0.63" stop-color="#DFDFFF"/>
<stop offset="1" stop-color="#D2D2FF"/>
</linearGradient>
<linearGradient id="paint1_linear" x1="10089.6" y1="2212.72" x2="11630.1" y2="2212.72" gradientUnits="userSpaceOnUse">
<stop stop-color="white"/>
<stop offset="0.37" stop-color="#F2F2FF"/>
<stop offset="1" stop-color="#D2D2FF"/>
</linearGradient>
<linearGradient id="paint2_linear" x1="14805.9" y1="2212.72" x2="16346.4" y2="2212.72" gradientUnits="userSpaceOnUse">
<stop stop-color="white"/>
<stop offset="0.37" stop-color="#F2F2FF"/>
<stop offset="1" stop-color="#D2D2FF"/>
</linearGradient>
<linearGradient id="paint3_linear" x1="19588" y1="2212.72" x2="21128.7" y2="2212.72" gradientUnits="userSpaceOnUse">
<stop stop-color="white"/>
<stop offset="0.37" stop-color="#F2F2FF"/>
<stop offset="1" stop-color="#D2D2FF"/>
</linearGradient>
<linearGradient id="paint4_linear" x1="8274.86" y1="8588.78" x2="7534.68" y2="8571.65" gradientUnits="userSpaceOnUse">
<stop stop-color="#BE73DE"/>
<stop offset="1" stop-color="#514EB7"/>
</linearGradient>
<linearGradient id="paint5_linear" x1="335.088" y1="163.581" x2="356.675" y2="163.581" gradientUnits="userSpaceOnUse">
<stop stop-color="#B7B4B1"/>
<stop offset="0.55" stop-color="#959390"/>
<stop offset="1" stop-color="#7D7B79"/>
</linearGradient>
<linearGradient id="paint6_linear" x1="50013" y1="90855.1" x2="58056.8" y2="90855.1" gradientUnits="userSpaceOnUse">
<stop stop-color="white"/>
<stop offset="0.37" stop-color="#F2F2FF"/>
<stop offset="1" stop-color="#D2D2FF"/>
</linearGradient>
<linearGradient id="paint7_linear" x1="13819.1" y1="21487.6" x2="15683.5" y2="24165.3" gradientUnits="userSpaceOnUse">
<stop stop-color="#B7B4B1"/>
<stop offset="0.55" stop-color="#959390"/>
<stop offset="1" stop-color="#7D7B79"/>
</linearGradient>
<linearGradient id="paint8_linear" x1="16222.1" y1="21495.6" x2="18086.4" y2="24173.2" gradientUnits="userSpaceOnUse">
<stop stop-color="#B7B4B1"/>
<stop offset="0.55" stop-color="#959390"/>
<stop offset="1" stop-color="#7D7B79"/>
</linearGradient>
<linearGradient id="paint9_linear" x1="18625" y1="21503.4" x2="20489.3" y2="24180.9" gradientUnits="userSpaceOnUse">
<stop stop-color="#B7B4B1"/>
<stop offset="0.55" stop-color="#959390"/>
<stop offset="1" stop-color="#7D7B79"/>
</linearGradient>
<linearGradient id="paint10_linear" x1="21098.3" y1="21442.6" x2="22971.5" y2="24113.9" gradientUnits="userSpaceOnUse">
<stop stop-color="#B7B4B1"/>
<stop offset="0.55" stop-color="#959390"/>
<stop offset="1" stop-color="#7D7B79"/>
</linearGradient>
<linearGradient id="paint11_linear" x1="121978" y1="30730.3" x2="157801" y2="138925" gradientUnits="userSpaceOnUse">
<stop stop-color="#B7B4B1"/>
<stop offset="0.55" stop-color="#959390"/>
<stop offset="1" stop-color="#7D7B79"/>
</linearGradient>
<linearGradient id="paint12_linear" x1="139337" y1="4774.97" x2="139958" y2="16058.7" gradientUnits="userSpaceOnUse">
<stop stop-color="#B7B4B1"/>
<stop offset="0.55" stop-color="#959390"/>
<stop offset="1" stop-color="#7D7B79"/>
</linearGradient>
<linearGradient id="paint13_linear" x1="139337" y1="6709.72" x2="139957" y2="17994.6" gradientUnits="userSpaceOnUse">
<stop stop-color="#B7B4B1"/>
<stop offset="0.55" stop-color="#959390"/>
<stop offset="1" stop-color="#7D7B79"/>
</linearGradient>
<linearGradient id="paint14_linear" x1="139323" y1="8640.56" x2="139943" y2="19920.4" gradientUnits="userSpaceOnUse">
<stop stop-color="#B7B4B1"/>
<stop offset="0.55" stop-color="#959390"/>
<stop offset="1" stop-color="#7D7B79"/>
</linearGradient>
<linearGradient id="paint15_linear" x1="139322" y1="10578.6" x2="139943" y2="21863.5" gradientUnits="userSpaceOnUse">
<stop stop-color="#B7B4B1"/>
<stop offset="0.55" stop-color="#959390"/>
<stop offset="1" stop-color="#7D7B79"/>
</linearGradient>
<linearGradient id="paint16_linear" x1="139314" y1="12512" x2="139935" y2="23795.9" gradientUnits="userSpaceOnUse">
<stop stop-color="#B7B4B1"/>
<stop offset="0.55" stop-color="#959390"/>
<stop offset="1" stop-color="#7D7B79"/>
</linearGradient>
<linearGradient id="paint17_linear" x1="139310" y1="14446.2" x2="139930" y2="25730.1" gradientUnits="userSpaceOnUse">
<stop stop-color="#B7B4B1"/>
<stop offset="0.55" stop-color="#959390"/>
<stop offset="1" stop-color="#7D7B79"/>
</linearGradient>
<linearGradient id="paint18_linear" x1="9960.08" y1="48267.4" x2="37133.4" y2="60325.2" gradientUnits="userSpaceOnUse">
<stop stop-color="#B7B4B1"/>
<stop offset="0.55" stop-color="#959390"/>
<stop offset="1" stop-color="#7D7B79"/>
</linearGradient>
<linearGradient id="paint19_linear" x1="13342.2" y1="48277.7" x2="40515.2" y2="60335" gradientUnits="userSpaceOnUse">
<stop stop-color="#B7B4B1"/>
<stop offset="0.55" stop-color="#959390"/>
<stop offset="1" stop-color="#7D7B79"/>
</linearGradient>
<linearGradient id="paint20_linear" x1="16730" y1="48289" x2="43909.4" y2="60353.2" gradientUnits="userSpaceOnUse">
<stop stop-color="#B7B4B1"/>
<stop offset="0.55" stop-color="#959390"/>
<stop offset="1" stop-color="#7D7B79"/>
</linearGradient>
<linearGradient id="paint21_linear" x1="20106.6" y1="48299.3" x2="47279.9" y2="60357.1" gradientUnits="userSpaceOnUse">
<stop stop-color="#B7B4B1"/>
<stop offset="0.55" stop-color="#959390"/>
<stop offset="1" stop-color="#7D7B79"/>
</linearGradient>
<linearGradient id="paint22_linear" x1="23488.7" y1="48308.8" x2="50661.8" y2="60366.6" gradientUnits="userSpaceOnUse">
<stop stop-color="#B7B4B1"/>
<stop offset="0.55" stop-color="#959390"/>
<stop offset="1" stop-color="#7D7B79"/>
</linearGradient>
<linearGradient id="paint23_linear" x1="26870.8" y1="48320.8" x2="54044.1" y2="60378.6" gradientUnits="userSpaceOnUse">
<stop stop-color="#B7B4B1"/>
<stop offset="0.55" stop-color="#959390"/>
<stop offset="1" stop-color="#7D7B79"/>
</linearGradient>
<linearGradient id="paint24_linear" x1="30252.8" y1="48331.1" x2="57425.8" y2="60388.3" gradientUnits="userSpaceOnUse">
<stop stop-color="#B7B4B1"/>
<stop offset="0.55" stop-color="#959390"/>
<stop offset="1" stop-color="#7D7B79"/>
</linearGradient>
<linearGradient id="paint25_linear" x1="23990.8" y1="778.671" x2="18048.6" y2="-1833.61" gradientUnits="userSpaceOnUse">
<stop stop-color="#808080"/>
<stop offset="0.64" stop-color="#52524D"/>
<stop offset="1" stop-color="#3C3C35"/>
</linearGradient>
<linearGradient id="paint26_linear" x1="23981.8" y1="801.926" x2="18039.6" y2="-1810.36" gradientUnits="userSpaceOnUse">
<stop stop-color="#808080"/>
<stop offset="0.64" stop-color="#52524D"/>
<stop offset="1" stop-color="#3C3C35"/>
</linearGradient>
<linearGradient id="paint27_linear" x1="23972.8" y1="825.162" x2="18029" y2="-1785.67" gradientUnits="userSpaceOnUse">
<stop stop-color="#808080"/>
<stop offset="0.64" stop-color="#52524D"/>
<stop offset="1" stop-color="#3C3C35"/>
</linearGradient>
<linearGradient id="paint28_linear" x1="23963.8" y1="848.415" x2="18020" y2="-1762.41" gradientUnits="userSpaceOnUse">
<stop stop-color="#808080"/>
<stop offset="0.64" stop-color="#52524D"/>
<stop offset="1" stop-color="#3C3C35"/>
</linearGradient>
<linearGradient id="paint29_linear" x1="13778.8" y1="872.568" x2="9976.87" y2="-78.9476" gradientUnits="userSpaceOnUse">
<stop stop-color="#808080"/>
<stop offset="0.64" stop-color="#52524D"/>
<stop offset="1" stop-color="#3C3C35"/>
</linearGradient>
<linearGradient id="paint30_linear" x1="313.136" y1="118.981" x2="310.012" y2="76.2935" gradientUnits="userSpaceOnUse">
<stop stop-color="#F7F7F7"/>
<stop offset="1" stop-color="white"/>
</linearGradient>
<linearGradient id="paint31_linear" x1="142.148" y1="151.219" x2="199.766" y2="149.191" gradientUnits="userSpaceOnUse">
<stop stop-color="#F7F7F7"/>
<stop offset="0.3" stop-color="#FDFDFD"/>
<stop offset="1" stop-color="white"/>
</linearGradient>
<linearGradient id="paint32_linear" x1="2432.51" y1="5435.74" x2="2792.16" y2="5423.14" gradientUnits="userSpaceOnUse">
<stop stop-color="#F7F7F7"/>
<stop offset="0.3" stop-color="#FDFDFD"/>
<stop offset="1" stop-color="white"/>
</linearGradient>
<linearGradient id="paint33_linear" x1="12202.9" y1="-292.66" x2="12521.9" y2="-125.752" gradientUnits="userSpaceOnUse">
<stop stop-color="#F7F7F7"/>
<stop offset="0.3" stop-color="#FDFDFD"/>
<stop offset="1" stop-color="white"/>
</linearGradient>
<linearGradient id="paint34_linear" x1="23525.2" y1="-464.445" x2="23719.8" y2="-161.226" gradientUnits="userSpaceOnUse">
<stop stop-color="#F7F7F7"/>
<stop offset="0.3" stop-color="#FDFDFD"/>
<stop offset="1" stop-color="white"/>
</linearGradient>
<linearGradient id="paint35_linear" x1="33447.5" y1="4998.71" x2="33466.2" y2="5358.69" gradientUnits="userSpaceOnUse">
<stop stop-color="#F7F7F7"/>
<stop offset="0.3" stop-color="#FDFDFD"/>
<stop offset="1" stop-color="white"/>
</linearGradient>
<linearGradient id="paint36_linear" x1="39364.2" y1="14672.1" x2="39201.9" y2="14993.9" gradientUnits="userSpaceOnUse">
<stop stop-color="#F7F7F7"/>
<stop offset="0.3" stop-color="#FDFDFD"/>
<stop offset="1" stop-color="white"/>
</linearGradient>
<linearGradient id="paint37_linear" x1="39521" y1="26004.7" x2="39221.5" y2="26202.4" gradientUnits="userSpaceOnUse">
<stop stop-color="#F7F7F7"/>
<stop offset="0.3" stop-color="#FDFDFD"/>
<stop offset="1" stop-color="white"/>
</linearGradient>
<linearGradient id="paint38_linear" x1="34430.8" y1="36035.5" x2="34071.8" y2="36060" gradientUnits="userSpaceOnUse">
<stop stop-color="#F7F7F7"/>
<stop offset="0.3" stop-color="#FDFDFD"/>
<stop offset="1" stop-color="white"/>
</linearGradient>
<linearGradient id="paint39_linear" x1="24879" y1="42118.8" x2="24554.6" y2="41962.4" gradientUnits="userSpaceOnUse">
<stop stop-color="#F7F7F7"/>
<stop offset="0.3" stop-color="#FDFDFD"/>
<stop offset="1" stop-color="white"/>
</linearGradient>
<linearGradient id="paint40_linear" x1="13565" y1="42667.7" x2="13360.5" y2="42371" gradientUnits="userSpaceOnUse">
<stop stop-color="#F7F7F7"/>
<stop offset="0.3" stop-color="#FDFDFD"/>
<stop offset="1" stop-color="white"/>
</linearGradient>
<linearGradient id="paint41_linear" x1="3472.03" y1="37531.8" x2="3441.44" y2="37172.7" gradientUnits="userSpaceOnUse">
<stop stop-color="#F7F7F7"/>
<stop offset="0.3" stop-color="#FDFDFD"/>
<stop offset="1" stop-color="white"/>
</linearGradient>
<linearGradient id="paint42_linear" x1="-2763.49" y1="28062.3" x2="-2611.92" y2="27735.2" gradientUnits="userSpaceOnUse">
<stop stop-color="#F7F7F7"/>
<stop offset="0.3" stop-color="#FDFDFD"/>
<stop offset="1" stop-color="white"/>
</linearGradient>
<linearGradient id="paint43_linear" x1="2130.89" y1="3997.35" x2="2348.19" y2="3730.83" gradientUnits="userSpaceOnUse">
<stop stop-color="#BE73DE"/>
<stop offset="1" stop-color="#514EB7"/>
</linearGradient>
<linearGradient id="paint44_linear" x1="3012.79" y1="4743.84" x2="3168" y2="4526.86" gradientUnits="userSpaceOnUse">
<stop stop-color="#BE73DE"/>
<stop offset="1" stop-color="#514EB7"/>
</linearGradient>
<linearGradient id="paint45_linear" x1="1640.71" y1="4767.64" x2="1181.85" y2="4507.6" gradientUnits="userSpaceOnUse">
<stop stop-color="#BE73DE"/>
<stop offset="1" stop-color="#514EB7"/>
</linearGradient>
<linearGradient id="paint46_linear" x1="-1241.94" y1="10344.7" x2="-1299.17" y2="10316.4" gradientUnits="userSpaceOnUse">
<stop stop-color="#BE73DE"/>
<stop offset="1" stop-color="#514EB7"/>
</linearGradient>
<linearGradient id="paint47_linear" x1="-1322.62" y1="5938.7" x2="-1358.22" y2="5886.02" gradientUnits="userSpaceOnUse">
<stop stop-color="#BE73DE"/>
<stop offset="1" stop-color="#514EB7"/>
</linearGradient>
<linearGradient id="paint48_linear" x1="3284.64" y1="7616.99" x2="3967.42" y2="6737.83" gradientUnits="userSpaceOnUse">
<stop stop-color="#BE73DE"/>
<stop offset="1" stop-color="#514EB7"/>
</linearGradient>
</defs>
</svg>
