<svg width="505" height="381" viewBox="0 0 505 381" fill="none" xmlns="http://www.w3.org/2000/svg">
<path d="M18.1421 234.274L21.591 243.826L33.158 275.718L52.2594 328.412L71.3078 381L148.563 359.349L137.473 304.533L126.384 249.557L119.698 216.285L117.629 206.362L18.1421 234.274Z" fill="white"/>
<path d="M33.1581 275.665L52.2596 328.412L137.526 304.479L126.437 249.504L33.1581 275.665Z" fill="#8CABEF"/>
<path d="M12.3079 204.345L107.125 177.706L113.758 189.381L12.6793 217.771L12.3079 204.345Z" fill="#8CABEF"/>
<path d="M18.1441 234.274L21.5929 243.826L119.7 216.285L117.631 206.362L18.1441 234.274Z" fill="#DDDDDD"/>
<path d="M1.85335 238.785L133.972 201.745L125.801 186.038L0.632968 221.114L1.85335 238.785Z" fill="white"/>
<path d="M435.015 11.2543L502.816 252.975C503.616 255.825 501.954 258.784 499.104 259.583L308.803 312.973C305.953 313.772 302.995 312.11 302.196 309.26L234.395 67.5389C233.595 64.6889 235.257 61.7304 238.107 60.9309L428.408 7.54153C431.258 6.74204 434.216 8.40429 435.015 11.2543Z" fill="#E2DFFE"/>
<path d="M416.271 16.1206L481.263 247.827L317.885 293.663L252.893 61.9567L416.271 16.1206Z" fill="white"/>
<path d="M371.595 17.5151L377.399 38.2077C377.779 39.5621 376.989 40.9682 375.635 41.3481L300.843 62.3312C299.488 62.7112 298.082 61.9212 297.703 60.5667L291.898 39.8741C291.518 38.5196 292.308 37.1136 293.663 36.7337L368.455 15.7506C369.809 15.3706 371.215 16.1606 371.595 17.5151Z" fill="#FF151F"/>
<path d="M317.665 42.5497L323.396 19.4664C321.933 18.9898 320.61 18.1591 319.546 17.0482C318.481 15.9373 317.708 14.5805 317.294 13.0985C316.845 11.5206 316.809 9.85359 317.192 8.25811C317.574 6.66262 318.36 5.19247 319.476 3.98933C320.591 2.78619 321.997 1.89063 323.559 1.38895C325.121 0.88726 326.786 0.796359 328.393 1.12502C330 1.45368 331.495 2.19082 332.735 3.26539C333.975 4.33996 334.917 5.71574 335.47 7.26014C336.024 8.80454 336.17 10.4655 335.895 12.0829C335.621 13.7004 334.934 15.2198 333.901 16.4947L350.774 33.2102L317.665 42.5497ZM325.412 6.04087C324.491 6.29718 323.668 6.82092 323.045 7.54576C322.422 8.27061 322.028 9.16397 321.914 10.1127C321.799 11.0615 321.968 12.023 322.4 12.8755C322.832 13.728 323.507 14.4331 324.34 14.9017C325.173 15.3702 326.126 15.581 327.079 15.5075C328.031 15.4339 328.941 15.0793 329.692 14.4885C330.443 13.8977 331.002 13.0973 331.298 12.1886C331.594 11.28 331.614 10.3039 331.355 9.38397C331.008 8.15358 330.188 7.11076 329.074 6.48409C327.96 5.85742 326.643 5.69804 325.412 6.04087Z" fill="#DDDDDD"/>
<path d="M291.657 91.5105L398.481 61.5408L399.814 66.2924L292.99 96.2621L291.657 91.5105Z" fill="#DDDDDD"/>
<path d="M297.579 112.49L404.403 82.5203L405.736 87.2719L298.912 117.242L297.579 112.49Z" fill="#DDDDDD"/>
<path d="M303.43 133.364L410.254 103.394L411.587 108.146L304.763 138.116L303.43 133.364Z" fill="#DDDDDD"/>
<path d="M309.348 154.342L416.172 124.373L417.505 129.124L310.681 159.094L309.348 154.342Z" fill="#DDDDDD"/>
<path d="M315.165 175.282L421.989 145.312L423.322 150.064L316.498 180.034L315.165 175.282Z" fill="#DDDDDD"/>
<path d="M321.069 196.21L427.893 166.241L429.225 170.992L322.401 200.962L321.069 196.21Z" fill="#DDDDDD"/>
<path d="M326.99 217.136L433.814 187.166L435.147 191.918L328.323 221.888L326.99 217.136Z" fill="#C8C9CB"/>
<path d="M332.804 238.129L439.628 208.159L440.961 212.911L334.137 242.881L332.804 238.129Z" fill="#C8C9CB"/>
<path d="M109.689 57.4432L277.46 10.3745L324.509 178.113L156.738 225.181L109.689 57.4432Z" fill="white"/>
<path d="M155.409 227.588L326.897 179.457L278.825 7.95069L107.284 56.0808L155.409 227.588ZM322.122 176.751L158.115 222.759L112.112 58.7872L276.119 12.6204L322.122 176.751Z" fill="#8CABEF"/>
<path d="M109.693 57.4586L277.465 10.3899L287.196 45.082L119.424 92.1507L109.693 57.4586Z" fill="#DDDDDD"/>
<path d="M119.413 92.1275L287.185 45.0588L289.248 52.4162L121.477 99.4849L119.413 92.1275Z" fill="#8CABEF"/>
<g style="mix-blend-mode:multiply">
<path d="M240.938 37.9332C240.338 35.8009 240.383 33.5384 241.069 31.4321C241.755 29.3258 243.05 27.4702 244.79 26.1001C246.531 24.7301 248.639 23.9072 250.847 23.7356C253.055 23.5639 255.265 24.0512 257.196 25.1358C259.127 26.2204 260.694 27.8536 261.697 29.8287C262.7 31.8038 263.094 34.032 262.831 36.2314C262.567 38.4309 261.657 40.5027 260.216 42.1847C258.774 43.8667 256.866 45.0833 254.733 45.6807C251.877 46.4807 248.82 46.1141 246.233 44.6615C243.646 43.2089 241.742 40.7889 240.938 37.9332Z" fill="#8CABEF"/>
</g>
<path d="M243.01 4.5554C245.015 3.97608 247.168 4.20765 249.004 5.2002C250.84 6.19276 252.212 7.86688 252.826 9.86192L258.928 30.8227C259.319 32.8025 258.949 34.8571 257.892 36.5758C256.834 38.2946 255.167 39.5509 253.223 40.0938C251.28 40.6367 249.203 40.4262 247.408 39.5043C245.613 38.5824 244.232 37.017 243.541 35.121L237.704 14.3725C237.11 12.367 237.335 10.208 238.33 8.36802C239.324 6.52808 241.007 5.15717 243.01 4.5554Z" fill="#EFEFF0"/>
<g style="mix-blend-mode:multiply">
<path d="M187.297 52.9507C186.697 50.8185 186.743 48.556 187.428 46.4497C188.114 44.3433 189.409 42.4877 191.15 41.1177C192.89 39.7477 194.998 38.9248 197.206 38.7532C199.415 38.5815 201.624 39.0688 203.556 40.1534C205.487 41.238 207.053 42.8712 208.056 44.8463C209.059 46.8213 209.454 49.0496 209.19 51.249C208.926 53.4485 208.016 55.5203 206.575 57.2023C205.134 58.8843 203.226 60.1009 201.093 60.6983C199.678 61.1017 198.198 61.221 196.737 61.0494C195.276 60.8778 193.864 60.4186 192.581 59.6984C191.299 58.9781 190.172 58.011 189.265 56.8529C188.358 55.6948 187.689 54.3686 187.297 52.9507Z" fill="#8CABEF"/>
</g>
<path d="M189.579 19.5728C191.584 19.0076 193.73 19.2455 195.562 20.2361C197.395 21.2267 198.77 22.8922 199.395 24.8793L205.232 45.6278C205.658 47.6182 205.311 49.6963 204.26 51.4401C203.21 53.1838 201.536 54.4624 199.577 55.0163C197.619 55.5701 195.523 55.3577 193.715 54.4222C191.907 53.4866 190.523 51.8981 189.844 49.9791L184.061 29.2306C183.551 27.2195 183.842 25.0893 184.871 23.2881C185.9 21.4868 187.588 20.155 189.579 19.5728Z" fill="#EFEFF0"/>
<g style="mix-blend-mode:multiply">
<path d="M133.654 68.0211C133.057 65.8907 133.105 63.6313 133.791 61.528C134.477 59.4247 135.771 57.5718 137.509 56.2032C139.247 54.8346 141.351 54.0116 143.557 53.8382C145.762 53.6647 147.969 54.1486 149.9 55.2287C151.831 56.3088 153.398 57.9367 154.404 59.9069C155.411 61.8771 155.811 64.1013 155.554 66.2988C155.298 68.4962 154.396 70.5685 152.963 72.2539C151.53 73.9393 149.63 75.1623 147.502 75.7686C144.639 76.57 141.575 76.2049 138.979 74.7531C136.384 73.3013 134.47 70.8808 133.654 68.0211Z" fill="#8CABEF"/>
</g>
<path d="M135.937 34.643C137.942 34.0637 140.095 34.2953 141.931 35.2879C143.767 36.2804 145.139 37.9545 145.753 39.9496L151.537 60.9103C151.819 61.9173 151.9 62.97 151.775 64.0083C151.651 65.0466 151.323 66.0502 150.81 66.9618C150.298 67.8734 149.611 68.6752 148.789 69.3213C147.967 69.9674 147.025 70.4452 146.018 70.7274C143.985 71.2974 141.808 71.0362 139.968 70.0012C139.056 69.4887 138.254 68.8017 137.608 67.9794C136.962 67.1571 136.485 66.2156 136.202 65.2086L130.419 44.4601C130.129 43.4532 130.042 42.3986 130.163 41.3577C130.284 40.3168 130.611 39.3104 131.124 38.397C131.638 37.4835 132.328 36.6812 133.154 36.0368C133.98 35.3924 134.926 34.9186 135.937 34.643Z" fill="#EFEFF0"/>
<path d="M244.115 151.893C244.979 154.402 245.28 154.644 248.896 154.43C249.202 154.323 249.527 154.281 249.851 154.304C250.174 154.328 250.489 154.417 250.777 154.566C251.065 154.716 251.319 154.922 251.525 155.173C251.73 155.424 251.883 155.714 251.973 156.025C252.928 158.664 249.585 159.725 248.813 160.011L227.64 167.558C226.99 168.017 223.573 169.065 222.649 166.47C222.516 166.176 222.446 165.858 222.443 165.536C222.439 165.213 222.502 164.894 222.628 164.597C222.754 164.301 222.941 164.034 223.175 163.813C223.409 163.591 223.687 163.421 223.991 163.313C226.981 161.201 227.014 160.788 226.15 158.279L210.921 115.497C209.115 110.276 208.345 110.105 206.103 110.518C203.862 110.932 202.781 111.241 202.155 109.344C201.072 106.34 204.476 105.366 205.447 104.81L224.752 96.8274L244.115 151.893Z" fill="#8CABEF"/>
<path d="M378.891 156.218L395.487 215.384C395.962 217.077 394.974 218.834 393.281 219.309L119.452 296.133C117.759 296.608 116.002 295.62 115.527 293.927L98.9317 234.762C98.4568 233.068 99.4442 231.311 101.137 230.836L374.966 154.013C376.659 153.538 378.416 154.525 378.891 156.218Z" fill="#5D66D3"/>
<path d="M375.781 157.067L378.661 167.337L104.883 244.146L102.003 233.876L375.781 157.067Z" fill="white"/>
<path d="M141.243 245.141L156.62 240.827L164.044 267.293L148.666 271.607L141.243 245.141Z" fill="white"/>
<path d="M397.192 221.524L413.788 280.689C414.262 282.382 413.275 284.14 411.582 284.615L137.753 361.438C136.06 361.913 134.303 360.926 133.828 359.233L117.232 300.067C116.757 298.374 117.745 296.616 119.438 296.141L393.267 219.318C394.96 218.843 396.717 219.831 397.192 221.524Z" fill="#5D66D3"/>
<path d="M394.082 222.372L396.963 232.642L123.185 309.451L120.304 299.182L394.082 222.372Z" fill="white"/>
<path d="M159.569 310.402L174.946 306.088L182.37 332.554L166.993 336.868L159.569 310.402Z" fill="white"/>
<path d="M187.094 307.93C188.357 307.349 189.671 306.885 191.019 306.546C192.503 306.001 194.12 305.932 195.644 306.351C196.205 306.515 196.711 306.825 197.112 307.249C197.513 307.673 197.794 308.196 197.926 308.765C198.107 309.51 198.049 310.294 197.761 311.005C197.472 311.716 196.967 312.318 196.318 312.727C197.234 312.674 198.141 312.939 198.884 313.478C199.628 314.017 200.162 314.797 200.397 315.684C200.56 316.281 200.587 316.907 200.476 317.515C200.365 318.124 200.119 318.7 199.757 319.2C198.437 320.78 196.611 321.853 194.588 322.239C193.466 322.553 192.32 322.774 191.161 322.9L187.094 307.93ZM191.399 313.156L192.849 312.796C194.765 312.285 195.639 311.155 195.241 309.851C194.843 308.546 193.619 308.034 191.867 308.51C191.338 308.629 190.823 308.808 190.333 309.042L191.399 313.156ZM193.232 320.143L194.709 319.828C196.507 319.326 197.774 318.027 197.424 316.386C197.074 314.745 195.212 314.3 193.296 314.811L191.919 315.19L193.232 320.143Z" fill="white"/>
<path d="M202.732 303.539L205.049 312.396C205.87 315.361 207.417 316.421 209.387 316.002C211.356 315.583 212.209 313.789 211.434 310.797L208.99 301.83L211.745 301.072L214.027 309.765C214.402 310.584 214.585 311.477 214.564 312.377C214.543 313.277 214.317 314.16 213.905 314.96C213.492 315.76 212.903 316.456 212.182 316.995C211.461 317.534 210.626 317.902 209.742 318.071C206.285 318.996 203.366 317.695 202.205 312.898L199.84 304.378L202.732 303.539Z" fill="white"/>
<path d="M218.139 312.457C219.417 312.795 220.759 312.81 222.043 312.501C223.841 311.998 224.65 310.968 224.279 309.709C223.907 308.45 223.001 308.059 220.918 307.868C218.836 307.676 216.25 306.734 215.758 304.746C215.629 304.09 215.637 303.415 215.78 302.762C215.924 302.11 216.199 301.493 216.59 300.952C216.982 300.41 217.48 299.955 218.054 299.614C218.629 299.272 219.267 299.053 219.93 298.968C221.194 298.608 222.524 298.542 223.818 298.776L223.697 301.186C222.655 300.944 221.568 300.969 220.538 301.258C218.76 301.688 218.114 302.683 218.496 303.751C218.879 304.819 219.785 305.21 222.04 305.485C224.295 305.76 226.552 306.772 227.018 308.714C227.483 310.657 226.338 313.731 222.461 314.779C221.094 315.101 219.674 315.117 218.301 314.824L218.139 312.457Z" fill="white"/>
<path d="M229.44 296.517L233.423 311.659L230.668 312.416L226.658 297.229L229.44 296.517Z" fill="white"/>
<path d="M236.627 310.822L232.643 295.68L235.772 294.826L241.404 300.318C242.805 301.702 244.121 303.169 245.343 304.713C244.66 302.714 244.076 300.779 243.468 298.49L242.057 293.163L244.629 292.512L248.613 307.654L245.785 308.393L240.054 302.836C238.646 301.385 237.158 299.798 235.961 298.286C236.591 300.193 237.156 302.2 237.826 304.7L239.191 310.053L236.627 310.822Z" fill="white"/>
<path d="M258.555 297.869L252.854 299.374L253.99 303.816L260.393 302.144L260.975 304.388L251.816 306.818L247.833 291.676L256.617 289.343L257.271 291.606L251.196 293.208L252.2 297.111L257.947 295.58L258.555 297.869Z" fill="white"/>
<path d="M262.532 300.764C263.829 301.08 265.182 301.086 266.482 300.781C268.233 300.305 269.043 299.275 268.69 297.943C268.338 296.612 267.668 296.205 265.357 296.148C263.045 296.091 260.643 295.041 260.196 293.026C260.059 292.369 260.061 291.692 260.201 291.036C260.341 290.38 260.616 289.761 261.009 289.217C261.401 288.674 261.903 288.218 262.481 287.879C263.059 287.54 263.702 287.325 264.368 287.249C265.632 286.888 266.962 286.822 268.256 287.056L268.135 289.466C267.093 289.225 266.007 289.249 264.977 289.538C263.198 289.968 262.553 290.963 262.908 291.986C263.263 293.008 264.224 293.49 266.478 293.765C268.733 294.04 270.991 295.052 271.456 296.995C271.922 298.937 270.803 302.057 266.899 303.06C265.486 303.468 263.994 303.52 262.556 303.212L262.532 300.764Z" fill="white"/>
<path d="M274.262 297.684C275.535 298.007 276.868 298.007 278.139 297.682C279.964 297.226 280.746 296.15 280.375 294.891C280.004 293.631 279.124 293.287 277.041 293.095C274.959 292.904 272.346 291.916 271.88 289.973C271.755 289.313 271.768 288.635 271.917 287.98C272.066 287.325 272.348 286.708 272.747 286.168C273.145 285.627 273.651 285.175 274.232 284.839C274.814 284.503 275.458 284.29 276.126 284.215C277.362 283.84 278.67 283.767 279.941 284.003L279.866 286.387C278.804 286.171 277.707 286.205 276.661 286.485C274.91 286.961 274.283 287.883 274.619 288.978C274.956 290.073 275.935 290.483 278.163 290.712C280.391 290.941 282.675 291.999 283.141 293.942C283.606 295.884 282.487 299.005 278.584 300.007C277.167 300.392 275.681 300.444 274.241 300.159L274.262 297.684Z" fill="white"/>
</svg>
