<svg width="15" height="15" viewBox="0 0 15 15" fill="none" xmlns="http://www.w3.org/2000/svg">
<path d="M13.3838 0.941396H12.6465V0.439453C12.6465 0.196758 12.4497 0 12.207 0C11.9643 0 11.7676 0.196758 11.7676 0.439453V0.941396H10.7637V0.439453C10.7637 0.196758 10.5669 0 10.3242 0C10.0815 0 9.88477 0.196758 9.88477 0.439453V0.941396H8.88085V0.439453C8.88085 0.196758 8.68409 0 8.4414 0C8.1987 0 8.00194 0.196758 8.00194 0.439453V0.941396H6.998V0.439453C6.998 0.196758 6.80124 0 6.55855 0C6.31585 0 6.11909 0.196758 6.11909 0.439453V0.941396H5.11523V0.439453C5.11523 0.196758 4.91848 0 4.67578 0C4.43309 0 4.23633 0.196758 4.23633 0.439453V0.941396H3.23241V0.439453C3.23241 0.196758 3.03565 0 2.79296 0C2.55026 0 2.35351 0.196758 2.35351 0.439453V0.941396H1.61622C0.725039 0.941396 0 1.66644 0 2.55762V13.3838C0 14.275 0.725039 15 1.61622 15H11.7363C13.5359 15 15 13.5359 15 11.7363V2.55762C15 1.66644 14.275 0.941396 13.3838 0.941396ZM1.61622 1.8203H2.35351V2.32228C2.35351 2.56497 2.55026 2.76173 2.79296 2.76173C3.03565 2.76173 3.23241 2.56497 3.23241 2.32228V1.8203H4.23633V2.32228C4.23633 2.56497 4.43309 2.76173 4.67578 2.76173C4.91848 2.76173 5.11523 2.56497 5.11523 2.32228V1.8203H6.11915V2.32228C6.11915 2.56497 6.31591 2.76173 6.5586 2.76173C6.8013 2.76173 6.99806 2.56497 6.99806 2.32228V1.8203H8.002V2.32228C8.002 2.56497 8.19876 2.76173 8.44146 2.76173C8.68415 2.76173 8.88091 2.56497 8.88091 2.32228V1.8203H9.88477V2.32228C9.88477 2.56497 10.0815 2.76173 10.3242 2.76173C10.5669 2.76173 10.7637 2.56497 10.7637 2.32228V1.8203H11.7676V2.32228C11.7676 2.56497 11.9643 2.76173 12.207 2.76173C12.4497 2.76173 12.6465 2.56497 12.6465 2.32228V1.8203H13.3838C13.7903 1.8203 14.1211 2.15106 14.1211 2.55762V3.76562H0.878906V2.55762C0.878906 2.15106 1.20967 1.8203 1.61622 1.8203ZM11.7363 14.1211C10.4214 14.1211 9.35159 13.0513 9.35159 11.7363C9.35159 10.4214 10.4214 9.35159 11.7363 9.35159C13.0513 9.35159 14.1211 10.4214 14.1211 11.7363C14.1211 13.0513 13.0513 14.1211 11.7363 14.1211ZM11.7363 8.47266C9.93674 8.47266 8.47266 9.93674 8.47266 11.7363C8.47266 12.6766 8.87244 13.525 9.51076 14.1211H1.61622C1.20967 14.1211 0.878906 13.7903 0.878906 13.3838V4.64452H14.1211V9.51079C13.525 8.87247 12.6765 8.47266 11.7363 8.47266Z" fill="#C8C8C8"/>
<path d="M4.67578 6.11925C4.56006 6.11925 4.44668 6.16612 4.36494 6.24786C4.2832 6.3296 4.23633 6.44298 4.23633 6.5587C4.23633 6.6741 4.2832 6.78751 4.36494 6.86925C4.44697 6.95099 4.56006 6.99786 4.67578 6.99786C4.7915 6.99786 4.90459 6.95099 4.98662 6.86925C5.06836 6.78751 5.11523 6.67413 5.11523 6.5587C5.11523 6.44298 5.06836 6.3296 4.98662 6.24786C4.90488 6.16612 4.7915 6.11925 4.67578 6.11925Z" fill="#C8C8C8"/>
<path d="M6.55859 6.11925C6.44287 6.11925 6.32949 6.16612 6.24775 6.24786C6.16602 6.3296 6.11914 6.44298 6.11914 6.5587C6.11914 6.6741 6.16602 6.78751 6.24775 6.86925C6.32949 6.95099 6.44287 6.99786 6.55859 6.99786C6.67405 6.99786 6.7874 6.95099 6.86914 6.86925C6.95088 6.78751 6.99805 6.67413 6.99805 6.5587C6.99805 6.44298 6.95088 6.3296 6.86914 6.24786C6.7874 6.16612 6.67402 6.11925 6.55859 6.11925Z" fill="#C8C8C8"/>
<path d="M8.44111 6.11925C8.32539 6.11925 8.2123 6.16612 8.13057 6.24786C8.04883 6.3296 8.00195 6.44298 8.00195 6.5587C8.00195 6.67439 8.04883 6.78751 8.13057 6.86925C8.2123 6.95099 8.32568 6.99786 8.44111 6.99786C8.55684 6.99786 8.67021 6.95099 8.75195 6.86925C8.83369 6.78751 8.88057 6.67413 8.88057 6.5587C8.88057 6.44298 8.83369 6.3296 8.75195 6.24786C8.67021 6.16612 8.55684 6.11925 8.44111 6.11925Z" fill="#C8C8C8"/>
<path d="M10.3242 6.11925C10.2085 6.11925 10.0951 6.16612 10.0134 6.24786C9.93164 6.3296 9.88477 6.44298 9.88477 6.5587C9.88477 6.6741 9.93164 6.78751 10.0134 6.86925C10.0954 6.95099 10.2085 6.99786 10.3242 6.99786C10.4399 6.99786 10.5533 6.95099 10.6351 6.86925C10.7168 6.78751 10.7637 6.67413 10.7637 6.5587C10.7637 6.44298 10.7168 6.3296 10.6351 6.24786C10.5533 6.16612 10.4399 6.11925 10.3242 6.11925Z" fill="#C8C8C8"/>
<path d="M12.207 6.11925C12.0913 6.11925 11.9779 6.16612 11.8962 6.24786C11.8145 6.3296 11.7676 6.44298 11.7676 6.5587C11.7676 6.6741 11.8145 6.78751 11.8962 6.86925C11.9779 6.95099 12.0913 6.99786 12.207 6.99786C12.3228 6.99786 12.4358 6.95099 12.5176 6.86925C12.5993 6.78751 12.6465 6.67413 12.6465 6.5587C12.6465 6.44298 12.5993 6.3296 12.5176 6.24786C12.4358 6.16612 12.3228 6.11925 12.207 6.11925Z" fill="#C8C8C8"/>
<path d="M2.79297 8.00185C2.67725 8.00185 2.56416 8.04872 2.48242 8.13046C2.40039 8.21249 2.35352 8.32587 2.35352 8.4413C2.35352 8.55702 2.40039 8.6704 2.48242 8.75214C2.56416 8.83388 2.67725 8.88075 2.79297 8.88075C2.90869 8.88075 3.02207 8.83388 3.10381 8.75214C3.18555 8.6704 3.23242 8.55702 3.23242 8.4413C3.23242 8.32587 3.18555 8.21246 3.10381 8.13046C3.02207 8.04869 2.90869 8.00185 2.79297 8.00185Z" fill="#C8C8C8"/>
<path d="M4.67578 8.00185C4.56006 8.00185 4.44668 8.04872 4.36494 8.13046C4.2832 8.21249 4.23633 8.32587 4.23633 8.4413C4.23633 8.55702 4.2832 8.6704 4.36494 8.75214C4.44697 8.83388 4.56006 8.88075 4.67578 8.88075C4.7915 8.88075 4.90459 8.83388 4.98662 8.75214C5.06836 8.6704 5.11523 8.55702 5.11523 8.4413C5.11523 8.32558 5.06836 8.21246 4.98662 8.13046C4.90459 8.04869 4.7915 8.00185 4.67578 8.00185Z" fill="#C8C8C8"/>
<path d="M6.55859 8.00185C6.44287 8.00185 6.32949 8.04872 6.24775 8.13046C6.16602 8.21249 6.11914 8.32558 6.11914 8.4413C6.11914 8.55702 6.16602 8.6704 6.24775 8.75214C6.32949 8.83388 6.44287 8.88075 6.55859 8.88075C6.67405 8.88075 6.7874 8.83388 6.86914 8.75214C6.95088 8.6704 6.99805 8.55702 6.99805 8.4413C6.99805 8.32587 6.95088 8.21246 6.86914 8.13046C6.7874 8.04869 6.67432 8.00185 6.55859 8.00185Z" fill="#C8C8C8"/>
<path d="M8.44141 8.00185C8.32568 8.00185 8.2126 8.04872 8.13086 8.13046C8.04912 8.21249 8.00195 8.32587 8.00195 8.4413C8.00195 8.55702 8.04912 8.6704 8.13086 8.75214C8.2126 8.83388 8.32568 8.88075 8.44141 8.88075C8.55713 8.88075 8.67051 8.83388 8.75225 8.75214C8.83398 8.6704 8.88086 8.55702 8.88086 8.4413C8.88086 8.32587 8.83398 8.21246 8.75225 8.13046C8.67051 8.04869 8.55713 8.00185 8.44141 8.00185Z" fill="#C8C8C8"/>
<path d="M2.79297 9.88472C2.67754 9.88472 2.56416 9.93162 2.48242 10.0134C2.40068 10.0951 2.35352 10.2085 2.35352 10.3242C2.35352 10.4399 2.40068 10.553 2.48242 10.635C2.56416 10.7168 2.67754 10.7636 2.79297 10.7636C2.90869 10.7636 3.02207 10.7168 3.10381 10.635C3.18555 10.553 3.23242 10.4399 3.23242 10.3242C3.23242 10.2085 3.18555 10.0954 3.10381 10.0134C3.02207 9.93162 2.90869 9.88472 2.79297 9.88472Z" fill="#C8C8C8"/>
<path d="M4.67578 9.88472C4.56006 9.88472 4.44668 9.93162 4.36494 10.0134C4.2832 10.0951 4.23633 10.2085 4.23633 10.3242C4.23633 10.4399 4.2832 10.553 4.36494 10.635C4.44697 10.7168 4.56006 10.7636 4.67578 10.7636C4.7915 10.7636 4.90459 10.7168 4.98662 10.635C5.06836 10.553 5.11523 10.4399 5.11523 10.3242C5.11523 10.2085 5.06836 10.0951 4.98662 10.0134C4.90459 9.93162 4.7915 9.88472 4.67578 9.88472Z" fill="#C8C8C8"/>
<path d="M6.55859 9.88472C6.44287 9.88472 6.32949 9.93162 6.24775 10.0134C6.16602 10.0951 6.11914 10.2085 6.11914 10.3242C6.11914 10.4399 6.16602 10.553 6.24775 10.635C6.32949 10.7168 6.44287 10.7636 6.55859 10.7636C6.67405 10.7636 6.7874 10.7168 6.86914 10.635C6.95117 10.553 6.99805 10.4399 6.99805 10.3242C6.99805 10.2085 6.95117 10.0951 6.86914 10.0134C6.7874 9.93162 6.67432 9.88472 6.55859 9.88472Z" fill="#C8C8C8"/>
<path d="M2.79297 11.7676C2.67725 11.7676 2.56416 11.8145 2.48242 11.8963C2.40039 11.978 2.35352 12.0914 2.35352 12.2068C2.35352 12.3225 2.40039 12.4359 2.48242 12.5176C2.56416 12.5994 2.67754 12.6465 2.79297 12.6465C2.90869 12.6465 3.02178 12.5994 3.10381 12.5176C3.18555 12.4359 3.23242 12.3225 3.23242 12.2068C3.23242 12.0914 3.18555 11.978 3.10381 11.8963C3.02207 11.8145 2.90869 11.7676 2.79297 11.7676Z" fill="#C8C8C8"/>
<path d="M4.67578 11.7676C4.56006 11.7676 4.44697 11.8145 4.36494 11.8963C4.2832 11.978 4.23633 12.0914 4.23633 12.2068C4.23633 12.3225 4.2832 12.4359 4.36494 12.5176C4.44697 12.5994 4.56006 12.6465 4.67578 12.6465C4.7915 12.6465 4.90459 12.5994 4.98662 12.5176C5.06836 12.4359 5.11523 12.3225 5.11523 12.2068C5.11523 12.0914 5.06836 11.978 4.98662 11.8963C4.90459 11.8145 4.7915 11.7676 4.67578 11.7676Z" fill="#C8C8C8"/>
<path d="M6.55859 11.7676C6.44287 11.7676 6.32949 11.8145 6.24775 11.8963C6.16602 11.978 6.11914 12.0914 6.11914 12.2068C6.11914 12.3225 6.16602 12.4359 6.24775 12.5176C6.32949 12.5994 6.44287 12.6465 6.55859 12.6465C6.67405 12.6465 6.7874 12.5994 6.86914 12.5176C6.95088 12.4359 6.99805 12.3225 6.99805 12.2068C6.99805 12.0914 6.95088 11.978 6.86914 11.8963C6.7874 11.8145 6.67402 11.7676 6.55859 11.7676Z" fill="#C8C8C8"/>
<path d="M12.6777 11.2968H12.1758V10.7949C12.1758 10.5522 11.979 10.3554 11.7363 10.3554C11.4936 10.3554 11.2969 10.5522 11.2969 10.7949V11.7363C11.2969 11.979 11.4936 12.1757 11.7363 12.1757H12.6778C12.9204 12.1757 13.1172 11.979 13.1172 11.7363C13.1172 11.4936 12.9204 11.2968 12.6777 11.2968Z" fill="#C8C8C8"/>
</svg>
