<svg width="57" height="57" viewBox="0 0 57 57" fill="none" xmlns="http://www.w3.org/2000/svg">
<path d="M27.3331 56.6194L27.8417 48.646H25.9769L24.7902 56.6194H27.3331ZM44.2856 52.5478L46.4894 51.1058L41.658 44.6593L40.1323 45.6771L44.2856 52.5478ZM9.61775 48.5611L14.6187 42.878L13.3473 41.436L7.15963 46.695L9.61775 48.5611ZM56.3219 37.1948C56.3219 36.3466 56.8305 35.5832 57 34.7349L49.2018 32.8688C49.0425 33.4747 48.8443 34.0697 48.6085 34.6501L56.3219 37.1948ZM0.97197 30.8331L8.93965 30.1545C8.93965 29.4759 8.93965 28.8821 8.93965 28.2035H0.463394C0.586678 29.0884 0.756435 29.9661 0.97197 30.8331ZM48.5237 20.5694L55.9828 17.5158C55.9828 16.7524 55.3047 15.9042 54.8809 15.1407L47.7609 18.873L48.5237 20.5694ZM12.2454 17.6006C12.5342 17.0332 12.8747 16.4937 13.2625 15.989L6.14249 11.2389C5.61414 11.9118 5.13268 12.6204 4.70152 13.3595L12.2454 17.6006ZM39.0303 10.1362L42.7599 3.01101L40.0475 1.90831L36.996 9.28794L39.0303 10.1362ZM23.095 8.86382C23.6295 8.60523 24.2018 8.43343 24.7902 8.35488L23.095 0.466309L20.5521 1.14489L23.095 8.86382Z" fill="#CACBCD"/>
</svg>
