<svg width="104" height="103" viewBox="0 0 104 103" fill="none" xmlns="http://www.w3.org/2000/svg">
<path d="M49.1623 102.976L50.0947 88.2163H46.7042L44.3309 102.721L49.1623 102.976ZM79.7616 95.5111C81.1178 94.6628 82.3892 93.8146 83.7454 92.7967L75.2692 81.0063L72.3873 82.8724L79.7616 95.5111ZM16.2745 88.2163L26.5307 77.6133C25.697 76.8356 24.9048 76.0145 24.1574 75.1535L12.9687 84.8233C14.0066 86.0151 15.1102 87.1478 16.2745 88.2163ZM101.715 67.3497C102.224 65.8229 102.647 64.2961 103.071 62.6844L89.0855 59.3763C88.8535 60.4998 88.5419 61.6053 88.1531 62.6844L101.715 67.3497ZM6.86646e-05 55.6441L15.4268 54.2869C15.4268 53.1842 15.4268 52.0815 15.4268 50.894H0.678169C0.619797 52.4777 0.648094 54.0635 0.762932 55.6441H6.86646e-05ZM87.3902 36.8133L101.037 31.2998C100.445 29.7911 99.7661 28.3183 99.0027 26.889L85.9493 33.9293C86.4578 34.7776 86.9664 35.7954 87.3902 36.8133ZM20.7669 31.3846C21.367 30.3905 22.0177 29.4279 22.7164 28.5006L10.9344 20.0183C9.95349 21.2932 9.04781 22.6244 8.22203 24.005L20.7669 31.3846ZM69.9291 17.7281L76.7949 4.58046L72.3873 2.5447L66.8777 16.2861C67.9402 16.664 68.9625 17.147 69.9291 17.7281ZM41.0251 15.2682L44.3309 14.42L41.1099 0C39.5327 0.333957 37.9762 0.758781 36.4479 1.27235L41.0251 15.2682Z" fill="#CACBCD"/>
</svg>
