<svg width="837" height="689" viewBox="0 0 837 689" fill="none" xmlns="http://www.w3.org/2000/svg">
<path d="M719.655 528.473C677.743 559.266 635.887 515.19 615.664 556.832C576.005 638.756 481.291 624.634 454.59 574.195C423.591 515.576 358.863 554.663 356.547 477.306C354.752 416.704 426.353 387.405 428.347 343.495C430.341 299.586 412.807 261.17 451.463 215.828C473.537 189.947 547.425 174.283 558.861 271.102C572.878 389.784 708.295 327.537 758.024 396.854C807.753 466.17 776.231 486.926 719.655 528.473Z" fill="#E2DFFE"/>
<path d="M260.697 158.371C260.056 158.391 259.434 158.159 258.962 157.726C258.49 157.293 258.205 156.693 258.169 156.053L254.237 108.064H245.11C237.426 108.065 229.997 105.307 224.173 100.291C218.349 95.2757 214.517 88.3351 213.374 80.7314L212.882 77.7804C212.359 74.1119 213.305 70.3851 215.514 67.4112C217.723 64.4372 221.017 62.4568 224.678 61.9011H226.784C230.16 61.8603 233.438 63.0382 236.017 65.219C238.596 67.3998 240.303 70.4374 240.827 73.7755L241.318 76.7265C241.455 77.7259 241.951 78.6411 242.713 79.3008C243.476 79.9604 244.453 80.3192 245.461 80.3099H252.482L250.375 54.2425C249.924 49.0139 250.564 43.7484 252.253 38.7802C253.943 33.812 256.646 29.2495 260.192 25.3822C263.737 21.5148 268.046 18.427 272.847 16.3147C277.648 14.2023 282.835 13.1116 288.079 13.1116C293.324 13.1116 298.511 14.2023 303.311 16.3147C308.112 18.427 312.422 21.5148 315.967 25.3822C319.512 29.2495 322.215 33.812 323.905 38.7802C325.595 43.7484 326.235 49.0139 325.783 54.2425L324.8 66.0466H333.366C335.248 66.0516 337.07 65.3807 338.5 64.1559C339.93 62.9311 340.874 61.2335 341.16 59.3717L341.862 54.8749C342.57 50.133 344.961 45.805 348.597 42.6827C352.233 39.5603 356.87 37.8524 361.662 37.8713H364.821C370.081 38.7009 374.797 41.5875 377.931 45.8962C381.065 50.2049 382.36 55.5829 381.532 60.8472L380.829 65.344C379.113 76.6833 373.384 87.0285 364.685 94.4954C355.986 101.962 344.897 106.054 333.436 106.026H321.079L317.007 156.053C316.97 156.693 316.686 157.293 316.214 157.726C315.742 158.159 315.119 158.391 314.479 158.371H260.697Z" fill="#FF151F"/>
<path d="M271.512 40.963C271.521 41.3933 271.444 41.8212 271.286 42.2215C271.128 42.6217 270.892 42.9864 270.591 43.294C270.29 43.6016 269.931 43.846 269.534 44.0128C269.138 44.1796 268.712 44.2654 268.282 44.2653C267.813 44.3343 267.335 44.3015 266.88 44.1689C266.425 44.0364 266.004 43.8073 265.645 43.4973C265.286 43.1873 264.998 42.8036 264.801 42.3724C264.604 41.9411 264.502 41.4724 264.502 40.9981C264.502 40.5239 264.604 40.0552 264.801 39.6239C264.998 39.1926 265.286 38.809 265.645 38.4989C266.004 38.1889 266.425 37.9599 266.88 37.8273C267.335 37.6948 267.813 37.6619 268.282 37.7309C269.139 37.7309 269.96 38.0715 270.566 38.6776C271.171 39.2837 271.512 40.1058 271.512 40.963Z" fill="white"/>
<path d="M292.501 33.0232C292.515 33.6821 292.332 34.3301 291.975 34.8838C291.617 35.4375 291.103 35.8716 290.497 36.1302C289.891 36.3888 289.222 36.4601 288.576 36.335C287.929 36.2098 287.335 35.8939 286.869 35.4278C286.403 34.9618 286.087 34.367 285.962 33.7199C285.837 33.0729 285.909 32.4032 286.167 31.7969C286.425 31.1907 286.859 30.6758 287.412 30.3183C287.966 29.9609 288.613 29.7773 289.272 29.7911C290.123 29.8091 290.934 30.1554 291.536 30.7576C292.138 31.3599 292.484 32.1716 292.501 33.0232Z" fill="white"/>
<path d="M303.876 59.7935C303.945 60.2627 303.912 60.7413 303.78 61.1967C303.648 61.6521 303.419 62.0735 303.109 62.4325C302.799 62.7914 302.416 63.0793 301.985 63.2767C301.554 63.4741 301.085 63.5762 300.612 63.5762C300.138 63.5762 299.669 63.4741 299.238 63.2767C298.807 63.0793 298.424 62.7914 298.114 62.4325C297.804 62.0735 297.575 61.6521 297.443 61.1967C297.311 60.7413 297.278 60.2627 297.347 59.7935C297.462 59.0093 297.855 58.2928 298.454 57.7747C299.054 57.2566 299.819 56.9716 300.612 56.9716C301.404 56.9716 302.169 57.2566 302.769 57.7747C303.368 58.2928 303.761 59.0093 303.876 59.7935Z" fill="white"/>
<path d="M279.022 81.4342C279.022 82.31 278.674 83.15 278.055 83.7693C277.436 84.3886 276.597 84.7365 275.722 84.7365C274.847 84.7365 274.007 84.3886 273.388 83.7693C272.77 83.15 272.422 82.31 272.422 81.4342C272.422 80.5583 272.77 79.7184 273.388 79.0991C274.007 78.4798 274.847 78.1318 275.722 78.1318C276.597 78.1318 277.436 78.4798 278.055 79.0991C278.674 79.7184 279.022 80.5583 279.022 81.4342Z" fill="white"/>
<path d="M289.765 105.394C289.779 106.05 289.598 106.695 289.244 107.247C288.889 107.8 288.379 108.234 287.778 108.495C287.176 108.755 286.51 108.831 285.866 108.711C285.221 108.592 284.626 108.283 284.158 107.824C283.689 107.365 283.368 106.777 283.235 106.135C283.102 105.492 283.163 104.825 283.41 104.217C283.658 103.61 284.081 103.09 284.625 102.724C285.169 102.358 285.81 102.162 286.465 102.162C287.328 102.162 288.157 102.5 288.774 103.104C289.391 103.708 289.747 104.53 289.765 105.394Z" fill="white"/>
<path d="M273.825 121.343C273.824 121.999 273.629 122.641 273.263 123.185C272.897 123.73 272.378 124.153 271.771 124.4C271.164 124.648 270.496 124.709 269.855 124.576C269.213 124.443 268.625 124.121 268.166 123.652C267.708 123.184 267.399 122.589 267.28 121.943C267.16 121.298 267.236 120.632 267.496 120.03C267.757 119.428 268.191 118.917 268.743 118.563C269.295 118.209 269.939 118.027 270.595 118.041C271.458 118.059 272.279 118.415 272.883 119.033C273.487 119.65 273.825 120.48 273.825 121.343Z" fill="white"/>
<path d="M301.07 131.25C302.893 131.25 304.37 129.772 304.37 127.948C304.37 126.124 302.893 124.646 301.07 124.646C299.248 124.646 297.771 126.124 297.771 127.948C297.771 129.772 299.248 131.25 301.07 131.25Z" fill="white"/>
<path d="M221.519 78.4828C222.683 78.4828 223.626 77.5391 223.626 76.375C223.626 75.2108 222.683 74.2671 221.519 74.2671C220.356 74.2671 219.413 75.2108 219.413 76.375C219.413 77.5391 220.356 78.4828 221.519 78.4828Z" fill="white"/>
<path d="M233.805 70.684C233.805 70.9668 233.748 71.2468 233.638 71.5072C233.528 71.7676 233.366 72.0032 233.163 72.1999C232.96 72.3966 232.72 72.5503 232.456 72.652C232.192 72.7538 231.911 72.8013 231.628 72.7919C231.349 72.8017 231.071 72.7539 230.811 72.6514C230.551 72.549 230.314 72.3941 230.117 72.1963C229.919 71.9986 229.765 71.7623 229.662 71.5021C229.56 71.2419 229.512 70.9635 229.522 70.684C229.512 70.4013 229.56 70.1197 229.661 69.8558C229.763 69.5918 229.917 69.3511 230.113 69.1479C230.31 68.9446 230.545 68.7831 230.806 68.6728C231.066 68.5625 231.346 68.5057 231.628 68.5059C232.205 68.5059 232.759 68.7353 233.167 69.1438C233.575 69.5523 233.805 70.1063 233.805 70.684Z" fill="white"/>
<path d="M232.685 91.3414C232.742 91.6553 232.73 91.9779 232.648 92.2864C232.567 92.5948 232.419 92.8817 232.215 93.1266C232.011 93.3716 231.755 93.5686 231.466 93.7038C231.178 93.8391 230.863 93.9091 230.544 93.9091C230.225 93.9091 229.91 93.8391 229.621 93.7038C229.333 93.5686 229.077 93.3716 228.873 93.1266C228.668 92.8817 228.52 92.5948 228.439 92.2864C228.358 91.9779 228.345 91.6553 228.402 91.3414C228.493 90.8395 228.758 90.3856 229.149 90.0587C229.54 89.7319 230.034 89.5529 230.544 89.5529C231.054 89.5529 231.547 89.7319 231.938 90.0587C232.33 90.3856 232.594 90.8395 232.685 91.3414Z" fill="white"/>
<path d="M356.466 57.6153C358.289 57.6153 359.766 56.1368 359.766 54.313C359.766 52.4891 358.289 51.0106 356.466 51.0106C354.643 51.0106 353.166 52.4891 353.166 54.313C353.166 56.1368 354.643 57.6153 356.466 57.6153Z" fill="white"/>
<path d="M328.943 82.8393C330.765 82.8393 332.242 81.3608 332.242 79.537C332.242 77.7131 330.765 76.2346 328.943 76.2346C327.12 76.2346 325.643 77.7131 325.643 79.537C325.643 81.3608 327.12 82.8393 328.943 82.8393Z" fill="white"/>
<path d="M359.975 80.6613C359.975 81.3145 360.168 81.9529 360.531 82.496C360.893 83.0391 361.409 83.4623 362.012 83.7123C362.615 83.9622 363.278 84.0276 363.918 83.9002C364.558 83.7728 365.147 83.4583 365.608 82.9964C366.07 82.5346 366.384 81.9462 366.511 81.3056C366.638 80.665 366.573 80.001 366.323 79.3976C366.074 78.7942 365.651 78.2784 365.108 77.9156C364.565 77.5527 363.927 77.359 363.275 77.359C362.399 77.359 361.56 77.7069 360.941 78.3262C360.322 78.9455 359.975 79.7855 359.975 80.6613Z" fill="white"/>
<path d="M259.783 98.3676C259.783 99.0208 259.589 99.6593 259.226 100.202C258.864 100.745 258.348 101.169 257.745 101.419C257.142 101.669 256.479 101.734 255.839 101.607C255.199 101.479 254.611 101.165 254.149 100.703C253.688 100.241 253.373 99.6525 253.246 99.0119C253.119 98.3713 253.184 97.7073 253.434 97.1039C253.684 96.5005 254.107 95.9847 254.649 95.6219C255.192 95.259 255.83 95.0653 256.483 95.0653C257.358 95.0653 258.197 95.4132 258.816 96.0325C259.435 96.6518 259.783 97.4918 259.783 98.3676Z" fill="white"/>
<path d="M315.955 91.3411C315.955 92.2729 315.585 93.1664 314.927 93.8253C314.268 94.4841 313.375 94.8542 312.444 94.8542C311.513 94.8542 310.62 94.4841 309.962 93.8253C309.303 93.1664 308.934 92.2729 308.934 91.3411C308.934 90.4094 309.303 89.5158 309.962 88.857C310.62 88.1981 311.513 87.828 312.444 87.828C313.375 87.828 314.268 88.1981 314.927 88.857C315.585 89.5158 315.955 90.4094 315.955 91.3411Z" fill="white"/>
<path d="M236.331 267.981C234.403 267.973 232.546 267.251 231.12 265.953C229.694 264.655 228.798 262.875 228.607 260.955L224.675 175.656L223.482 152.751L223.061 142.703H352.672L352.181 152.751L351.057 175.656L346.915 260.534C346.772 262.459 345.901 264.258 344.479 265.564C343.057 266.869 341.191 267.583 339.262 267.56L236.331 267.981Z" fill="#292949"/>
<path d="M365.667 123.873H209.866C206.842 123.873 204.39 126.326 204.39 129.353V147.27C204.39 150.297 206.842 152.751 209.866 152.751H365.667C368.691 152.751 371.143 150.297 371.143 147.27V129.353C371.143 126.326 368.691 123.873 365.667 123.873Z" fill="#292949"/>
<path d="M349.654 152.68L349.022 165.117L348.531 175.586H227.064L226.572 165.117L225.94 152.68H349.654Z" fill="white"/>
<path opacity="0.47" d="M328.31 189.217C327.511 189.116 326.704 189.331 326.061 189.817C325.419 190.302 324.991 191.02 324.869 191.816L322.201 247.464C322.273 248.259 322.649 248.996 323.251 249.52C323.853 250.044 324.634 250.314 325.431 250.275C326.23 250.376 327.037 250.16 327.679 249.675C328.322 249.189 328.75 248.472 328.871 247.675L331.539 192.027C331.468 191.232 331.092 190.495 330.49 189.972C329.888 189.448 329.106 189.177 328.31 189.217Z" fill="white"/>
<path d="M124.416 200.81L123.784 209.733L121.537 239.454L117.886 288.638L114.235 337.611H43.8126L40.1616 288.638L36.5105 239.454L34.2637 209.733L33.6318 200.81H124.416Z" fill="white"/>
<path d="M121.301 238.344L117.65 287.527H39.8551L36.2041 238.344H121.301Z" fill="#8CABEF"/>
<path d="M113.997 338.89H43.7847C43.1818 338.909 42.595 338.692 42.1493 338.285C41.7035 337.879 41.4338 337.314 41.3975 336.711L31.0061 199.91C30.9827 199.579 31.0266 199.246 31.1352 198.932C31.2438 198.618 31.4149 198.33 31.638 198.084C31.8613 197.84 32.1326 197.646 32.4347 197.513C32.7369 197.38 33.0633 197.311 33.3934 197.311H124.178C124.508 197.311 124.834 197.38 125.136 197.513C125.438 197.646 125.71 197.84 125.933 198.084C126.156 198.33 126.327 198.618 126.436 198.932C126.544 199.246 126.588 199.579 126.565 199.91L116.384 336.711C116.348 337.314 116.078 337.879 115.632 338.285C115.187 338.692 114.6 338.909 113.997 338.89ZM45.8209 334.112H112.101L121.861 202.089H35.9912L45.8209 334.112Z" fill="#474EBB"/>
<path d="M121.999 173H35.4978L32.6191 184.453H124.878L121.999 173Z" fill="#8CABEF"/>
<path d="M139.23 200.81H18.7461L21.9056 185.563H136.07L139.23 200.81Z" fill="white"/>
<path d="M139.231 203.199H18.7472C18.3984 203.21 18.0518 203.139 17.7349 202.993C17.418 202.846 17.1396 202.628 16.9217 202.356C16.6903 202.076 16.5258 201.747 16.4407 201.394C16.3555 201.04 16.3519 200.673 16.4302 200.318L19.5897 185.071C19.7018 184.538 19.9927 184.059 20.4141 183.714C20.8356 183.369 21.3622 183.178 21.9067 183.174H136.072C136.622 183.187 137.152 183.379 137.583 183.722C138.014 184.064 138.321 184.538 138.459 185.071L141.618 200.318C141.678 200.673 141.665 201.037 141.581 201.387C141.496 201.737 141.342 202.067 141.127 202.356C140.895 202.63 140.604 202.848 140.275 202.994C139.947 203.14 139.59 203.21 139.231 203.199ZM21.6961 198.421H136.352L134.176 187.952H23.8727L21.6961 198.421Z" fill="#474EBB"/>
<path d="M433.069 150.221H291.1C288.967 150.221 287.238 151.951 287.238 154.086V334.59C287.238 336.724 288.967 338.454 291.1 338.454H433.069C435.201 338.454 436.93 336.724 436.93 334.59V154.086C436.93 151.951 435.201 150.221 433.069 150.221Z" fill="#8CABEF"/>
<path d="M423.096 153.805H301.138V326.861H423.096V153.805Z" fill="white"/>
<path d="M389.959 144.249H334.14C333.132 144.249 332.314 145.067 332.314 146.076V161.534C332.314 162.543 333.132 163.36 334.14 163.36H389.959C390.967 163.36 391.784 162.543 391.784 161.534V146.076C391.784 145.067 390.967 144.249 389.959 144.249Z" fill="#FF151F"/>
<path d="M374.51 152.962L366.085 138.136C366.947 137.489 367.65 136.652 368.137 135.689C368.624 134.726 368.883 133.664 368.893 132.586C368.956 131.353 368.693 130.126 368.131 129.027C367.57 127.929 366.728 126.998 365.693 126.328C364.657 125.658 363.463 125.272 362.232 125.211C361 125.149 359.774 125.413 358.677 125.977C357.579 126.54 356.65 127.383 355.981 128.42C355.313 129.457 354.929 130.652 354.868 131.884C354.808 133.117 355.073 134.344 355.637 135.441C356.201 136.539 357.044 137.468 358.081 138.136L349.655 152.962H374.51ZM362.083 129.213C362.783 129.199 363.471 129.395 364.059 129.776C364.647 130.156 365.108 130.704 365.382 131.349C365.657 131.994 365.732 132.706 365.599 133.394C365.466 134.082 365.13 134.714 364.635 135.21C364.14 135.705 363.508 136.041 362.82 136.174C362.133 136.308 361.421 136.232 360.777 135.958C360.133 135.683 359.585 135.222 359.205 134.634C358.824 134.045 358.629 133.356 358.642 132.656C358.633 132.201 358.715 131.749 358.885 131.327C359.054 130.905 359.307 130.522 359.629 130.2C359.95 129.878 360.333 129.625 360.755 129.456C361.177 129.286 361.628 129.203 362.083 129.213Z" fill="white"/>
<path d="M402.036 181.769H322.275V185.352H402.036V181.769Z" fill="#DDDDDD"/>
<path d="M402.036 197.437H322.275V201.021H402.036V197.437Z" fill="#DDDDDD"/>
<path d="M402.036 213.106H322.275V216.689H402.036V213.106Z" fill="#DDDDDD"/>
<path d="M402.036 228.705H322.275V232.288H402.036V228.705Z" fill="#DDDDDD"/>
<path d="M402.036 244.373H322.275V247.956H402.036V244.373Z" fill="#DDDDDD"/>
<path d="M402.036 259.971H322.275V263.554H402.036V259.971Z" fill="#DDDDDD"/>
<path d="M402.036 275.639H322.275V279.223H402.036V275.639Z" fill="#DDDDDD"/>
<path d="M402.036 291.308H322.275V294.891H402.036V291.308Z" fill="#DDDDDD"/>
<path d="M344.81 219.43H95.0653C93.5142 219.43 92.2568 220.688 92.2568 222.24V276.272C92.2568 277.824 93.5142 279.082 95.0653 279.082H344.81C346.361 279.082 347.618 277.824 347.618 276.272V222.24C347.618 220.688 346.361 219.43 344.81 219.43Z" fill="#474EBB"/>
<path d="M344.812 222.24H95.0674V231.585H344.812V222.24Z" fill="white"/>
<path d="M314.337 241.071H300.295V265.241H314.337V241.071Z" fill="white"/>
<path d="M344.81 279.082H95.0653C93.5142 279.082 92.2568 280.341 92.2568 281.893V335.854C92.2568 337.407 93.5142 338.665 95.0653 338.665H344.81C346.361 338.665 347.618 337.407 347.618 335.854V281.893C347.618 280.341 346.361 279.082 344.81 279.082Z" fill="url(#paint0_linear)"/>
<path d="M344.812 281.893H95.0674V291.238H344.812V281.893Z" fill="white"/>
<path d="M314.337 300.724H300.295V324.894H314.337V300.724Z" fill="white"/>
<g opacity="0.84">
<path opacity="0.84" d="M112.339 307.89C113.552 307.759 114.776 307.759 115.99 307.89C117.355 307.781 118.721 308.074 119.922 308.733C120.369 308.999 120.735 309.381 120.982 309.839C121.23 310.297 121.348 310.813 121.326 311.333C121.31 311.999 121.084 312.643 120.681 313.173C120.277 313.703 119.717 314.091 119.079 314.284C119.853 314.445 120.548 314.869 121.047 315.483C121.546 316.097 121.818 316.865 121.818 317.656C121.837 318.208 121.726 318.756 121.494 319.256C121.262 319.757 120.916 320.195 120.483 320.537C118.974 321.543 117.161 321.99 115.358 321.802C114.354 321.899 113.343 321.899 112.339 321.802V307.89ZM114.796 313.3H116.06C117.815 313.3 118.798 312.457 118.798 311.333C118.798 310.209 117.815 309.436 116.201 309.436H114.796V313.3ZM114.796 319.624H116.13C117.745 319.624 119.149 318.991 119.149 317.305C119.149 315.619 117.815 315.057 116.06 315.057H114.796V319.624Z" fill="white"/>
<path opacity="0.84" d="M126.379 307.679V315.689C126.379 318.43 127.503 319.624 129.188 319.624C130.873 319.624 132.066 318.43 132.066 315.689V307.679H134.594V315.549C134.594 319.765 132.417 321.662 129.117 321.662C125.817 321.662 123.852 319.905 123.852 315.549V307.679H126.379Z" fill="white"/>
<path opacity="0.84" d="M137.686 318.711C138.714 319.294 139.874 319.608 141.056 319.624C142.671 319.624 143.584 318.851 143.584 317.727C143.584 316.603 142.882 316.041 141.126 315.408C139.371 314.776 137.405 313.371 137.405 311.403C137.405 309.436 139.23 307.469 142.25 307.469C143.392 307.413 144.529 307.655 145.55 308.171L144.918 310.209C144.083 309.736 143.138 309.493 142.179 309.506C140.635 309.506 139.933 310.349 139.933 311.192C139.933 312.036 140.705 312.738 142.53 313.441C144.356 314.144 146.111 315.549 146.111 317.516C146.111 319.483 144.426 321.662 140.845 321.662C139.58 321.666 138.33 321.377 137.194 320.818L137.686 318.711Z" fill="white"/>
<path opacity="0.84" d="M150.885 307.679V321.732H148.357V307.679H150.885Z" fill="white"/>
<path opacity="0.84" d="M153.767 321.451V307.398H156.645L160.226 313.3C161.096 314.795 161.87 316.344 162.543 317.938C162.431 316.019 162.431 314.095 162.543 312.176V307.398H164.93V321.451H162.332L158.681 315.408C157.839 313.862 156.926 312.176 156.224 310.63C156.224 312.457 156.224 314.284 156.224 316.532V321.451H153.767Z" fill="white"/>
<path opacity="0.84" d="M175.531 315.338H170.335V319.413H176.092V321.451H167.597V307.398H175.531V309.436H170.054V313.019H175.531V315.338Z" fill="white"/>
<path opacity="0.84" d="M178.059 318.711C179.087 319.294 180.247 319.608 181.429 319.624C183.044 319.624 183.886 318.851 183.886 317.727C183.886 316.603 183.184 316.041 181.429 315.408C179.674 314.776 177.778 313.371 177.778 311.403C177.778 309.436 179.603 307.469 182.623 307.469C183.765 307.413 184.902 307.655 185.923 308.171L185.291 310.209C184.456 309.736 183.511 309.493 182.552 309.506C180.937 309.506 180.306 310.349 180.306 311.193C180.306 312.036 181.078 312.738 182.903 313.441C184.729 314.144 186.484 315.549 186.484 317.516C186.484 319.483 184.799 321.662 181.218 321.662C179.931 321.655 178.661 321.367 177.497 320.818L178.059 318.711Z" fill="white"/>
<path opacity="0.84" d="M188.659 318.711C189.688 319.294 190.847 319.608 192.03 319.624C193.644 319.624 194.557 318.851 194.557 317.727C194.557 316.603 193.855 316.041 192.1 315.408C190.344 314.776 188.378 313.371 188.378 311.403C188.378 309.436 190.204 307.469 193.223 307.469C194.365 307.413 195.502 307.655 196.523 308.171L195.891 310.209C195.057 309.736 194.112 309.493 193.153 309.506C191.608 309.506 190.906 310.349 190.906 311.193C190.906 312.036 191.678 312.738 193.504 313.441C195.329 314.144 197.085 315.549 197.085 317.516C197.085 319.483 195.4 321.662 191.819 321.662C190.532 321.655 189.262 321.367 188.098 320.818L188.659 318.711Z" fill="white"/>
</g>
<path d="M262.664 101.248H144.497V219.43H262.664V101.248Z" fill="white"/>
<path d="M263.995 220.765H143.16V99.9131H263.995V220.765ZM145.828 217.813H261.327V102.583H145.828V217.813Z" fill="#8CABEF"/>
<path d="M262.664 101.248H144.497V125.7H262.664V101.248Z" fill="#DDDDDD"/>
<path d="M262.664 125.7H144.497V130.899H262.664V125.7Z" fill="#8CABEF"/>
<path d="M173.355 112.42C173.355 110.916 172.909 109.446 172.072 108.197C171.236 106.947 170.047 105.975 168.658 105.403C167.268 104.831 165.74 104.684 164.267 104.983C162.794 105.281 161.443 106.011 160.386 107.08C159.328 108.148 158.611 109.506 158.327 110.983C158.042 112.46 158.202 113.988 158.787 115.373C159.372 116.758 160.355 117.938 161.611 118.764C162.867 119.589 164.34 120.022 165.843 120.008C166.835 120.008 167.818 119.812 168.734 119.429C169.65 119.047 170.481 118.487 171.18 117.781C171.878 117.076 172.43 116.239 172.804 115.319C173.177 114.398 173.365 113.413 173.355 112.42Z" fill="#8CABEF"/>
<path d="M165.84 91.3409C165.133 91.3316 164.432 91.4629 163.776 91.727C163.121 91.9912 162.524 92.3831 162.021 92.8799C161.518 93.3767 161.119 93.9685 160.846 94.621C160.574 95.2735 160.433 95.9737 160.434 96.6809V111.295C160.347 112.053 160.421 112.82 160.652 113.547C160.882 114.274 161.263 114.943 161.77 115.512C162.277 116.081 162.899 116.537 163.594 116.848C164.29 117.16 165.043 117.321 165.805 117.321C166.567 117.321 167.32 117.16 168.015 116.848C168.71 116.537 169.332 116.081 169.839 115.512C170.346 114.943 170.728 114.274 170.958 113.547C171.188 112.82 171.263 112.053 171.176 111.295V96.5403C171.139 95.1486 170.561 93.8262 169.564 92.8549C168.567 91.8837 167.231 91.3404 165.84 91.3409Z" fill="#EFEFF0"/>
<path d="M211.127 112.42C211.1 110.923 210.63 109.467 209.777 108.236C208.924 107.005 207.726 106.055 206.334 105.504C204.942 104.953 203.418 104.827 201.955 105.141C200.492 105.456 199.154 106.196 198.11 107.27C197.067 108.343 196.364 109.702 196.09 111.175C195.817 112.647 195.985 114.168 196.574 115.545C197.162 116.922 198.145 118.094 199.398 118.913C200.651 119.733 202.118 120.163 203.615 120.149C204.619 120.149 205.614 119.948 206.539 119.557C207.465 119.166 208.302 118.594 209.003 117.873C209.703 117.152 210.252 116.298 210.617 115.362C210.982 114.425 211.156 113.425 211.127 112.42Z" fill="#8CABEF"/>
<path d="M203.612 91.3409C202.906 91.3316 202.204 91.4629 201.549 91.727C200.893 91.9912 200.297 92.3831 199.794 92.8799C199.291 93.3767 198.891 93.9685 198.619 94.621C198.346 95.2735 198.206 95.9737 198.206 96.6809V111.295C198.119 112.053 198.194 112.82 198.424 113.547C198.654 114.274 199.036 114.943 199.543 115.512C200.05 116.081 200.672 116.537 201.367 116.848C202.062 117.16 202.815 117.321 203.577 117.321C204.339 117.321 205.092 117.16 205.788 116.848C206.483 116.537 207.105 116.081 207.612 115.512C208.119 114.943 208.5 114.274 208.73 113.547C208.961 112.82 209.035 112.053 208.948 111.295V96.5403C208.912 95.1486 208.334 93.8262 207.337 92.8549C206.34 91.8837 205.004 91.3404 203.612 91.3409Z" fill="#EFEFF0"/>
<path d="M248.902 112.42C248.902 110.916 248.456 109.446 247.619 108.197C246.783 106.947 245.594 105.975 244.205 105.403C242.815 104.831 241.287 104.684 239.814 104.983C238.341 105.281 236.99 106.011 235.932 107.08C234.875 108.148 234.158 109.506 233.874 110.983C233.589 112.46 233.749 113.988 234.334 115.373C234.919 116.758 235.901 117.938 237.158 118.764C238.414 119.589 239.887 120.022 241.389 120.008C242.382 120.008 243.365 119.812 244.281 119.429C245.197 119.047 246.028 118.487 246.727 117.781C247.425 117.076 247.977 116.239 248.351 115.319C248.724 114.398 248.911 113.413 248.902 112.42Z" fill="#8CABEF"/>
<path d="M241.392 91.3409C240.685 91.3316 239.984 91.4629 239.328 91.727C238.672 91.9912 238.076 92.3831 237.573 92.8799C237.07 93.3767 236.671 93.9685 236.398 94.621C236.126 95.2735 235.985 95.9737 235.985 96.6809V111.295C235.899 112.053 235.973 112.82 236.203 113.547C236.434 114.274 236.815 114.943 237.322 115.512C237.829 116.081 238.451 116.537 239.146 116.848C239.841 117.16 240.595 117.321 241.357 117.321C242.118 117.321 242.872 117.16 243.567 116.848C244.262 116.537 244.884 116.081 245.391 115.512C245.898 114.943 246.279 114.274 246.51 113.547C246.74 112.82 246.814 112.053 246.728 111.295V96.5403C246.691 95.1486 246.113 93.8262 245.116 92.8549C244.119 91.8837 242.783 91.3404 241.392 91.3409Z" fill="#EFEFF0"/>
<path d="M200.874 197.367C195.117 196.876 187.955 193.714 187.955 186.969C188.009 185.372 188.659 183.854 189.775 182.713C190.892 181.572 192.395 180.89 193.988 180.802C195.582 180.714 197.151 181.226 198.386 182.237C199.621 183.248 200.434 184.685 200.663 186.266C200.663 190.482 197.293 191.395 197.293 192.449C197.293 193.503 200.032 193.643 200.874 193.714V197.367ZM200.874 153.453C199.891 153.453 198.276 154.156 198.276 155.28C198.276 156.404 201.436 156.756 201.436 160.761C201.402 162.329 200.774 163.825 199.679 164.947C198.584 166.069 197.104 166.732 195.538 166.803C194.73 166.813 193.929 166.659 193.183 166.35C192.436 166.041 191.76 165.584 191.196 165.006C190.631 164.428 190.19 163.741 189.898 162.987C189.607 162.233 189.471 161.428 189.5 160.62C189.812 157.769 191.128 155.122 193.212 153.153C195.296 151.183 198.012 150.02 200.874 149.87V153.453ZM210.634 173.127C217.304 174.954 221.025 177.975 221.025 184.369C221.025 190.763 217.655 197.648 203.612 197.367V193.714C206.491 193.081 207.404 191.114 207.404 188.233V180.013C207.404 177.202 206.983 174.743 203.472 174.532C202.278 174.532 200.944 174.532 200.944 172.846C200.944 171.16 202.138 171.16 203.472 171.019C207.334 170.668 207.404 166.663 207.404 166.03V159.004C207.404 156.264 206.561 154.015 203.612 153.383V149.659C215.829 149.167 220.393 156.685 220.393 161.815C220.387 164.549 219.397 167.19 217.605 169.254C215.813 171.319 213.338 172.668 210.634 173.057V173.127Z" fill="#8CABEF"/>
<path d="M106.721 85.2986L105.949 73.073H108.757L110.723 85.0878L106.721 85.2986ZM81.3747 79.1155C80.2513 78.4129 79.1982 77.7103 78.0748 76.8671L85.096 67.1006L87.4832 68.6464L81.3747 79.1155ZM133.964 73.073L125.468 64.2901C126.159 63.6459 126.815 62.9658 127.434 62.2525L136.702 70.2625C135.842 71.2496 134.928 72.1879 133.964 73.073ZM63.1898 55.7884C62.7685 54.5237 62.4175 53.2589 62.0664 51.924L73.6514 49.1837C73.8435 50.1143 74.1016 51.03 74.4237 51.924L63.1898 55.7884ZM147.444 46.0922L134.666 44.968C134.666 44.0546 134.666 43.1411 134.666 42.1575H146.883C146.931 43.4693 146.908 44.7829 146.812 46.0922H147.444ZM75.0556 30.4939L63.7515 25.9268C64.2415 24.6771 64.8042 23.4572 65.4366 22.2732L76.2492 28.105C75.828 28.8076 75.4067 29.6508 75.0556 30.4939ZM130.242 25.9971C129.745 25.1737 129.206 24.3763 128.627 23.6082L138.387 16.5819C139.199 17.638 139.95 18.7406 140.634 19.8843L130.242 25.9971ZM89.5193 14.6849L83.8321 3.79417L87.4832 2.10787L92.047 13.4904C91.1668 13.8034 90.3201 14.2036 89.5193 14.6849ZM113.462 12.6472L110.723 11.9446L113.391 0C114.698 0.27663 115.987 0.628528 117.253 1.05394L113.462 12.6472Z" fill="#CACBCD"/>
<path d="M24.5742 131.391L24.153 124.786H25.6976L26.6806 131.391H24.5742ZM10.5318 128.018L8.7063 126.824L12.7084 121.484L13.9722 122.327L10.5318 128.018ZM39.2486 124.716L35.106 120.008L36.1592 118.814L41.2847 123.17L39.2486 124.716ZM0.561697 115.3C0.561697 114.598 0.140424 113.965 0 113.263L6.45951 111.717C6.59151 112.219 6.75568 112.712 6.951 113.193L0.561697 115.3ZM46.4102 110.031L39.8102 109.469C39.8102 108.907 39.8102 108.415 39.8102 107.853H46.8315C46.7293 108.586 46.5887 109.313 46.4102 110.031ZM7.02121 101.529L0.842545 98.9996C0.842545 98.3672 1.40424 97.6646 1.7553 97.0322L7.65312 100.124L7.02121 101.529ZM37.072 99.0698C36.8328 98.5999 36.5507 98.153 36.2294 97.7349L42.1272 93.8002C42.5649 94.3576 42.9637 94.9445 43.3209 95.5567L37.072 99.0698ZM14.885 92.8868L11.7956 86.9847L14.0424 86.0713L16.57 92.1841L14.885 92.8868ZM28.0848 91.8328C27.6421 91.6186 27.1681 91.4763 26.6806 91.4112L28.0848 84.8768L30.1912 85.4389L28.0848 91.8328Z" fill="#CACBCD"/>
<defs>
<linearGradient id="paint0_linear" x1="3447.7" y1="2898.33" x2="12735.2" y2="2898.33" gradientUnits="userSpaceOnUse">
<stop stop-color="#474EBB"/>
<stop offset="1" stop-color="#F4CD30"/>
</linearGradient>
</defs>
</svg>
