<svg width="460" height="195" viewBox="0 0 460 195" fill="none" xmlns="http://www.w3.org/2000/svg">
<path d="M454.61 133.33L431 127L437.33 150.61L442.27 145.68L452.5 155.91L459.91 148.5L449.67 138.27L454.61 133.33Z" fill="white"/>
<path d="M331.796 131.982C331.801 133.474 331.513 134.953 330.948 136.334C330.382 137.715 329.55 138.971 328.499 140.03C327.448 141.089 326.199 141.931 324.822 142.507C323.446 143.084 321.97 143.383 320.478 143.389H201.395C198.382 143.375 195.498 142.166 193.376 140.028C191.254 137.889 190.067 134.995 190.077 131.982V59.6415C190.067 56.6286 191.254 53.735 193.376 51.5962C195.498 49.4574 198.382 48.2483 201.395 48.2346H320.478C321.97 48.2404 323.446 48.5401 324.822 49.1165C326.199 49.6929 327.448 50.5348 328.499 51.594C329.55 52.6533 330.382 53.9091 330.948 55.2899C331.513 56.6707 331.801 58.1494 331.796 59.6415V131.982Z" fill="#474EBB"/>
<path d="M325.698 55.0966H197.859V129.45H325.698V55.0966Z" fill="white"/>
<path d="M331.795 132.19H260.888H189.98L175.699 188.438H260.888H346.076L331.795 132.19Z" fill="#89A6EB"/>
<path d="M196.508 134.537H325.534L331.795 165.513H188.978L196.508 134.537Z" fill="#474EBB"/>
<path d="M239.567 156.46H306.108L306.85 160.596H238.995L239.567 156.46Z" fill="white"/>
<path d="M238.222 149.858H281.474L282.41 153.994H237.524L238.222 149.858Z" fill="white"/>
<path d="M239.507 170.407H280.144L284.206 184.153H235.727L239.507 170.407Z" fill="#474EBB"/>
<path d="M244.208 187.205H279.112L282.603 190.606H240.963L244.208 187.205Z" fill="#474EBB"/>
<path d="M346.083 188.438H175.699V192.775H346.083V188.438Z" fill="#474EBB"/>
<path d="M199.538 137.003L221.565 137.032L220.807 140.79H198.677L199.538 137.003Z" fill="white"/>
<path d="M198.179 143.382H223.459L222.605 147.392H197.273L198.179 143.382Z" fill="white"/>
<path d="M225.82 143.389L237.383 143.419L236.655 147.392H225.048L225.82 143.389Z" fill="white"/>
<path d="M293.832 143.389L282.551 143.419L283.553 147.392H294.886L293.832 143.389Z" fill="white"/>
<path d="M239.023 143.382H250.438V147.392H238.496L239.023 143.382Z" fill="white"/>
<path d="M223.726 137.003H238.831L238.385 140.79H222.901L223.726 137.003Z" fill="white"/>
<path d="M196.768 149.858H236.136L235.237 153.994H195.766L196.768 149.858Z" fill="white"/>
<path d="M195.276 156.46H211.205L210.143 160.596H194.303L195.276 156.46Z" fill="white"/>
<path d="M214.473 156.46H237.183L236.411 160.596H213.277L214.473 156.46Z" fill="white"/>
<path d="M321.108 137.003L299.074 137.032L299.832 140.79H321.955L321.108 137.003Z" fill="white"/>
<path d="M322.46 143.382L296.794 143.389L297.923 147.392H323.366L322.46 143.382Z" fill="white"/>
<path d="M280.293 143.382H252.169V147.392H281.191L280.293 143.382Z" fill="white"/>
<path d="M241.341 136.891H252.748V140.901H240.807L241.341 136.891Z" fill="white"/>
<path d="M282.61 136.891H254.479V140.901H283.501L282.61 136.891Z" fill="white"/>
<path d="M323.872 149.858H284.326L285.396 153.994H324.874L323.872 149.858Z" fill="white"/>
<path d="M325.364 156.46H309.435L310.497 160.596H326.337L325.364 156.46Z" fill="white"/>
<path d="M285.573 0H218.996C215.173 0 212.074 3.09883 212.074 6.92142V98.9644C212.074 102.787 215.173 105.886 218.996 105.886H285.573C289.396 105.886 292.495 102.787 292.495 98.9644V6.92142C292.495 3.09883 289.396 0 285.573 0Z" fill="#DDDDDD"/>
<path d="M289.747 96.4395C289.753 97.2928 289.592 98.1392 289.272 98.9302C288.952 99.7212 288.479 100.441 287.88 101.05C287.282 101.658 286.569 102.142 285.783 102.475C284.997 102.808 284.154 102.983 283.3 102.99H221.275C219.551 102.976 217.903 102.278 216.693 101.05C215.483 99.8219 214.81 98.1636 214.821 96.4395V9.43898C214.816 8.58563 214.978 7.73948 215.299 6.94884C215.62 6.15821 216.094 5.43857 216.693 4.83102C217.292 4.22347 218.005 3.73991 218.792 3.40795C219.578 3.07599 220.422 2.90213 221.275 2.8963H283.3C285.023 2.91004 286.669 3.60684 287.877 4.83363C289.086 6.06041 289.758 7.71683 289.747 9.43898V96.4395Z" fill="white"/>
<path d="M277.998 16.7317C277.967 17.1948 277.755 17.6271 277.407 17.9344C277.059 18.2418 276.604 18.3994 276.141 18.373H228.426C227.964 18.3994 227.51 18.2415 227.163 17.934C226.816 17.6264 226.606 17.1942 226.577 16.7317C226.606 16.2693 226.816 15.837 227.163 15.5295C227.51 15.2219 227.964 15.0641 228.426 15.0905H276.141C276.604 15.064 277.059 15.2216 277.407 15.529C277.755 15.8364 277.967 16.2686 277.998 16.7317Z" fill="#DDDDDD"/>
<path d="M277.998 21.8931C277.967 22.3556 277.755 22.7871 277.407 23.0933C277.059 23.3995 276.604 23.5554 276.141 23.5269H228.426C227.964 23.5554 227.51 23.3992 227.163 23.0929C226.817 22.7865 226.606 22.3549 226.577 21.8931C226.606 21.4307 226.816 20.9984 227.163 20.6908C227.51 20.3833 227.964 20.2254 228.426 20.2519H276.141C276.604 20.2254 277.059 20.383 277.407 20.6904C277.755 20.9977 277.967 21.43 277.998 21.8931Z" fill="#DDDDDD"/>
<path d="M268.671 27.0916C268.687 27.5043 268.541 27.9069 268.263 28.2125C267.985 28.5181 267.598 28.7023 267.186 28.7254H228.093C227.681 28.7023 227.294 28.5181 227.016 28.2125C226.738 27.9069 226.591 27.5043 226.608 27.0916C226.591 26.6781 226.738 26.2747 227.015 25.9679C227.293 25.661 227.68 25.4753 228.093 25.4503H267.186C267.599 25.4753 267.985 25.661 268.263 25.9679C268.541 26.2747 268.687 26.6781 268.671 27.0916Z" fill="#DDDDDD"/>
<path d="M277.998 32.2381C277.967 32.7005 277.755 33.1321 277.407 33.4383C277.059 33.7445 276.604 33.9004 276.141 33.8719H228.426C227.964 33.9003 227.51 33.7442 227.163 33.4378C226.817 33.1315 226.606 32.6999 226.577 32.2381C226.606 31.7756 226.816 31.3434 227.163 31.0358C227.51 30.7282 227.964 30.5704 228.426 30.5968H276.141C276.604 30.5704 277.059 30.728 277.407 31.0353C277.755 31.3427 277.967 31.775 277.998 32.2381Z" fill="#DDDDDD"/>
<path d="M274.01 37.4069C274.005 37.6263 273.957 37.8427 273.868 38.0435C273.78 38.2444 273.653 38.4259 273.494 38.5776C273.335 38.7294 273.149 38.8483 272.944 38.9278C272.739 39.0072 272.521 39.0456 272.302 39.0407H228.285C228.066 39.0456 227.848 39.0072 227.643 38.9278C227.438 38.8483 227.251 38.7294 227.093 38.5776C226.934 38.4259 226.807 38.2444 226.718 38.0435C226.63 37.8427 226.582 37.6263 226.577 37.4069C226.587 36.963 226.772 36.5411 227.092 36.2335C227.412 35.9259 227.841 35.7577 228.285 35.7656H272.302C272.745 35.7577 273.174 35.9259 273.495 36.2335C273.815 36.5411 274 36.963 274.01 37.4069Z" fill="#DDDDDD"/>
<path d="M254.062 42.5756C254.062 43.4742 253.624 44.2094 253.075 44.2094H227.565C227.015 44.2094 226.577 43.4668 226.577 42.5756C226.577 41.6696 227.015 40.9344 227.565 40.9344H253.075C253.624 40.9344 254.062 41.677 254.062 42.5756Z" fill="#DDDDDD"/>
<path d="M226.577 47.5811C226.606 48.0435 226.816 48.4758 227.163 48.7833C227.51 49.0909 227.964 49.2487 228.426 49.2223H276.141C276.604 49.2488 277.059 49.0912 277.407 48.7838C277.755 48.4764 277.967 48.0442 277.998 47.5811C277.967 47.1186 277.755 46.687 277.407 46.3808C277.059 46.0747 276.604 45.9188 276.141 45.9473H228.426C227.964 45.9188 227.51 46.0749 227.163 46.3813C226.817 46.6877 226.606 47.1192 226.577 47.5811Z" fill="#DDDDDD"/>
<path d="M226.577 52.7499C226.606 53.2123 226.816 53.6446 227.163 53.9521C227.51 54.2597 227.964 54.4175 228.426 54.3911H276.141C276.604 54.4176 277.059 54.26 277.407 53.9526C277.755 53.6452 277.967 53.2129 277.998 52.7499C277.967 52.2874 277.755 51.8558 277.407 51.5496C277.059 51.2435 276.604 51.0875 276.141 51.1161H228.426C227.964 51.0876 227.51 51.2437 227.163 51.5501C226.817 51.8565 226.606 52.288 226.577 52.7499Z" fill="#DDDDDD"/>
<path d="M226.577 57.9186C226.606 58.3811 226.816 58.8133 227.163 59.1209C227.51 59.4284 227.964 59.5863 228.426 59.5599H276.141C276.604 59.5863 277.059 59.4287 277.407 59.1214C277.755 58.814 277.967 58.3817 277.998 57.9186C277.967 57.4562 277.755 57.0246 277.407 56.7184C277.059 56.4122 276.604 56.2563 276.141 56.2848H228.426C227.964 56.2564 227.51 56.4125 227.163 56.7189C226.817 57.0252 226.606 57.4568 226.577 57.9186Z" fill="#DDDDDD"/>
<path d="M235.906 63.0874C235.889 63.5009 236.036 63.9043 236.313 64.2111C236.591 64.5179 236.978 64.7037 237.391 64.7286H276.454C276.867 64.7037 277.254 64.5179 277.531 64.2111C277.809 63.9043 277.955 63.5009 277.939 63.0874C277.955 62.6739 277.809 62.2705 277.531 61.9637C277.254 61.6569 276.867 61.4711 276.454 61.4462H237.391C236.978 61.4711 236.591 61.6569 236.313 61.9637C236.036 62.2705 235.889 62.6739 235.906 63.0874Z" fill="#DDDDDD"/>
<path d="M226.577 68.2562C226.606 68.7186 226.816 69.1509 227.163 69.4584C227.51 69.766 227.964 69.9238 228.426 69.8974H276.141C276.604 69.9239 277.059 69.7663 277.407 69.4589C277.755 69.1515 277.967 68.7193 277.998 68.2562C277.967 67.7931 277.755 67.3608 277.407 67.0535C277.059 66.7461 276.604 66.5885 276.141 66.615H228.426C227.964 66.5885 227.51 66.7464 227.163 67.0539C226.816 67.3615 226.606 67.7938 226.577 68.2562Z" fill="#DDDDDD"/>
<path d="M230.565 73.425C230.575 73.8689 230.76 74.2908 231.081 74.5984C231.401 74.906 231.83 75.0742 232.274 75.0663H276.29C276.734 75.0742 277.163 74.906 277.483 74.5984C277.803 74.2908 277.988 73.8689 277.998 73.425C277.988 72.9812 277.803 72.5593 277.483 72.2517C277.163 71.9441 276.734 71.7758 276.29 71.7838H232.281C231.837 71.7758 231.408 71.9441 231.088 72.2517C230.768 72.5593 230.583 72.9812 230.573 73.425H230.565Z" fill="#DDDDDD"/>
<path d="M250.506 78.5938C250.506 79.4998 250.951 80.235 251.494 80.235H277.011C277.553 80.235 277.998 79.4924 277.998 78.5938C277.998 77.6877 277.553 76.9525 277.011 76.9525H251.494C250.951 76.9525 250.506 77.6952 250.506 78.5938Z" fill="#DDDDDD"/>
<path d="M226.577 86.0944C226.606 86.5569 226.816 86.9891 227.163 87.2967C227.51 87.6043 227.964 87.7621 228.426 87.7357H276.141C276.604 87.7622 277.059 87.6045 277.407 87.2972C277.755 86.9898 277.967 86.5575 277.998 86.0944C277.967 85.6314 277.755 85.1991 277.407 84.8917C277.059 84.5843 276.604 84.4267 276.141 84.4532H228.426C227.964 84.4268 227.51 84.5846 227.163 84.8922C226.816 85.1997 226.606 85.632 226.577 86.0944Z" fill="#DDDDDD"/>
<path d="M226.577 91.2633C226.606 91.7251 226.817 92.1566 227.163 92.463C227.51 92.7694 227.964 92.9255 228.426 92.8971H276.141C276.604 92.9256 277.059 92.7697 277.407 92.4635C277.755 92.1573 277.967 91.7257 277.998 91.2633C277.967 90.8002 277.755 90.3679 277.407 90.0605C277.059 89.7532 276.604 89.5955 276.141 89.622H228.426C227.964 89.5956 227.51 89.7534 227.163 90.061C226.816 90.3685 226.606 90.8008 226.577 91.2633Z" fill="#DDDDDD"/>
<path d="M300.939 12.0085H234.361C230.538 12.0085 227.439 15.1073 227.439 18.9299V110.973C227.439 114.796 230.538 117.894 234.361 117.894H300.939C304.761 117.894 307.86 114.796 307.86 110.973V18.9299C307.86 15.1073 304.761 12.0085 300.939 12.0085Z" fill="#DDDDDD"/>
<path d="M305.113 108.448C305.12 109.301 304.958 110.148 304.638 110.939C304.318 111.73 303.845 112.45 303.246 113.058C302.648 113.666 301.935 114.151 301.149 114.484C300.364 114.816 299.52 114.991 298.667 114.998H236.641C234.917 114.984 233.269 114.287 232.059 113.059C230.849 111.83 230.176 110.172 230.188 108.448V21.4475C230.182 20.5942 230.344 19.748 230.665 18.9574C230.986 18.1667 231.46 17.4471 232.059 16.8396C232.659 16.232 233.372 15.7485 234.158 15.4165C234.944 15.0845 235.788 14.9107 236.641 14.9048H298.667C300.389 14.9186 302.035 15.6154 303.244 16.8422C304.452 18.069 305.125 19.7254 305.113 21.4475V108.448Z" fill="white"/>
<path d="M293.363 23.5714C293.333 24.0345 293.121 24.4668 292.773 24.7741C292.425 25.0815 291.97 25.2391 291.507 25.2126H243.792C243.328 25.2411 242.872 25.0842 242.524 24.7764C242.176 24.4686 241.964 24.0352 241.936 23.5714C241.964 23.109 242.175 22.6767 242.521 22.3692C242.868 22.0616 243.322 21.9038 243.785 21.9302H291.499C291.963 21.9037 292.418 22.0613 292.766 22.3687C293.113 22.6761 293.325 23.1083 293.356 23.5714H293.363Z" fill="#DDDDDD"/>
<path d="M293.364 28.7402C293.333 29.2027 293.121 29.6342 292.773 29.9404C292.425 30.2466 291.97 30.4025 291.507 30.374H243.793C243.331 30.4025 242.876 30.2464 242.53 29.94C242.183 29.6336 241.972 29.2021 241.943 28.7402C241.97 28.2765 242.18 27.8423 242.527 27.5332C242.873 27.224 243.329 27.0652 243.793 27.0916H291.507C291.971 27.0651 292.426 27.2227 292.773 27.5301C293.121 27.8374 293.333 28.2697 293.364 28.7328V28.7402Z" fill="#DDDDDD"/>
<path d="M293.364 33.909C293.333 34.3715 293.121 34.8031 292.773 35.1093C292.425 35.4155 291.97 35.5714 291.507 35.5428H243.793C243.331 35.5713 242.876 35.4152 242.53 35.1088C242.183 34.8024 241.972 34.3709 241.943 33.909C241.978 33.4506 242.191 33.024 242.537 32.7211C242.883 32.4183 243.334 32.2635 243.793 32.2901H291.507C291.971 32.2636 292.426 32.4212 292.773 32.7286C293.121 33.036 293.333 33.4682 293.364 33.9313V33.909Z" fill="#DDDDDD"/>
<path d="M284.029 39.0778C284.045 39.4905 283.898 39.8931 283.62 40.1987C283.343 40.5044 282.956 40.6886 282.543 40.7116H243.458C243.046 40.6886 242.659 40.5044 242.381 40.1987C242.103 39.8931 241.957 39.4905 241.973 39.0778C241.957 38.6643 242.103 38.2609 242.381 37.9541C242.658 37.6473 243.045 37.4615 243.458 37.4366H282.514C282.927 37.4615 283.314 37.6473 283.591 37.9541C283.869 38.2609 284.015 38.6643 283.999 39.0778H284.029Z" fill="#DDDDDD"/>
<path d="M293.363 44.2466C293.331 44.7083 293.118 45.1387 292.77 45.4445C292.423 45.7503 291.969 45.9069 291.507 45.8804H243.792C243.33 45.9089 242.874 45.753 242.527 45.4468C242.179 45.1406 241.966 44.7091 241.936 44.2466C241.964 43.7841 242.175 43.3519 242.521 43.0443C242.868 42.7368 243.322 42.5789 243.785 42.6053H291.499C291.963 42.5789 292.418 42.7365 292.766 43.0439C293.113 43.3512 293.325 43.7835 293.356 44.2466H293.363Z" fill="#DDDDDD"/>
<path d="M289.376 49.408C289.366 49.8518 289.181 50.2737 288.861 50.5813C288.541 50.8889 288.112 51.0572 287.668 51.0492H243.651C243.208 51.0572 242.779 50.8889 242.458 50.5813C242.138 50.2737 241.953 49.8518 241.943 49.408C241.955 48.9654 242.141 48.5454 242.461 48.2394C242.781 47.9334 243.209 47.7661 243.651 47.7741H287.668C288.11 47.7661 288.538 47.9334 288.858 48.2394C289.178 48.5454 289.364 48.9654 289.376 49.408Z" fill="#DDDDDD"/>
<path d="M269.414 54.5693C269.414 55.4753 268.976 56.2106 268.426 56.2106H242.931C242.382 56.2106 241.943 55.4679 241.943 54.5693C241.943 53.6707 242.382 52.9355 242.931 52.9355H268.441C268.99 52.9355 269.429 53.6782 269.429 54.5693H269.414Z" fill="#DDDDDD"/>
<path d="M241.936 59.5896C241.947 59.8212 242.004 60.0482 242.104 60.2575C242.204 60.4668 242.344 60.6543 242.517 60.809C242.689 60.9637 242.891 61.0826 243.11 61.1589C243.329 61.2351 243.561 61.2671 243.792 61.2531H291.507C291.97 61.2796 292.425 61.122 292.773 60.8146C293.121 60.5072 293.333 60.0749 293.363 59.6119C293.333 59.1494 293.12 58.7178 292.773 58.4116C292.425 58.1055 291.969 57.9495 291.507 57.9781H243.792C243.33 57.9496 242.876 58.1057 242.529 58.4121C242.183 58.7185 241.972 59.15 241.943 59.6119L241.936 59.5896Z" fill="#DDDDDD"/>
<path d="M241.936 64.7584C241.964 65.2208 242.175 65.6531 242.521 65.9606C242.868 66.2682 243.322 66.426 243.785 66.3996H291.499C291.963 66.4261 292.418 66.2685 292.766 65.9611C293.113 65.6537 293.325 65.2214 293.356 64.7584C293.325 64.2953 293.113 63.863 292.766 63.5556C292.418 63.2483 291.963 63.0907 291.499 63.1171H243.792C243.33 63.0907 242.875 63.2485 242.529 63.5561C242.182 63.8637 241.972 64.2959 241.943 64.7584H241.936Z" fill="#DDDDDD"/>
<path d="M241.936 69.9271C241.964 70.3896 242.175 70.8218 242.521 71.1294C242.868 71.4369 243.322 71.5948 243.785 71.5684H291.499C291.963 71.5948 292.418 71.4372 292.766 71.1298C293.113 70.8225 293.325 70.3902 293.356 69.9271C293.325 69.464 293.113 69.0318 292.766 68.7244C292.418 68.417 291.963 68.2594 291.499 68.2859H243.792C243.33 68.2595 242.875 68.4173 242.529 68.7249C242.182 69.0324 241.972 69.4647 241.943 69.9271H241.936Z" fill="#DDDDDD"/>
<path d="M251.271 75.096C251.254 75.5094 251.401 75.9128 251.679 76.2197C251.956 76.5265 252.343 76.7123 252.756 76.7372H291.819C292.232 76.7123 292.619 76.5265 292.897 76.2197C293.174 75.9128 293.321 75.5094 293.304 75.096C293.321 74.6825 293.174 74.2791 292.897 73.9723C292.619 73.6654 292.232 73.4796 291.819 73.4547H252.756C252.343 73.4796 251.956 73.6654 251.679 73.9723C251.401 74.2791 251.254 74.6825 251.271 75.096Z" fill="#DDDDDD"/>
<path d="M241.936 80.2647C241.964 80.7272 242.175 81.1594 242.521 81.467C242.868 81.7746 243.322 81.9324 243.785 81.906H291.499C291.963 81.9324 292.418 81.7748 292.766 81.4675C293.113 81.1601 293.325 80.7278 293.356 80.2647C293.325 79.8017 293.113 79.3694 292.766 79.062C292.418 78.7546 291.963 78.597 291.499 78.6235H243.792C243.328 78.595 242.872 78.752 242.524 79.0597C242.176 79.3675 241.964 79.8009 241.936 80.2647Z" fill="#DDDDDD"/>
<path d="M245.932 85.4335C245.941 85.8774 246.127 86.2993 246.447 86.6069C246.767 86.9145 247.196 87.0827 247.64 87.0748H291.693C292.137 87.0827 292.566 86.9145 292.886 86.6069C293.206 86.2993 293.392 85.8774 293.401 85.4335C293.392 84.9897 293.206 84.5678 292.886 84.2602C292.566 83.9526 292.137 83.7843 291.693 83.7923H247.64C247.196 83.7843 246.767 83.9526 246.447 84.2602C246.127 84.5678 245.941 84.9897 245.932 85.4335Z" fill="#DDDDDD"/>
<path d="M265.87 90.6023C265.87 91.5083 266.316 92.2361 266.858 92.2361H292.368C292.917 92.2361 293.363 91.4935 293.363 90.6023C293.363 89.6963 292.917 88.9611 292.368 88.9611H266.858C266.316 88.9611 265.87 89.7037 265.87 90.6023Z" fill="#DDDDDD"/>
<path d="M241.936 98.103C241.964 98.5648 242.175 98.9963 242.522 99.3027C242.869 99.6091 243.323 99.7652 243.785 99.7368H291.499C291.962 99.7653 292.417 99.6094 292.765 99.3032C293.113 98.997 293.326 98.5654 293.356 98.103C293.325 97.6399 293.113 97.2076 292.766 96.9002C292.418 96.5929 291.963 96.4353 291.499 96.4617H243.792C243.33 96.4353 242.875 96.5931 242.529 96.9007C242.182 97.2083 241.972 97.6405 241.943 98.103H241.936Z" fill="#DDDDDD"/>
<path d="M241.936 103.272C241.964 103.734 242.175 104.165 242.522 104.472C242.869 104.778 243.323 104.934 243.785 104.906H291.499C291.962 104.934 292.417 104.778 292.765 104.472C293.113 104.166 293.326 103.734 293.356 103.272C293.325 102.809 293.113 102.376 292.766 102.069C292.418 101.762 291.963 101.604 291.499 101.63H243.792C243.33 101.604 242.875 101.762 242.529 102.069C242.182 102.377 241.972 102.809 241.943 103.272H241.936Z" fill="#DDDDDD"/>
<path d="M121.839 16H71.6218C68.5176 16 66 18.7552 66 22.1565V52.0775C66 55.4788 68.5176 58.234 71.6218 58.234H113.299C116.136 61.2937 122.76 68.3043 124.386 68.9875C126.466 69.8564 127.454 69.8118 127.454 52.0775V22.1565C127.454 18.7552 124.966 16 121.839 16Z" fill="#FF151F"/>
<path d="M117.465 29.2041C117.466 29.8328 117.343 30.4555 117.103 31.0366C116.863 31.6177 116.511 32.1458 116.067 32.5907C115.623 33.0356 115.095 33.3886 114.514 33.6294C113.934 33.8702 113.311 33.9941 112.682 33.9941H79.6646C78.3994 33.9863 77.1886 33.4782 76.2967 32.5807C75.4049 31.6833 74.9043 30.4694 74.9043 29.2041C74.9082 27.9414 75.4105 26.7313 76.302 25.8371C77.1934 24.9428 78.402 24.4368 79.6646 24.4289H112.653C113.283 24.425 113.907 24.5456 114.49 24.7837C115.074 25.0218 115.604 25.3728 116.051 25.8166C116.498 26.2603 116.853 26.7879 117.096 27.3693C117.339 27.9506 117.464 28.5742 117.465 29.2041Z" fill="white"/>
<path d="M117.466 44.9779C117.466 45.6065 117.343 46.2292 117.104 46.8104C116.864 47.3915 116.512 47.9196 116.067 48.3645C115.623 48.8094 115.096 49.1623 114.515 49.4031C113.934 49.6439 113.312 49.7679 112.683 49.7679H79.665C78.3946 49.7679 77.1763 49.2632 76.278 48.3649C75.3797 47.4666 74.875 46.2483 74.875 44.9779C74.875 43.7075 75.3797 42.4891 76.278 41.5908C77.1763 40.6925 78.3946 40.1878 79.665 40.1878H112.653C113.282 40.1878 113.904 40.3118 114.485 40.5526C115.066 40.7934 115.593 41.1463 116.038 41.5912C116.482 42.0361 116.834 42.5642 117.074 43.1453C117.314 43.7265 117.437 44.3492 117.436 44.9779H117.466Z" fill="white"/>
<path d="M381.845 9H434.075C437.305 9 439.919 11.8666 439.919 15.4016V46.5405C439.919 50.0755 437.305 52.9421 434.075 52.9421H390.727C387.756 56.1206 380.879 63.4208 379.193 64.0817C377.025 64.9878 376 64.9432 376 46.5034V15.4016C376 11.8666 378.614 9 381.845 9Z" fill="#FF151F"/>
<path d="M398.695 31.0787C398.695 32.68 398.059 34.2157 396.927 35.348C395.794 36.4803 394.259 37.1164 392.657 37.1164C391.864 37.1174 391.078 36.9619 390.345 36.659C389.611 36.356 388.945 35.9114 388.383 35.3506C387.822 34.7899 387.376 34.124 387.073 33.391C386.769 32.658 386.612 31.8722 386.612 31.0787C386.611 30.2846 386.767 29.4981 387.07 28.7642C387.374 28.0304 387.819 27.3636 388.381 26.802C388.942 26.2405 389.609 25.7952 390.343 25.4918C391.077 25.1883 391.863 25.0327 392.657 25.0336C393.451 25.0336 394.237 25.19 394.97 25.4939C395.703 25.7978 396.369 26.2432 396.929 26.8047C397.49 27.3661 397.935 28.0326 398.238 28.7659C398.541 29.4993 398.696 30.2852 398.695 31.0787Z" fill="white"/>
<path d="M414.624 31.0787C414.622 32.6807 413.985 34.2164 412.851 35.3485C411.718 36.4805 410.181 37.1164 408.579 37.1164C406.977 37.1164 405.441 36.4805 404.307 35.3485C403.174 34.2164 402.536 32.6807 402.534 31.0787C402.534 29.4755 403.171 27.9379 404.305 26.8042C405.438 25.6705 406.976 25.0336 408.579 25.0336C410.183 25.0336 411.72 25.6705 412.854 26.8042C413.988 27.9379 414.624 29.4755 414.624 31.0787Z" fill="white"/>
<path d="M430.547 31.0787C430.547 31.8722 430.39 32.658 430.086 33.391C429.782 34.124 429.337 34.7899 428.776 35.3506C428.214 35.9114 427.548 36.356 426.814 36.659C426.081 36.9619 425.295 37.1174 424.502 37.1164C422.9 37.1164 421.365 36.4803 420.232 35.348C419.1 34.2157 418.464 32.68 418.464 31.0787C418.463 30.2852 418.618 29.4993 418.921 28.7659C419.224 28.0326 419.669 27.3661 420.23 26.8047C420.79 26.2432 421.456 25.7978 422.189 25.4939C422.922 25.19 423.708 25.0336 424.502 25.0336C425.296 25.0327 426.082 25.1883 426.816 25.4918C427.55 25.7952 428.217 26.2405 428.778 26.802C429.34 27.3636 429.785 28.0304 430.088 28.7642C430.392 29.4981 430.548 30.2846 430.547 31.0787Z" fill="white"/>
<path d="M115.388 120.884C116.171 120.914 116.938 121.117 117.634 121.477C118.33 121.837 118.939 122.345 119.417 122.966C121.177 125.121 118.668 123.778 113.357 121.821L115.388 120.884Z" fill="#CF8072"/>
<path d="M115.804 120.936C116.941 121.72 117.908 122.726 118.647 123.893C119.442 125.055 120.138 126.281 120.73 127.558C121.24 128.599 120.313 128.141 120.251 128.151C120.188 128.162 120.365 128.245 120.126 128.433C119.872 128.586 119.578 128.659 119.282 128.641L118.355 128.505C117.241 128.349 115.232 127.464 112.774 123.435C112.806 123.435 113.253 120.238 115.804 120.936Z" fill="#CF8072"/>
<path d="M101.029 87.7928C101.737 85.0959 104.61 90.6041 104.61 90.6041C107.172 97.6013 108.099 101.142 108.661 108.076C112.472 117.729 114.669 120.821 114.669 120.821L115.845 121.644L115.158 122.362C116.127 122.799 115.252 123.081 114.304 123.247L113.721 123.851L113.409 123.372L112.805 123.435C106.474 118.968 97.6445 100.673 101.029 87.7928Z" fill="#F7B690"/>
<path d="M106.059 102.818C104.768 103.151 103.497 103.536 102.206 103.859C102.487 103.797 102.133 103.859 101.686 103.859C100.228 98.4239 99.728 92.7075 101.03 87.772C101.738 85.0752 104.611 90.5834 104.611 90.5834C106.115 94.3609 107.241 98.2776 107.975 102.277L106.059 102.818Z" fill="#474EBB"/>
<path d="M94.7705 84.6378C94.7705 84.6378 96.1345 71.6014 102.372 70.3831C102.372 70.3831 102.455 71.0391 102.58 72.0699L102.778 70.9037C102.581 73.2099 103.124 75.5187 104.329 77.4948C104.329 77.4948 106.058 82.8052 104.548 84.7835C104.548 84.7835 110.16 92.3534 106.297 95.4355C106.297 95.4355 105.568 91.7703 103.173 90.1564C100.778 88.5424 97.2695 87.1159 97.3632 86.3975C97.3632 86.0539 97.4777 85.5228 97.5402 85.0543C96.6053 85.0089 95.6774 84.8694 94.7705 84.6378Z" fill="#292949"/>
<path d="M102.987 130.099C103.071 130.433 103.282 130.722 103.576 130.903C103.87 131.084 104.223 131.142 104.559 131.067L123.447 126.069C123.777 125.97 124.054 125.745 124.218 125.442C124.381 125.14 124.419 124.785 124.322 124.455L121.198 112.481C121.159 112.315 121.088 112.159 120.988 112.021C120.888 111.883 120.762 111.766 120.617 111.677C120.471 111.588 120.31 111.528 120.142 111.502C119.974 111.475 119.802 111.482 119.636 111.523L100.748 116.51C100.418 116.609 100.141 116.834 99.9751 117.136C99.8095 117.438 99.7693 117.793 99.8631 118.124L102.987 130.099Z" fill="#FF151F"/>
<path d="M99.082 182.525C99.082 182.525 99.207 186.315 99.2382 186.409C99.4361 186.982 100.967 187.013 101.414 186.544L101.914 182.692L99.082 182.525Z" fill="#F7B690"/>
<path d="M105.995 116.916C109.608 125.403 109.119 146.415 106.818 158.056C106.818 158.056 100.331 157.223 99.4251 154.318C98.5192 151.413 96.9365 118.728 96.9365 118.728C96.9365 118.728 100.664 104.369 105.995 116.916Z" fill="#292949"/>
<path d="M100.872 148.549C100.872 148.549 99.0917 155.338 98.7898 156.338C98.4878 157.337 98.5815 177.257 98.6127 184.243C98.6127 184.243 101.07 185.514 101.882 184.243C103.142 182.255 107.349 155.401 107.349 155.401L100.872 148.549Z" fill="#292949"/>
<path d="M88.5749 186.097C88.5749 186.097 88.4812 189.918 88.502 189.991C88.6791 190.564 90.2722 190.605 90.7407 190.158L91.6674 186.482L88.5749 186.097Z" fill="#F7B690"/>
<path d="M96.1861 117.458C96.2798 118.853 106.151 117.77 106.245 119.207C106.578 124.559 103.569 134.899 100.361 143.479C98.2873 158.364 95.3776 173.121 91.6463 187.679C91.1465 189.699 87.7937 187.752 87.7937 187.752C87.4396 174.778 87.4396 136.107 86.3776 133.462C83.9098 127.214 86.3776 126.402 88.1789 119.072C89.7095 112.751 92.7604 117.458 96.1861 117.458Z" fill="#292949"/>
<path d="M89.0123 68.6755L87.1068 70.3832C87.1068 70.3832 86.3675 82.9302 82.6086 87.9178C78.8497 92.9053 78.3915 93.5925 78.0583 95.4564C77.7251 97.3202 78.6102 102.745 86.2634 103.234C93.9165 103.724 90.2513 99.3506 90.2513 98.174C90.2513 96.9974 91.9798 74.4961 89.0123 68.6755Z" fill="#292949"/>
<path d="M91.0223 75.8081C91.47 77.3908 91.1056 78.9318 90.1997 79.1505C89.2938 79.3691 88.2005 78.3175 87.7527 76.7244C87.305 75.1313 87.6694 73.6006 88.5753 73.382C89.4812 73.1633 90.5745 74.2045 91.0223 75.8081Z" fill="#E3988A"/>
<path d="M87.6284 121.519C87.6284 121.519 88.5967 113.803 89.5651 109.815L86.2852 90.5833V88.1259C86.2852 88.1259 87.9511 86.7098 93.3864 86.2621C96.224 86.0951 99.0682 86.448 101.779 87.3033C101.779 87.3033 104.007 92.6658 106.319 95.4147C108.974 98.5384 106.163 103.526 105.673 105.067C103.434 112.158 107.058 119.478 107.35 120.998C107.641 122.518 100.561 125.507 87.6284 121.519Z" fill="#474EBB"/>
<path d="M89.0127 86.9702C90.2696 86.6409 91.5459 86.3905 92.8341 86.2205C93.3963 86.2205 97.3218 86.106 99.5501 86.7724C100.925 87.1889 101.987 96.5288 101.841 96.6642C101.695 96.7996 94.0419 90.9478 89.0127 86.9702Z" fill="#F7B690"/>
<path d="M90.752 77.7239C91.531 80.7137 92.0981 83.7548 92.4492 86.8244C92.4492 86.8244 95.0731 89.1672 97.3326 86.991C97.3326 86.991 98.2177 78.307 100.061 76.9742C101.904 75.6414 90.752 77.7239 90.752 77.7239Z" fill="#F7B690"/>
<path d="M89.3147 127.87C90.4683 128.668 91.2614 129.887 91.5222 131.265C92.1157 133.753 90.7621 131.598 87.6279 127.735L89.3147 127.87Z" fill="#E3988A"/>
<path d="M89.7109 128.099C90.1361 129.191 90.4841 130.312 90.7521 131.452C91.0664 132.692 91.296 133.951 91.4394 135.221C91.5747 136.263 90.9916 135.565 90.95 135.555C90.9083 135.544 91.0124 135.669 90.7938 135.753C90.5697 135.798 90.3367 135.761 90.1378 135.648L89.4922 135.232C88.7113 134.732 87.2327 133.826 86.3685 129.62C86.2956 129.62 87.9824 126.673 89.7109 128.099Z" fill="#E3988A"/>
<path d="M88.8568 129.547L89.6898 129.089L88.8568 127.766C88.8568 127.766 87.7531 123.684 87.0554 112.147C88.5444 104.796 88.7214 100.767 88.3986 92.5304C88.3986 92.5304 87.4735 85.6664 86.0678 88.155C79.2893 100.015 81.9429 122.445 86.4099 129.63L86.9721 129.817L87.1179 130.442L87.826 130.057C88.7318 130.328 89.6065 130.39 88.8568 129.547Z" fill="#F7B690"/>
<path d="M82.2448 101.173C83.6412 101.944 85.1373 102.519 86.6909 102.88C87.2523 102.972 87.8194 103.025 88.3881 103.037C88.5772 99.5684 89.0603 96.5305 88.8712 93.0623C88.8712 93.0623 87.4727 85.6664 86.0671 88.155C83.9639 91.6602 82.2031 96.5675 82.2031 101.194L82.2448 101.173Z" fill="#474EBB"/>
<path d="M91.117 65.6247C91.117 65.6247 97.7393 62.2615 101.727 66.1557C102.295 69.224 102.501 72.3482 102.342 75.4645C101.915 79.2129 101.425 82.7532 98.6452 82.9614C98.6452 82.9614 90.8046 82.7115 89.7321 77.3491C88.7742 72.5177 89.274 66.8638 91.117 65.6247Z" fill="#F7B690"/>
<path d="M88.9294 65.6871C90.1061 64.6324 91.5446 63.9131 93.0944 63.6046C93.4552 63.5121 93.8257 63.4631 94.1981 63.4589C95.1054 63.3953 96.017 63.4619 96.9054 63.6567C98.6443 63.9066 100.237 64.2815 100.237 64.2815C100.805 64.5038 101.322 64.8376 101.759 65.2633C102.195 65.6889 102.542 66.1977 102.778 66.7596C103.155 67.6365 103.343 68.5828 103.33 69.5371C103.318 70.4914 103.105 71.4324 102.705 72.2991C102.08 73.0592 100.071 73.3403 97.957 73.4236C98.0403 72.2678 98.3111 68.8213 98.4464 68.2903L96.7179 73.434C95.6767 73.434 94.6355 73.434 93.7712 73.3403C93.1361 78.0363 94.9478 87.6366 97.124 90.9269C99.4668 94.4776 96.5097 97.9866 96.5097 97.9866L95.4685 95.4876C94.4272 92.9886 89.7937 91.2289 88.388 88.7195C86.9823 86.2101 88.388 85.1584 88.388 85.1584L89.096 83.9298C88.0734 83.2719 87.2264 82.3749 86.6283 81.3162C86.6283 81.3162 85.8786 68.7901 88.9294 65.6871Z" fill="#292949"/>
<path d="M106.673 188.585C106.673 188.585 102.508 187.128 101.394 186.097L99.1973 186.44C99.1973 186.44 99.1973 188.086 104.581 189.023L106.673 188.585Z" fill="#F7B690"/>
<path d="M96.2914 191.761C96.2914 191.761 92.0223 190.72 90.7937 189.814L88.5029 189.991C88.5029 189.991 88.7737 192.011 94.2506 192.407L96.2914 191.761Z" fill="#F7B690"/>
<path d="M138.371 63.1646C138.371 63.1646 137.434 67.8294 139.059 68.829C139.059 68.829 142.547 61.5403 140.1 62.04C137.653 62.5398 138.371 63.1646 138.371 63.1646Z" fill="#4D59A1"/>
<path d="M181.218 61.2487C181.212 59.9642 181.713 58.7293 182.613 57.8126C184.123 56.2923 183.217 58.4373 181.936 62.9563L181.218 61.2487Z" fill="#F7B690"/>
<path d="M181.541 61.2487C182.486 59.4348 183.681 57.7628 185.092 56.282C185.654 55.6572 185.602 56.5006 185.623 56.5423C185.644 56.5839 185.623 56.4382 185.852 56.5423C186.024 56.719 186.146 56.9382 186.206 57.1775C186.206 57.3024 186.31 57.7501 186.352 57.948C186.539 58.8851 186.893 60.6344 184.738 63.4874C184.696 63.477 181.718 63.4458 181.541 61.2487Z" fill="#F7B690"/>
<path d="M151.981 79.5434C151.981 79.5434 148.42 89.3103 150.513 91.7676C155.24 97.3071 178.126 88.217 185.228 63.8102C185.228 63.8102 182.781 59.8535 180.792 61.5195C177.439 64.31 172.722 70.0993 165.173 73.9311C161.768 75.6908 157.301 74.6496 151.981 79.5434Z" fill="white"/>
<path d="M149.544 186.885C149.544 186.885 148.971 187.167 148.971 187.354C148.837 188.389 148.785 189.434 148.815 190.478C148.961 190.915 156.687 191.769 156.687 191.769C156.687 191.769 160.592 191.581 160.998 191.071C161.404 190.561 161.227 190.197 160.998 190.134C160.769 190.072 151.762 186.635 151.762 186.635L149.544 186.885Z" fill="#4D59A1"/>
<path d="M143.068 187.656C143.068 187.656 143.651 187.895 143.671 188.083C143.877 189.113 144.003 190.157 144.046 191.207C143.932 191.654 136.289 193.05 136.289 193.05C136.289 193.05 132.384 193.133 131.937 192.664C131.489 192.196 131.645 191.8 131.874 191.717C132.103 191.633 140.839 187.552 140.839 187.552L143.068 187.656Z" fill="#4D59A1"/>
<path d="M140.766 185.126C140.766 185.126 140.673 189.01 140.693 189.082C140.881 189.665 142.547 189.707 143.047 189.259L144.015 185.521L140.766 185.126Z" fill="#F7B690"/>
<path d="M149.377 183.668C149.377 183.668 149.315 187.531 149.377 187.625C149.554 188.218 151.158 188.322 151.647 187.875L152.366 183.991L149.377 183.668Z" fill="#F7B690"/>
<path d="M159.695 114.3C159.695 114.3 158.466 142.278 157.113 155.377C157.113 155.377 150.064 154.232 149.356 151.212C148.647 148.193 149.991 115.81 149.991 115.81L159.695 114.3Z" fill="#5D66D3"/>
<path d="M148.732 115.466C148.836 116.882 159.145 114.821 159.218 116.268C159.561 121.714 150.888 136.906 150.888 137.093C147.514 160.531 145.244 181.814 143.984 186.75C143.464 188.832 139.955 186.823 139.955 186.823C139.205 160.177 138.705 117.653 138.705 117.653C141.36 115.914 145.15 115.425 148.732 115.466Z" fill="#5D66D3"/>
<path d="M145.942 80.6575C144.273 80.5781 142.604 80.8329 141.034 81.4068C139.464 81.9808 138.025 82.8624 136.8 83.9999C136.8 83.9999 133.781 106.855 136.863 116.893C136.863 116.893 151.815 123.682 159.614 116.174C159.614 116.174 163.644 87.1445 156.823 76.2947C156.823 76.2947 149.524 76.8778 145.942 80.6575Z" fill="white"/>
<path d="M142.485 72.6087C143.275 75.6431 143.849 78.7294 144.203 81.8446C144.203 81.8446 146.869 84.229 149.17 82.0216C149.17 82.0216 150.055 73.2022 151.929 71.8486C153.804 70.495 142.485 72.6087 142.485 72.6087Z" fill="#F7B690"/>
<path d="M150.48 61.3945C150.48 61.3945 144.285 58.5623 140.224 62.5087C140.224 62.5087 138.246 67.5795 138.673 71.3905C139.1 75.2014 140.016 78.8042 142.838 79.002C142.838 79.002 150.793 78.7521 151.876 73.296C152.813 68.3917 152.344 62.6544 150.48 61.3945Z" fill="#F7B690"/>
<path d="M150.731 71.1613C150.273 72.7753 150.647 74.2851 151.564 74.5558C152.48 74.8265 153.594 73.7124 154.042 72.0985C154.49 70.4845 154.125 68.9747 153.209 68.704C152.293 68.4333 151.168 69.5474 150.731 71.1613Z" fill="#F7B690"/>
<path d="M142.973 88.9979C142.973 88.9979 141.672 82.7504 138.246 83.0836C133.04 83.6667 127.563 95.2454 132.071 108.448C134.154 114.529 150.137 108.448 154.427 104.814C154.427 104.814 158.592 101.097 152.584 100.347C148.139 99.8608 143.645 100.1 139.277 101.055C140.318 101.055 144.108 96.6198 142.973 88.9979Z" fill="white"/>
<path d="M151.492 149.65C151.492 149.65 149.628 149.328 149.347 150.338C149.066 151.348 148.962 178.774 148.962 185.875C148.962 185.875 151.523 187.177 152.388 185.875C153.72 183.876 157.115 155.377 157.115 155.377L151.492 149.65Z" fill="#5D66D3"/>
<path d="M167.766 94.8913C167.91 94.901 168.052 94.9409 168.18 95.0084C168.309 95.0759 168.422 95.1695 168.512 95.2832C168.602 95.397 168.667 95.5283 168.704 95.6688C168.74 95.8094 168.747 95.9559 168.723 96.0992L166.349 112.186C166.331 112.33 166.283 112.469 166.208 112.593C166.133 112.717 166.034 112.824 165.915 112.907C165.796 112.991 165.662 113.048 165.52 113.076C165.377 113.105 165.231 113.103 165.09 113.071L154.75 111.52C154.463 111.486 154.201 111.34 154.022 111.114C153.842 110.887 153.76 110.599 153.792 110.312L156.197 94.2249C156.217 94.081 156.266 93.9427 156.342 93.8189C156.418 93.6951 156.519 93.5886 156.639 93.5063C156.758 93.4239 156.894 93.3674 157.037 93.3406C157.179 93.3137 157.326 93.317 157.468 93.3503L167.766 94.8913Z" fill="#FF151F"/>
<path d="M161.415 102.097C161.639 102.144 161.845 102.256 162.007 102.419C162.169 102.582 162.28 102.789 162.326 103.014C162.371 103.239 162.35 103.472 162.265 103.686C162.18 103.899 162.034 104.083 161.845 104.214C161.657 104.345 161.434 104.418 161.204 104.424C160.974 104.431 160.748 104.369 160.553 104.248C160.358 104.127 160.202 103.952 160.105 103.743C160.009 103.535 159.975 103.303 160.009 103.076C160.036 102.919 160.095 102.769 160.18 102.635C160.266 102.501 160.378 102.385 160.508 102.294C160.639 102.203 160.786 102.139 160.942 102.105C161.097 102.071 161.258 102.068 161.415 102.097Z" fill="white"/>
<path d="M154.596 100.535C155.327 100.282 156.103 100.182 156.875 100.241C157.647 100.3 158.399 100.517 159.083 100.878C161.343 102.118 159.292 101.92 153.419 101.566L154.596 100.535Z" fill="#F7B690"/>
<path d="M154.594 100.535C155.793 100.788 156.97 101.136 158.114 101.576C159.339 101.984 160.527 102.496 161.665 103.107C162.57 103.544 161.529 103.69 161.477 103.721C161.425 103.752 161.623 103.721 161.477 103.961C161.293 104.189 161.053 104.365 160.779 104.471C160.634 104.533 160.134 104.898 159.905 104.981C158.801 105.377 157.364 106.199 153.314 104.585C153.335 104.554 151.95 101.201 154.594 100.535Z" fill="#F7B690"/>
<path d="M143.557 63.1542C143.557 63.1542 144.817 64.9555 147.629 64.0809C147.629 64.0809 147.347 67.4025 149.971 67.8814C150.149 68.7702 150.055 69.6919 149.701 70.5262C149.479 70.8835 149.387 71.3062 149.44 71.7233C149.493 72.1404 149.688 72.5265 149.992 72.817C150.377 73.1085 150.377 72.0881 150.377 72.0881C150.377 72.0881 151.065 70.0056 151.981 69.8286C152.897 69.6516 153.022 70.1722 153.324 70.3284C153.626 70.4846 154.261 70.7657 154.626 69.7765C154.99 68.7873 154.438 67.6003 154.626 67.2046C154.813 66.809 156.292 65.7156 156.24 64.6536C156.188 63.5915 155.594 61.6756 153.387 61.9255C153.426 61.1936 153.197 60.4724 152.743 59.8973C152.289 59.3221 151.64 58.9326 150.919 58.8018C150.919 58.8018 147.701 56.5006 145.494 57.9792C145.494 57.9792 139.996 55.0533 138.726 58.5102C138.726 58.5102 134.915 58.3436 135.092 61.1758C135.269 64.008 138.143 64.9764 140.788 63.9247C140.788 63.8726 142.755 64.3829 143.557 63.1542Z" fill="#292949"/>
<path d="M331.665 110.847C331.027 110.783 330.383 110.846 329.769 111.03C329.155 111.215 328.583 111.519 328.087 111.925C326.427 113.273 328.647 112.583 333.293 111.764L331.665 110.847Z" fill="#F7B690"/>
<path d="M331.632 111.171C330.693 111.507 329.788 111.93 328.926 112.432C327.987 112.927 327.096 113.508 326.264 114.167C325.585 114.663 326.426 114.695 326.469 114.728C326.512 114.76 326.361 114.728 326.469 114.954C326.628 115.142 326.832 115.286 327.062 115.374L327.827 115.601C328.743 115.87 330.446 116.409 333.507 114.523C333.529 114.544 333.809 111.57 331.632 111.171Z" fill="#F7B690"/>
<path d="M352.874 83.5129C352.874 83.5129 357.628 79.7727 359.859 82.1117C364.914 87.3824 357.779 107.29 333.807 115.105C333.807 115.105 330.11 112.27 331.975 110.449C335.101 107.387 339.067 105.76 343.648 98.6568C345.761 95.3909 347.464 88.3633 352.874 83.5129Z" fill="white"/>
<path d="M370.607 60.5761V60.6408C370.941 61.4168 373.948 68.908 369.367 71.0745L370.596 60.5977" fill="#4D59A1"/>
<path d="M361.552 187.526C361.552 187.526 362.124 187.817 362.134 188.001C362.266 189.051 362.316 190.111 362.285 191.169C362.134 191.611 354.395 192.463 354.395 192.463C354.395 192.463 350.472 192.269 350.084 191.762C349.696 191.256 349.858 190.878 350.084 190.814C350.31 190.749 359.353 187.311 359.353 187.311L361.552 187.526Z" fill="#292949"/>
<path d="M370.501 189.38C370.501 189.38 371.072 189.66 371.072 189.854C371.208 190.901 371.262 191.957 371.234 193.013C371.083 193.454 363.333 194.306 363.333 194.306C363.333 194.306 359.42 194.123 359.022 193.616C358.623 193.11 358.784 192.732 359.022 192.668C359.259 192.603 368.291 189.165 368.291 189.165L370.501 189.38Z" fill="#292949"/>
<path d="M370.361 185.791C370.361 185.791 370.458 189.682 370.436 189.757C370.253 190.339 368.582 190.383 368.086 189.93L367.105 186.19L370.361 185.791Z" fill="#F7B690"/>
<path d="M361.725 184.293C361.725 184.293 361.79 188.162 361.725 188.259C361.553 188.852 359.946 188.96 359.451 188.507L358.729 184.616L361.725 184.293Z" fill="#F7B690"/>
<path d="M351.378 114.717C351.378 114.717 352.617 142.741 353.976 155.934C353.976 155.934 361.046 154.792 361.758 151.763C362.469 148.734 361.079 116.28 361.079 116.28L351.378 114.717Z" fill="#292949"/>
<path d="M362.373 115.892C362.265 117.315 351.95 115.245 351.853 116.7C351.508 122.154 360.228 137.406 360.206 137.6C363.591 161.13 365.876 182.471 367.137 187.429C367.654 189.488 371.179 187.505 371.179 187.505C371.933 160.763 372.44 118.101 372.44 118.101C369.778 116.388 365.973 115.849 362.373 115.892Z" fill="#292949"/>
<path d="M361.715 80.8183C361.715 80.8183 369.821 80.344 374.337 84.289C374.337 84.289 379.618 107.873 372.44 117.961C372.44 117.961 359.085 124.428 351.249 116.948C351.249 116.948 348.113 92.707 352.553 84.3644C352.553 84.3967 353.373 81.0338 361.715 80.8183Z" fill="white"/>
<path d="M368.625 72.8959C367.831 75.9378 367.251 79.0317 366.89 82.1548C366.89 82.1548 364.227 84.5476 361.921 82.338C361.921 82.338 361.026 73.4888 359.14 72.1307C357.254 70.7726 368.625 72.8959 368.625 72.8959Z" fill="#F7B690"/>
<path d="M368.278 60.5653C368.278 60.5653 359.364 57.8168 355.344 61.7725C355.344 61.7725 356.055 66.7738 356.486 70.5894C356.917 74.405 357.834 78.0374 360.658 78.2314C360.658 78.2314 368.645 77.9835 369.733 72.508C370.671 67.5929 370.154 61.8264 368.278 60.5653Z" fill="#F7B690"/>
<path d="M368.376 70.9236C367.923 72.5512 368.29 74.0709 369.217 74.3296C370.144 74.5883 371.254 73.4889 371.707 71.8721C372.159 70.2553 371.793 68.7247 370.877 68.4661C369.961 68.2074 368.84 69.3068 368.376 70.9236Z" fill="#F7B690"/>
<path d="M368.56 124.202C367.905 124.46 367.308 124.847 366.804 125.339C366.301 125.832 365.901 126.42 365.628 127.069C364.669 129.3 366.479 127.468 370.532 124.288L368.56 124.202Z" fill="#F7B690"/>
<path d="M368.678 124.547C367.938 125.36 367.271 126.237 366.684 127.166C366.017 128.155 365.44 129.201 364.959 130.292C364.539 131.143 365.358 130.755 365.423 130.755C365.487 130.755 365.326 130.842 365.541 130.993C365.781 131.101 366.045 131.141 366.307 131.111L367.137 130.96C368.15 130.777 370.036 130.475 372.084 127.015C372.084 127.048 370.952 123.846 368.678 124.547Z" fill="#F7B690"/>
<path d="M369.367 88.2231C369.367 88.2231 371.63 81.4865 374.045 84.1273C383.983 95.0029 386.095 119.966 371.716 128.179C370.936 128.02 370.211 127.657 369.617 127.127C369.022 126.597 368.579 125.919 368.332 125.161C367.254 122.391 372.439 113.154 372.439 113.154C369.981 107.495 368.235 96.4041 369.367 88.2231Z" fill="white"/>
<path d="M359.603 150.189C359.603 150.189 361.468 149.866 361.759 150.879C362.05 151.892 362.147 179.421 362.147 186.535C362.147 186.535 359.581 187.85 358.719 186.535C357.383 184.53 353.977 155.934 353.977 155.934L359.603 150.189Z" fill="#292949"/>
<path d="M370.487 58.7437C358.502 54.8203 352.821 58.7437 352.821 58.7437C352.961 60.4144 356.378 63.2061 357.682 63.4324C360.857 63.4257 364.024 63.1044 367.135 62.4731C368.429 62.139 368.483 63.9606 368.407 64.9738C368.407 65.0492 368.407 65.1354 368.407 65.2217C368.396 65.3519 368.378 65.4814 368.353 65.6097C368.246 66.2845 368.246 66.9721 368.353 67.6468C368.481 69.551 368.314 71.4634 367.857 73.3164C367.405 74.3942 365.939 75.1056 364.257 75.3643C363.417 74.2865 359.472 69.2313 356.561 72.1307L356.432 72.2924C355.85 73.1978 356.561 76.4529 356.928 77.4769C357.844 80.0961 365.766 78.2206 367.61 77.4769C368.214 77.2375 368.711 76.7858 369.007 76.2064C369.302 75.6271 369.377 74.9598 369.216 74.3296C369.004 73.0118 369.044 71.6658 369.334 70.3631C369.588 69.6079 369.928 68.8846 370.347 68.2073L370.854 66.375C371.986 63.2061 370.487 58.7437 370.487 58.7437Z" fill="#4D59A1"/>
<path d="M60.79 115H8C5.87827 115 3.84343 115.843 2.34314 117.343C0.842849 118.843 0 120.878 0 123V149.23C0 151.352 0.842849 153.387 2.34314 154.887C3.84343 156.387 5.87827 157.23 8 157.23H13V167.01L22.78 157.23H60.78C62.9017 157.23 64.9366 156.387 66.4369 154.887C67.9371 153.387 68.78 151.352 68.78 149.23V123.03C68.7839 121.978 68.5802 120.935 68.1806 119.962C67.781 118.988 67.1932 118.103 66.451 117.357C65.7088 116.611 64.8268 116.019 63.8553 115.615C62.8839 115.21 61.8423 115.001 60.79 115Z" fill="#FFFDFF"/>
<path d="M22.1803 136.13C22.1784 137.101 21.8887 138.049 21.348 138.855C20.8073 139.661 20.0398 140.289 19.1424 140.659C18.2451 141.029 17.2581 141.125 16.3064 140.934C15.3546 140.744 14.4806 140.275 13.7949 139.588C13.1093 138.901 12.6426 138.026 12.454 137.074C12.2653 136.122 12.3631 135.135 12.7351 134.239C13.107 133.342 13.7363 132.576 14.5435 132.037C15.3508 131.498 16.2997 131.21 17.2703 131.21C17.916 131.21 18.5553 131.337 19.1516 131.585C19.748 131.832 20.2897 132.195 20.7458 132.652C21.2018 133.109 21.5633 133.651 21.8095 134.248C22.0556 134.845 22.1817 135.484 22.1803 136.13Z" fill="#5D66D3"/>
<path d="M34.3905 141.04C37.1022 141.04 39.3005 138.842 39.3005 136.13C39.3005 133.418 37.1022 131.22 34.3905 131.22C31.6788 131.22 29.4805 133.418 29.4805 136.13C29.4805 138.842 31.6788 141.04 34.3905 141.04Z" fill="#5D66D3"/>
<path d="M56.4298 136.13C56.4298 137.103 56.1413 138.054 55.6007 138.863C55.0601 139.673 54.2916 140.303 53.3926 140.675C52.4936 141.048 51.5044 141.145 50.55 140.955C49.5956 140.766 48.719 140.297 48.0309 139.609C47.3428 138.921 46.8742 138.044 46.6844 137.09C46.4945 136.135 46.592 135.146 46.9644 134.247C47.3367 133.348 47.9673 132.58 48.7764 132.039C49.5855 131.499 50.5368 131.21 51.5099 131.21C52.1563 131.209 52.7967 131.335 53.3942 131.582C53.9917 131.829 54.5346 132.191 54.9918 132.648C55.4489 133.105 55.8112 133.648 56.058 134.246C56.3048 134.843 56.4312 135.484 56.4298 136.13Z" fill="#5D66D3"/>
<path d="M98.7889 185.691C98.7889 185.691 98.2474 185.972 98.2474 186.159C98.1255 187.196 98.0872 188.24 98.1329 189.283C98.2682 189.72 105.661 190.48 105.661 190.48C105.661 190.48 109.389 190.262 109.826 189.751C110.263 189.241 110.045 188.887 109.826 188.825C109.607 188.762 100.965 185.472 100.965 185.472L98.7889 185.691Z" fill="#292949"/>
<path d="M88.4398 189.616C88.4398 189.616 87.8983 189.897 87.8879 190.085C87.7648 191.121 87.7161 192.165 87.7421 193.208C87.8879 193.646 95.2599 194.479 95.2599 194.479C95.2599 194.479 98.998 194.291 99.4249 193.802C99.8518 193.313 99.6436 192.927 99.4249 192.865C99.2063 192.802 90.5952 189.418 90.5952 189.418L88.4398 189.616Z" fill="#292949"/>
</svg>
