<svg width="20" height="20" viewBox="0 0 20 20" fill="none" xmlns="http://www.w3.org/2000/svg">
<path d="M0.625 18.125H19.375V19.375H0.625V18.125Z" fill="#E2DFFE"/>
<path d="M3.125 18.125V16.875H16.875V18.125" fill="#FF9811"/>
<path d="M14.0625 16.875V14.375H16.25V12.1875C16.25 10.8069 15.1306 9.6875 13.75 9.6875C12.825 9.6875 12.0122 9.07438 11.7581 8.185L11.5625 7.5V7.25062C11.5625 6.61812 11.85 6.02031 12.3438 5.625C12.8375 5.23 13.125 4.63188 13.125 3.99938V3.4375C13.125 1.88406 11.8659 0.625 10.3125 0.625H10C8.44656 0.625 7.1875 1.88406 7.1875 3.4375L6.5625 5.3125H7.1875V6.875H8.4375V7.5L8.24188 8.185C7.98781 9.07438 7.175 9.6875 6.25 9.6875C4.86937 9.6875 3.75 10.8069 3.75 12.1875V14.375H5.9375V16.875" fill="#5D66D3"/>
<path d="M8.17844 15.3125H5.9375V14.6875H8.17844C8.665 14.6875 9.1225 14.4981 9.46656 14.1541L9.90844 14.5959C9.44625 15.0581 8.83187 15.3125 8.17844 15.3125Z" fill="#474EBB"/>
<path d="M14.0627 15.3125H11.8218C11.1684 15.3125 10.554 15.0581 10.0918 14.5959L10.5337 14.1541C10.8777 14.4981 11.3352 14.6875 11.8218 14.6875H14.0627V15.3125Z" fill="#474EBB"/>
<path d="M13.7504 9.6875C13.4935 9.6875 13.2473 9.63594 13.0173 9.54875L12.4295 9.69563C11.5435 9.91719 10.801 10.5128 10.3923 11.3297L10.3457 11.4228L10.9048 11.7025L10.9513 11.6094C11.2779 10.9556 11.872 10.4794 12.581 10.3022L13.826 9.99094C13.9579 9.95781 14.0498 9.84281 14.0591 9.70875C13.9579 9.69594 13.8551 9.6875 13.7504 9.6875Z" fill="#474EBB"/>
<path d="M6.17258 9.99062L7.41758 10.3019C8.12664 10.4791 8.72039 10.9553 9.04727 11.6091L9.09383 11.7022L9.65289 11.4225L9.60633 11.3294C9.19789 10.5125 8.45539 9.91687 7.56914 9.69531L6.98133 9.54843C6.75164 9.63593 6.50539 9.68749 6.24852 9.68749C6.14383 9.68749 6.04102 9.69593 5.93945 9.70843C5.94883 9.84281 6.0407 9.95781 6.17258 9.99062Z" fill="#474EBB"/>
</svg>
