<svg width="686" height="604" viewBox="0 0 686 604" fill="none" xmlns="http://www.w3.org/2000/svg">
<path d="M112.886 505.775C113.861 491.187 119.91 477.399 129.985 466.802C148.999 445.585 175.163 432.115 203.48 428.965C261.647 423.016 255.759 501.722 197.466 528.873C147.948 551.898 110.956 543.869 112.886 505.775Z" fill="#E2DFFE"/>
<path d="M27.0914 577.911C27.6528 569.834 30.9933 562.201 36.5453 556.307C47.0898 544.568 61.5893 537.123 77.2747 535.395C109.456 532.094 106.162 575.633 73.9416 590.677C46.4453 603.488 25.9717 599.015 27.0914 577.911Z" fill="#E2DFFE"/>
<path d="M490.834 15.8223C488.858 19.559 488.117 23.8257 488.718 28.0098C489.331 35.902 493.69 42.9267 496.821 50.2265C512.137 86.0272 510.931 104.689 554.131 106.89C563.037 107.334 571.901 109.26 580.766 108.54C585.159 108.259 589.435 107.001 593.281 104.859C597.128 102.717 600.449 99.7445 603.002 96.1572C605.555 92.57 607.277 88.4586 608.041 84.1221C608.806 79.7857 608.594 75.3334 607.421 71.0891C601.434 49.2743 572.684 34.6113 554.427 25.513C543.532 20.0752 501.157 -0.956637 490.834 15.8223Z" fill="#E2DFFE"/>
<path d="M134.277 253.33C141.795 255.892 148.179 261.005 152.323 267.781C160.782 280.741 164.171 296.364 161.843 311.665C156.787 343.022 116.316 328.867 110.266 294.462C105.146 265.242 114.56 246.961 134.277 253.33Z" fill="#E2DFFE"/>
<path d="M108.49 178.169C112.649 179.599 116.185 182.425 118.496 186.167C123.174 193.35 125.041 202.005 123.743 210.478C120.95 227.828 98.568 219.979 95.2042 200.957C92.3483 184.728 97.5736 174.614 108.49 178.169Z" fill="#E2DFFE"/>
<path d="M381.628 543.819H400.013C402.081 543.78 404.05 542.923 405.489 541.436C406.928 539.95 407.72 537.953 407.692 535.884C407.731 533.845 408.568 531.902 410.024 530.474C411.48 529.046 413.438 528.246 415.477 528.246H524.28C526.39 528.201 528.441 528.946 530.031 530.336C531.62 531.726 532.632 533.659 532.869 535.757V535.927C532.95 537.87 533.77 539.708 535.163 541.065C536.555 542.422 538.414 543.196 540.358 543.226H612.752C614.828 543.211 616.837 543.959 618.397 545.328C619.958 546.697 620.96 548.593 621.214 550.653C621.33 551.798 621.204 552.954 620.845 554.047C620.486 555.14 619.902 556.145 619.131 556.999C618.359 557.852 617.417 558.534 616.366 559.001C615.315 559.468 614.177 559.709 613.027 559.709H600.926C598.815 559.748 596.805 560.623 595.337 562.142C593.87 563.661 593.065 565.701 593.099 567.813C593.06 569.89 592.206 571.868 590.722 573.32C589.238 574.773 587.242 575.584 585.165 575.578H470.355C468.239 575.612 466.185 574.868 464.582 573.487C462.979 572.107 461.939 570.185 461.66 568.088C461.508 566.668 461.724 565.234 462.287 563.922C462.85 562.61 463.741 561.465 464.875 560.598H381.903C379.777 560.635 377.713 559.883 376.107 558.489C374.502 557.094 373.469 555.155 373.208 553.044C373.103 551.874 373.242 550.694 373.617 549.581C373.992 548.467 374.594 547.444 375.387 546.576C376.179 545.708 377.143 545.015 378.217 544.54C379.292 544.066 380.454 543.82 381.628 543.819Z" fill="#5D66D3"/>
<path d="M135.271 563.687H153.528C155.595 563.687 157.578 562.867 159.041 561.408C160.504 559.948 161.329 557.968 161.335 555.901C161.332 554.877 161.531 553.863 161.922 552.917C162.312 551.972 162.885 551.112 163.609 550.388C164.332 549.665 165.192 549.091 166.137 548.701C167.083 548.311 168.097 548.111 169.12 548.114H239.06C241.056 548.022 242.94 547.163 244.319 545.716C245.698 544.27 246.467 542.347 246.465 540.349C246.47 538.282 247.295 536.301 248.758 534.842C250.222 533.382 252.204 532.562 254.271 532.562H363.433C364.55 532.506 365.668 532.677 366.717 533.066C367.766 533.454 368.725 534.052 369.535 534.823C370.346 535.594 370.992 536.521 371.433 537.55C371.874 538.578 372.102 539.685 372.102 540.804C372.102 541.923 371.874 543.03 371.433 544.058C370.992 545.086 370.346 546.014 369.535 546.785C368.725 547.555 367.766 548.153 366.717 548.542C365.668 548.931 364.55 549.102 363.433 549.045H351.459C349.355 549.045 347.337 549.881 345.85 551.369C344.362 552.857 343.526 554.875 343.526 556.98C343.526 559.084 342.69 561.102 341.202 562.59C339.715 564.078 337.697 564.914 335.593 564.914H264.151C262.491 565.383 261.029 566.381 259.987 567.755C258.945 569.13 258.379 570.806 258.375 572.531C258.375 574.636 257.539 576.654 256.051 578.142C254.564 579.63 252.546 580.466 250.442 580.466H135.271C134.076 580.625 132.861 580.527 131.707 580.178C130.553 579.829 129.486 579.238 128.579 578.444C127.672 577.649 126.946 576.67 126.448 575.572C125.95 574.474 125.692 573.282 125.692 572.076C125.692 570.871 125.95 569.679 126.448 568.581C126.946 567.482 127.672 566.503 128.579 565.709C129.486 564.915 130.553 564.323 131.707 563.975C132.861 563.626 134.076 563.528 135.271 563.687Z" fill="#5D66D3"/>
<path d="M580.488 304.449L578.14 486.288C578.14 487.652 577.598 488.96 576.634 489.924C575.67 490.888 574.363 491.43 572.999 491.43C571.636 491.43 570.328 490.888 569.364 489.924C568.4 488.96 567.858 487.652 567.858 486.288L565.51 304.449H580.488Z" fill="#3A01A6"/>
<path d="M630.184 486.669C630.144 487.655 629.762 488.597 629.102 489.331C628.442 490.065 627.546 490.545 626.569 490.688C625.593 490.831 624.597 490.628 623.754 490.114C622.911 489.601 622.275 488.809 621.954 487.875L597.964 304.449H612.878L630.184 486.669Z" fill="#9CB4EE"/>
<path d="M515.818 486.669L533.081 304.449H548.059L524.026 487.875C523.716 488.823 523.081 489.63 522.233 490.156C521.385 490.681 520.38 490.89 519.393 490.745C518.407 490.601 517.503 490.113 516.841 489.367C516.179 488.621 515.801 487.666 515.775 486.669H515.818Z" fill="#9CB4EE"/>
<path d="M658.553 323.958C663.1 323.958 667.46 322.153 670.677 318.939C673.894 315.726 675.704 311.367 675.71 306.819V66.3284H462.928V306.819C462.934 311.363 464.741 315.719 467.953 318.932C471.166 322.145 475.521 323.952 480.064 323.958H658.553Z" fill="#9CB4EE"/>
<path d="M672.283 69.7349V306.819C672.283 310.461 670.837 313.954 668.262 316.529C665.687 319.104 662.195 320.551 658.553 320.551H480.064C476.427 320.546 472.94 319.096 470.369 316.522C467.799 313.947 466.356 310.458 466.356 306.819V69.7349H672.283Z" fill="white"/>
<path d="M459.987 64.7202H678.629C680.617 65.0376 682.427 66.0534 683.734 67.5852C685.04 69.117 685.758 71.0645 685.758 73.078C685.758 75.0914 685.04 77.0389 683.734 78.5707C682.427 80.1025 680.617 81.1183 678.629 81.4357H459.987C458.779 81.6287 457.542 81.5571 456.364 81.2258C455.185 80.8945 454.093 80.3115 453.162 79.517C452.23 78.7224 451.482 77.7353 450.97 76.6236C450.457 75.5119 450.191 74.3022 450.191 73.078C450.191 71.8537 450.457 70.644 450.97 69.5323C451.482 68.4207 452.23 67.4335 453.162 66.639C454.093 65.8444 455.185 65.2614 456.364 64.9301C457.542 64.5989 458.779 64.5273 459.987 64.7202Z" fill="#9CB4EE"/>
<path d="M636.149 246.644C639.449 246.644 642.613 247.954 644.945 250.288C647.278 252.621 648.589 255.785 648.589 259.085C648.589 262.385 647.278 265.549 644.945 267.882C642.613 270.216 639.449 271.526 636.149 271.526C632.85 271.526 629.686 270.216 627.353 267.882C625.021 265.549 623.71 262.385 623.71 259.085C623.71 255.785 625.021 252.621 627.353 250.288C629.686 247.954 632.85 246.644 636.149 246.644Z" fill="#8CABEF"/>
<path d="M591.595 246.644C594.894 246.644 598.058 247.954 600.391 250.288C602.724 252.621 604.034 255.785 604.034 259.085C604.034 262.385 602.724 265.549 600.391 267.882C598.058 270.216 594.894 271.526 591.595 271.526C588.296 271.526 585.132 270.216 582.799 267.882C580.466 265.549 579.155 262.385 579.155 259.085C579.155 255.785 580.466 252.621 582.799 250.288C585.132 247.954 588.296 246.644 591.595 246.644Z" fill="#474EBB"/>
<path d="M547.043 246.644C550.342 246.644 553.506 247.954 555.839 250.288C558.172 252.621 559.482 255.785 559.482 259.085C559.482 262.385 558.172 265.549 555.839 267.882C553.506 270.216 550.342 271.526 547.043 271.526C543.744 271.526 540.58 270.216 538.247 267.882C535.914 265.549 534.604 262.385 534.604 259.085C534.604 255.785 535.914 252.621 538.247 250.288C540.58 247.954 543.744 246.644 547.043 246.644Z" fill="#FF151F"/>
<path d="M502.468 246.644C505.767 246.644 508.931 247.954 511.264 250.288C513.597 252.621 514.907 255.785 514.907 259.085C514.907 262.385 513.597 265.549 511.264 267.882C508.931 270.216 505.767 271.526 502.468 271.526C499.169 271.526 496.005 270.216 493.672 267.882C491.339 265.549 490.028 262.385 490.028 259.085C490.028 255.785 491.339 252.621 493.672 250.288C496.005 247.954 499.169 246.644 502.468 246.644Z" fill="#48E2C8"/>
<g opacity="0.5">
<path opacity="0.5" d="M579.41 276.711H650.069V279.229H579.41V276.711Z" fill="#DDDDDD"/>
<path opacity="0.5" d="M579.41 284.708H650.069V287.226H579.41V284.708Z" fill="#DDDDDD"/>
<path opacity="0.5" d="M579.41 292.685H650.069V295.203H579.41V292.685Z" fill="#DDDDDD"/>
<path opacity="0.5" d="M579.41 300.683H650.069V303.201H579.41V300.683Z" fill="#DDDDDD"/>
<path opacity="0.5" d="M488.568 276.71H559.228V279.228H488.568V276.71Z" fill="#DDDDDD"/>
<path opacity="0.5" d="M488.568 284.708H559.228V287.226H488.568V284.708Z" fill="#DDDDDD"/>
<path opacity="0.5" d="M488.568 292.685H559.228V295.203H488.568V292.685Z" fill="#DDDDDD"/>
<path opacity="0.5" d="M488.568 300.683H559.228V303.201H488.568V300.683Z" fill="#DDDDDD"/>
</g>
<path d="M488.526 221.676H650.111V224.067H488.526V221.676Z" fill="#DDDDDD"/>
<path d="M488.526 228.637H650.111V231.028H488.526V228.637Z" fill="#DDDDDD"/>
<path d="M571.392 152.72L570.567 105.07C578.799 104.936 586.924 106.939 594.15 110.883C601.376 114.828 607.455 120.58 611.795 127.577C616.134 134.574 618.585 142.577 618.908 150.804C619.231 159.031 617.414 167.202 613.637 174.517C609.859 181.833 604.249 188.043 597.354 192.542C590.46 197.041 582.516 199.675 574.3 200.186C566.084 200.698 557.875 199.069 550.476 195.459C543.077 191.849 536.741 186.382 532.085 179.591L571.392 152.72Z" fill="#474EBB"/>
<path d="M528.003 175.635C523.13 168.539 520.273 160.254 519.736 151.663C519.199 143.072 521.002 134.496 524.953 126.848C528.905 119.201 534.856 112.769 542.173 108.237C549.49 103.705 557.9 101.243 566.506 101.113L567.246 148.7L528.003 175.635Z" fill="#8CABEF"/>
<path d="M294.149 419.278H374.899V478.586H294.149V419.278Z" fill="#89A6EB"/>
<path d="M155.9 169.139H513.152C522.032 169.139 529.23 176.338 529.23 185.22V420.611C529.23 429.492 522.032 436.692 513.152 436.692H155.9C147.02 436.692 139.821 429.492 139.821 420.611V185.22C139.821 176.338 147.02 169.139 155.9 169.139Z" fill="#89A6EB"/>
<path d="M516.536 406.202L152.534 406.202L152.534 187.759L516.536 187.759V406.202Z" fill="white"/>
<path d="M164.847 199.459H504.182C506.016 199.459 507.503 200.947 507.503 202.781V222.269C507.503 224.103 506.016 225.591 504.182 225.591H164.847C163.013 225.591 161.526 224.103 161.526 222.269V202.781C161.526 200.947 163.013 199.459 164.847 199.459Z" fill="#DDDDDD"/>
<path d="M193.386 231.727H296.815C309.165 231.727 319.177 241.74 319.177 254.091V356.161C319.177 368.513 309.165 378.526 296.815 378.526H193.386C181.036 378.526 171.025 368.513 171.025 356.161V254.091C171.025 241.74 181.036 231.727 193.386 231.727Z" fill="#E2DFFE"/>
<path d="M502.51 240.232L345.389 240.232V236.107L502.51 236.107V240.232Z" fill="#DDDDDD"/>
<path d="M502.51 259.36H345.389V255.234L502.51 255.234V259.36Z" fill="#DDDDDD"/>
<path d="M502.51 278.488H345.389V274.362H502.51V278.488Z" fill="#DDDDDD"/>
<path d="M502.51 297.615H345.389V293.489H502.51V297.615Z" fill="#DDDDDD"/>
<path d="M502.51 316.764H345.389V312.638H502.51V316.764Z" fill="#DDDDDD"/>
<path d="M502.51 335.891H345.389V331.765H502.51V335.891Z" fill="#DDDDDD"/>
<path d="M502.51 355.019H345.389V350.893H502.51V355.019Z" fill="#DDDDDD"/>
<path d="M502.51 374.146H345.389V370.021H502.51V374.146Z" fill="#DDDDDD"/>
<path d="M224.568 472.196H444.585C447 472.357 449.264 473.431 450.918 475.199C452.571 476.966 453.491 479.297 453.491 481.718C453.491 484.139 452.571 486.469 450.918 488.237C449.264 490.005 447 491.078 444.585 491.239H224.568C223.264 491.326 221.957 491.145 220.726 490.705C219.496 490.266 218.369 489.579 217.415 488.686C216.461 487.794 215.7 486.715 215.18 485.516C214.66 484.317 214.392 483.024 214.392 481.718C214.392 480.411 214.66 479.118 215.18 477.92C215.7 476.721 216.461 475.642 217.415 474.749C218.369 473.857 219.496 473.169 220.726 472.73C221.957 472.291 223.264 472.109 224.568 472.196Z" fill="#89A6EB"/>
<path d="M181.835 348.29H300.222V354.046H181.835V348.29Z" fill="white"/>
<path d="M270.963 310.522H290.913V339.086H270.963V310.522Z" fill="white"/>
<path d="M244.349 293.531H264.299V339.086H244.349V293.531Z" fill="white"/>
<path d="M217.757 277.049H237.707V339.086H217.757V277.049Z" fill="white"/>
<path d="M191.164 263.655H211.113V339.086H191.164V263.655Z" fill="white"/>
<path d="M274.941 114.041V147.113C274.941 148.063 274.565 148.975 273.896 149.649C273.226 150.323 272.316 150.704 271.366 150.71H263.391C262.437 150.71 261.522 150.331 260.847 149.656C260.173 148.981 259.794 148.067 259.794 147.113V114.041H274.941Z" fill="#FF151F"/>
<path d="M254.694 97.6433V115.332C254.694 115.332 196.517 127.795 180.1 149.884V63.1333C196.517 85.1808 254.694 97.6433 254.694 97.6433Z" fill="#FF151F"/>
<path d="M247.417 96.0988C247.405 95.6084 247.493 95.1207 247.675 94.6651C247.857 94.2095 248.129 93.7954 248.474 93.4475C248.82 93.0997 249.233 92.8254 249.687 92.641C250.142 92.4567 250.629 92.3661 251.119 92.3748H277.923C279.41 92.3776 280.882 92.674 282.255 93.247C283.627 93.8201 284.873 94.6584 285.92 95.7141C286.968 96.7697 287.797 98.0219 288.359 99.3986C288.922 100.775 289.207 102.25 289.199 103.737V109.302C289.199 110.787 288.906 112.258 288.337 113.631C287.768 115.003 286.934 116.249 285.883 117.299C284.831 118.348 283.584 119.18 282.211 119.747C280.837 120.313 279.366 120.603 277.881 120.601H251.119C250.146 120.601 249.213 120.216 248.524 119.53C247.834 118.844 247.444 117.913 247.438 116.94L247.417 96.0988Z" fill="#D81B34"/>
<path d="M178.26 58.817C179.264 58.817 180.228 59.216 180.938 59.9263C181.648 60.6365 182.047 61.5999 182.047 62.6044V152.593C182.047 153.597 181.648 154.561 180.938 155.271C180.228 155.981 179.264 156.38 178.26 156.38C177.256 156.38 176.292 155.981 175.582 155.271C174.872 154.561 174.473 153.597 174.473 152.593V62.6044C174.473 61.5999 174.872 60.6365 175.582 59.9263C176.292 59.216 177.256 58.817 178.26 58.817Z" fill="#D81B34"/>
<path d="M116.718 105.472H166.285V107.757H116.718V105.472Z" fill="#8CABEF"/>
<path d="M120.851 75.1172L166.29 94.9249L165.377 97.0197L119.938 77.2121L120.851 75.1172Z" fill="#8CABEF"/>
<path d="M165.39 117.87L166.302 119.965L120.856 139.757L119.944 137.662L165.39 117.87Z" fill="#8CABEF"/>
<path d="M448.416 263.761C448.045 262.567 448.001 261.296 448.289 260.079C448.754 257.963 450.087 256.757 450.277 254.218C450.468 251.679 449.96 247.871 449.156 248.421C448.324 249.227 447.844 250.33 447.823 251.489C447.612 252.822 447.823 254.832 446.766 254.282C445.708 253.732 443.698 242.031 442.534 244.358C441.371 246.686 443.677 251.954 442.746 251.891C441.815 251.827 440.63 241.904 439.213 243.829C437.796 245.755 440.884 252.822 439.742 252.758C438.6 252.695 438.621 244.295 437.14 246.093C436.082 247.426 437.817 253.753 437.14 252.949C436.463 252.145 435.87 247.426 435.215 249.69C435.028 251.051 435.116 252.435 435.472 253.761C435.828 255.087 436.445 256.329 437.288 257.413C438.699 258.894 439.812 260.633 440.567 262.534C441.032 264.205 441.159 265.538 441.498 265.665C441.836 265.792 448.416 263.761 448.416 263.761Z" fill="#F7A5A7"/>
<path d="M471.812 328.338C471.812 328.338 453.555 315.473 449.684 305.592C445.812 295.711 437.413 267.887 438.894 266.998C440.375 266.11 448.774 259.804 451.461 266.998C451.905 268.141 458.653 296.028 466.439 304.09C474.224 312.151 489.71 322.35 487.975 328.338C486.24 334.326 471.812 328.338 471.812 328.338Z" fill="#FF151F"/>
<path d="M476.341 298.948C476.341 298.948 474.437 308.512 477.229 312.511C480.022 316.51 464.409 313.823 464.324 313.167C464.24 312.511 465.488 305.571 462.907 302.587C460.326 299.604 476.341 298.948 476.341 298.948Z" fill="#FFC2A9"/>
<path d="M449.621 528.563C450.404 531.528 450.906 534.56 451.123 537.619C450.954 540.095 451.631 541.851 450.785 542.126C449.938 542.401 437.457 542.422 437.457 542.422C437.457 542.422 436.801 541.005 436.209 540.878C435.616 540.751 432.527 542.528 430.095 542.994C427.662 543.459 414.82 541.936 415.032 540.476C415.243 539.016 418.501 537.683 421.632 536.794C424.763 535.905 439.17 528.584 439.17 528.584L449.621 528.563Z" fill="#292949"/>
<path d="M495.571 527.59C496.342 530.516 496.858 533.504 497.115 536.519C497.115 538.952 497.686 540.624 496.946 540.984C496.205 541.343 485.204 541.428 485.204 541.428C485.204 541.428 484.591 540.031 484.062 539.926C483.533 539.82 480.867 541.597 478.71 542.041C476.552 542.486 465.212 541.174 465.36 539.735C465.509 538.296 468.343 536.921 471.094 536.011C473.844 535.101 486.347 527.696 486.347 527.696L495.571 527.59Z" fill="#292949"/>
<path d="M439.741 394.29C439.741 394.29 429.439 453.682 428.36 467.435C427.281 481.189 432.421 528.606 433.754 529.008C435.087 529.41 451.525 531.123 451.588 529.748C451.652 528.373 445.94 478.48 446.913 472.81C447.886 467.139 460.685 427.128 460.685 427.128C460.685 427.128 461.214 460.495 461.045 463.521C460.876 466.547 479.112 529.346 480.783 529.769C482.454 530.192 497.58 529.769 497.982 528.838C498.384 527.907 483.174 470.08 483.597 461.701C484.02 453.323 484.781 402.139 484.083 396.363C483.385 390.587 439.741 394.29 439.741 394.29Z" fill="#292949"/>
<path d="M428.36 467.436C428.36 466.145 428.635 464.452 428.889 462.442C429.058 461.109 429.248 459.628 429.46 458.041C429.46 457.639 429.46 457.237 429.629 456.835C429.735 456.01 429.862 455.163 429.989 454.275C430.179 452.963 430.37 451.609 430.581 450.191C430.793 448.774 431.025 447.335 431.237 445.854C432.464 437.961 433.881 429.159 435.214 421.098C437.626 406.477 439.741 394.29 439.741 394.29C439.741 394.29 445.877 393.782 453.577 393.422H455.545L459.585 393.274H463.711C465.826 393.274 467.794 393.274 469.74 393.274C470.403 393.274 471.037 393.274 471.644 393.274C478.519 393.549 483.83 394.417 484.083 396.384C484.274 398.014 484.358 403.219 484.358 410.074C479.683 409.884 474.436 409.672 472.257 409.545C465.192 409.164 453.471 401.801 447.421 407.874C441.37 413.946 431.745 466.97 433.585 470.102C435.426 473.233 438.028 475.053 436.949 476.682C435.87 478.311 434.833 478.248 434.664 481.273C434.495 484.299 436.082 517.032 437.732 523.866C438.28 526.019 439.227 528.05 440.524 529.854C438.255 529.695 435.995 529.42 433.754 529.029C433.627 529.029 433.479 528.542 433.289 527.738C432.739 525.347 431.956 519.846 431.173 512.927C431.004 511.404 430.835 509.817 430.645 508.187C430.221 504.125 429.798 499.724 429.439 495.492C429.291 493.757 429.164 492.022 429.037 490.308C428.783 486.881 428.571 483.559 428.423 480.491C428.148 476.144 428.126 471.785 428.36 467.436Z" fill="#292949"/>
<path d="M465.276 274.933C461.035 278.403 457.951 283.082 456.433 288.347C453.915 297.128 456.433 301.297 457.723 302.08C461.466 303.582 465.436 304.441 469.465 304.619C472.641 304.353 475.724 303.409 478.505 301.85C481.286 300.291 483.7 298.155 485.585 295.584C490.514 288.263 486.516 278.107 480.994 274.108C475.473 270.109 465.276 274.933 465.276 274.933Z" fill="#FFC2A9"/>
<path d="M404.349 209.15L407.649 214.228C407.796 214.434 408.005 214.586 408.245 214.662C408.485 214.739 408.744 214.735 408.982 214.651C412.013 213.534 415.209 212.926 418.439 212.853C418.69 212.85 418.932 212.763 419.128 212.606C419.323 212.448 419.461 212.23 419.517 211.985L420.744 206.04C420.81 205.746 420.989 205.49 421.243 205.327C421.497 205.165 421.804 205.109 422.098 205.172L431.09 207.055C431.234 207.086 431.371 207.144 431.493 207.228C431.615 207.311 431.72 207.418 431.8 207.542C431.881 207.665 431.936 207.804 431.963 207.949C431.99 208.095 431.988 208.244 431.957 208.388L430.73 214.334C430.675 214.581 430.709 214.838 430.825 215.063C430.941 215.287 431.132 215.463 431.365 215.561C434.289 216.919 436.969 218.749 439.298 220.978C439.477 221.161 439.714 221.277 439.969 221.304C440.224 221.331 440.481 221.268 440.694 221.126L445.75 217.804C445.875 217.722 446.015 217.666 446.161 217.638C446.308 217.611 446.458 217.613 446.604 217.644C446.75 217.676 446.888 217.736 447.01 217.822C447.132 217.907 447.236 218.016 447.316 218.143L452.351 225.823C452.434 225.948 452.493 226.089 452.522 226.236C452.551 226.383 452.551 226.535 452.522 226.683C452.492 226.83 452.434 226.97 452.35 227.095C452.266 227.22 452.159 227.327 452.034 227.41L446.956 230.711C446.742 230.85 446.583 231.058 446.506 231.302C446.428 231.545 446.438 231.807 446.533 232.044C447.644 235.077 448.244 238.273 448.31 241.502C448.318 241.755 448.409 241.998 448.57 242.193C448.731 242.389 448.952 242.525 449.199 242.581L455.122 243.808C455.27 243.839 455.41 243.898 455.534 243.982C455.659 244.067 455.765 244.175 455.848 244.301C455.93 244.427 455.987 244.567 456.015 244.715C456.043 244.863 456.042 245.015 456.011 245.162L454.128 254.155C454.062 254.449 453.883 254.705 453.629 254.867C453.376 255.03 453.068 255.086 452.774 255.022L446.85 253.795C446.601 253.744 446.342 253.778 446.115 253.894C445.888 254.009 445.707 254.198 445.602 254.43C444.245 257.354 442.415 260.035 440.186 262.365C440.01 262.548 439.899 262.784 439.873 263.037C439.846 263.29 439.904 263.545 440.038 263.761L443.36 268.818C443.443 268.941 443.5 269.08 443.53 269.226C443.559 269.371 443.558 269.522 443.529 269.667C443.499 269.813 443.441 269.951 443.357 270.074C443.274 270.197 443.167 270.303 443.042 270.384L435.342 275.42C435.219 275.505 435.081 275.566 434.935 275.596C434.788 275.627 434.637 275.627 434.491 275.598C434.344 275.568 434.205 275.509 434.083 275.424C433.96 275.338 433.855 275.229 433.776 275.102L430.455 270.024C430.316 269.81 430.107 269.651 429.864 269.573C429.621 269.496 429.359 269.506 429.122 269.601C426.096 270.71 422.908 271.31 419.687 271.378C419.432 271.378 419.185 271.467 418.988 271.629C418.791 271.791 418.657 272.017 418.608 272.267L417.36 278.191C417.332 278.338 417.275 278.478 417.193 278.602C417.11 278.726 417.004 278.833 416.88 278.916C416.756 278.999 416.616 279.056 416.47 279.084C416.323 279.112 416.173 279.111 416.027 279.08L407.036 277.197C406.888 277.167 406.748 277.108 406.624 277.023C406.499 276.939 406.393 276.83 406.31 276.704C406.227 276.579 406.171 276.438 406.143 276.29C406.115 276.142 406.116 275.99 406.147 275.843L407.395 269.918C407.443 269.669 407.407 269.411 407.292 269.185C407.177 268.959 406.99 268.778 406.761 268.67C403.827 267.318 401.139 265.487 398.806 263.253C398.627 263.078 398.393 262.969 398.144 262.942C397.895 262.915 397.644 262.972 397.431 263.105L392.354 266.427C392.23 266.51 392.092 266.568 391.946 266.597C391.8 266.626 391.65 266.626 391.505 266.596C391.359 266.566 391.221 266.508 391.098 266.425C390.975 266.341 390.869 266.234 390.788 266.11L385.753 258.408C385.671 258.283 385.615 258.144 385.587 257.997C385.56 257.85 385.562 257.7 385.594 257.554C385.625 257.408 385.685 257.27 385.771 257.148C385.856 257.026 385.966 256.922 386.092 256.842L391.169 253.52C391.376 253.38 391.529 253.175 391.606 252.937C391.683 252.699 391.678 252.443 391.592 252.208C390.479 249.176 389.871 245.98 389.794 242.75C389.795 242.498 389.709 242.254 389.551 242.057C389.393 241.861 389.173 241.725 388.927 241.671L382.982 240.423C382.837 240.393 382.7 240.334 382.578 240.251C382.456 240.167 382.352 240.061 382.271 239.937C382.19 239.813 382.135 239.674 382.108 239.529C382.081 239.384 382.083 239.234 382.114 239.09L383.997 230.097C384.025 229.951 384.082 229.811 384.164 229.687C384.247 229.562 384.353 229.456 384.477 229.373C384.601 229.29 384.741 229.233 384.887 229.205C385.034 229.177 385.184 229.178 385.33 229.209L391.275 230.457C391.521 230.507 391.777 230.472 392 230.356C392.224 230.241 392.401 230.052 392.502 229.822C393.854 226.888 395.684 224.2 397.918 221.867C398.103 221.693 398.22 221.459 398.248 221.207C398.275 220.954 398.21 220.7 398.066 220.491L394.744 215.413C394.662 215.289 394.606 215.149 394.578 215.002C394.551 214.856 394.553 214.705 394.585 214.559C394.616 214.413 394.677 214.275 394.762 214.153C394.848 214.031 394.957 213.927 395.083 213.847L402.762 208.748C403.026 208.593 403.341 208.548 403.638 208.623C403.935 208.698 404.191 208.888 404.349 209.15ZM419.158 226.5C415.535 226.433 412.001 227.63 409.165 229.885C406.328 232.141 404.366 235.314 403.614 238.86C402.863 242.405 403.371 246.102 405.049 249.314C406.727 252.526 409.472 255.053 412.811 256.461C414.732 257.351 416.83 257.792 418.946 257.752C422.565 257.806 426.09 256.601 428.919 254.343C431.748 252.085 433.705 248.914 434.454 245.373C435.204 241.831 434.7 238.14 433.029 234.929C431.358 231.718 428.623 229.187 425.293 227.77C423.362 226.869 421.246 226.434 419.116 226.5H419.158Z" fill="#8CABEF"/>
<path d="M404.074 264.988C404.321 263.502 404.66 262.032 405.089 260.587C405.914 257.646 408.241 253.964 407.861 253.393C407.48 252.822 405.258 253.393 404.158 255.065C403.058 256.736 402.318 260.397 401.366 259.593C400.414 258.789 397.643 245.522 395.654 246.368C393.665 247.215 396.458 256.165 395.654 255.044C394.85 253.922 393.242 245.818 391.888 247.363C390.534 248.908 393.369 257.519 392.438 256.588C391.507 255.657 390.513 249.034 389.286 250.537C388.059 252.039 391.042 259.318 390.217 258.535C389.392 257.752 388.8 252.589 388.101 254.303C387.635 256.953 388.146 259.682 389.54 261.984C390.852 263.634 395.4 266.342 395.887 267.739C396.373 269.135 396.627 272.246 397.621 272.394C400.203 272.23 402.74 271.644 405.132 270.659C405.153 270.109 404.074 264.988 404.074 264.988Z" fill="#F7A5A7"/>
<path d="M394.13 269.791C395.314 266.66 403.523 266.004 406.4 266.406C409.277 266.808 415.539 296.028 422.013 302.037C428.486 308.046 454.698 312.151 454.698 312.151C454.698 312.151 454.698 312.151 454.698 312.32C454.928 312.184 455.177 312.084 455.438 312.024C455.808 311.786 456.189 311.567 456.581 311.368C457.337 311.054 458.115 310.792 458.908 310.585C464.597 309.535 470.365 308.976 476.15 308.914C479.743 309.778 483.027 311.619 485.64 314.233C488.254 316.846 490.094 320.131 490.958 323.725C493.264 331.723 486.05 399.897 485.669 400.87C485.289 401.843 479.957 402.986 466.799 403.769C453.64 404.552 438.958 396.109 437.329 393.443C436.356 391.814 439.106 369.682 441.772 350.724C442.328 344.756 443.246 338.828 444.522 332.971C434.748 329.84 416.385 317.991 411.562 313.675C405.554 308.533 392.86 272.944 394.13 269.791Z" fill="#FF151F"/>
<path d="M394.129 269.791C394.7 268.31 396.858 267.379 399.27 266.85C399.968 271.421 404.411 298.356 413.296 305.888C423.006 314.119 443.295 324.698 448.287 329.163C453.28 333.627 449.472 338.282 450.064 349.75C450.657 361.218 462.758 373.025 458.294 377.405C453.83 381.785 448.88 382.398 449.832 388.577C450.382 392.449 455.438 399.156 463.181 403.875C451.08 403.134 438.831 396.025 437.35 393.591C436.377 391.962 439.127 369.83 441.792 350.872C442.349 344.904 443.267 338.976 444.543 333.12C434.769 329.988 416.406 318.139 411.582 313.823C405.553 308.533 392.86 272.944 394.129 269.791Z" fill="#D81B34"/>
<path d="M469.782 291.564C469.782 291.564 471.368 287.543 473.674 289.448C475.98 291.352 470.987 295.795 470.755 296.515C470.61 297.812 470.789 299.126 471.277 300.337C471.764 301.548 472.544 302.619 473.547 303.455C476.467 305.761 479.746 305.994 479.894 305.571C480.042 305.148 478.921 304.111 481.84 301.064C484.76 298.017 493.772 292.6 494.533 287.819C495.295 283.037 492.101 279.905 491.741 278.932C491.381 277.959 492.101 274.298 488.462 272.351C484.823 270.405 479.577 270.892 476.784 267.972C473.991 265.052 473.865 259.952 472.553 262.259C471.241 264.565 471.707 266.766 470.437 265.665C469.168 264.565 468.322 262.492 467.518 264.819C466.714 267.146 467.518 268.818 465.804 268.818C464.091 268.818 463.012 267.485 463.012 269.685C463.012 271.886 460.346 269.072 460.092 270.659C459.838 272.246 459.733 276.858 462.208 278.445C464.683 280.032 469.253 281.111 468.893 282.931C468.533 284.751 467.306 287.163 467.92 288.178C468.533 289.194 468.279 292.558 468.766 292.791C469.253 293.024 469.782 291.564 469.782 291.564Z" fill="#292949"/>
<path d="M465.425 439.146C465.425 444.224 463.605 464.537 466.144 466.78C468.683 469.022 471.242 468.599 470.142 472.979C469.042 477.359 468.027 474.799 469.063 479.517C470.1 484.236 478.88 519.19 484.697 524.289C487.217 526.377 489.955 528.186 492.863 529.685C488.842 529.984 484.805 529.984 480.784 529.685C479.112 529.262 460.876 466.462 461.045 463.437C461.215 460.411 460.686 427.043 460.686 427.043C460.686 427.043 465.425 434.047 465.425 439.146Z" fill="#292949"/>
<path d="M227.383 546.083C226.781 548.915 226.378 551.785 226.177 554.673C226.177 557.403 226.896 557.889 229.16 558.905C231.423 559.921 236.437 558.418 240.732 558.905C245.026 559.392 246.803 561.021 251.309 559.371C255.815 557.72 256.196 556.874 256.196 556.049C256.196 555.223 254.292 553.785 249.998 552.473C245.703 551.161 239.42 548.622 237.939 546.125C236.458 543.629 227.383 546.083 227.383 546.083Z" fill="#292949"/>
<path d="M226.176 554.673C227.979 556.051 230.121 556.914 232.375 557.17C235.929 557.466 238.975 556.853 241.556 557.297C244.74 557.962 247.998 558.204 251.246 558.016C252.947 557.51 254.581 556.799 256.111 555.901C256.232 557.18 256.05 558.47 255.583 559.667C254.863 560.936 252.092 561.783 248.369 561.783C244.645 561.783 243.101 560.428 238.129 560.682C233.158 560.936 229.307 561.656 227.276 560.196C225.246 558.736 226.176 554.673 226.176 554.673Z" fill="white"/>
<path d="M248.75 420.78C248.75 420.78 247.523 453.09 241.874 474.883C236.226 496.677 240.669 545.575 237.834 546.823C234.999 548.072 228.145 548.029 226.939 546.019C225.733 544.009 219.28 502.284 222.094 492.297C227.954 471.477 218.053 422.473 221.29 418.813C224.527 415.152 248.75 420.78 248.75 420.78Z" fill="#292949"/>
<path d="M221.29 418.77C218.053 422.388 227.954 471.435 222.094 492.255C219.28 502.242 225.733 543.946 226.939 545.977C227.721 547.268 230.81 547.733 233.687 547.564C232.185 538.847 227.764 519.211 226.156 510.367C224.04 499.026 228.991 488.7 228.991 481.231C228.991 473.762 235.951 450.805 240.33 444.605C241.117 443.426 242.155 442.435 243.369 441.704C244.583 440.972 245.944 440.518 247.354 440.373C248.433 429.244 248.75 420.844 248.75 420.844C248.75 420.844 224.506 415.131 221.29 418.77Z" fill="#292949"/>
<path d="M192.35 543.586C190.724 548.281 189.832 553.198 189.705 558.164C189.705 565.549 194.444 568.955 199.542 567.813C204.641 566.67 201.298 556.472 201.848 552.875C202.398 549.278 203.774 546.527 201.848 543.226C199.923 539.926 192.35 543.586 192.35 543.586Z" fill="#292949"/>
<path d="M192.052 545.829C191.351 549.647 191.004 553.521 191.016 557.403C191.312 561.402 192.666 563.602 194.93 564.512C197.193 565.422 201.065 565.993 202.397 563.539C202.397 563.539 202.884 567.157 200.874 568.194C198.864 569.231 193.999 569.358 191.799 566.797C189.598 564.237 188.498 559.18 189.683 552.938C190.868 546.697 191.587 544.475 192.074 544.792C192.56 545.11 192.052 545.829 192.052 545.829Z" fill="white"/>
<path d="M243.08 419.976C243.08 419.976 232.989 459.945 224.04 471.265C215.091 482.585 206.27 543.946 201.848 545.977C198.571 547.101 195.013 547.101 191.736 545.977C191.736 545.977 190.128 512.44 197.807 493.461C205.487 474.481 205.466 475.709 205.868 462.379C206.27 449.049 204.26 414.327 208.301 413.904C212.341 413.481 243.08 419.976 243.08 419.976Z" fill="#292949"/>
<path d="M208.364 413.988C204.323 414.412 206.249 449.133 205.931 462.463C205.614 475.793 205.529 474.566 197.871 493.546C190.213 512.525 191.884 545.977 191.884 545.977C195.161 547.101 198.719 547.101 201.996 545.977C202.422 545.665 202.751 545.24 202.948 544.75C195.523 541.745 194.677 524.797 197.617 511.657C200.981 496.698 207.666 485.357 210.501 478.904C213.336 472.45 212.828 447.969 212.828 438.702C212.828 429.434 218.498 428.123 227.277 427.361C231.844 426.966 236.444 427.309 240.901 428.376C242.319 423.362 243.165 419.913 243.165 419.913C243.165 419.913 212.405 413.502 208.364 413.988Z" fill="#292949"/>
<path d="M237.432 315.177C239.574 318.875 240.874 323 241.24 327.259C241.24 332.866 237.665 337.33 241.24 344.059C244.815 350.787 251.099 357.495 248.856 359.505C246.614 361.515 235.19 364.879 229.16 357.939C223.131 350.999 221.989 335.997 223.343 328.317C224.697 320.636 224.231 311.749 228.272 310.628C232.313 309.506 237.432 315.177 237.432 315.177Z" fill="#191F54"/>
<path d="M283.17 319.578C283.503 318.53 283.546 317.412 283.297 316.341C282.874 314.458 281.71 313.4 281.52 311.157C281.329 308.914 281.816 305.55 282.535 306.036C282.898 306.389 283.187 306.81 283.386 307.275C283.586 307.739 283.692 308.239 283.699 308.745C283.889 309.908 283.699 311.686 284.651 311.22C285.603 310.755 287.359 300.366 288.29 302.439C289.22 304.513 287.295 309.147 288.12 309.083C288.945 309.02 289.94 300.26 291.251 301.953C292.563 303.645 289.77 309.908 290.765 309.866C291.759 309.824 291.78 302.334 293.071 303.963C294.002 305.148 292.478 310.734 293.071 310.035C293.663 309.337 294.192 305.148 294.784 307.137C294.984 308.342 294.934 309.576 294.64 310.762C294.345 311.949 293.811 313.062 293.071 314.034C291.826 315.35 290.849 316.895 290.194 318.583C289.77 320.043 289.665 321.228 289.369 321.355C289.072 321.482 283.17 319.578 283.17 319.578Z" fill="#F7A5A7"/>
<path d="M234.659 346.386C234.659 346.386 256.682 347.359 265.694 346.069C274.707 344.778 281.688 318.139 281.688 318.139C281.688 318.139 289.515 319.684 290.319 320.805C291.123 321.927 283.063 345.899 276.314 353.474C269.566 361.049 249.003 364.519 244.116 363.207C239.229 361.896 229.349 354.257 234.659 346.386Z" fill="#D81B34"/>
<path d="M284.418 318.774C282.916 318.414 281.689 318.181 281.689 318.181C281.689 318.181 274.708 344.82 265.695 346.111C258.368 346.78 251.004 346.978 243.651 346.703C245.942 349.764 249.129 352.035 252.769 353.199C258.919 354.577 265.364 353.499 270.73 350.195C275.448 347.359 279.552 340.589 281.604 333.649C282.949 328.776 283.89 323.801 284.418 318.774Z" fill="#FF151F"/>
<path d="M210.796 347.55C212.258 344.896 214.541 342.789 217.304 341.545C220.066 340.301 223.157 339.987 226.113 340.652C239.145 342.768 246.041 347.656 248.347 356.606C251.161 367.587 238.002 371.163 248.347 399.283C251.028 405.997 252.157 413.23 251.648 420.442C251.246 424.674 211.643 428.715 205.423 422.113C196.961 413.227 216.953 402.753 207.961 377.68C205.486 370.761 202.588 357.833 210.796 347.55Z" fill="#FF151F"/>
<path d="M234.725 424.928C229.118 422.113 219.916 417.332 217.166 407.006C213.125 391.835 227.003 391.624 228.082 387.35C229.161 383.075 224.02 382.018 218.244 376.03C212.469 370.042 218.456 353.369 218.456 353.369C216.382 350.771 214.165 348.291 211.813 345.942C211.435 346.452 211.096 346.989 210.798 347.55C202.589 357.833 205.488 370.825 207.963 377.68C216.954 402.669 197.068 413.142 205.424 422.113C208.936 425.753 223.004 426.091 234.725 424.928Z" fill="#D81B34"/>
<path d="M230.091 338.282C230.091 338.282 228.526 340.398 230.578 344.059C232.63 347.719 236.586 349.01 235.634 351.041C234.682 353.072 227.468 352.713 224.464 349.475C221.46 346.238 220.952 333.564 221.523 332.252C222.094 330.94 230.091 338.282 230.091 338.282Z" fill="#F7B690"/>
<path d="M280.44 302.482L279.996 274.235C284.879 274.158 289.698 275.349 293.983 277.692C298.268 280.034 301.873 283.448 304.445 287.6C307.017 291.751 308.469 296.499 308.659 301.38C308.849 306.26 307.771 311.107 305.529 315.446C303.287 319.785 299.958 323.468 295.868 326.137C291.778 328.805 287.066 330.367 282.192 330.671C277.318 330.974 272.449 330.008 268.059 327.867C263.67 325.727 259.911 322.484 257.148 318.457L280.44 302.482Z" fill="#474EBB"/>
<path d="M254.695 316.066C251.799 311.856 250.1 306.939 249.779 301.839C249.458 296.74 250.527 291.648 252.873 287.109C255.218 282.569 258.752 278.752 263.097 276.063C267.441 273.375 272.434 271.916 277.543 271.844L277.966 300.091L254.695 316.066Z" fill="#8CABEF"/>
<path d="M262.691 324.508C262.652 323.261 262.539 322.018 262.353 320.784C262.014 318.245 260.533 314.944 260.914 314.436C261.295 313.929 263.03 314.711 263.791 316.235C264.553 317.758 264.659 320.869 265.547 320.318C266.436 319.768 270.265 309.147 271.894 310.078C273.523 311.009 270.074 318.055 270.899 317.229C271.724 316.404 273.988 309.93 274.919 311.347C275.85 312.765 272.486 319.536 273.375 318.88C274.263 318.224 275.85 312.892 276.675 314.267C277.5 315.642 274.2 321.292 274.961 320.742C275.723 320.192 276.844 316.023 277.077 317.441C277.153 319.684 276.4 321.876 274.961 323.598C273.713 324.825 269.63 326.518 269.143 327.618C268.657 328.719 268.001 331.258 267.176 331.258C265.058 330.821 263.027 330.034 261.168 328.93C261.189 328.592 262.691 324.508 262.691 324.508Z" fill="#F7B690"/>
<path d="M216.806 354.024C216.806 354.024 234.217 356.648 245.176 346.407C256.134 336.166 260.196 325.883 261.402 326.137C262.608 326.391 268.553 328.761 268.553 330.369C267.532 336.604 265.197 342.551 261.703 347.815C258.209 353.079 253.635 357.54 248.286 360.901C232.271 370.592 216.806 377.595 210.841 370.211C204.875 362.827 205.594 353.559 216.806 354.024Z" fill="#FF151F"/>
<path d="M268.553 330.411C268.553 329.311 265.908 327.872 263.772 326.984C263.433 330.454 261.191 347.761 249.449 355.146C236.333 363.377 223.745 365.429 216.531 364.138C213.295 363.338 210.154 362.196 207.159 360.732C207.22 364.242 208.524 367.616 210.841 370.253C216.806 377.638 232.271 370.634 248.286 360.943C253.635 357.582 258.209 353.122 261.703 347.858C265.197 342.594 267.532 336.647 268.553 330.411Z" fill="#D81B34"/>
<path d="M234.661 310.691C234.661 310.691 240.098 322.9 238.998 328.422C237.897 333.945 235.274 342.429 227.426 338.24C223.458 336.43 220.079 333.541 217.673 329.903C214.626 325.143 212.976 319.324 214.796 315.537C216.615 311.749 223.258 306.29 226.537 306.227C229.816 306.163 234.661 310.691 234.661 310.691Z" fill="#F7B690"/>
<path d="M221.988 315.642H221.861C222.815 318.138 223.254 320.801 223.151 323.471C223.151 325.841 221.734 328.295 221.903 330.538C222.241 335.468 224.526 340.06 225.245 344.947C225.82 348.834 225.384 352.803 223.98 356.472C222.575 360.141 220.249 363.386 217.226 365.895C214.203 368.404 210.585 370.091 206.721 370.796C202.856 371.5 198.876 371.196 195.162 369.915C194.187 369.656 193.297 369.145 192.581 368.434C192.237 368.069 192.014 367.607 191.942 367.111C191.87 366.615 191.953 366.109 192.18 365.662C193.965 364.117 195.588 362.394 197.024 360.52C200.917 355.061 205.127 346.661 204.936 339.954C204.661 330.242 200.705 321.207 206.079 312.659C207.85 309.721 210.28 307.236 213.177 305.4C216.074 303.564 219.358 302.427 222.77 302.08C230.048 301.551 236.437 305.804 237.854 308.829C239.272 311.855 240.52 315.939 242.826 320.72C245.132 325.502 238.595 335.278 238.595 334.58C238.595 329.353 241.154 323.175 234.914 320.869C233.306 320.255 231.592 319.916 230.005 319.218C227.298 318.054 224.907 315.917 221.988 315.642Z" fill="#292949"/>
<path opacity="0.8" d="M315.474 156.909H433.86V162.664H315.474V156.909Z" fill="#8CABEF"/>
<path d="M404.602 119.141H424.552V147.705H404.602V119.141Z" fill="#474EBB"/>
<path d="M378.01 102.15H397.96V147.705H378.01V102.15Z" fill="#474EBB"/>
<path opacity="0.8" d="M351.397 85.6674H371.347V147.705H351.397V85.6674Z" fill="#8CABEF"/>
<path d="M324.804 72.2739H344.754V147.705H324.804V72.2739Z" fill="#474EBB"/>
<g opacity="0.8">
<path opacity="0.8" d="M379.744 2.87308L382.114 6.49123C382.215 6.63598 382.361 6.74342 382.529 6.79696C382.697 6.8505 382.879 6.84716 383.045 6.78745C385.201 5.99166 387.474 5.56255 389.772 5.51793C389.953 5.51631 390.127 5.4522 390.266 5.3365C390.405 5.2208 390.5 5.06063 390.534 4.88316L391.422 0.651403C391.442 0.546885 391.483 0.447422 391.542 0.358782C391.601 0.270141 391.677 0.194087 391.766 0.135037C391.854 0.0759871 391.954 0.0351132 392.058 0.0147889C392.163 -0.00553549 392.27 -0.00490439 392.374 0.0166413L398.721 1.3708C398.825 1.39101 398.925 1.43177 399.013 1.49072C399.102 1.54968 399.178 1.62564 399.237 1.71422C399.296 1.80279 399.337 1.90222 399.357 2.00671C399.378 2.11121 399.377 2.2187 399.356 2.32295L398.467 6.55471C398.422 6.7315 398.443 6.91839 398.524 7.08146C398.606 7.24452 398.743 7.37294 398.911 7.44338C400.994 8.40557 402.903 9.70689 404.56 11.2943C404.691 11.4183 404.859 11.4959 405.039 11.515C405.219 11.5341 405.4 11.4937 405.554 11.4001L409.151 9.03029C409.331 8.91641 409.549 8.87703 409.758 8.92043C409.967 8.96384 410.151 9.08665 410.272 9.26303L413.847 14.7432C413.906 14.8318 413.947 14.9314 413.967 15.036C413.988 15.1406 413.987 15.2482 413.965 15.3526C413.944 15.4569 413.901 15.5559 413.841 15.6438C413.781 15.7317 413.704 15.8068 413.614 15.8646L410.018 18.2132C409.865 18.3124 409.75 18.4607 409.692 18.6337C409.635 18.8067 409.638 18.9942 409.701 19.1654C410.496 21.3143 410.925 23.5816 410.97 25.8727C410.978 26.054 411.044 26.228 411.158 26.3689C411.272 26.5099 411.429 26.6104 411.605 26.6556L415.836 27.5231C416.044 27.5689 416.226 27.6937 416.345 27.8712C416.463 28.0488 416.508 28.2652 416.47 28.4752L415.116 34.8229C415.096 34.9268 415.056 35.0257 414.996 35.1135C414.937 35.2012 414.861 35.276 414.772 35.3334C414.683 35.3908 414.583 35.4295 414.479 35.4472C414.374 35.4649 414.267 35.4613 414.164 35.4365L409.933 34.569C409.757 34.5327 409.573 34.5569 409.412 34.6374C409.251 34.718 409.122 34.8504 409.045 35.0133C408.076 37.0927 406.776 39.0008 405.194 40.6627C405.088 40.8026 405.03 40.9736 405.03 41.1493C405.03 41.3251 405.088 41.4961 405.194 41.636L407.564 45.2541C407.678 45.4348 407.717 45.6527 407.674 45.8618C407.63 46.0709 407.508 46.2551 407.331 46.3756L401.788 50.0572C401.611 50.1699 401.397 50.2087 401.191 50.1652C400.985 50.1217 400.805 49.9994 400.688 49.8244L398.319 46.2063C398.217 46.057 398.067 45.9465 397.894 45.8927C397.722 45.839 397.536 45.8451 397.367 45.9101C395.218 46.7059 392.951 47.135 390.661 47.1796C390.482 47.1762 390.308 47.2358 390.168 47.348C390.029 47.4602 389.934 47.6178 389.899 47.7932L389.01 52.025C388.965 52.2322 388.839 52.413 388.661 52.5279C388.483 52.6428 388.266 52.6826 388.058 52.6386L381.712 51.3056C381.505 51.2599 381.324 51.1342 381.209 50.9559C381.094 50.7775 381.054 50.561 381.098 50.3534L381.987 46.1217C382.016 45.9459 381.987 45.7654 381.902 45.6083C381.818 45.4513 381.684 45.3267 381.521 45.2541C379.442 44.2853 377.535 42.9846 375.873 41.4032C375.736 41.2897 375.564 41.2275 375.386 41.2275C375.209 41.2275 375.037 41.2897 374.9 41.4032L371.219 43.7096C371.039 43.8203 370.823 43.8558 370.617 43.8082C370.411 43.7607 370.232 43.6341 370.119 43.4556L366.522 37.9967C366.408 37.816 366.369 37.5982 366.412 37.389C366.456 37.1799 366.579 36.9957 366.755 36.8753L370.373 34.5266C370.522 34.4244 370.632 34.2748 370.686 34.102C370.74 33.9292 370.734 33.7434 370.669 33.5745C369.883 31.4155 369.454 29.1429 369.399 26.846C369.399 26.6682 369.338 26.496 369.226 26.3575C369.115 26.2191 368.959 26.1227 368.786 26.0843L364.555 25.2168C364.349 25.1617 364.171 25.0309 364.057 24.8504C363.943 24.6699 363.902 24.4532 363.941 24.2435L365.274 17.8958C365.294 17.7913 365.335 17.6918 365.394 17.6032C365.453 17.5146 365.529 17.4385 365.617 17.3795C365.706 17.3204 365.805 17.2795 365.91 17.2592C366.014 17.2389 366.122 17.2395 366.226 17.2611L370.457 18.1497C370.631 18.1887 370.813 18.1656 370.971 18.0845C371.13 18.0033 371.255 17.8692 371.325 17.7054C372.278 15.5922 373.58 13.654 375.175 11.9714C375.306 11.844 375.388 11.6748 375.407 11.4932C375.426 11.3116 375.382 11.129 375.281 10.9769L372.932 7.3799C372.873 7.29123 372.832 7.19169 372.812 7.08707C372.792 6.98245 372.792 6.87484 372.814 6.7705C372.836 6.66615 372.878 6.56714 372.938 6.47925C372.998 6.39135 373.076 6.31631 373.165 6.25848L378.623 2.68265C378.708 2.61864 378.805 2.57267 378.909 2.54753C379.012 2.52239 379.12 2.51861 379.225 2.53644C379.33 2.55426 379.43 2.59331 379.519 2.65119C379.609 2.70907 379.685 2.78458 379.744 2.87308ZM390.322 15.2087C387.748 15.1696 385.241 16.0276 383.231 17.6355C381.22 19.2434 379.832 21.501 379.304 24.0208C378.776 26.5407 379.142 29.1657 380.337 31.4456C381.533 33.7254 383.485 35.5179 385.858 36.5156C387.23 37.1506 388.726 37.4688 390.238 37.4465C392.765 37.4091 395.205 36.5103 397.153 34.8986C399.1 33.2869 400.44 31.0589 400.951 28.5825C401.461 26.1061 401.112 23.5297 399.96 21.2789C398.808 19.028 396.924 17.2375 394.617 16.2031C393.262 15.5357 391.769 15.1951 390.259 15.2087H390.322Z" fill="#8CABEF"/>
</g>
<path d="M351.206 48.2799L352.708 49.3167C352.762 49.3672 352.834 49.3953 352.909 49.3953C352.983 49.3953 353.055 49.3672 353.11 49.3167C353.833 48.6596 354.663 48.1301 355.564 47.7509C355.636 47.7193 355.695 47.665 355.734 47.5962C355.772 47.5274 355.786 47.4479 355.775 47.3701L355.437 45.5716C355.429 45.4801 355.455 45.3891 355.51 45.3152C355.564 45.2414 355.643 45.1896 355.733 45.1695L358.462 44.6829C358.551 44.6746 358.639 44.6975 358.713 44.7477C358.786 44.798 358.84 44.8724 358.864 44.958L359.181 46.7776C359.195 46.8525 359.235 46.9204 359.292 46.9703C359.35 47.0202 359.422 47.0493 359.499 47.0527C360.471 47.0998 361.429 47.3071 362.333 47.6663C362.404 47.698 362.484 47.7026 362.559 47.6792C362.633 47.6558 362.696 47.606 362.735 47.5393L363.793 46.037C363.856 45.9775 363.939 45.9444 364.026 45.9444C364.112 45.9444 364.196 45.9775 364.259 46.037L366.543 47.624C366.604 47.6903 366.638 47.7772 366.638 47.8673C366.638 47.9574 366.604 48.0442 366.543 48.1106L365.486 49.6129C365.441 49.6744 365.417 49.7484 365.417 49.8245C365.417 49.9005 365.441 49.9746 365.486 50.0361C366.136 50.7651 366.664 51.5938 367.051 52.4905C367.085 52.5548 367.137 52.6075 367.201 52.6415C367.266 52.6755 367.339 52.6892 367.411 52.6809L369.23 52.3635C369.273 52.3544 369.318 52.3544 369.361 52.3636C369.405 52.3728 369.446 52.3909 369.481 52.4168C369.517 52.4427 369.547 52.4758 369.57 52.514C369.592 52.5522 369.606 52.5946 369.611 52.6386L370.098 55.3681C370.107 55.4126 370.107 55.4585 370.098 55.5031C370.089 55.5477 370.071 55.59 370.045 55.6275C370.02 55.665 369.987 55.697 369.948 55.7215C369.91 55.746 369.867 55.7625 369.823 55.7701L368.024 56.0875C367.951 56.1049 367.885 56.1449 367.836 56.2019C367.786 56.2588 367.756 56.3298 367.749 56.4049C367.704 57.3775 367.497 58.3358 367.136 59.2401C367.091 59.3016 367.067 59.3757 367.067 59.4517C367.067 59.5278 367.091 59.6018 367.136 59.6633L368.638 60.7001C368.67 60.7317 368.696 60.7695 368.714 60.8113C368.732 60.8531 368.741 60.898 368.741 60.9434C368.741 60.9888 368.732 61.0338 368.714 61.0756C368.696 61.1174 368.67 61.1552 368.638 61.1867L367.051 63.4507C367.021 63.4828 366.985 63.5084 366.945 63.5258C366.905 63.5433 366.862 63.5524 366.818 63.5524C366.775 63.5524 366.732 63.5433 366.691 63.5258C366.651 63.5084 366.615 63.4828 366.586 63.4507L365.084 62.414C365.024 62.3659 364.949 62.3397 364.872 62.3397C364.795 62.3397 364.721 62.3659 364.661 62.414C363.937 63.0711 363.107 63.6005 362.207 63.9797C362.133 64.0083 362.073 64.0631 362.038 64.1335C362.003 64.2038 361.995 64.2848 362.016 64.3606L362.333 66.1591C362.346 66.2484 362.325 66.3393 362.274 66.4137C362.223 66.4882 362.146 66.5408 362.058 66.5611L359.308 67.0477C359.221 67.0601 359.133 67.0383 359.062 66.987C358.991 66.9357 358.943 66.8589 358.927 66.7727L358.589 64.9742C358.586 64.9352 358.576 64.8972 358.558 64.8623C358.541 64.8274 358.517 64.7962 358.487 64.7707C358.458 64.7451 358.424 64.7256 358.387 64.7134C358.35 64.7011 358.31 64.6962 358.272 64.6991C357.299 64.6422 356.341 64.4279 355.437 64.0643C355.365 64.0369 355.287 64.0345 355.214 64.0576C355.141 64.0807 355.078 64.1278 355.035 64.1913L353.998 65.6936C353.932 65.7545 353.845 65.7884 353.755 65.7884C353.665 65.7884 353.578 65.7545 353.512 65.6936L351.227 64.1067C351.166 64.0403 351.132 63.9535 351.132 63.8633C351.132 63.7732 351.166 63.6864 351.227 63.62L352.285 62.1177C352.329 62.0563 352.353 61.9822 352.353 61.9061C352.353 61.8301 352.329 61.756 352.285 61.6946C351.635 60.9731 351.106 60.1514 350.719 59.2613C350.691 59.1909 350.641 59.1318 350.576 59.0935C350.511 59.0551 350.434 59.0397 350.359 59.0497L348.561 59.3671C348.517 59.3763 348.471 59.3764 348.426 59.3674C348.382 59.3584 348.339 59.3406 348.302 59.3149C348.264 59.2892 348.232 59.2563 348.208 59.218C348.183 59.1797 348.167 59.1369 348.159 59.092L347.673 56.3625C347.663 56.318 347.663 56.2721 347.672 56.2275C347.681 56.183 347.699 56.1407 347.725 56.1031C347.751 56.0656 347.783 56.0337 347.822 56.0092C347.86 55.9847 347.903 55.9681 347.948 55.9605L349.746 55.6431C349.823 55.6328 349.893 55.5949 349.943 55.5365C349.994 55.478 350.022 55.4031 350.021 55.3258C350.063 54.3505 350.278 53.3905 350.656 52.4905C350.679 52.4186 350.68 52.3411 350.657 52.2689C350.634 52.1967 350.589 52.1336 350.529 52.0885L349.027 51.0305C348.967 50.9677 348.934 50.8844 348.934 50.7978C348.934 50.7112 348.967 50.6279 349.027 50.565L350.613 48.2799C350.643 48.227 350.685 48.1829 350.738 48.1522C350.79 48.1214 350.849 48.1052 350.909 48.1052C350.97 48.1052 351.029 48.1214 351.081 48.1522C351.133 48.1829 351.176 48.227 351.206 48.2799ZM357.298 51.4749C356.24 51.8516 355.351 52.5937 354.791 53.5676C354.231 54.5415 354.037 55.6833 354.243 56.7877C354.45 57.892 355.044 58.8864 355.918 59.5919C356.792 60.2975 357.889 60.6679 359.012 60.6366C359.651 60.6744 360.289 60.5583 360.874 60.2981C361.882 59.895 362.721 59.1562 363.248 58.2064C363.775 57.2567 363.958 56.1542 363.767 55.0849C363.575 54.0157 363.021 53.0453 362.197 52.3375C361.373 51.6297 360.33 51.2279 359.245 51.1998C358.583 51.1299 357.915 51.2243 357.298 51.4749Z" fill="#EFEEF5"/>
<path d="M325.354 19.8001L327.469 21.2389C327.549 21.3061 327.65 21.3429 327.755 21.3429C327.859 21.3429 327.96 21.3061 328.04 21.2389C329.03 20.3532 330.159 19.6381 331.383 19.1231C331.482 19.0851 331.564 19.013 331.614 18.9199C331.665 18.8268 331.68 18.7188 331.658 18.6152L331.235 16.1608C331.219 16.1009 331.217 16.0384 331.227 15.9774C331.237 15.9163 331.259 15.858 331.293 15.8062C331.327 15.7545 331.371 15.7103 331.423 15.6766C331.475 15.643 331.533 15.6205 331.594 15.6107L335.339 14.9548C335.459 14.9364 335.582 14.966 335.681 15.0372C335.78 15.1084 335.847 15.2155 335.868 15.3356L336.312 17.79C336.331 17.8948 336.386 17.9897 336.467 18.059C336.548 18.1283 336.65 18.1678 336.756 18.1709C338.085 18.2344 339.394 18.5205 340.628 19.0173C340.725 19.0589 340.833 19.0647 340.934 19.0337C341.035 19.0027 341.121 18.9369 341.178 18.848L342.595 16.7321C342.683 16.6455 342.8 16.597 342.923 16.597C343.046 16.597 343.164 16.6455 343.251 16.7321L346.361 18.848C346.448 18.9352 346.496 19.0531 346.496 19.1759C346.496 19.2988 346.448 19.4167 346.361 19.5039L344.944 21.6198C344.876 21.6998 344.84 21.801 344.84 21.9054C344.84 22.0099 344.876 22.1111 344.944 22.1911C345.827 23.1823 346.541 24.3116 347.059 25.5342C347.1 25.6305 347.173 25.7101 347.265 25.76C347.357 25.8099 347.464 25.8272 347.567 25.8092L350.021 25.3649C350.141 25.3465 350.264 25.3761 350.363 25.4473C350.462 25.5185 350.529 25.6257 350.55 25.7457L351.227 29.4697C351.246 29.5927 351.217 29.7183 351.146 29.8206C351.075 29.9229 350.968 29.9942 350.846 30.0198L348.392 30.4642C348.289 30.479 348.194 30.5294 348.125 30.6067C348.055 30.6841 348.015 30.7834 348.011 30.8873C347.95 32.2165 347.664 33.5257 347.165 34.7594C347.123 34.8563 347.117 34.9648 347.148 35.0656C347.179 35.1664 347.245 35.2528 347.334 35.3095L349.45 36.7483C349.501 36.7804 349.546 36.8227 349.58 36.8725C349.615 36.9224 349.638 36.9788 349.65 37.0383C349.662 37.0977 349.662 37.159 349.649 37.2183C349.636 37.2776 349.612 37.3337 349.577 37.3831L347.461 40.4934C347.427 40.5456 347.383 40.5903 347.331 40.6251C347.279 40.6598 347.221 40.6838 347.16 40.6956C347.099 40.7075 347.036 40.7069 346.975 40.694C346.914 40.6811 346.856 40.656 346.805 40.6204L344.69 39.1816C344.605 39.1243 344.506 39.0936 344.404 39.0936C344.302 39.0936 344.203 39.1243 344.119 39.1816C343.129 40.0673 342 40.7824 340.776 41.2975C340.68 41.3388 340.6 41.4114 340.55 41.5036C340.5 41.5957 340.483 41.702 340.501 41.8053L340.945 44.2597C340.964 44.3827 340.935 44.5083 340.864 44.6106C340.794 44.7129 340.686 44.7842 340.564 44.8098L336.841 45.4869C336.718 45.5058 336.593 45.4768 336.49 45.406C336.388 45.3352 336.317 45.2278 336.291 45.106L335.847 42.6305C335.831 42.5296 335.78 42.4376 335.702 42.3715C335.625 42.3054 335.526 42.2696 335.424 42.2708C334.096 42.1992 332.789 41.9134 331.552 41.4244C331.458 41.3807 331.351 41.3716 331.25 41.3987C331.15 41.4258 331.062 41.4873 331.002 41.5725L329.564 43.6884C329.476 43.775 329.359 43.8236 329.236 43.8236C329.113 43.8236 328.995 43.775 328.908 43.6884L325.798 41.5725C325.711 41.4853 325.663 41.3674 325.663 41.2446C325.663 41.1217 325.711 41.0038 325.798 40.9166L327.215 38.8007C327.282 38.7207 327.319 38.6196 327.319 38.5151C327.319 38.4106 327.282 38.3095 327.215 38.2294C326.34 37.2404 325.626 36.1193 325.1 34.9075C325.066 34.8103 324.998 34.7288 324.908 34.6782C324.819 34.6276 324.714 34.6113 324.613 34.6324L322.138 35.0556C322.018 35.074 321.895 35.0444 321.796 34.9732C321.697 34.902 321.63 34.7949 321.609 34.6748L320.932 30.9508C320.913 30.8278 320.942 30.7022 321.013 30.5999C321.084 30.4976 321.191 30.4263 321.313 30.4007L323.767 29.9775C323.872 29.9582 323.967 29.9035 324.036 29.8227C324.105 29.7418 324.145 29.6396 324.148 29.5332C324.219 28.2053 324.505 26.8977 324.994 25.6611C325.034 25.566 325.041 25.4603 325.014 25.3608C324.987 25.2612 324.928 25.1733 324.846 25.111L322.73 23.6934C322.678 23.6592 322.633 23.615 322.599 23.5633C322.564 23.5116 322.54 23.4534 322.528 23.3922C322.516 23.3311 322.517 23.2681 322.53 23.2072C322.543 23.1463 322.568 23.0885 322.603 23.0374L324.719 19.9271C324.751 19.8756 324.793 19.8313 324.843 19.7968C324.893 19.7622 324.949 19.7383 325.009 19.7264C325.068 19.7145 325.13 19.7149 325.189 19.7276C325.248 19.7403 325.304 19.765 325.354 19.8001ZM333.625 24.1588C332.104 24.5825 330.795 25.5582 329.955 26.8953C329.114 28.2324 328.803 29.8349 329.08 31.3897C329.358 32.9445 330.205 34.3399 331.456 35.3034C332.707 36.2669 334.273 36.7293 335.847 36.6002C336.717 36.6386 337.585 36.4794 338.385 36.1347C339.883 35.6913 341.164 34.7113 341.984 33.3821C342.805 32.053 343.106 30.4681 342.831 28.9306C342.556 27.3931 341.724 26.0109 340.494 25.0486C339.264 24.0863 337.722 23.6113 336.164 23.7145C335.295 23.6709 334.428 23.8228 333.625 24.1588Z" fill="#EFEEF5"/>
<g opacity="0.8">
<path opacity="0.8" d="M145.786 504.379L140.772 504.844C140.561 504.865 140.364 504.956 140.211 505.101C140.058 505.247 139.957 505.439 139.925 505.648C139.568 508.309 138.768 510.891 137.556 513.287C137.459 513.475 137.429 513.691 137.471 513.899C137.514 514.107 137.626 514.294 137.789 514.429L141.66 517.667C141.757 517.743 141.838 517.837 141.897 517.945C141.956 518.054 141.993 518.173 142.005 518.295C142.017 518.418 142.004 518.542 141.966 518.659C141.929 518.777 141.868 518.885 141.787 518.978L136.879 524.861C136.718 525.053 136.488 525.174 136.239 525.198C135.989 525.222 135.74 525.146 135.546 524.987L131.675 521.771C131.513 521.631 131.307 521.554 131.093 521.554C130.879 521.554 130.673 521.631 130.511 521.771C128.375 523.403 125.979 524.662 123.424 525.495C123.225 525.557 123.054 525.686 122.938 525.859C122.823 526.032 122.77 526.24 122.789 526.447L123.255 531.483C123.273 531.729 123.195 531.972 123.037 532.162C122.879 532.351 122.654 532.472 122.409 532.499L114.771 533.197C114.649 533.212 114.524 533.201 114.405 533.166C114.287 533.131 114.177 533.072 114.082 532.993C113.987 532.913 113.909 532.816 113.853 532.705C113.797 532.595 113.764 532.474 113.756 532.351L113.291 527.336C113.27 527.126 113.179 526.928 113.034 526.775C112.888 526.622 112.696 526.522 112.487 526.49C109.825 526.14 107.242 525.338 104.85 524.12C104.661 524.023 104.445 523.993 104.237 524.035C104.03 524.078 103.843 524.19 103.707 524.353L100.491 528.225C100.331 528.417 100.101 528.538 99.8512 528.562C99.6016 528.586 99.3529 528.51 99.1587 528.352L93.2775 523.464C93.0851 523.303 92.9639 523.073 92.9402 522.824C92.9164 522.574 92.9919 522.325 93.1505 522.131L96.3873 518.259C96.5195 518.094 96.5915 517.889 96.5915 517.677C96.5915 517.466 96.5195 517.26 96.3873 517.095C94.7679 514.951 93.5102 512.557 92.664 510.007C92.6019 509.808 92.4735 509.637 92.3002 509.521C92.127 509.406 91.9193 509.353 91.7119 509.372L86.6769 509.838C86.431 509.856 86.1878 509.777 85.9984 509.62C85.809 509.462 85.6882 509.237 85.6615 508.991L84.9633 501.374C84.9396 501.125 85.0152 500.876 85.1736 500.682C85.332 500.488 85.5605 500.364 85.8095 500.337L90.8445 499.872C91.0523 499.85 91.2468 499.759 91.3964 499.613C91.5461 499.467 91.6423 499.275 91.6696 499.068C92.0298 496.408 92.8305 493.826 94.0391 491.43C94.1324 491.24 94.1601 491.025 94.118 490.819C94.0759 490.612 93.9663 490.425 93.8064 490.287L89.9349 487.071C89.7425 486.91 89.6213 486.68 89.5975 486.431C89.5738 486.181 89.6494 485.932 89.8079 485.738L94.6949 479.856C94.8586 479.668 95.088 479.55 95.336 479.527C95.5839 479.503 95.8315 479.575 96.0277 479.729L99.8991 482.966C100.066 483.095 100.27 483.165 100.481 483.165C100.691 483.165 100.896 483.095 101.063 482.966C103.199 481.335 105.595 480.076 108.15 479.242C108.348 479.173 108.518 479.04 108.633 478.864C108.748 478.688 108.801 478.478 108.784 478.269L108.319 473.254C108.307 473.129 108.321 473.003 108.358 472.883C108.395 472.763 108.456 472.652 108.537 472.555C108.617 472.459 108.716 472.379 108.828 472.321C108.939 472.263 109.061 472.228 109.186 472.217L116.802 471.519C117.048 471.501 117.292 471.58 117.481 471.737C117.67 471.895 117.791 472.12 117.818 472.366L118.283 477.401C118.309 477.608 118.401 477.8 118.546 477.949C118.692 478.098 118.881 478.196 119.087 478.227C121.748 478.584 124.329 479.385 126.724 480.596C126.913 480.693 127.129 480.723 127.337 480.681C127.544 480.639 127.731 480.527 127.867 480.364L131.082 476.492C131.246 476.304 131.476 476.186 131.724 476.162C131.971 476.139 132.219 476.211 132.415 476.365L138.297 481.273C138.394 481.349 138.474 481.444 138.533 481.552C138.593 481.66 138.629 481.779 138.641 481.902C138.653 482.025 138.64 482.149 138.602 482.266C138.565 482.383 138.504 482.492 138.423 482.585L135.187 486.478C135.052 486.639 134.979 486.841 134.979 487.05C134.979 487.259 135.052 487.461 135.187 487.621C136.798 489.77 138.054 492.163 138.91 494.709C138.972 494.908 139.1 495.08 139.274 495.195C139.447 495.311 139.655 495.363 139.862 495.344L144.897 494.9C145.02 494.885 145.144 494.896 145.263 494.931C145.382 494.966 145.492 495.025 145.587 495.104C145.682 495.183 145.76 495.281 145.816 495.392C145.872 495.502 145.905 495.623 145.912 495.746L146.611 503.363C146.625 503.484 146.615 503.607 146.582 503.725C146.548 503.842 146.491 503.951 146.414 504.046C146.337 504.141 146.241 504.219 146.133 504.276C146.025 504.334 145.907 504.368 145.786 504.379ZM127.274 508.484C128.707 505.842 129.179 502.786 128.612 499.835C128.044 496.885 126.471 494.222 124.161 492.301C121.851 490.38 118.947 489.319 115.942 489.299C112.938 489.279 110.02 490.301 107.684 492.191C106.279 493.259 105.135 494.634 104.342 496.211C102.909 498.853 102.437 501.909 103.005 504.86C103.572 507.811 105.145 510.473 107.455 512.394C109.765 514.316 112.67 515.377 115.674 515.396C118.678 515.416 121.597 514.394 123.932 512.504C125.342 511.441 126.487 510.064 127.274 508.484Z" fill="#F7F6F0"/>
</g>
<path d="M144.158 451.947L142.042 453.026C141.958 453.078 141.892 453.154 141.854 453.246C141.815 453.337 141.808 453.438 141.831 453.534C142.146 454.77 142.253 456.05 142.148 457.322C142.135 457.419 142.157 457.518 142.212 457.6C142.266 457.682 142.349 457.741 142.444 457.766L144.708 458.507C144.766 458.523 144.82 458.552 144.866 458.59C144.913 458.628 144.951 458.675 144.978 458.729C145.006 458.782 145.023 458.841 145.027 458.901C145.032 458.961 145.024 459.021 145.004 459.078L143.904 462.527C143.861 462.637 143.78 462.728 143.674 462.783C143.569 462.837 143.448 462.852 143.333 462.823L141.048 462.082C140.954 462.054 140.854 462.057 140.762 462.091C140.67 462.126 140.592 462.19 140.54 462.273C139.896 463.374 139.066 464.354 138.086 465.172C138.01 465.234 137.958 465.32 137.938 465.417C137.919 465.514 137.934 465.614 137.98 465.701L139.081 467.816C139.132 467.926 139.139 468.052 139.099 468.166C139.06 468.281 138.977 468.375 138.869 468.43L135.653 470.08C135.546 470.129 135.424 470.136 135.311 470.101C135.198 470.066 135.102 469.991 135.04 469.89L133.961 467.774C133.915 467.684 133.839 467.613 133.746 467.575C133.653 467.536 133.549 467.532 133.453 467.563C132.216 467.871 130.936 467.971 129.666 467.859C129.568 467.855 129.47 467.884 129.39 467.941C129.309 467.999 129.25 468.081 129.222 468.176L128.482 470.44C128.465 470.498 128.437 470.552 128.398 470.598C128.36 470.645 128.313 470.683 128.26 470.711C128.206 470.738 128.148 470.755 128.088 470.759C128.028 470.764 127.967 470.756 127.911 470.736L124.462 469.615C124.401 469.597 124.345 469.565 124.297 469.523C124.249 469.481 124.21 469.429 124.184 469.371C124.158 469.313 124.145 469.25 124.145 469.186C124.146 469.122 124.16 469.059 124.187 469.001L124.928 466.716C124.956 466.622 124.953 466.522 124.919 466.43C124.884 466.338 124.821 466.26 124.737 466.208C123.637 465.564 122.656 464.733 121.839 463.754C121.777 463.678 121.69 463.625 121.593 463.606C121.497 463.587 121.397 463.602 121.31 463.648L119.194 464.727C119.142 464.756 119.084 464.775 119.024 464.781C118.965 464.787 118.904 464.781 118.847 464.763C118.79 464.745 118.736 464.716 118.691 464.677C118.645 464.638 118.608 464.591 118.581 464.537L116.931 461.321C116.878 461.214 116.868 461.09 116.903 460.976C116.939 460.862 117.017 460.765 117.121 460.707L119.237 459.628C119.327 459.582 119.398 459.506 119.436 459.413C119.475 459.32 119.479 459.216 119.448 459.12C119.14 457.883 119.04 456.603 119.152 455.333C119.157 455.231 119.129 455.131 119.072 455.047C119.015 454.962 118.931 454.9 118.835 454.867L116.571 454.148C116.458 454.109 116.364 454.028 116.308 453.922C116.253 453.815 116.241 453.692 116.275 453.577L117.396 450.128C117.447 450.06 117.515 450.009 117.594 449.979C117.672 449.949 117.758 449.942 117.84 449.958L120.125 450.699C120.219 450.728 120.32 450.725 120.412 450.69C120.503 450.656 120.581 450.592 120.633 450.509C121.278 449.408 122.108 448.427 123.087 447.61C123.165 447.544 123.218 447.454 123.238 447.354C123.257 447.253 123.241 447.15 123.193 447.06L122.114 444.944C122.085 444.891 122.067 444.833 122.06 444.774C122.054 444.714 122.06 444.654 122.078 444.596C122.096 444.539 122.125 444.486 122.164 444.44C122.203 444.394 122.251 444.357 122.304 444.33L125.52 442.68C125.627 442.627 125.751 442.617 125.865 442.652C125.979 442.688 126.075 442.766 126.133 442.87L127.212 444.986C127.266 445.068 127.343 445.133 127.433 445.171C127.524 445.208 127.624 445.218 127.72 445.198C128.956 444.882 130.236 444.775 131.507 444.88C131.607 444.895 131.709 444.873 131.795 444.819C131.88 444.764 131.943 444.681 131.972 444.584L132.692 442.32C132.708 442.262 132.737 442.209 132.775 442.162C132.813 442.116 132.86 442.077 132.914 442.05C132.967 442.022 133.026 442.005 133.086 442.001C133.146 441.996 133.206 442.004 133.263 442.024L136.711 443.124C136.822 443.167 136.913 443.249 136.967 443.354C137.022 443.459 137.036 443.58 137.007 443.695L136.267 445.981C136.238 446.074 136.241 446.175 136.276 446.267C136.31 446.359 136.374 446.437 136.457 446.488C137.558 447.133 138.539 447.963 139.356 448.943C139.421 449.021 139.512 449.074 139.612 449.093C139.712 449.113 139.816 449.097 139.906 449.049L142.021 447.948C142.131 447.897 142.256 447.89 142.371 447.93C142.486 447.969 142.58 448.052 142.635 448.16L144.285 451.376C144.329 451.472 144.34 451.58 144.317 451.683C144.294 451.786 144.238 451.879 144.158 451.947ZM136.732 457.025C136.892 455.613 136.558 454.189 135.788 452.994C135.017 451.8 133.856 450.909 132.504 450.473C131.151 450.037 129.689 450.082 128.366 450.602C127.042 451.121 125.94 452.083 125.245 453.323C124.807 454.041 124.546 454.853 124.483 455.692C124.318 457.11 124.65 458.542 125.424 459.742C126.197 460.942 127.363 461.836 128.723 462.271C130.082 462.706 131.551 462.654 132.877 462.126C134.203 461.598 135.304 460.625 135.992 459.374C136.417 458.659 136.671 457.855 136.732 457.025Z" fill="#8CABEF"/>
<path d="M182.11 470.694L179.148 472.217C179.021 472.277 178.919 472.38 178.861 472.508C178.803 472.636 178.792 472.781 178.831 472.916C179.266 474.636 179.409 476.417 179.254 478.184C179.242 478.322 179.278 478.46 179.355 478.575C179.431 478.691 179.545 478.776 179.677 478.819L182.85 479.835C182.928 479.859 183.001 479.898 183.064 479.951C183.127 480.003 183.179 480.068 183.216 480.141C183.254 480.214 183.276 480.294 183.282 480.376C183.289 480.457 183.278 480.54 183.252 480.617L181.708 485.421C181.684 485.499 181.644 485.572 181.592 485.635C181.539 485.698 181.474 485.749 181.401 485.787C181.328 485.824 181.248 485.847 181.167 485.853C181.085 485.859 181.003 485.849 180.925 485.823L177.752 484.807C177.618 484.768 177.475 484.773 177.345 484.823C177.216 484.873 177.105 484.964 177.032 485.082C176.13 486.61 174.979 487.976 173.626 489.123C173.519 489.21 173.446 489.332 173.419 489.467C173.392 489.602 173.413 489.742 173.478 489.864L175.001 492.826C175.07 492.976 175.08 493.146 175.029 493.303C174.978 493.46 174.87 493.592 174.726 493.672L170.22 495.979C170.149 496.018 170.07 496.042 169.988 496.05C169.907 496.057 169.825 496.047 169.748 496.022C169.67 495.996 169.599 495.954 169.538 495.9C169.478 495.845 169.429 495.778 169.395 495.704L167.872 492.741C167.809 492.618 167.704 492.521 167.577 492.467C167.449 492.413 167.307 492.405 167.174 492.445C165.454 492.879 163.673 493.022 161.906 492.868C161.765 492.856 161.624 492.891 161.506 492.967C161.387 493.044 161.297 493.158 161.25 493.292L160.15 496.508C160.097 496.663 159.986 496.791 159.84 496.866C159.694 496.941 159.525 496.957 159.368 496.91L154.565 495.365C154.487 495.341 154.414 495.302 154.351 495.249C154.288 495.196 154.236 495.132 154.199 495.059C154.161 494.986 154.139 494.906 154.133 494.824C154.127 494.742 154.137 494.66 154.163 494.582L155.179 491.408C155.222 491.275 155.218 491.131 155.168 491C155.118 490.869 155.025 490.76 154.904 490.689C153.376 489.787 152.01 488.636 150.863 487.282C150.779 487.172 150.659 487.094 150.524 487.064C150.388 487.033 150.246 487.05 150.123 487.113L147.161 488.637C147.088 488.676 147.007 488.701 146.924 488.708C146.841 488.716 146.758 488.707 146.679 488.681C146.599 488.655 146.526 488.614 146.464 488.559C146.401 488.504 146.35 488.437 146.315 488.362L144.009 483.876C143.934 483.727 143.922 483.555 143.973 483.396C144.024 483.238 144.136 483.106 144.284 483.03L147.245 481.506C147.367 481.44 147.464 481.336 147.521 481.21C147.579 481.084 147.593 480.943 147.563 480.808C147.121 479.089 146.971 477.308 147.118 475.539C147.13 475.401 147.094 475.263 147.018 475.148C146.941 475.033 146.827 474.947 146.695 474.905L143.522 473.889C143.367 473.836 143.238 473.724 143.163 473.579C143.088 473.433 143.073 473.263 143.12 473.106L144.664 468.282C144.722 468.13 144.834 468.004 144.978 467.93C145.123 467.856 145.29 467.838 145.447 467.88L148.621 468.917C148.754 468.956 148.897 468.95 149.027 468.901C149.157 468.851 149.267 468.76 149.34 468.642C150.249 467.113 151.408 465.747 152.767 464.6C152.871 464.511 152.942 464.39 152.968 464.255C152.995 464.121 152.976 463.982 152.915 463.86L151.392 460.897C151.318 460.749 151.305 460.576 151.356 460.418C151.408 460.26 151.519 460.128 151.667 460.051L156.152 457.745C156.225 457.705 156.306 457.681 156.388 457.673C156.471 457.666 156.555 457.675 156.634 457.701C156.713 457.726 156.786 457.768 156.849 457.823C156.911 457.878 156.962 457.945 156.998 458.02L158.521 460.982C158.585 461.105 158.689 461.203 158.817 461.257C158.944 461.311 159.087 461.318 159.219 461.278C160.939 460.844 162.72 460.701 164.487 460.855C164.625 460.867 164.763 460.831 164.878 460.754C164.993 460.677 165.079 460.564 165.122 460.432L166.137 457.258C166.19 457.103 166.302 456.974 166.448 456.899C166.594 456.825 166.763 456.809 166.92 456.856L171.743 458.401C171.899 458.454 172.027 458.565 172.102 458.711C172.177 458.857 172.193 459.026 172.145 459.184L171.13 462.357C171.083 462.49 171.084 462.636 171.135 462.768C171.185 462.9 171.281 463.009 171.405 463.077C172.926 463.979 174.285 465.131 175.424 466.483C175.509 466.594 175.629 466.671 175.764 466.702C175.899 466.733 176.041 466.716 176.165 466.653L179.148 465.129C179.218 465.089 179.296 465.064 179.376 465.055C179.457 465.046 179.538 465.054 179.615 465.078C179.693 465.102 179.764 465.141 179.826 465.193C179.887 465.246 179.937 465.311 179.973 465.383L182.279 469.89C182.351 470.022 182.373 470.176 182.342 470.323C182.311 470.47 182.229 470.602 182.11 470.694ZM171.765 477.782C172.006 475.806 171.551 473.807 170.478 472.129C169.406 470.451 167.783 469.2 165.888 468.589C163.993 467.978 161.945 468.046 160.095 468.782C158.245 469.517 156.708 470.874 155.75 472.619C155.159 473.621 154.798 474.741 154.692 475.899C154.465 477.873 154.929 479.864 156.005 481.534C157.081 483.204 158.702 484.449 160.593 485.058C162.484 485.666 164.527 485.601 166.375 484.872C168.223 484.144 169.761 482.797 170.728 481.062C171.321 480.063 171.676 478.941 171.765 477.782Z" fill="#8CABEF"/>
<g opacity="0.8">
<path opacity="0.8" d="M442.174 73.7974L438.176 74.1571C438.008 74.1753 437.852 74.2503 437.732 74.3696C437.613 74.4889 437.538 74.6453 437.52 74.813C437.228 76.9358 436.584 78.9952 435.616 80.9067C435.543 81.0581 435.522 81.2295 435.556 81.394C435.591 81.5586 435.679 81.7072 435.806 81.8165L438.895 84.3768C439.032 84.5188 439.109 84.7084 439.109 84.9057C439.109 85.1031 439.032 85.2927 438.895 85.4347L435.172 90.132C435.03 90.269 434.84 90.3456 434.643 90.3456C434.446 90.3456 434.256 90.269 434.114 90.132L430.941 87.6564C430.809 87.5499 430.645 87.4918 430.475 87.4918C430.306 87.4918 430.142 87.5499 430.01 87.6564C428.316 88.9618 426.413 89.9706 424.382 90.6398C424.221 90.6875 424.08 90.7891 423.984 90.9276C423.888 91.0661 423.842 91.2333 423.854 91.4015L424.234 95.4005C424.247 95.5982 424.184 95.7932 424.058 95.9464C423.933 96.0995 423.754 96.1993 423.557 96.2257L417.465 96.7758C417.367 96.7845 417.269 96.7739 417.176 96.7445C417.083 96.7151 416.996 96.6676 416.922 96.6047C416.847 96.5417 416.785 96.4646 416.741 96.3778C416.696 96.291 416.669 96.1961 416.661 96.0987L416.28 92.0997C416.266 91.9338 416.196 91.7778 416.08 91.6582C415.964 91.5386 415.811 91.4628 415.645 91.4438C413.523 91.1514 411.464 90.5079 409.552 89.5395C409.402 89.4626 409.229 89.4396 409.064 89.4742C408.898 89.5088 408.75 89.5991 408.643 89.7299L406.083 92.8191C405.941 92.9562 405.751 93.0328 405.554 93.0328C405.357 93.0328 405.167 92.9562 405.025 92.8191L400.329 88.9047C400.177 88.777 400.08 88.5949 400.061 88.3973C400.041 88.1997 400.099 88.0021 400.223 87.8468L402.804 84.7576C402.907 84.6243 402.963 84.4606 402.963 84.2921C402.963 84.1237 402.907 83.96 402.804 83.8266C401.508 82.1219 400.507 80.2124 399.842 78.1772C399.787 78.0215 399.683 77.8877 399.546 77.7961C399.409 77.7045 399.245 77.6601 399.08 77.6694L395.061 78.0503C394.862 78.062 394.667 77.9955 394.517 77.865C394.366 77.7345 394.273 77.5504 394.257 77.352L393.686 71.2795C393.677 71.1821 393.688 71.0841 393.717 70.9909C393.746 70.8977 393.794 70.8112 393.857 70.7365C393.92 70.6618 393.997 70.6002 394.084 70.5554C394.171 70.5106 394.265 70.4834 394.363 70.4754L398.382 70.0946C398.548 70.081 398.704 70.0103 398.824 69.8945C398.943 69.7788 399.019 69.6252 399.038 69.4598C399.33 67.337 399.974 65.2776 400.942 63.3661C401.019 63.2155 401.042 63.0431 401.007 62.8776C400.973 62.712 400.883 62.5634 400.752 62.4562L397.663 59.8749C397.511 59.7471 397.415 59.565 397.395 59.3674C397.375 59.1698 397.434 58.9723 397.557 58.8169L401.471 54.2889C401.538 54.2159 401.62 54.1575 401.711 54.1176C401.802 54.0777 401.901 54.0571 402 54.0571C402.099 54.0571 402.198 54.0777 402.289 54.1176C402.38 54.1575 402.461 54.2159 402.529 54.2889L405.554 56.7011C405.684 56.8023 405.844 56.8573 406.009 56.8573C406.174 56.8573 406.334 56.8023 406.464 56.7011C408.174 55.4139 410.081 54.4134 412.112 53.7388C412.276 53.6869 412.417 53.5814 412.513 53.4393C412.609 53.2972 412.654 53.1269 412.641 52.9559L412.26 48.9569C412.243 48.7581 412.304 48.5602 412.43 48.4059C412.557 48.2516 412.739 48.1531 412.937 48.1317L419.009 47.5816C419.208 47.5638 419.406 47.6248 419.56 47.7514C419.714 47.8781 419.813 48.0602 419.834 48.2587L420.194 52.2789C420.215 52.4452 420.292 52.5996 420.41 52.7182C420.529 52.8368 420.683 52.9129 420.849 52.9348C422.971 53.2201 425.03 53.8565 426.942 54.8179C427.091 54.8972 427.261 54.9237 427.427 54.8929C427.592 54.8621 427.742 54.776 427.852 54.6486L430.412 51.5595C430.471 51.4792 430.547 51.4122 430.634 51.3629C430.721 51.3136 430.818 51.283 430.917 51.273C431.017 51.2631 431.117 51.274 431.212 51.3051C431.308 51.3362 431.395 51.3868 431.47 51.4537L436.23 55.3469C436.367 55.4889 436.443 55.6785 436.443 55.8759C436.443 56.0732 436.367 56.2628 436.23 56.4048L433.649 59.5152C433.547 59.6452 433.492 59.8053 433.492 59.9701C433.492 60.1349 433.547 60.295 433.649 60.425C434.95 62.1291 435.958 64.0384 436.631 66.0744C436.68 66.2343 436.782 66.3724 436.921 66.4651C437.06 66.5578 437.227 66.5992 437.393 66.5822L441.413 66.2225C441.608 66.2105 441.8 66.2741 441.95 66.4001C442.1 66.5262 442.195 66.7051 442.217 66.8996L442.788 72.9722C442.802 73.1606 442.748 73.348 442.635 73.4996C442.523 73.6513 442.359 73.7571 442.174 73.7974ZM427.365 77.077C428.52 74.9717 428.907 72.5302 428.46 70.1709C428.012 67.8115 426.758 65.6814 424.913 64.1455C423.067 62.6096 420.744 61.7637 418.343 61.7528C415.942 61.7418 413.612 62.5665 411.753 64.0855C410.629 64.9297 409.716 66.0234 409.087 67.2805C407.95 69.3882 407.577 71.8247 408.032 74.1762C408.487 76.5276 409.743 78.6489 411.585 80.1795C413.427 81.7101 415.742 82.5557 418.136 82.5726C420.531 82.5894 422.858 81.7765 424.721 80.272C425.849 79.4268 426.769 78.3337 427.408 77.077H427.365Z" fill="#8CABEF"/>
</g>
<path d="M571.286 523.38C571.286 523.38 570.8 532.964 570.8 536.794C570.8 540.624 572.005 542.063 570.08 543.015C568.155 543.967 550.448 547.564 548.057 546.146C545.667 544.729 556.52 541.597 559.545 536.075C561.453 532.536 562.517 528.604 562.655 524.586L571.286 523.38Z" fill="#FFC2A9"/>
<path d="M571.287 537.746C567.066 540.26 562.564 542.27 557.874 543.734C552.607 544.94 548.778 546.379 551.168 542.782C551.168 542.782 543.277 546.379 539.194 548.537C535.111 550.695 551.401 554.271 557.155 551.88C562.909 549.489 571.287 549.489 572.239 548.283C573.191 547.077 573.191 542.295 571.287 537.746Z" fill="#292949"/>
<path d="M541.605 403.409C541.605 403.409 544.778 436.882 551.95 459.184C559.122 481.485 557.408 532.478 560.412 533.578C563.416 534.678 570.546 534.255 571.688 532.097C572.83 529.939 577.04 486.246 573.529 476.026C566.188 454.74 573.529 403.261 569.975 399.664C566.42 396.067 541.605 403.409 541.605 403.409Z" fill="#5D66D3"/>
<path d="M580.488 534.763C580.488 534.763 580.002 544.327 580.002 548.178C580.002 552.029 581.208 553.446 579.282 554.398C577.357 555.35 559.65 558.947 557.26 557.509C554.869 556.07 565.722 552.959 568.747 547.458C570.655 543.911 571.719 539.973 571.857 535.948L580.488 534.763Z" fill="#FFC2A9"/>
<path d="M547.444 402.605C547.444 402.605 552.098 445.24 559.629 458.168C567.161 471.096 567.499 535.588 571.773 538.296C574.98 539.937 578.646 540.451 582.181 539.756C582.181 539.756 588.655 505.458 583.472 484.743C578.289 464.029 578.119 465.341 579.621 451.545C581.123 437.75 588.083 402.288 584.085 401.293C580.087 400.299 547.444 402.605 547.444 402.605Z" fill="#5D66D3"/>
<path d="M584.085 401.293C588.189 402.288 581.123 437.771 579.621 451.545C578.119 465.32 578.289 464.093 583.472 484.743C588.655 505.394 582.181 539.756 582.181 539.756C578.646 540.451 574.98 539.937 571.773 538.296C571.376 537.923 571.09 537.447 570.948 536.921C579.05 534.805 582.35 517.561 581.208 503.575C579.896 487.706 574.629 475.053 572.619 468.007C570.609 460.961 574.734 435.803 576.004 426.239C577.273 416.676 571.773 414.539 562.76 412.465C558.106 411.418 553.314 411.118 548.565 411.576C547.825 406.181 547.444 402.605 547.444 402.605C547.444 402.605 579.981 400.362 584.085 401.293Z" fill="#5D66D3"/>
<path d="M519.519 297.615C519.301 296.483 519.397 295.312 519.794 294.23C520.429 292.325 521.761 291.352 522.185 289.067C522.608 286.782 522.502 283.248 521.719 283.65C521.305 283.973 520.959 284.375 520.702 284.833C520.444 285.291 520.279 285.795 520.217 286.316C519.9 287.522 519.879 289.363 518.948 288.771C518.017 288.178 517.361 277.26 516.155 279.292C514.949 281.323 516.451 286.337 515.605 286.189C514.759 286.041 514.696 276.858 513.172 278.466C511.649 280.074 513.807 286.93 512.77 286.697C511.734 286.464 512.58 278.805 511.057 280.35C509.957 281.45 510.909 287.417 510.38 286.697C509.851 285.978 509.766 281.513 508.941 283.523C508.604 284.747 508.518 286.027 508.689 287.286C508.86 288.544 509.284 289.755 509.936 290.844C511.084 292.336 511.925 294.04 512.411 295.859C512.665 297.425 512.665 298.652 512.961 298.821C513.257 298.99 519.519 297.615 519.519 297.615Z" fill="#F7A5A7"/>
<path d="M566.695 330.707C566.695 330.707 543.826 329.353 534.602 326.92C525.378 324.487 521.168 296.261 521.168 296.261C521.168 296.261 512.917 296.98 511.965 298.059C511.013 299.139 516.662 324.825 522.797 333.395C528.932 341.964 549.707 347.867 555.017 347.084C560.327 346.302 571.307 339.446 566.695 330.707Z" fill="#D81B34"/>
<path d="M518.335 296.578C519.921 296.367 521.212 296.261 521.212 296.261C521.212 296.261 525.443 324.593 534.646 326.92C542.15 328.445 549.747 329.47 557.388 329.988C554.7 332.895 551.172 334.892 547.297 335.701C540.793 336.432 534.261 334.603 529.082 330.602C524.512 327.132 521.021 319.684 519.667 312.278C518.804 307.089 518.358 301.839 518.335 296.578Z" fill="#FF151F"/>
<path d="M589.206 339.933C589.206 339.933 587.682 332.464 573.783 330.644C560.54 328.909 556.14 334.347 552.755 343.339C548.524 354.384 558.276 355.04 544.462 382.97C540.957 389.592 538.983 396.917 538.686 404.404C538.686 408.805 579.136 417.416 586.286 411.28C595.933 403.028 576.555 389.973 588.613 365.133C590.695 361.278 591.834 356.984 591.937 352.604C592.04 348.224 591.104 343.881 589.206 339.933Z" fill="#FF151F"/>
<path d="M555.758 410.942C561.85 408.656 571.878 404.742 575.898 394.374C581.779 379.14 567.435 377.447 566.822 372.835C566.208 368.222 571.603 367.757 578.246 362.255C584.889 356.754 580.531 338.811 580.531 338.811C582.97 336.361 585.541 334.044 588.231 331.871C588.571 332.43 588.862 333.018 589.099 333.627C596.461 345.201 592.018 358.256 588.675 365.112C576.617 389.952 595.995 403.007 586.348 411.259C582.265 414.666 567.668 413.46 555.758 410.942Z" fill="#D81B34"/>
<path d="M509.11 263.232L532.867 316.404L504.011 321.863L528.34 384.705L519.814 387.879L492.227 316.827L520.872 310.268L501.007 266.914L494.851 269.664L498.045 249.881L515.964 259.889L509.11 263.232Z" fill="#474EBB"/>
<path d="M518.632 349.835C517.738 348.887 516.898 347.891 516.114 346.852C514.485 344.736 513.131 341.245 512.539 341.202C511.946 341.16 511.164 343.001 511.777 344.651C512.391 346.301 514.549 348.671 513.512 348.883C512.475 349.094 501.792 344.207 501.369 346.026C500.946 347.846 508.583 350.512 507.377 350.512C506.171 350.512 499.718 347.444 500.078 349.179C500.438 350.914 507.906 353.411 506.784 353.538C505.663 353.665 500.544 350.999 500.945 352.607C501.347 354.215 507.969 355.929 506.996 356.098C506.023 356.267 502.13 353.982 502.955 355.294C504.545 356.995 506.707 358.05 509.027 358.256C510.846 358.256 515.077 356.458 516.241 356.902C517.405 357.346 519.774 358.701 520.472 358.087C521.684 356.206 522.585 354.141 523.138 351.972C522.736 351.718 518.632 349.835 518.632 349.835Z" fill="#F7A5A7"/>
<path d="M574.015 337.521C574.015 337.521 563.225 352.332 547.613 352.903C532 353.474 521.464 349.01 520.766 350.047C520.068 351.083 517.466 357.262 518.651 358.51C524.003 362.318 530.106 364.942 536.551 366.208C542.996 367.474 549.637 367.352 556.032 365.852C574.903 361.134 591.404 354.807 590.304 344.99C589.204 335.172 581.863 328.888 574.015 337.521Z" fill="#FF151F"/>
<path d="M518.715 358.489C517.89 357.664 518.715 354.659 519.646 352.438C522.481 354.744 536.909 365.746 550.956 362.446C566.633 358.785 577.359 350.978 581.674 344.715C583.422 341.731 584.841 338.567 585.905 335.278C588.471 337.882 590.017 341.321 590.263 344.968C591.363 354.786 574.862 361.113 555.991 365.831C549.613 367.316 542.991 367.429 536.565 366.163C530.139 364.897 524.055 362.282 518.715 358.489Z" fill="#D81B34"/>
<path d="M568.135 331.469C569.027 330.294 569.55 328.88 569.637 327.407C561.175 329.184 560.646 320.255 560.9 314.521C561.069 310.141 565.914 302.841 568.325 299.477C569.218 298.222 570.431 297.228 571.837 296.6C574.032 295.393 576.535 294.863 579.03 295.076C582.267 295.944 587.704 303.032 588.613 307.369C589.523 311.707 586.498 317.124 582.161 321.186L581.294 321.969C579.647 323.313 578.493 325.166 578.014 327.237C577.189 331.342 578.014 334.643 576.11 336.293C572.641 339.319 563.417 338.409 562.613 336.293C561.809 334.178 565.575 335.024 568.135 331.469Z" fill="#FFC2A9"/>
<path d="M562.93 302.439C561.967 302.841 561.133 303.5 560.518 304.344C560.518 304.344 558.805 298.863 566.104 295.309C573.402 291.754 578.374 293.193 578.374 293.193C578.374 293.193 587.957 294.166 591.067 302.249C594.177 310.332 592.59 314.182 592.59 314.182C595.067 314.647 597.361 315.803 599.207 317.518C601.053 319.234 602.375 321.437 603.02 323.873C605.135 332.337 600.756 338.832 603.337 343.678C603.891 344.966 604.702 346.128 605.721 347.093C606.739 348.057 607.944 348.803 609.261 349.285C607.266 350.462 605.042 351.196 602.738 351.437C600.435 351.678 598.107 351.42 595.912 350.681C589.036 347.994 579.664 329.523 589.142 318.943C586.494 322.22 582.894 324.593 578.839 325.735C577.419 323.317 576.257 320.757 575.37 318.097C575.37 316.679 578.818 315.981 578.056 312.278C577.295 308.575 573.212 312.278 572.683 314.098C572.683 314.098 571.71 314.542 571.71 310.014C571.701 308.731 571.479 307.458 571.054 306.248C570.787 305.452 570.362 304.719 569.804 304.093C569.246 303.467 568.567 302.96 567.807 302.604C567.048 302.248 566.224 302.05 565.386 302.021C564.547 301.993 563.712 302.135 562.93 302.439Z" fill="#292949"/>
<path d="M580.489 549.13C576.263 551.634 571.763 553.644 567.076 555.118C561.809 556.303 557.98 557.741 560.37 554.165C560.37 554.165 552.479 557.741 548.396 559.9C544.313 562.058 560.603 565.655 566.357 563.264C572.112 560.873 580.489 560.852 581.441 559.667C582.393 558.482 582.393 553.636 580.489 549.13Z" fill="#292949"/>
<path d="M252.98 526.828L243.735 527.378L244.391 534.255L255.054 535.144L252.98 526.828Z" fill="#F7B690"/>
<path d="M259.031 484.384C259.031 484.384 257.148 491.578 262.437 501.311C267.726 511.044 290.807 523.633 290.807 523.633L251.923 525.643C251.923 525.643 250.421 534.34 251.161 536.604C251.902 538.868 307.456 541.026 312.364 531.949C317.272 522.872 294.594 494.117 294.594 494.117L259.031 484.384Z" fill="#292949"/>
<path d="M315.262 535.715L314.522 544.03L323.09 544.284L324.846 535.461L315.262 535.715Z" fill="#F7B690"/>
<path d="M292.521 485.463C292.521 485.463 329.607 463.415 335.615 471.413C341.623 479.411 325.989 537.725 325.989 537.725L312.936 537.238L314.565 499.999C314.565 499.999 277.479 515.022 266.965 503.004C256.451 490.985 265.971 480.935 265.971 480.935L292.521 485.463Z" fill="#292949"/>
<path d="M328.547 387.223C329.283 386.471 329.801 385.536 330.049 384.514C330.515 382.737 330.049 381.319 330.769 379.33C331.488 377.341 333.434 374.697 333.836 375.395C334.154 376.325 334.093 377.344 333.667 378.23C333.328 379.309 332.398 380.727 333.413 380.727C334.429 380.727 340.394 372.665 340.31 374.824C340.225 376.982 336.565 380.113 337.285 380.431C338.004 380.748 342.658 373.681 343.018 375.712C343.377 377.743 338.342 381.848 339.21 382.229C340.077 382.61 343.314 376.241 343.716 378.188C344.012 379.605 340.289 383.71 341.093 383.372C341.896 383.033 344.16 379.69 343.8 381.637C343.45 382.748 342.877 383.777 342.117 384.661C341.357 385.545 340.426 386.265 339.379 386.778C337.746 387.35 336.242 388.242 334.957 389.402C333.963 390.481 333.35 391.518 333.053 391.518C332.757 391.518 328.547 387.223 328.547 387.223Z" fill="#F7B690"/>
<path d="M286.259 427.001C286.259 427.001 304.918 424.272 311.646 418.326C318.373 412.38 335.276 394.586 334.472 393.337C333.668 392.089 329.776 384.155 325.016 388.556C324.254 389.254 308.536 407.599 299.629 410.794C290.723 413.988 275.089 415.639 274.243 420.844C273.396 426.049 286.259 427.001 286.259 427.001Z" fill="#303797"/>
<path d="M283.825 405.927C283.825 405.927 285.793 413.925 283.593 417.416C281.392 420.907 294.466 418.03 294.488 417.416C294.509 416.803 293.218 411.069 295.313 408.403C297.407 405.737 283.825 405.927 283.825 405.927Z" fill="#FFC2A9"/>
<path d="M292.266 385.255C295.981 388.017 298.764 391.849 300.242 396.236C302.675 403.557 300.749 407.175 299.649 407.874C296.555 409.286 293.243 410.159 289.854 410.455C287.163 410.352 284.525 409.672 282.12 408.459C279.714 407.247 277.597 405.532 275.913 403.43C271.47 397.442 274.474 388.725 278.981 385.149C283.487 381.573 292.266 385.255 292.266 385.255Z" fill="#F7B690"/>
<path d="M366.735 357.621L370.606 362.001C370.74 362.136 370.816 362.319 370.816 362.509C370.816 362.699 370.74 362.882 370.606 363.017L367.729 365.556C367.61 365.667 367.531 365.815 367.504 365.975C367.477 366.136 367.504 366.301 367.581 366.445C368.565 368.238 369.244 370.183 369.591 372.2C369.61 372.357 369.685 372.503 369.801 372.611C369.917 372.719 370.067 372.784 370.225 372.792L374.076 373.025C374.17 373.03 374.263 373.054 374.348 373.096C374.433 373.137 374.509 373.195 374.572 373.265C374.635 373.336 374.683 373.419 374.714 373.508C374.745 373.598 374.758 373.692 374.753 373.787L374.393 379.627C374.388 379.72 374.364 379.812 374.322 379.896C374.281 379.98 374.223 380.055 374.151 380.116C374.08 380.178 373.998 380.224 373.908 380.252C373.819 380.281 373.725 380.291 373.631 380.283L369.802 380.071C369.642 380.06 369.483 380.105 369.352 380.197C369.221 380.29 369.126 380.424 369.083 380.579C368.503 382.54 367.602 384.392 366.417 386.059C366.314 386.184 366.258 386.341 366.258 386.503C366.258 386.665 366.314 386.822 366.417 386.948L368.956 389.825C369.09 389.96 369.166 390.143 369.166 390.333C369.166 390.523 369.09 390.706 368.956 390.841L364.577 394.713C364.442 394.847 364.259 394.923 364.069 394.923C363.879 394.923 363.696 394.847 363.561 394.713L361.002 391.835C360.896 391.715 360.752 391.634 360.594 391.607C360.436 391.58 360.274 391.608 360.134 391.687C358.344 392.674 356.397 393.347 354.38 393.676C354.221 393.7 354.075 393.779 353.967 393.898C353.859 394.018 353.795 394.171 353.787 394.332L353.555 398.183C353.549 398.277 353.525 398.37 353.484 398.455C353.443 398.54 353.385 398.617 353.315 398.68C353.244 398.742 353.161 398.791 353.072 398.822C352.982 398.853 352.888 398.866 352.793 398.86L346.954 398.5C346.86 398.495 346.767 398.471 346.682 398.43C346.597 398.388 346.521 398.331 346.458 398.26C346.395 398.189 346.346 398.107 346.315 398.017C346.285 397.928 346.272 397.833 346.277 397.739L346.51 393.909C346.521 393.749 346.476 393.59 346.384 393.459C346.291 393.328 346.157 393.233 346.002 393.189C344.041 392.609 342.19 391.708 340.523 390.523C340.398 390.42 340.241 390.364 340.079 390.364C339.917 390.364 339.759 390.42 339.634 390.523L336.757 393.062C336.622 393.197 336.44 393.272 336.25 393.272C336.059 393.272 335.877 393.197 335.742 393.062L331.87 388.704C331.736 388.569 331.661 388.386 331.661 388.196C331.661 388.006 331.736 387.823 331.87 387.688L334.747 385.128C334.868 385.022 334.948 384.878 334.975 384.72C335.002 384.562 334.974 384.4 334.896 384.26C333.912 382.467 333.232 380.522 332.886 378.505C332.867 378.345 332.793 378.197 332.678 378.085C332.562 377.974 332.411 377.905 332.251 377.892L328.401 377.68C328.212 377.664 328.036 377.576 327.91 377.434C327.785 377.292 327.718 377.108 327.724 376.918L328.084 371.078C328.089 370.984 328.113 370.891 328.154 370.806C328.195 370.721 328.253 370.645 328.324 370.582C328.395 370.519 328.477 370.471 328.566 370.44C328.656 370.409 328.751 370.396 328.845 370.401L332.674 370.634C332.834 370.645 332.993 370.6 333.124 370.508C333.255 370.415 333.35 370.281 333.394 370.126C333.969 368.163 334.87 366.311 336.059 364.646C336.162 364.521 336.219 364.364 336.219 364.202C336.219 364.04 336.162 363.883 336.059 363.757L333.52 360.88C333.386 360.745 333.311 360.562 333.311 360.372C333.311 360.182 333.386 359.999 333.52 359.864L337.857 355.908C337.992 355.773 338.175 355.698 338.365 355.698C338.555 355.698 338.738 355.773 338.873 355.908L341.433 358.785C341.542 358.899 341.686 358.975 341.842 359.002C341.998 359.029 342.159 359.005 342.3 358.933C344.094 357.949 346.038 357.27 348.054 356.923C348.217 356.907 348.368 356.831 348.478 356.71C348.587 356.589 348.647 356.431 348.647 356.267L348.879 352.438C348.885 352.343 348.909 352.25 348.95 352.165C348.991 352.08 349.049 352.004 349.12 351.941C349.19 351.878 349.273 351.83 349.362 351.799C349.452 351.768 349.547 351.755 349.641 351.76L355.48 352.12C355.667 352.131 355.842 352.215 355.969 352.353C356.095 352.491 356.163 352.673 356.157 352.861L355.924 356.712C355.913 356.872 355.958 357.03 356.05 357.161C356.143 357.292 356.278 357.388 356.432 357.431C358.393 358.011 360.244 358.912 361.911 360.097C362.036 360.2 362.193 360.257 362.355 360.257C362.518 360.257 362.675 360.2 362.8 360.097L365.677 357.537C365.75 357.469 365.836 357.417 365.931 357.384C366.025 357.351 366.125 357.338 366.224 357.346C366.324 357.354 366.421 357.383 366.508 357.43C366.596 357.477 366.673 357.543 366.735 357.621ZM349.81 365.493C347.534 365.797 345.434 366.883 343.871 368.566C342.307 370.248 341.377 372.422 341.24 374.715C341.102 377.007 341.766 379.277 343.117 381.134C344.468 382.991 346.423 384.321 348.647 384.895C349.929 385.279 351.284 385.358 352.603 385.128C354.879 384.823 356.979 383.737 358.542 382.055C360.106 380.372 361.036 378.199 361.173 375.906C361.311 373.613 360.647 371.344 359.296 369.487C357.945 367.629 355.99 366.3 353.766 365.725C352.484 365.342 351.129 365.262 349.81 365.493Z" fill="#8CABEF"/>
<path d="M353.215 391.497C353.346 390.232 353.395 388.96 353.363 387.688C353.363 385.107 352.263 381.594 352.707 381.192C353.151 380.79 354.822 381.742 355.373 383.308C355.923 384.874 355.669 388.069 356.621 387.54C357.573 387.011 362.777 376.961 364.216 378.04C365.654 379.119 361.381 385.826 362.312 385.107C363.242 384.387 366.331 378.124 367.093 379.69C367.854 381.256 363.623 387.625 364.596 387.074C365.569 386.524 367.854 381.34 368.51 382.843C369.166 384.345 365.125 389.614 365.971 389.19C366.818 388.767 368.447 384.662 368.595 386.143C368.385 388.408 367.363 390.52 365.718 392.089C364.3 393.147 359.984 394.353 359.371 395.39C358.757 396.427 357.763 398.902 356.917 398.796C354.848 398.092 352.91 397.048 351.184 395.707C351.226 395.39 353.215 391.497 353.215 391.497Z" fill="#F7B690"/>
<path d="M360.239 397.612C359.985 394.797 353.448 392.428 350.994 392.131C348.54 391.835 337.01 414.2 330.368 417.691C323.725 421.182 301.511 418.686 301.511 418.686C301.52 418.72 301.52 418.757 301.511 418.792C301.353 418.635 301.175 418.5 300.983 418.39C300.738 418.113 300.476 417.851 300.2 417.607C299.645 417.185 299.066 416.796 298.465 416.443C294.063 414.336 289.491 412.602 284.799 411.259C281.674 411.181 278.589 411.971 275.886 413.539C273.182 415.108 270.966 417.394 269.482 420.146C265.843 426.155 256.577 483.326 256.789 484.172C257 485.019 261.02 487.24 271.598 490.731C282.175 494.223 296.815 482.077 298.719 480.152C299.882 479.052 301.723 469.022 303.754 452.984C304.63 448.002 305.202 442.971 305.468 437.919C314.12 437.538 331.7 431.952 336.587 429.456C342.257 426.684 360.514 400.426 360.239 397.612Z" fill="#474EBB"/>
<path d="M360.134 397.061C360.107 396.994 360.071 396.93 360.028 396.871C359.991 396.766 359.942 396.667 359.88 396.575L359.711 396.321L359.541 396.088L359.266 395.792L359.097 395.644L358.716 395.305L358.589 395.199L358.103 394.84L357.532 394.48L356.855 394.12C355.268 397.696 345.685 418.643 336.778 422.812C327.047 427.361 308.155 431.487 303.098 433.962C298.042 436.438 300.116 441.135 297.111 450.36C294.107 459.586 281.647 466.483 284.249 471.054C286.851 475.624 290.807 477.211 288.713 482.056C287.443 485.019 282.07 489.166 274.962 491.387C285.011 491.81 298.402 483.135 300.116 481.485C301.258 480.385 301.596 469.149 303.627 453.111C304.504 448.129 305.076 443.098 305.341 438.046C313.994 437.665 331.574 432.079 336.461 429.582C342.405 426.62 360.663 400.426 360.388 397.612C360.342 397.412 360.256 397.225 360.134 397.061Z" fill="#303797"/>
<path d="M290.531 400.087C290.531 400.087 288.987 396.702 287.02 398.373C285.052 400.045 289.622 403.684 289.854 404.298C290.035 405.406 289.936 406.542 289.566 407.602C289.197 408.663 288.569 409.614 287.739 410.37C287.022 411.083 286.165 411.64 285.221 412.004C284.278 412.368 283.27 412.532 282.26 412.486C282.133 412.169 283.063 411.195 280.377 408.699C277.69 406.202 274.517 404.615 271.915 402.245C270.41 401.107 269.263 399.562 268.611 397.791C267.958 396.021 267.827 394.101 268.233 392.258L265.885 392.809C266.084 392.173 266.422 391.59 266.877 391.103C267.331 390.616 267.888 390.237 268.509 389.994C268.191 389.148 267.853 388.323 267.535 387.477L269.862 388.661C269.99 387.3 270.386 385.977 271.026 384.768C271.685 383.791 272.561 382.98 273.586 382.398C276.325 380.826 279.342 379.799 282.471 379.373C284.666 379.152 286.81 378.573 288.818 377.659C289.795 377.193 290.609 376.443 291.152 375.506C291.696 374.57 291.944 373.491 291.864 372.411C292.857 372.887 293.667 373.675 294.17 374.654C295.995 377.636 296.741 381.154 296.286 384.62C296.146 386.166 295.558 387.637 294.593 388.852C293.641 389.952 291.314 390.968 291.314 392.66C291.314 394.353 293.133 395.771 292.372 397.104C291.864 397.971 292.203 400.891 291.801 401.103C291.399 401.314 290.531 400.087 290.531 400.087Z" fill="#292949"/>
<path d="M246.698 526.934C246.698 526.934 247.628 534.763 247.925 536.159C248.294 537.737 248.915 539.245 249.765 540.624C250.061 540.624 256.239 543.586 257.593 545.3C258.947 547.014 245.682 546.675 244.074 545.935C242.467 545.194 241.261 540.857 240.943 539.376L240.288 536.329C240.288 536.329 239.293 536.329 239.103 535.842C238.912 535.355 238.087 528.119 238.087 528.119C238.087 528.119 239.103 525.157 246.698 526.934Z" fill="#292949"/>
<path d="M314.036 542.338C317.234 542.897 320.482 543.109 323.725 542.973C323.725 542.973 325.968 545.829 332.484 546.95C338.999 548.072 344.563 546.95 345.05 548.685C345.537 550.42 339.169 553.933 333.287 553.615C327.406 553.298 322.942 552.663 322.942 552.663C322.942 552.663 323.725 553.615 322.308 553.615C320.89 553.615 312.132 552.833 312.132 552.833C312.132 552.833 312.132 545.829 314.036 542.338Z" fill="#292949"/>
</svg>
