<svg width="30" height="30" viewBox="0 0 30 30" fill="none" xmlns="http://www.w3.org/2000/svg">
<path d="M22.0312 23.3789V25.2539C22.0312 25.8755 21.7843 26.4716 21.3448 26.9112C20.9052 27.3507 20.3091 27.5977 19.6875 27.5977H10.3125C9.6909 27.5977 9.09476 27.3507 8.65522 26.9112C8.21568 26.4716 7.96875 25.8755 7.96875 25.2539V23.3789H22.0312ZM15.8789 25.4883C15.8789 25.3145 15.8274 25.1445 15.7308 25C15.6342 24.8555 15.4969 24.7428 15.3363 24.6763C15.1757 24.6098 14.999 24.5923 14.8285 24.6263C14.658 24.6602 14.5014 24.7439 14.3785 24.8668C14.2556 24.9897 14.1719 25.1463 14.138 25.3168C14.1041 25.4873 14.1215 25.664 14.188 25.8246C14.2545 25.9852 14.3672 26.1225 14.5117 26.2191C14.6562 26.3156 14.8262 26.3672 15 26.3672C15.2331 26.3671 15.4566 26.2745 15.6214 26.1097C15.7862 25.9449 15.8788 25.7214 15.8789 25.4883Z" fill="#474EBB"/>
<path d="M22.0312 5.91797V23.3789H7.96875V5.91797H17.8711H19.0248H19.6764H20.8594H21.9469H22.0312Z" fill="#E2DFFE"/>
<path d="M22.0312 4.74609V5.91797H7.96875V4.74609C7.96875 4.12449 8.21568 3.52835 8.65522 3.08881C9.09476 2.64927 9.6909 2.40234 10.3125 2.40234H19.6875C20.3091 2.40234 20.9052 2.64927 21.3448 3.08881C21.7843 3.52835 22.0312 4.12449 22.0312 4.74609Z" fill="#474EBB"/>
<path d="M15 26.3672C15.4854 26.3672 15.8789 25.9737 15.8789 25.4883C15.8789 25.0029 15.4854 24.6094 15 24.6094C14.5146 24.6094 14.1211 25.0029 14.1211 25.4883C14.1211 25.9737 14.5146 26.3672 15 26.3672Z" fill="#FBFBFF"/>
</svg>
