<svg width="478" height="210" viewBox="0 0 478 210" fill="none" xmlns="http://www.w3.org/2000/svg">
<path d="M5.94324 84.88L71.6632 6.45003C73.0875 4.75464 74.9324 3.46347 77.0131 2.70598C79.0937 1.9485 81.3369 1.75132 83.5178 2.13421C85.6987 2.5171 87.7406 3.46662 89.4387 4.88754C91.1369 6.30847 92.4317 8.15088 93.1932 10.23L128.253 106.36C129.008 108.438 129.204 110.677 128.821 112.855C128.439 115.032 127.492 117.071 126.075 118.768C124.658 120.464 122.82 121.759 120.745 122.523C118.671 123.287 116.432 123.493 114.253 123.12L13.4332 105.41C11.2523 105.026 9.2107 104.075 7.51352 102.653C5.81634 101.231 4.52334 99.3866 3.76437 97.3062C3.0054 95.2259 2.80719 92.9825 3.18965 90.8013C3.5721 88.6202 4.52176 86.578 5.94324 84.88Z" fill="#8CABEF"/>
<path d="M81.5737 13.14C81.8211 13.1707 82.0544 13.2719 82.2459 13.4314C82.4373 13.591 82.5789 13.8022 82.6537 14.04L117.714 110.17C117.798 110.401 117.821 110.651 117.778 110.893C117.736 111.136 117.63 111.363 117.472 111.551C117.314 111.74 117.108 111.884 116.877 111.968C116.646 112.052 116.396 112.073 116.154 112.03L15.3737 94.37C15.1304 94.3272 14.9027 94.2213 14.7132 94.0628C14.5238 93.9043 14.3793 93.6988 14.2943 93.4669C14.2092 93.235 14.1865 92.9848 14.2286 92.7414C14.2706 92.498 14.3758 92.27 14.5337 92.08L80.2537 13.66C80.4006 13.4557 80.6031 13.2981 80.8372 13.2059C81.0713 13.1136 81.327 13.0908 81.5737 13.14Z" fill="white"/>
<path d="M74.5732 76.86L66.4732 75.44C65.47 75.2541 64.5758 74.6918 63.9735 73.8683C63.3712 73.0448 63.1064 72.0223 63.2332 71.01L66.6432 45.67C66.8078 44.4563 67.2157 43.2884 67.8425 42.2361C68.4693 41.1838 69.3021 40.2689 70.2909 39.5462C71.2797 38.8235 72.4043 38.3078 73.5972 38.0301C74.7901 37.7524 76.0268 37.7183 77.2332 37.93C78.4425 38.1382 79.5971 38.5891 80.6275 39.2556C81.6579 39.922 82.5426 40.7901 83.2285 41.8077C83.9143 42.8253 84.387 43.9711 84.6181 45.1763C84.8492 46.3814 84.8339 47.6209 84.5732 48.82L79.1432 73.82C78.9128 74.814 78.3114 75.6824 77.4618 76.2475C76.6123 76.8126 75.5789 77.0317 74.5732 76.86Z" fill="#8CABEF"/>
<path d="M76.2932 88.96C76.0208 90.4977 75.2988 91.9202 74.2184 93.0478C73.138 94.1754 71.7476 94.9575 70.2229 95.2953C68.6982 95.633 67.1076 95.5113 65.6521 94.9455C64.1965 94.3797 62.9413 93.3952 62.045 92.1164C61.1487 90.8376 60.6515 89.3218 60.6163 87.7605C60.581 86.1992 61.0093 84.6626 61.847 83.3446C62.6847 82.0266 63.8942 80.9865 65.3228 80.3556C66.7513 79.7247 68.3348 79.5314 69.8732 79.8C71.9379 80.1659 73.7733 81.3357 74.9768 83.0529C76.1803 84.77 76.6537 86.8943 76.2932 88.96Z" fill="#8CABEF"/>
<path d="M381.893 57.0416L292.509 49.1743L287.892 101.631L377.276 109.499L381.893 57.0416Z" fill="#5D66D3"/>
<path d="M432.132 61.4122L394.098 58.0846L393.727 62.3184L431.762 65.646L432.132 61.4122Z" fill="#DDDDDD"/>
<path d="M431.285 71.0614L393.25 67.7338L392.88 71.9676L430.914 75.2952L431.285 71.0614Z" fill="#DDDDDD"/>
<path d="M430.447 80.7115L392.412 77.3839L392.042 81.6177L430.076 84.9453L430.447 80.7115Z" fill="#DDDDDD"/>
<path d="M429.599 90.3607L391.564 87.0331L391.194 91.2669L429.229 94.5945L429.599 90.3607Z" fill="#DDDDDD"/>
<path d="M428.755 99.9709L390.721 96.6432L390.35 100.877L428.385 104.205L428.755 99.9709Z" fill="#DDDDDD"/>
<path d="M427.918 109.621L389.883 106.293L389.512 110.527L427.547 113.855L427.918 109.621Z" fill="#DDDDDD"/>
<path d="M427.544 126.519L389.364 123.083L388.982 127.333L427.162 130.769L427.544 126.519Z" fill="#DDDDDD"/>
<path d="M425.733 134.326L387.698 130.998L387.328 135.232L425.363 138.56L425.733 134.326Z" fill="#DDDDDD"/>
<path d="M376.336 120.265L338.302 116.937L337.931 121.171L375.966 124.499L376.336 120.265Z" fill="#898192"/>
<path d="M375.488 129.914L337.453 126.587L337.083 130.82L375.117 134.148L375.488 129.914Z" fill="#898192"/>
<path d="M326.163 117.327L287.983 113.891L287.601 118.141L325.781 121.577L326.163 117.327Z" fill="#DDDDDD"/>
<path d="M324.711 125.445L286.677 122.118L286.306 126.352L324.341 129.679L324.711 125.445Z" fill="#DDDDDD"/>
<path d="M339.148 81.986C342.73 71.8357 337.406 60.703 327.256 57.1205C317.105 53.538 305.972 58.8623 302.39 69.0127C298.807 79.1631 304.132 90.2958 314.282 93.8783C324.433 97.4607 335.565 92.1364 339.148 81.986Z" fill="#E2DFFE"/>
<path d="M367.951 83.3091L324.938 79.5232L323.908 91.218L366.922 95.0039L367.951 83.3091Z" fill="#E2DFFE"/>
<path d="M329.343 78.1L343.483 57.92L353.893 80.25L329.343 78.1Z" fill="#8CABEF"/>
<path d="M102.214 90.56L249.494 37.56C250.857 37.0688 252.358 37.1245 253.682 37.7155C255.006 38.3064 256.049 39.3867 256.594 40.73L295.594 136.73C296.327 138.572 296.683 140.542 296.642 142.523C296.6 144.505 296.162 146.459 295.353 148.268C294.544 150.078 293.38 151.707 291.93 153.059C290.481 154.411 288.775 155.459 286.914 156.14L145.024 208.26C140.734 209.837 136.01 209.75 131.781 208.018C127.552 206.286 124.124 203.033 122.174 198.9L88.4337 127.38C88.0645 126.599 87.8587 125.751 87.829 124.888C87.7992 124.025 87.9462 123.165 88.2608 122.36C88.5754 121.556 89.0511 120.824 89.6586 120.21C90.2661 119.596 90.9927 119.113 91.7937 118.79L105.014 113.45L98.8937 97.89C98.6193 97.1917 98.4877 96.4455 98.5067 95.6955C98.5258 94.9454 98.6951 94.2069 99.0047 93.5234C99.3142 92.84 99.7577 92.2256 100.309 91.7166C100.86 91.2076 101.508 90.8143 102.214 90.56Z" fill="#FFFDFF"/>
<path d="M105.014 113.45L91.7937 118.79C90.9927 119.113 90.2661 119.596 89.6586 120.21C89.0511 120.824 88.5754 121.556 88.2608 122.36C87.9462 123.165 87.7992 124.025 87.829 124.888C87.8587 125.751 88.0645 126.599 88.4337 127.38L122.174 198.9C123.631 201.995 125.928 204.618 128.804 206.47C143.254 203.86 134.804 183.28 134.804 183.28L105.014 113.45Z" fill="#D0CDD3"/>
<path d="M171.743 114.82L123.896 134.113L143.189 181.96L191.036 162.667L171.743 114.82Z" fill="#E2DFFE"/>
<path d="M184.18 145.64L136.333 164.933L143.195 181.951L191.042 162.659L184.18 145.64Z" fill="#89A6EB"/>
<path d="M144.554 155.46L178.844 132.44L184.174 145.65L146.694 160.76L144.554 155.46Z" fill="#5D66D3"/>
<path d="M157.063 156.58L132.043 154.33L136.323 164.94L157.063 156.58Z" fill="#8CABEF"/>
<path d="M149.963 138.97C150.433 140.137 150.547 141.416 150.29 142.647C150.033 143.879 149.416 145.006 148.519 145.887C147.621 146.768 146.482 147.363 145.246 147.597C144.011 147.83 142.733 147.693 141.576 147.201C140.418 146.708 139.433 145.884 138.744 144.832C138.055 143.78 137.693 142.547 137.704 141.289C137.716 140.032 138.1 138.806 138.808 137.766C139.516 136.727 140.517 135.921 141.683 135.45C143.248 134.821 144.999 134.838 146.551 135.498C148.103 136.158 149.33 137.407 149.963 138.97Z" fill="#FF151F"/>
<path d="M212.187 98.5136L176.777 112.791L178.329 116.64L213.739 102.363L212.187 98.5136Z" fill="#DDDDDD"/>
<path d="M215.717 107.278L180.307 121.556L181.859 125.405L217.268 111.127L215.717 107.278Z" fill="#DDDDDD"/>
<path d="M219.259 116.038L183.85 130.316L185.402 134.164L220.811 119.887L219.259 116.038Z" fill="#DDDDDD"/>
<path d="M222.783 124.811L187.373 139.089L188.925 142.938L224.335 128.66L222.783 124.811Z" fill="#DDDDDD"/>
<path d="M226.306 133.551L190.896 147.829L192.448 151.678L227.858 137.4L226.306 133.551Z" fill="#DDDDDD"/>
<path d="M229.848 142.321L194.438 156.599L195.99 160.448L231.4 146.17L229.848 142.321Z" fill="#DDDDDD"/>
<path d="M257.096 80.4031L221.687 94.6808L223.238 98.5298L258.648 84.252L257.096 80.4031Z" fill="#DDDDDD"/>
<path d="M260.63 89.1767L225.22 103.454L226.772 107.303L262.182 93.0256L260.63 89.1767Z" fill="#DDDDDD"/>
<path d="M264.173 97.9366L228.763 112.214L230.315 116.063L265.724 101.785L264.173 97.9366Z" fill="#DDDDDD"/>
<path d="M267.696 106.71L232.286 120.988L233.838 124.837L269.248 110.559L267.696 106.71Z" fill="#DDDDDD"/>
<path d="M271.224 115.437L235.814 129.714L237.366 133.563L272.776 119.286L271.224 115.437Z" fill="#DDDDDD"/>
<path d="M274.758 124.21L239.348 138.488L240.9 142.337L276.309 128.059L274.758 124.21Z" fill="#DDDDDD"/>
<path d="M236.452 158.695L201.042 172.973L202.594 176.822L238.004 162.544L236.452 158.695Z" fill="#DDDDDD"/>
<path d="M183.581 180.009L148.171 194.287L149.723 198.136L185.133 183.858L183.581 180.009Z" fill="#DDDDDD"/>
<path d="M252.497 68.9925L119.297 122.701L120.849 126.549L254.048 72.8414L252.497 68.9925Z" fill="#DDDDDD"/>
<path d="M281.365 140.594L245.955 154.871L247.507 158.72L282.917 144.443L281.365 140.594Z" fill="#DDDDDD"/>
<path d="M114.993 163.13L124.573 159.26L122.943 155.45L113.443 159.28L114.993 163.13Z" fill="#DDDDDD"/>
<path d="M118.513 171.86L128.273 167.92L126.643 164.11L116.963 168.01L118.513 171.86Z" fill="#DDDDDD"/>
<path d="M111.453 154.36L120.853 150.57L119.223 146.75L109.903 150.51L111.453 154.36Z" fill="#DDDDDD"/>
<path d="M104.383 136.82L113.433 133.17L111.803 129.36L102.833 132.97L104.383 136.82Z" fill="#DDDDDD"/>
<path d="M130.353 172.81L120.493 176.78L122.043 180.63L131.983 176.62L130.353 172.81Z" fill="#DDDDDD"/>
<path d="M107.923 145.59L117.143 141.87L115.513 138.05L106.373 141.74L107.923 145.59Z" fill="#DDDDDD"/>
<path d="M471.964 152.44L448.354 146.11L454.684 169.72L459.624 164.79L469.854 175.02L477.264 167.61L467.024 157.38L471.964 152.44Z" fill="white"/>
<path d="M375.573 166.05L378.473 157.56C378.643 157.62 396.583 163.63 410.283 161.12C415.523 160.12 419.973 154.5 420.453 150.12C420.733 147.55 419.763 145.94 417.313 144.91C413.093 143.14 406.623 145.99 404.683 147.13L400.133 139.4C401.293 138.71 411.723 132.83 420.783 136.64C423.639 137.72 426.044 139.737 427.603 142.363C429.162 144.988 429.783 148.066 429.363 151.09C428.363 159.92 420.563 168.4 411.893 169.99C395.883 172.88 376.403 166.33 375.573 166.05Z" fill="#FF151F"/>
<path d="M398.303 161.54C391.57 160.936 384.923 159.595 378.483 157.54L375.583 166.03C378.461 166.973 381.385 167.771 384.343 168.42C389.318 166.847 394.025 164.527 398.303 161.54Z" fill="#D81B34"/>
<path d="M400.133 139.36L404.683 147.09C407.469 145.518 410.564 144.569 413.753 144.31C414.61 142.752 415.384 141.15 416.073 139.51L417.683 135.67C409.493 134.07 401.163 138.75 400.133 139.36Z" fill="#D81B34"/>
<path d="M344.983 164.21C332.478 158.944 322.575 148.93 317.451 136.366C312.326 123.803 312.399 109.72 317.653 97.21L319.903 91.87L414.253 131.57L412.003 136.91C406.734 149.416 396.713 159.317 384.145 164.437C371.577 169.556 357.491 169.475 344.983 164.21Z" fill="#FF151F"/>
<path opacity="0.2" d="M332.813 103.47L335.483 99.47L326.543 93.47L323.873 97.47C320.777 102.065 318.617 107.225 317.516 112.656C316.415 118.086 316.395 123.68 317.456 129.118C318.517 134.556 320.64 139.732 323.702 144.35C326.764 148.967 330.706 152.936 335.303 156.03C336.802 157.033 338.361 157.942 339.973 158.75C332.262 151.982 327.282 142.636 325.964 132.461C324.646 122.286 327.081 111.979 332.813 103.47Z" fill="#FFFDFF"/>
<path opacity="0.2" d="M395.573 135.7L397.343 131.26L407.343 135.26L405.573 139.7C403.523 144.848 400.48 149.542 396.616 153.514C392.752 157.486 388.144 160.657 383.054 162.848C377.964 165.039 372.493 166.205 366.952 166.281C361.412 166.357 355.911 165.34 350.763 163.29C349.09 162.615 347.46 161.836 345.883 160.96C355.821 163.512 366.347 162.354 375.493 157.705C384.64 153.055 391.778 145.232 395.573 135.7Z" fill="#FFFDFF"/>
<path d="M414.584 132.616C418.196 124.095 400.043 108.251 374.038 97.2269C348.034 86.2032 324.024 84.1742 320.412 92.6951C316.8 101.216 334.953 117.06 360.958 128.084C386.962 139.107 410.971 141.136 414.584 132.616Z" fill="#FF151F"/>
<path d="M406.125 128.114C408.644 122.128 393.206 109.919 371.642 100.846C350.078 91.7727 330.556 89.2703 328.037 95.2568C325.518 101.243 340.956 113.452 362.52 122.525C384.084 131.598 403.606 134.101 406.125 128.114Z" fill="#CBCACB"/>
<g opacity="0.2">
<path opacity="0.2" d="M421.873 162C421.762 161.951 421.655 161.894 421.553 161.83C421.303 161.674 421.087 161.47 420.916 161.23C420.745 160.99 420.623 160.719 420.557 160.432C420.491 160.145 420.482 159.848 420.532 159.558C420.581 159.267 420.686 158.989 420.843 158.74C427.413 148.22 419.393 142.44 419.043 142.2C418.785 142.038 418.562 141.825 418.389 141.574C418.215 141.323 418.095 141.039 418.035 140.74C417.974 140.441 417.975 140.133 418.038 139.834C418.1 139.536 418.223 139.253 418.398 139.003C418.573 138.754 418.797 138.542 419.056 138.382C419.316 138.221 419.605 138.115 419.907 138.07C420.208 138.025 420.516 138.041 420.811 138.119C421.106 138.196 421.382 138.333 421.623 138.52C421.733 138.6 433.443 147.03 424.623 161.12C424.34 161.566 423.91 161.898 423.408 162.059C422.905 162.22 422.362 162.199 421.873 162Z" fill="#FFFDFF"/>
</g>
<path d="M328.214 98.69C330.794 105.19 344.514 114.95 362.524 122.53C376.394 128.37 389.414 131.53 397.614 131.37L397.384 131.26C389.834 128.35 373.844 116.95 367.774 104.26C364.284 96.96 364.264 83.86 359.504 82.74C354.744 81.62 355.434 92.03 355.434 92.03C353.284 89.3322 352.011 86.0419 351.784 82.6C351.514 77.03 353.614 68.16 348.424 65.69C343.234 63.22 342.424 69.56 339.844 71.56C337.264 73.56 336.224 68.31 335.384 62.65C334.544 56.99 333.804 49.55 327.764 50.21C321.724 50.87 321.924 64.51 323.184 76.94C323.93 84.3741 325.621 91.6829 328.214 98.69Z" fill="#6F4C61"/>
<path d="M312.903 84.97C315.571 84.97 317.733 82.8075 317.733 80.14C317.733 77.4725 315.571 75.31 312.903 75.31C310.236 75.31 308.073 77.4725 308.073 80.14C308.073 82.8075 310.236 84.97 312.903 84.97Z" fill="#6F4C61"/>
<path d="M378.573 85.14C378.573 85.9311 378.339 86.7045 377.899 87.3623C377.46 88.0201 376.835 88.5328 376.104 88.8355C375.373 89.1383 374.569 89.2175 373.793 89.0632C373.017 88.9088 372.304 88.5279 371.745 87.9684C371.185 87.409 370.804 86.6963 370.65 85.9204C370.496 85.1445 370.575 84.3402 370.878 83.6093C371.18 82.8784 371.693 82.2537 372.351 81.8141C373.009 81.3746 373.782 81.14 374.573 81.14C375.634 81.14 376.652 81.5614 377.402 82.3116C378.152 83.0617 378.573 84.0791 378.573 85.14Z" fill="#6F4C61"/>
<path d="M357.863 55.14C357.863 55.7334 357.687 56.3134 357.358 56.8067C357.028 57.3001 356.559 57.6846 356.011 57.9117C355.463 58.1387 354.86 58.1981 354.278 58.0824C353.696 57.9666 353.161 57.6809 352.742 57.2613C352.322 56.8418 352.037 56.3072 351.921 55.7253C351.805 55.1433 351.865 54.5401 352.092 53.992C352.319 53.4438 352.703 52.9753 353.197 52.6456C353.69 52.316 354.27 52.14 354.863 52.14C355.659 52.14 356.422 52.4561 356.985 53.0187C357.547 53.5813 357.863 54.3444 357.863 55.14Z" fill="#6F4C61"/>
<path d="M324.703 4C324.703 4.79113 324.469 5.56449 324.029 6.22228C323.589 6.88008 322.965 7.39277 322.234 7.69552C321.503 7.99827 320.699 8.07748 319.923 7.92314C319.147 7.7688 318.434 7.38784 317.875 6.82843C317.315 6.26902 316.934 5.55628 316.78 4.78036C316.626 4.00443 316.705 3.20017 317.008 2.46927C317.31 1.73836 317.823 1.11364 318.481 0.674118C319.139 0.234592 319.912 0 320.703 0C321.764 0 322.781 0.421424 323.532 1.17157C324.282 1.92172 324.703 2.93913 324.703 4Z" fill="#6F4C61"/>
<path d="M341.103 28.5C341.109 29.7651 340.739 31.0035 340.041 32.0582C339.342 33.113 338.346 33.9367 337.179 34.4249C336.012 34.9132 334.727 35.044 333.485 34.8009C332.244 34.5577 331.102 33.9515 330.205 33.059C329.309 32.1666 328.697 31.0281 328.448 29.7877C328.199 28.5474 328.324 27.261 328.807 26.0916C329.29 24.9223 330.109 23.9225 331.16 23.219C332.211 22.5156 333.448 22.14 334.713 22.14C336.403 22.14 338.024 22.8091 339.221 24.001C340.419 25.1929 341.095 26.8105 341.103 28.5Z" fill="#6F4C61"/>
<path opacity="0.3" d="M325.804 72.61C325.804 72.61 324.444 65.18 325.144 60.55C325.844 55.92 327.504 54.11 328.864 56.28C330.224 58.45 329.144 67 328.864 70.44C328.584 73.88 326.574 75.77 325.804 72.61Z" fill="#FFFDFF"/>
<path opacity="0.3" d="M327.904 81.59C328.809 81.59 329.544 80.8557 329.544 79.95C329.544 79.0442 328.809 78.31 327.904 78.31C326.998 78.31 326.264 79.0442 326.264 79.95C326.264 80.8557 326.998 81.59 327.904 81.59Z" fill="#FFFDFF"/>
<path opacity="0.3" d="M339.453 76.05C339.593 75.84 342.533 70.93 344.283 71.77C346.033 72.61 344.983 76.02 341.863 78.31C338.743 80.6 338.323 77.71 339.453 76.05Z" fill="#FFFDFF"/>
<path opacity="0.3" d="M363.573 100.94C364.46 103.606 365.641 106.165 367.093 108.57C369.043 111.45 370.653 112.78 368.623 114.68C366.593 116.58 363.853 112.92 362.103 108.51C360.353 104.1 358.593 98.34 360.353 97.29C362.113 96.24 362.573 98.27 363.573 100.94Z" fill="#FFFDFF"/>
<path opacity="0.3" d="M361.273 91.84C361.273 91.84 362.113 88.69 361.043 87.71C359.973 86.73 359.173 87.29 358.803 89.58C358.433 91.87 360.463 93.92 361.273 91.84Z" fill="#FFFDFF"/>
<path opacity="0.3" d="M310.773 80.79C311.74 80.79 312.523 80.0065 312.523 79.04C312.523 78.0735 311.74 77.29 310.773 77.29C309.807 77.29 309.023 78.0735 309.023 79.04C309.023 80.0065 309.807 80.79 310.773 80.79Z" fill="#FFFDFF"/>
<path opacity="0.3" d="M319.963 3.77C320.659 3.77 321.223 3.20588 321.223 2.51C321.223 1.81412 320.659 1.25 319.963 1.25C319.267 1.25 318.703 1.81412 318.703 2.51C318.703 3.20588 319.267 3.77 319.963 3.77Z" fill="#FFFDFF"/>
<path opacity="0.3" d="M335.573 26.72C335.573 27.1986 335.431 27.6665 335.166 28.0645C334.9 28.4625 334.522 28.7726 334.079 28.9558C333.637 29.139 333.151 29.1869 332.681 29.0935C332.212 29.0001 331.781 28.7697 331.442 28.4312C331.104 28.0928 330.873 27.6616 330.78 27.1921C330.687 26.7227 330.734 26.2361 330.918 25.7939C331.101 25.3517 331.411 24.9738 331.809 24.7079C332.207 24.4419 332.675 24.3 333.153 24.3C333.471 24.3 333.786 24.3626 334.079 24.4842C334.373 24.6058 334.64 24.7841 334.865 25.0088C335.089 25.2335 335.268 25.5003 335.389 25.7939C335.511 26.0875 335.573 26.4022 335.573 26.72Z" fill="#FFFDFF"/>
<path opacity="0.3" d="M355.113 54.14C355.113 54.3378 355.055 54.5311 354.945 54.6956C354.835 54.86 354.679 54.9882 354.496 55.0639C354.313 55.1396 354.112 55.1594 353.918 55.1208C353.724 55.0822 353.546 54.987 353.406 54.8471C353.266 54.7073 353.171 54.5291 353.132 54.3351C353.094 54.1411 353.114 53.9401 353.189 53.7573C353.265 53.5746 353.393 53.4184 353.558 53.3085C353.722 53.1987 353.916 53.14 354.113 53.14C354.379 53.14 354.633 53.2454 354.82 53.4329C355.008 53.6204 355.113 53.8748 355.113 54.14Z" fill="#FFFDFF"/>
<path opacity="0.3" d="M374.783 83.9C374.783 84.171 374.703 84.4359 374.552 84.6612C374.402 84.8865 374.188 85.062 373.937 85.1657C373.687 85.2694 373.411 85.2966 373.146 85.2437C372.88 85.1908 372.636 85.0604 372.444 84.8688C372.253 84.6772 372.122 84.4331 372.069 84.1673C372.016 83.9015 372.044 83.6261 372.147 83.3757C372.251 83.1254 372.427 82.9114 372.652 82.7609C372.877 82.6104 373.142 82.53 373.413 82.53C373.776 82.53 374.125 82.6744 374.382 82.9313C374.639 83.1882 374.783 83.5367 374.783 83.9Z" fill="#FFFDFF"/>
<path d="M193.624 14.83H153.784C152.519 14.83 151.305 15.3326 150.411 16.2271C149.516 17.1217 149.014 18.3349 149.014 19.6V47.14C149.014 48.4051 149.516 49.6184 150.411 50.5129C151.305 51.4075 152.519 51.91 153.784 51.91H169.264L173.704 59.6L178.144 51.91H193.624C194.889 51.91 196.102 51.4075 196.997 50.5129C197.891 49.6184 198.394 48.4051 198.394 47.14V19.6C198.394 18.3349 197.891 17.1217 196.997 16.2271C196.102 15.3326 194.889 14.83 193.624 14.83Z" fill="#FFFDFF"/>
<path d="M186.763 22.64C185.906 21.7819 184.888 21.1012 183.768 20.6367C182.647 20.1723 181.446 19.9332 180.233 19.9332C179.02 19.9332 177.819 20.1723 176.699 20.6367C175.578 21.1012 174.561 21.7819 173.703 22.64C171.971 20.9081 169.623 19.9352 167.173 19.9352C164.724 19.9352 162.375 20.9081 160.643 22.64C158.911 24.3719 157.938 26.7208 157.938 29.17C157.938 31.6192 158.911 33.9681 160.643 35.7L173.703 48.76L186.763 35.7C187.621 34.8428 188.302 33.8249 188.767 32.7044C189.231 31.5839 189.47 30.3829 189.47 29.17C189.47 27.9571 189.231 26.7561 188.767 25.6356C188.302 24.5151 187.621 23.4972 186.763 22.64Z" fill="#FF151F"/>
<path d="M60.79 120.944H8C5.87827 120.944 3.84343 121.787 2.34314 123.287C0.842849 124.787 0 126.822 0 128.944V155.174C0 157.296 0.842849 159.33 2.34314 160.831C3.84343 162.331 5.87827 163.174 8 163.174H13V172.954L22.78 163.174H60.78C62.9017 163.174 64.9366 162.331 66.4369 160.831C67.9371 159.33 68.78 157.296 68.78 155.174V128.974C68.7839 127.922 68.5802 126.879 68.1806 125.906C67.781 124.932 67.1932 124.047 66.451 123.301C65.7088 122.555 64.8268 121.963 63.8553 121.559C62.8839 121.154 61.8423 120.945 60.79 120.944Z" fill="#FFFDFF"/>
<path d="M22.1803 142.074C22.1784 143.045 21.8887 143.993 21.348 144.799C20.8073 145.605 20.0398 146.233 19.1424 146.603C18.2451 146.973 17.2581 147.069 16.3064 146.878C15.3546 146.688 14.4806 146.219 13.7949 145.532C13.1093 144.845 12.6426 143.97 12.454 143.018C12.2653 142.066 12.3631 141.079 12.7351 140.183C13.107 139.286 13.7363 138.52 14.5435 137.981C15.3508 137.442 16.2997 137.154 17.2703 137.154C17.916 137.154 18.5553 137.281 19.1516 137.529C19.748 137.776 20.2897 138.139 20.7458 138.596C21.2018 139.053 21.5633 139.595 21.8095 140.192C22.0556 140.789 22.1817 141.428 22.1803 142.074Z" fill="#5D66D3"/>
<path d="M34.3905 146.984C37.1022 146.984 39.3005 144.786 39.3005 142.074C39.3005 139.362 37.1022 137.164 34.3905 137.164C31.6788 137.164 29.4805 139.362 29.4805 142.074C29.4805 144.786 31.6788 146.984 34.3905 146.984Z" fill="#5D66D3"/>
<path d="M56.4298 142.074C56.4298 143.047 56.1413 143.998 55.6007 144.807C55.0601 145.616 54.2916 146.247 53.3926 146.619C52.4936 146.992 51.5044 147.089 50.55 146.899C49.5956 146.71 48.719 146.241 48.0309 145.553C47.3428 144.865 46.8742 143.988 46.6844 143.034C46.4945 142.079 46.592 141.09 46.9644 140.191C47.3367 139.292 47.9673 138.524 48.7764 137.983C49.5855 137.442 50.5368 137.154 51.5099 137.154C52.1563 137.153 52.7967 137.279 53.3942 137.526C53.9917 137.773 54.5346 138.135 54.9918 138.592C55.4489 139.049 55.8112 139.592 56.058 140.19C56.3048 140.787 56.4312 141.427 56.4298 142.074Z" fill="#5D66D3"/>
</svg>
