<svg width="384" height="359" viewBox="0 0 384 359" fill="none" xmlns="http://www.w3.org/2000/svg">
<path d="M272.666 305.633C271.169 306.575 269.618 307.429 268.022 308.19C267.832 308.265 267.622 308.268 267.431 308.199C267.239 308.129 267.08 307.992 266.983 307.812C266.821 307.72 266.694 307.575 266.624 307.402C266.554 307.229 266.544 307.038 266.596 306.858C266.648 306.679 266.759 306.522 266.911 306.414C267.063 306.305 267.247 306.251 267.433 306.259C268.969 305.532 270.46 304.712 271.895 303.803C272.085 303.727 272.295 303.724 272.486 303.794C272.678 303.864 272.837 304.001 272.934 304.18C273.127 304.216 273.297 304.326 273.408 304.488C273.519 304.649 273.562 304.848 273.526 305.041C273.491 305.233 273.38 305.404 273.219 305.515C273.057 305.626 272.859 305.669 272.666 305.633ZM281.321 299.8C281.167 299.887 280.988 299.915 280.815 299.879C280.643 299.843 280.489 299.745 280.383 299.605C280.223 299.543 280.091 299.427 280.008 299.277C279.925 299.127 279.898 298.953 279.932 298.785C281.258 297.682 282.501 296.482 283.651 295.195C283.668 294.997 283.763 294.813 283.915 294.685C284.066 294.557 284.263 294.495 284.461 294.511C284.659 294.528 284.843 294.623 284.971 294.775C285.099 294.927 285.162 295.124 285.145 295.322C285.231 295.341 285.312 295.378 285.383 295.431C285.454 295.485 285.513 295.552 285.555 295.63C285.598 295.707 285.624 295.793 285.631 295.881C285.638 295.969 285.626 296.058 285.596 296.141C284.424 297.465 283.168 298.711 281.836 299.873L281.321 299.8ZM290.839 287.559C290.776 287.647 290.694 287.719 290.599 287.771C290.505 287.823 290.4 287.853 290.292 287.86C290.19 287.851 290.091 287.818 290.005 287.762C289.918 287.706 289.847 287.629 289.797 287.539C289.748 287.449 289.721 287.348 289.72 287.245C289.719 287.142 289.743 287.04 289.791 286.949C290.479 285.398 291.069 283.805 291.556 282.18C291.582 282.087 291.627 282 291.687 281.924C291.747 281.848 291.821 281.785 291.906 281.738C291.991 281.692 292.084 281.662 292.181 281.652C292.277 281.642 292.374 281.651 292.467 281.679C292.669 281.744 292.839 281.884 292.942 282.07C293.045 282.256 293.072 282.475 293.018 282.681C292.588 284.404 291.951 286.07 291.121 287.641L290.839 287.559ZM294.28 272.255C294.187 272.229 294.1 272.185 294.024 272.125C293.948 272.065 293.885 271.99 293.838 271.905C293.791 271.821 293.762 271.727 293.752 271.631C293.742 271.535 293.751 271.438 293.779 271.345C293.658 269.658 293.374 267.986 292.93 266.354C293.005 266.205 293.124 266.082 293.27 266.002C293.416 265.922 293.583 265.887 293.749 265.903C293.807 266.006 293.842 266.121 293.852 266.239C293.863 266.357 293.847 266.476 293.808 266.587C293.768 266.699 293.705 266.801 293.623 266.886C293.54 266.972 293.441 267.039 293.331 267.082C293.778 268.793 294.066 270.542 294.189 272.306C294.068 272.436 293.908 272.524 293.734 272.556L294.28 272.255ZM288.773 257.725C288.595 257.825 288.387 257.856 288.188 257.812C287.989 257.769 287.813 257.654 287.693 257.489C286.961 255.955 286.141 254.465 285.237 253.027C285.16 252.959 285.101 252.872 285.065 252.776C285.03 252.679 285.019 252.575 285.033 252.473C285.047 252.371 285.087 252.275 285.148 252.192C285.209 252.109 285.289 252.042 285.382 251.998C285.837 251.747 286.111 251.596 286.502 252.093C287.42 253.564 288.257 255.084 289.009 256.646C289.072 256.73 289.117 256.826 289.139 256.929C289.162 257.031 289.162 257.137 289.139 257.24C289.117 257.343 289.072 257.439 289.009 257.523C288.946 257.607 288.865 257.676 288.773 257.725ZM279.035 245.643C278.893 245.712 278.733 245.738 278.576 245.72C278.419 245.701 278.27 245.638 278.147 245.538C276.895 244.369 275.578 243.272 274.202 242.252C274.109 242.226 274.022 242.181 273.946 242.121C273.87 242.061 273.807 241.987 273.76 241.902C273.713 241.817 273.684 241.724 273.674 241.627C273.664 241.531 273.673 241.434 273.701 241.341C273.773 241.166 273.902 241.022 274.068 240.931C274.233 240.839 274.425 240.807 274.611 240.84C276.005 241.891 277.339 243.018 278.607 244.217C278.771 244.302 278.906 244.434 278.995 244.597C279.085 244.759 279.124 244.944 279.108 245.128L279.035 245.643ZM266.084 236.99C265.942 237.15 265.749 237.256 265.538 237.291L260.892 235.103C260.798 235.077 260.711 235.032 260.635 234.972C260.559 234.912 260.496 234.837 260.45 234.753C260.403 234.668 260.374 234.575 260.363 234.478C260.353 234.382 260.362 234.285 260.39 234.192C260.455 233.989 260.595 233.819 260.781 233.717C260.968 233.614 261.186 233.587 261.392 233.641L266.129 235.779C266.319 235.861 266.476 236.005 266.576 236.186C266.676 236.367 266.713 236.576 266.681 236.781L266.084 236.99ZM251.709 231.14C251.646 231.227 251.564 231.3 251.469 231.352C251.375 231.404 251.27 231.434 251.162 231.441L246.261 229.867C246.059 229.802 245.889 229.662 245.786 229.476C245.684 229.289 245.656 229.071 245.71 228.865C245.795 228.701 245.927 228.566 246.089 228.476C246.251 228.387 246.436 228.348 246.62 228.364L251.663 229.978C251.756 230.004 251.843 230.049 251.919 230.109C251.995 230.169 252.058 230.244 252.105 230.328C252.151 230.413 252.181 230.506 252.191 230.603C252.201 230.699 252.192 230.796 252.164 230.889C252.126 230.972 252.07 231.046 251.999 231.105C251.929 231.164 251.847 231.207 251.759 231.231L251.709 231.14ZM236.751 227.034L231.727 225.883C231.634 225.857 231.547 225.813 231.471 225.753C231.395 225.693 231.332 225.618 231.285 225.533C231.239 225.449 231.209 225.355 231.199 225.259C231.189 225.163 231.198 225.065 231.226 224.973C231.234 224.87 231.268 224.771 231.324 224.685C231.38 224.599 231.456 224.527 231.547 224.478C231.637 224.428 231.738 224.402 231.841 224.4C231.944 224.399 232.045 224.424 232.136 224.471C233.822 224.73 235.466 225.13 237.251 225.571C237.454 225.636 237.624 225.776 237.727 225.962C237.829 226.149 237.856 226.367 237.803 226.573L236.751 227.034ZM221.265 223.693L216.169 223.057C216.071 223.049 215.975 223.021 215.888 222.976C215.8 222.931 215.723 222.869 215.659 222.794C215.596 222.718 215.548 222.631 215.518 222.537C215.488 222.444 215.477 222.345 215.485 222.247C215.494 222.149 215.521 222.053 215.567 221.966C215.612 221.878 215.674 221.801 215.749 221.737C215.824 221.674 215.911 221.626 216.005 221.596C216.099 221.566 216.198 221.555 216.296 221.563C217.931 221.731 219.657 221.849 221.483 222.149C221.658 222.221 221.803 222.351 221.894 222.516C221.985 222.682 222.017 222.873 221.985 223.059C221.933 223.22 221.839 223.364 221.712 223.475C221.586 223.587 221.431 223.662 221.265 223.693ZM205.771 222.492L205.316 222.743L200.703 222.554C200.528 222.481 200.383 222.352 200.292 222.186C200.201 222.021 200.169 221.829 200.201 221.643C200.21 221.54 200.243 221.442 200.299 221.355C200.355 221.269 200.432 221.198 200.522 221.148C200.612 221.098 200.713 221.072 200.816 221.071C200.919 221.07 201.021 221.094 201.112 221.142L205.634 221.381L206.181 221.08C206.355 221.153 206.5 221.282 206.591 221.448C206.682 221.613 206.714 221.805 206.682 221.991C206.693 222.198 206.626 222.401 206.494 222.561C206.363 222.721 206.177 222.826 205.972 222.856L205.771 222.492ZM190.3 220.686C188.656 220.286 187.052 219.745 185.217 219.213C185.014 219.148 184.844 219.008 184.742 218.822C184.639 218.635 184.612 218.417 184.665 218.211C184.674 218.108 184.708 218.01 184.764 217.923C184.82 217.837 184.896 217.766 184.986 217.716C185.076 217.666 185.177 217.64 185.28 217.639C185.383 217.638 185.485 217.662 185.576 217.71C187.321 218.292 188.965 218.692 190.468 219.051C190.67 219.116 190.84 219.256 190.943 219.442C191.046 219.628 191.073 219.847 191.019 220.053C191.019 220.053 190.683 220.95 190.501 221.05L190.3 220.686ZM175.528 215.409C175.465 215.497 175.384 215.569 175.289 215.621C175.195 215.673 175.09 215.704 174.982 215.71C173.279 214.987 171.807 214.254 170.286 213.431C170.096 213.348 169.939 213.205 169.839 213.024C169.739 212.842 169.703 212.633 169.734 212.429C169.799 212.226 169.939 212.056 170.125 211.954C170.312 211.851 170.53 211.824 170.736 211.877C172.116 212.66 173.679 213.343 175.291 214.116C175.494 214.181 175.664 214.321 175.766 214.507C175.869 214.693 175.896 214.912 175.843 215.118L175.528 215.409ZM162.008 207.664C161.931 207.762 161.835 207.844 161.725 207.904C161.616 207.964 161.495 208.002 161.371 208.015C159.931 206.909 158.542 205.894 157.244 204.829C155.945 203.763 156.792 204.009 156.742 203.918C156.768 203.825 156.813 203.738 156.873 203.662C156.933 203.586 157.007 203.523 157.092 203.476C157.177 203.429 157.27 203.4 157.367 203.39C157.463 203.38 157.56 203.389 157.653 203.417C158.953 204.523 160.315 205.556 161.73 206.512C161.823 206.538 161.91 206.582 161.986 206.642C162.062 206.702 162.125 206.777 162.172 206.862C162.219 206.947 162.248 207.04 162.258 207.136C162.268 207.232 162.259 207.33 162.231 207.422L162.008 207.664ZM150.295 197.381C150.153 197.45 149.993 197.477 149.836 197.458C149.679 197.44 149.53 197.377 149.407 197.276C148.605 195.819 147.115 194.622 145.99 193.225C145.863 193.06 145.802 192.853 145.819 192.646C145.837 192.438 145.932 192.245 146.085 192.104C146.25 191.977 146.456 191.916 146.664 191.934C146.871 191.951 147.065 192.046 147.205 192.199C148.058 193.747 149.406 194.904 150.573 196.16C150.7 196.325 150.761 196.531 150.743 196.739C150.725 196.946 150.631 197.14 150.477 197.281L150.295 197.381ZM141.437 185.17C141.24 185.253 141.02 185.266 140.814 185.206C140.609 185.147 140.43 185.018 140.307 184.843C139.555 183.477 138.753 182.02 138.001 180.654C137.249 179.288 137.6 179.925 138.379 179.615C138.47 179.564 138.572 179.533 138.676 179.524C138.781 179.515 138.886 179.529 138.985 179.565C139.084 179.601 139.173 179.658 139.248 179.732C139.323 179.806 139.38 179.895 139.417 179.993C140.169 181.359 140.921 182.725 141.673 184.091C141.754 184.272 141.774 184.475 141.731 184.669C141.689 184.863 141.586 185.039 141.437 185.17ZM135.424 170.8C135.224 170.833 135.018 170.8 134.839 170.707C134.659 170.613 134.514 170.464 134.426 170.281C133.624 168.824 133.551 166.966 133.154 165.167C133.061 164.998 133.039 164.799 133.092 164.613C133.146 164.428 133.271 164.272 133.44 164.179C133.609 164.086 133.808 164.063 133.994 164.117C134.179 164.171 134.336 164.296 134.429 164.465C135.231 165.922 135.263 167.921 135.742 169.438C135.882 169.627 135.946 169.861 135.921 170.095C135.896 170.329 135.783 170.545 135.606 170.699L135.424 170.8ZM132.494 155.562C132.319 155.49 132.175 155.361 132.083 155.195C131.992 155.03 131.96 154.838 131.993 154.652C131.798 152.894 131.697 151.128 131.69 149.36C131.762 149.185 131.892 149.041 132.057 148.95C132.223 148.858 132.414 148.826 132.601 148.859C132.803 148.923 132.973 149.063 133.076 149.25C133.178 149.436 133.206 149.655 133.152 149.86C133.125 151.536 133.24 153.253 133.354 154.97C133.295 155.105 133.201 155.221 133.082 155.308C132.963 155.394 132.823 155.448 132.676 155.462L132.494 155.562ZM132.897 139.914L132.442 140.165C132.24 140.1 132.069 139.96 131.967 139.774C131.864 139.587 131.837 139.369 131.891 139.163L132.849 134.007C132.914 133.805 133.054 133.635 133.24 133.532C133.427 133.43 133.645 133.402 133.851 133.456C133.944 133.482 134.032 133.526 134.107 133.586C134.183 133.646 134.246 133.721 134.293 133.806C134.34 133.891 134.369 133.984 134.379 134.08C134.389 134.176 134.38 134.274 134.353 134.366L133.435 139.381L132.897 139.914ZM137.286 125.038C137.229 125.132 137.149 125.209 137.053 125.262C136.957 125.315 136.849 125.341 136.74 125.339C136.537 125.274 136.367 125.134 136.265 124.948C136.162 124.762 136.135 124.543 136.188 124.337C136.789 123.057 137.522 121.586 138.327 119.6C138.409 119.41 138.552 119.253 138.734 119.154C138.915 119.054 139.124 119.017 139.329 119.049C139.531 119.113 139.701 119.253 139.804 119.44C139.906 119.626 139.934 119.845 139.88 120.05L137.691 124.697L137.286 125.038ZM143.843 110.867C143.766 110.966 143.669 111.047 143.56 111.107C143.45 111.168 143.33 111.205 143.206 111.218C143.031 111.146 142.886 111.017 142.795 110.851C142.704 110.686 142.672 110.494 142.704 110.308L144.934 105.52C144.96 105.427 145.004 105.34 145.064 105.264C145.124 105.188 145.199 105.125 145.284 105.078C145.369 105.032 145.462 105.002 145.558 104.992C145.654 104.982 145.752 104.991 145.844 105.019C145.938 105.045 146.025 105.089 146.101 105.149C146.177 105.21 146.24 105.284 146.286 105.369C146.333 105.454 146.362 105.547 146.373 105.643C146.383 105.74 146.374 105.837 146.346 105.93L144.207 110.667L143.843 110.867ZM150.532 96.5053C150.475 96.599 150.395 96.6761 150.299 96.7289C150.203 96.7817 150.095 96.8083 149.985 96.8061C149.783 96.7413 149.613 96.6014 149.51 96.4151C149.408 96.2287 149.38 96.0102 149.434 95.8044L151.572 91.0671C151.637 90.8646 151.777 90.6945 151.963 90.5919C152.15 90.4893 152.368 90.4621 152.574 90.5157C152.667 90.5417 152.754 90.586 152.83 90.6461C152.906 90.7062 152.969 90.7808 153.016 90.8656C153.063 90.9504 153.092 91.0437 153.102 91.14C153.112 91.2363 153.103 91.3336 153.075 91.4263C152.484 92.9385 151.71 94.551 150.937 96.1635L150.532 96.5053ZM155.718 81.784C155.528 81.7015 155.371 81.5584 155.271 81.3772C155.171 81.1959 155.134 80.9867 155.166 80.7823C155.44 79.1349 155.514 77.4605 155.387 75.7953C155.459 75.6208 155.589 75.476 155.755 75.3848C155.92 75.2937 156.112 75.2617 156.298 75.294C156.391 75.32 156.478 75.3643 156.554 75.4244C156.63 75.4845 156.693 75.5592 156.74 75.644C156.786 75.7288 156.816 75.822 156.826 75.9183C156.836 76.0146 156.827 76.1119 156.799 76.2046C156.947 77.9948 156.862 79.7966 156.546 81.565C156.436 81.6649 156.303 81.7369 156.158 81.775C156.014 81.8131 155.863 81.8162 155.718 81.784ZM152.888 66.729C152.719 66.8221 152.52 66.8442 152.334 66.7904C152.149 66.7367 151.992 66.6115 151.899 66.4425C151.075 65.0089 150.069 63.6882 148.906 62.5135C148.906 62.5135 148.505 61.7849 148.86 61.3521C148.935 61.2034 149.054 61.0808 149.2 61.0004C149.346 60.9199 149.513 60.8853 149.679 60.901C150.995 62.1765 152.119 63.6365 153.015 65.2351C153.108 65.4042 153.13 65.6033 153.076 65.7887C153.022 65.974 152.897 66.1305 152.728 66.2235L152.888 66.729ZM140.674 57.9081L139.03 57.508C137.817 57.5395 136.603 57.4944 135.396 57.3729C135.221 57.3006 135.076 57.171 134.985 57.0055C134.894 56.84 134.862 56.6484 134.894 56.4622C134.92 56.369 134.965 56.2819 135.025 56.206C135.085 56.1301 135.16 56.0669 135.244 56.0202C135.329 55.9735 135.422 55.9442 135.519 55.9341C135.615 55.9239 135.712 55.933 135.805 55.9609C136.93 56.3122 138.075 56.5931 139.235 56.802L140.788 57.2522C140.99 57.317 141.161 57.4569 141.263 57.6432C141.366 57.8295 141.393 58.0481 141.339 58.2539L140.674 57.9081ZM127.109 51.3739C126.991 51.4146 126.865 51.4281 126.74 51.4133C126.616 51.3985 126.497 51.3559 126.391 51.2885C126.285 51.2211 126.196 51.1308 126.131 51.0242C126.065 50.9176 126.024 50.7975 126.011 50.673C125.46 49.6713 124.908 48.6696 124.307 47.5768C123.705 46.4841 123.705 46.4841 123.454 46.0288C123.467 45.9076 123.51 45.7916 123.579 45.6913C123.648 45.591 123.742 45.5097 123.85 45.4548C124.04 45.3796 124.25 45.3765 124.441 45.4461C124.633 45.5157 124.792 45.6532 124.889 45.8323C124.889 45.8323 125.39 46.743 125.691 47.2894C126.131 48.3101 126.668 49.286 127.295 50.2034C127.383 50.2765 127.448 50.3722 127.485 50.4799C127.522 50.5877 127.528 50.7034 127.504 50.8146C127.479 50.9258 127.425 51.0282 127.347 51.1108C127.268 51.1933 127.169 51.2528 127.059 51.2828L127.109 51.3739Z" fill="#E2DFFE"/>
</svg>
