<svg width="324" height="327" viewBox="0 0 324 327" fill="none" xmlns="http://www.w3.org/2000/svg">
<path d="M254.136 205.406C254.068 205.609 253.932 205.783 253.752 205.898L248.619 205.715C248.523 205.728 248.426 205.722 248.333 205.696C248.239 205.671 248.152 205.627 248.075 205.568C247.999 205.508 247.935 205.434 247.888 205.349C247.841 205.265 247.811 205.172 247.8 205.076C247.78 204.864 247.842 204.652 247.972 204.485C248.103 204.317 248.293 204.206 248.504 204.174L253.7 204.275C253.907 204.276 254.108 204.346 254.271 204.473C254.434 204.601 254.55 204.778 254.602 204.979L254.136 205.406ZM238.618 205.688C238.594 205.793 238.548 205.892 238.481 205.977C238.415 206.062 238.331 206.131 238.234 206.179L233.109 206.662C232.898 206.682 232.686 206.621 232.519 206.49C232.351 206.359 232.24 206.169 232.208 205.958C232.222 205.774 232.29 205.598 232.404 205.452C232.518 205.306 232.672 205.197 232.848 205.139L238.118 204.638C238.214 204.626 238.312 204.632 238.405 204.657C238.499 204.683 238.586 204.726 238.663 204.786C238.739 204.846 238.803 204.92 238.85 205.004C238.897 205.089 238.927 205.182 238.938 205.278C238.935 205.37 238.913 205.46 238.872 205.541C238.831 205.623 238.772 205.695 238.7 205.752L238.618 205.688ZM223.252 207.802L218.181 208.722C218.085 208.735 217.987 208.729 217.894 208.703C217.8 208.678 217.713 208.634 217.637 208.575C217.56 208.515 217.497 208.441 217.449 208.356C217.402 208.272 217.372 208.179 217.361 208.083C217.329 207.985 217.321 207.881 217.338 207.779C217.356 207.678 217.398 207.582 217.461 207.501C217.525 207.42 217.607 207.356 217.701 207.315C217.795 207.273 217.898 207.255 218.001 207.263C219.652 206.838 221.321 206.558 223.136 206.261C223.348 206.241 223.559 206.302 223.727 206.433C223.894 206.564 224.005 206.754 224.037 206.965L223.252 207.802ZM207.701 210.827L202.766 212.25C202.673 212.281 202.574 212.293 202.476 212.286C202.378 212.278 202.282 212.252 202.194 212.208C202.106 212.164 202.028 212.103 201.963 212.028C201.899 211.954 201.85 211.867 201.819 211.774C201.788 211.68 201.776 211.582 201.783 211.484C201.79 211.385 201.816 211.289 201.861 211.202C201.905 211.114 201.966 211.035 202.04 210.971C202.115 210.906 202.201 210.857 202.295 210.826C203.864 210.337 205.497 209.766 207.294 209.322C207.483 209.32 207.667 209.382 207.816 209.498C207.965 209.615 208.069 209.778 208.113 209.962C208.129 210.13 208.099 210.299 208.026 210.451C207.954 210.604 207.842 210.734 207.701 210.827ZM192.986 215.824L192.666 216.233L188.351 217.876C188.162 217.878 187.978 217.816 187.829 217.7C187.68 217.583 187.575 217.42 187.531 217.236C187.499 217.138 187.491 217.034 187.508 216.933C187.526 216.831 187.568 216.736 187.631 216.655C187.695 216.573 187.777 216.509 187.871 216.468C187.965 216.426 188.068 216.409 188.171 216.416L192.423 214.856L192.806 214.365C192.995 214.362 193.179 214.424 193.328 214.541C193.477 214.657 193.582 214.82 193.626 215.004C193.717 215.19 193.735 215.403 193.678 215.602C193.62 215.801 193.49 215.971 193.314 216.08L192.986 215.824ZM178.053 220.254C176.384 220.534 174.697 220.668 172.8 220.901C172.589 220.921 172.377 220.86 172.209 220.729C172.042 220.598 171.931 220.408 171.899 220.197C171.866 220.1 171.858 219.996 171.876 219.894C171.893 219.793 171.936 219.697 171.999 219.616C172.062 219.535 172.145 219.471 172.239 219.429C172.333 219.388 172.436 219.37 172.539 219.378C174.371 219.226 176.04 218.947 177.563 218.685C177.775 218.665 177.987 218.727 178.154 218.858C178.322 218.989 178.433 219.179 178.465 219.389C178.465 219.389 178.509 220.346 178.381 220.51L178.053 220.254ZM162.397 221.219C162.373 221.324 162.327 221.423 162.26 221.508C162.194 221.593 162.11 221.662 162.013 221.711C160.162 221.716 158.521 221.622 156.799 221.464C156.592 221.463 156.391 221.393 156.228 221.266C156.065 221.139 155.949 220.961 155.897 220.76C155.877 220.549 155.939 220.337 156.07 220.17C156.201 220.002 156.391 219.891 156.601 219.859C158.178 220.035 159.883 220.047 161.67 220.124C161.881 220.104 162.093 220.165 162.26 220.296C162.428 220.427 162.539 220.617 162.571 220.827L162.397 221.219ZM146.919 219.422C146.887 219.542 146.83 219.655 146.753 219.754C146.677 219.852 146.581 219.934 146.472 219.995C144.713 219.545 143.036 219.159 141.423 218.691C139.81 218.223 140.686 218.116 140.604 218.052C140.591 217.956 140.597 217.858 140.623 217.765C140.648 217.671 140.692 217.584 140.751 217.508C140.811 217.431 140.885 217.368 140.97 217.32C141.054 217.273 141.147 217.243 141.243 217.232C142.875 217.737 144.533 218.151 146.21 218.472C146.306 218.459 146.403 218.466 146.497 218.491C146.59 218.517 146.678 218.56 146.754 218.62C146.83 218.68 146.894 218.754 146.941 218.838C146.989 218.923 147.018 219.016 147.029 219.112L146.919 219.422ZM132.104 214.581C132 214.7 131.864 214.787 131.712 214.832C131.56 214.877 131.399 214.878 131.246 214.834C129.935 213.811 128.095 213.297 126.51 212.455C126.328 212.354 126.191 212.188 126.125 211.99C126.06 211.793 126.071 211.578 126.156 211.388C126.258 211.206 126.423 211.069 126.621 211.003C126.819 210.938 127.034 210.949 127.224 211.034C128.617 212.122 130.311 212.653 131.878 213.349C132.06 213.451 132.197 213.617 132.263 213.814C132.328 214.012 132.317 214.227 132.232 214.417L132.104 214.581ZM119.154 206.843C119.005 206.997 118.808 207.096 118.595 207.122C118.383 207.148 118.168 207.1 117.986 206.987C116.757 206.028 115.446 205.004 114.217 204.044C112.988 203.085 113.562 203.533 114.156 202.941C114.219 202.858 114.3 202.789 114.393 202.74C114.486 202.691 114.588 202.662 114.693 202.657C114.798 202.651 114.903 202.668 115 202.706C115.098 202.744 115.186 202.804 115.259 202.879C116.488 203.839 117.717 204.799 118.946 205.758C119.091 205.894 119.19 206.072 119.227 206.267C119.264 206.462 119.239 206.664 119.154 206.843ZM107.969 196.001C107.798 196.11 107.596 196.161 107.394 196.146C107.192 196.131 107 196.05 106.847 195.917C105.536 194.893 104.737 193.214 103.664 191.717C103.512 191.598 103.413 191.424 103.39 191.232C103.366 191.041 103.42 190.847 103.539 190.695C103.657 190.543 103.832 190.445 104.023 190.421C104.215 190.397 104.408 190.451 104.56 190.57C105.871 191.593 106.688 193.418 107.725 194.624C107.928 194.742 108.079 194.933 108.148 195.158C108.217 195.382 108.199 195.625 108.097 195.837L107.969 196.001ZM99.2766 183.148C99.0877 183.15 98.9036 183.088 98.7546 182.972C98.6057 182.855 98.5008 182.692 98.4572 182.508C97.5867 180.969 96.7983 179.385 96.0956 177.763C96.0932 177.574 96.1554 177.39 96.2716 177.241C96.3879 177.092 96.5515 176.987 96.7353 176.943C96.947 176.923 97.1584 176.985 97.3261 177.116C97.4937 177.246 97.6048 177.437 97.6366 177.647C98.2719 179.198 99.0531 180.731 99.8344 182.264C99.8328 182.411 99.7922 182.556 99.7167 182.682C99.6412 182.809 99.5334 182.913 99.4045 182.984L99.2766 183.148ZM93.4868 168.604L93.167 169.014C92.9553 169.034 92.7439 168.972 92.5762 168.841C92.4086 168.711 92.2974 168.52 92.2657 168.31L91.1173 163.193C91.0971 162.981 91.1588 162.77 91.2897 162.602C91.4206 162.435 91.6107 162.324 91.821 162.292C91.917 162.279 92.0145 162.286 92.1079 162.311C92.2013 162.336 92.2888 162.38 92.3651 162.44C92.4414 162.499 92.505 162.573 92.5523 162.658C92.5996 162.742 92.6295 162.835 92.6404 162.932L93.7707 167.903L93.4868 168.604ZM91.6647 153.202C91.6495 153.31 91.606 153.413 91.5386 153.499C91.4712 153.585 91.3823 153.652 91.2808 153.693C91.0691 153.714 90.8577 153.652 90.69 153.521C90.5224 153.39 90.4113 153.2 90.3795 152.99C90.4277 151.577 90.5219 149.936 90.4803 147.793C90.4815 147.586 90.5511 147.386 90.6785 147.222C90.8058 147.059 90.9836 146.943 91.184 146.892C91.3958 146.872 91.6072 146.933 91.7748 147.064C91.9425 147.195 92.0536 147.385 92.0853 147.596L91.9026 152.728L91.6647 153.202ZM92.113 137.594C92.0805 137.715 92.0241 137.828 91.9472 137.926C91.8702 138.025 91.7744 138.107 91.6652 138.168C91.4763 138.17 91.2922 138.108 91.1432 137.992C90.9943 137.875 90.8895 137.712 90.8459 137.528L91.0106 132.249C90.9978 132.153 91.0043 132.056 91.0297 131.962C91.0551 131.869 91.0988 131.782 91.1584 131.705C91.2179 131.629 91.2921 131.565 91.3766 131.518C91.4611 131.471 91.5542 131.441 91.6504 131.43C91.7463 131.417 91.8439 131.424 91.9373 131.449C92.0307 131.474 92.1181 131.518 92.1944 131.578C92.2708 131.637 92.3344 131.711 92.3817 131.796C92.429 131.88 92.4589 131.973 92.4697 132.07L92.3689 137.266L92.113 137.594ZM92.6074 121.758C92.5922 121.867 92.5487 121.969 92.4813 122.056C92.414 122.142 92.3251 122.209 92.2236 122.25C92.0119 122.27 91.8004 122.209 91.6328 122.078C91.4652 121.947 91.354 121.757 91.3223 121.546L91.4231 116.35C91.4029 116.138 91.4646 115.927 91.5955 115.759C91.7264 115.591 91.9165 115.48 92.1268 115.448C92.2228 115.436 92.3203 115.442 92.4137 115.467C92.5071 115.493 92.5946 115.537 92.6709 115.596C92.7472 115.656 92.8108 115.73 92.8581 115.814C92.9054 115.899 92.9353 115.992 92.9462 116.088C92.9979 117.711 92.9216 119.498 92.8453 121.285L92.6074 121.758ZM91.5787 106.184C91.3718 106.183 91.1712 106.114 91.0081 105.986C90.845 105.859 90.7287 105.681 90.6774 105.481C90.2805 103.859 89.6896 102.29 88.9174 100.809C88.9151 100.62 88.9772 100.436 89.0935 100.287C89.2098 100.138 89.3732 100.034 89.5571 99.99C89.6531 99.9772 89.7506 99.9837 89.8441 100.009C89.9375 100.034 90.0249 100.078 90.1012 100.138C90.1775 100.197 90.2412 100.271 90.2884 100.356C90.3357 100.44 90.3656 100.534 90.3765 100.63C91.217 102.217 91.8482 103.907 92.2544 105.657C92.192 105.792 92.0981 105.911 91.9805 106.002C91.863 106.094 91.7252 106.157 91.5787 106.184ZM83.0505 93.4592C82.9317 93.6113 82.7574 93.71 82.5658 93.7336C82.3743 93.7572 82.1812 93.7037 82.0291 93.585C80.7074 92.5915 79.2624 91.7737 77.7303 91.1518C77.7303 91.1518 77.0749 90.64 77.2309 90.1024C77.2418 89.9359 77.3025 89.7766 77.4052 89.6451C77.5079 89.5136 77.6477 89.416 77.8066 89.365C79.5184 90.0195 81.126 90.9192 82.579 92.036C82.7311 92.1548 82.8299 92.3291 82.8534 92.5207C82.877 92.7122 82.8235 92.9053 82.7048 93.0574L83.0505 93.4592ZM68.3506 90.159L66.6817 90.4385C65.579 90.9451 64.4454 91.3815 63.2876 91.7451C63.0987 91.7474 62.9146 91.6853 62.7657 91.569C62.6168 91.4527 62.5119 91.2892 62.4683 91.1054C62.4555 91.0094 62.4619 90.9119 62.4873 90.8185C62.5126 90.725 62.5564 90.6376 62.616 90.5613C62.6756 90.485 62.7498 90.4213 62.8342 90.3741C62.9187 90.3268 63.0118 90.2969 63.108 90.286C64.2801 90.1662 65.4436 89.9735 66.5918 89.709L68.1968 89.5114C68.4085 89.4912 68.62 89.5528 68.7876 89.6837C68.9553 89.8146 69.0663 90.0048 69.0981 90.2151L68.3506 90.159ZM53.3085 89.4929C53.2157 89.577 53.1051 89.639 52.985 89.6744C52.8649 89.7098 52.7383 89.7175 52.6148 89.6971C52.4912 89.6768 52.3738 89.6288 52.2714 89.5567C52.169 89.4846 52.0843 89.3903 52.0234 89.2808C51.1221 88.5771 50.2208 87.8734 49.2376 87.1058C48.2544 86.3381 48.2544 86.3381 47.8447 86.0183C47.8086 85.9019 47.8024 85.7783 47.8265 85.6589C47.8506 85.5395 47.9043 85.428 47.9827 85.3347C48.1271 85.1911 48.3192 85.1055 48.5226 85.0941C48.726 85.0827 48.9264 85.1464 49.086 85.273C49.086 85.273 49.9053 85.9127 50.397 86.2965C51.203 87.0617 52.081 87.7473 53.0189 88.3436C53.1279 88.3765 53.2258 88.4387 53.3019 88.5232C53.3781 88.6078 53.4297 88.7116 53.4511 88.8234C53.4725 88.9353 53.4629 89.0508 53.4233 89.1575C53.3837 89.2643 53.3157 89.3581 53.2266 89.4289L53.3085 89.4929Z" fill="#E2DFFE"/>
<path d="M315.917 244.407C315.731 244.488 315.52 244.498 315.327 244.435C315.133 244.372 314.97 244.24 314.867 244.064C314.292 242.464 313.626 240.9 312.87 239.378C312.8 239.302 312.75 239.211 312.724 239.111C312.699 239.011 312.698 238.907 312.722 238.807C312.747 238.707 312.796 238.614 312.865 238.538C312.934 238.462 313.02 238.403 313.117 238.368C313.595 238.165 313.882 238.042 314.222 238.575C314.989 240.131 315.669 241.727 316.261 243.357C316.315 243.446 316.35 243.547 316.362 243.651C316.374 243.755 316.363 243.861 316.33 243.961C316.298 244.06 316.244 244.152 316.173 244.229C316.101 244.306 316.014 244.367 315.917 244.407ZM307.439 231.41C307.29 231.464 307.129 231.475 306.974 231.441C306.819 231.407 306.678 231.329 306.566 231.217C305.437 229.929 304.236 228.705 302.969 227.552C302.879 227.517 302.797 227.464 302.727 227.397C302.658 227.329 302.602 227.249 302.564 227.16C302.526 227.071 302.507 226.975 302.506 226.878C302.506 226.781 302.524 226.685 302.562 226.596C302.651 226.429 302.794 226.298 302.968 226.224C303.142 226.15 303.336 226.137 303.518 226.188C304.799 227.373 306.013 228.629 307.155 229.949C307.31 230.05 307.431 230.195 307.504 230.365C307.576 230.535 307.597 230.723 307.563 230.905L307.439 231.41ZM295.419 221.504C295.261 221.649 295.059 221.736 294.845 221.749L290.442 219.106C290.351 219.071 290.269 219.018 290.2 218.951C290.13 218.883 290.075 218.803 290.037 218.714C289.999 218.625 289.979 218.529 289.979 218.432C289.978 218.335 289.997 218.239 290.034 218.15C290.119 217.955 290.275 217.8 290.471 217.716C290.666 217.633 290.886 217.628 291.086 217.702L295.585 220.304C295.766 220.405 295.908 220.563 295.989 220.753C296.07 220.943 296.086 221.155 296.034 221.355L295.419 221.504ZM281.702 214.244C281.63 214.324 281.541 214.388 281.442 214.431C281.343 214.473 281.236 214.493 281.128 214.488L276.409 212.432C276.214 212.347 276.059 212.191 275.975 211.995C275.892 211.799 275.887 211.579 275.961 211.38C276.062 211.225 276.207 211.104 276.377 211.031C276.547 210.958 276.735 210.938 276.917 210.972L281.772 213.084C281.862 213.119 281.945 213.172 282.014 213.239C282.084 213.306 282.139 213.387 282.177 213.476C282.215 213.565 282.235 213.661 282.235 213.758C282.236 213.855 282.217 213.95 282.18 214.04C282.133 214.119 282.07 214.187 281.994 214.238C281.919 214.29 281.833 214.325 281.742 214.339L281.702 214.244ZM267.23 208.66L262.347 207.013C262.257 206.978 262.174 206.925 262.105 206.858C262.035 206.79 261.98 206.71 261.942 206.621C261.904 206.532 261.884 206.436 261.884 206.339C261.883 206.242 261.902 206.146 261.939 206.057C261.958 205.956 262.001 205.861 262.066 205.78C262.13 205.7 262.213 205.637 262.308 205.596C262.403 205.556 262.506 205.54 262.608 205.549C262.711 205.558 262.809 205.593 262.895 205.649C264.546 206.075 266.142 206.638 267.874 207.256C268.069 207.341 268.225 207.497 268.308 207.692C268.392 207.888 268.397 208.108 268.323 208.308L267.23 208.66Z" fill="#E2DFFE"/>
<circle cx="315" cy="241" r="5" fill="#E2DFFE"/>
</svg>
