<svg width="308" height="233" viewBox="0 0 308 233" fill="none" xmlns="http://www.w3.org/2000/svg">
<path d="M288.387 182.767C287.594 184.347 286.709 185.88 285.737 187.358C285.614 187.52 285.435 187.632 285.235 187.671C285.036 187.711 284.828 187.676 284.653 187.572C284.466 187.577 284.283 187.519 284.133 187.407C283.984 187.295 283.876 187.137 283.828 186.956C283.78 186.776 283.793 186.585 283.867 186.413C283.941 186.241 284.07 186.099 284.234 186.01C285.172 184.593 286.023 183.12 286.781 181.599C286.904 181.437 287.082 181.325 287.282 181.286C287.482 181.246 287.689 181.282 287.865 181.385C288.048 181.315 288.251 181.322 288.43 181.402C288.609 181.483 288.748 181.631 288.817 181.814C288.886 181.998 288.88 182.201 288.799 182.38C288.719 182.558 288.571 182.697 288.387 182.767ZM292.775 173.296C292.688 173.45 292.549 173.567 292.383 173.625C292.216 173.684 292.034 173.68 291.871 173.615C291.702 173.644 291.529 173.614 291.381 173.528C291.232 173.443 291.119 173.308 291.061 173.147C291.625 171.516 292.068 169.846 292.385 168.15C292.297 167.972 292.283 167.766 292.347 167.578C292.411 167.389 292.547 167.234 292.725 167.146C292.903 167.058 293.109 167.044 293.297 167.108C293.486 167.171 293.641 167.307 293.729 167.486C293.813 167.457 293.902 167.447 293.99 167.456C294.078 167.465 294.163 167.492 294.24 167.537C294.316 167.581 294.383 167.641 294.434 167.713C294.486 167.785 294.522 167.867 294.539 167.953C294.222 169.692 293.792 171.409 293.253 173.092L292.775 173.296ZM294.584 157.896C294.575 158.004 294.543 158.108 294.489 158.202C294.435 158.295 294.361 158.375 294.272 158.437C294.18 158.482 294.078 158.505 293.975 158.501C293.872 158.498 293.772 158.47 293.683 158.418C293.594 158.367 293.518 158.294 293.464 158.207C293.41 158.119 293.378 158.02 293.372 157.917C293.158 156.234 292.839 154.565 292.414 152.923C292.388 152.829 292.381 152.732 292.393 152.636C292.405 152.54 292.437 152.447 292.485 152.363C292.533 152.279 292.598 152.206 292.675 152.148C292.752 152.089 292.84 152.046 292.934 152.022C293.141 151.973 293.359 152.005 293.543 152.111C293.727 152.217 293.864 152.39 293.924 152.594C294.448 154.292 294.765 156.047 294.868 157.82L294.584 157.896ZM289.609 143.021C289.516 143.047 289.418 143.054 289.322 143.042C289.226 143.03 289.133 142.998 289.05 142.95C288.966 142.901 288.892 142.837 288.834 142.76C288.775 142.683 288.733 142.595 288.709 142.501C287.732 141.12 286.624 139.836 285.399 138.67C285.387 138.503 285.425 138.337 285.508 138.192C285.592 138.048 285.717 137.932 285.867 137.859C285.97 137.918 286.059 137.998 286.129 138.094C286.199 138.189 286.247 138.299 286.271 138.415C286.295 138.531 286.294 138.651 286.268 138.767C286.242 138.882 286.191 138.991 286.119 139.085C287.388 140.318 288.538 141.665 289.557 143.111C289.521 143.285 289.43 143.442 289.297 143.561L289.609 143.021ZM277.377 133.438C277.276 133.615 277.114 133.749 276.922 133.815C276.729 133.88 276.519 133.873 276.331 133.794C274.911 132.86 273.438 132.01 271.92 131.247C271.818 131.229 271.723 131.185 271.643 131.121C271.563 131.057 271.499 130.974 271.459 130.879C271.418 130.784 271.402 130.681 271.411 130.579C271.42 130.476 271.455 130.377 271.511 130.291C271.771 129.841 271.927 129.571 272.519 129.793C274.066 130.576 275.569 131.444 277.02 132.392C277.118 132.431 277.206 132.49 277.278 132.566C277.35 132.643 277.405 132.733 277.439 132.833C277.473 132.932 277.485 133.038 277.474 133.142C277.463 133.247 277.43 133.347 277.377 133.438ZM262.792 128.138C262.706 128.271 262.583 128.376 262.439 128.442C262.295 128.507 262.135 128.53 261.978 128.508C260.302 128.156 258.607 127.899 256.901 127.738C256.808 127.764 256.71 127.771 256.614 127.759C256.518 127.747 256.426 127.716 256.342 127.667C256.258 127.619 256.185 127.554 256.126 127.477C256.068 127.4 256.025 127.312 256.001 127.218C255.972 127.031 256.008 126.84 256.103 126.677C256.197 126.513 256.345 126.387 256.521 126.318C258.257 126.496 259.982 126.77 261.687 127.14C261.872 127.128 262.056 127.171 262.216 127.264C262.377 127.356 262.506 127.494 262.588 127.66L262.792 128.138ZM247.232 127.437C247.193 127.647 247.083 127.838 246.92 127.977L241.812 128.509C241.719 128.535 241.621 128.542 241.525 128.53C241.429 128.518 241.337 128.486 241.253 128.438C241.169 128.39 241.096 128.325 241.037 128.248C240.979 128.171 240.936 128.083 240.912 127.989C240.862 127.782 240.894 127.564 241.001 127.38C241.107 127.196 241.28 127.059 241.484 126.999L246.644 126.377C246.849 126.349 247.057 126.391 247.237 126.494C247.416 126.597 247.556 126.757 247.634 126.949L247.232 127.437ZM231.904 129.87C231.895 129.978 231.862 130.082 231.809 130.175C231.755 130.269 231.681 130.349 231.592 130.41L226.584 131.6C226.377 131.649 226.159 131.618 225.975 131.511C225.791 131.405 225.654 131.232 225.593 131.028C225.581 130.844 225.624 130.66 225.717 130.499C225.809 130.339 225.947 130.21 226.113 130.128L231.263 128.9C231.357 128.874 231.454 128.867 231.55 128.879C231.646 128.891 231.739 128.923 231.823 128.971C231.906 129.019 231.98 129.084 232.038 129.161C232.097 129.238 232.139 129.326 232.164 129.42C232.174 129.511 232.164 129.603 232.135 129.69C232.105 129.777 232.057 129.856 231.994 129.922L231.904 129.87ZM216.98 134.097L212.086 135.713C211.993 135.739 211.895 135.746 211.799 135.734C211.703 135.722 211.61 135.691 211.526 135.642C211.443 135.594 211.369 135.529 211.311 135.452C211.252 135.375 211.21 135.287 211.186 135.193C211.14 135.101 211.117 134.999 211.121 134.896C211.124 134.793 211.152 134.693 211.204 134.604C211.255 134.515 211.328 134.44 211.416 134.385C211.503 134.331 211.603 134.299 211.705 134.293C213.281 133.643 214.895 133.134 216.651 132.587C216.858 132.538 217.076 132.57 217.26 132.676C217.444 132.782 217.581 132.955 217.641 133.159L216.98 134.097ZM202 139.253L197.31 141.346C197.222 141.39 197.126 141.416 197.028 141.422C196.93 141.429 196.831 141.416 196.738 141.384C196.645 141.353 196.558 141.303 196.484 141.239C196.41 141.174 196.35 141.095 196.306 141.007C196.262 140.918 196.237 140.823 196.23 140.724C196.224 140.626 196.236 140.527 196.268 140.434C196.299 140.341 196.349 140.255 196.414 140.181C196.479 140.107 196.558 140.046 196.646 140.002C198.132 139.3 199.67 138.507 201.388 137.819C201.574 137.79 201.765 137.826 201.929 137.921C202.092 138.015 202.219 138.162 202.288 138.339C202.327 138.503 202.32 138.674 202.27 138.835C202.219 138.996 202.126 139.14 202 139.253ZM188.121 146.244L187.861 146.694L183.816 148.919C183.629 148.948 183.438 148.912 183.274 148.818C183.111 148.723 182.984 148.576 182.915 148.4C182.869 148.308 182.847 148.206 182.85 148.103C182.853 148 182.882 147.899 182.934 147.81C182.985 147.721 183.058 147.646 183.145 147.592C183.233 147.538 183.332 147.506 183.435 147.499L187.429 145.364L187.741 144.824C187.927 144.795 188.118 144.831 188.282 144.926C188.446 145.02 188.572 145.168 188.641 145.344C188.757 145.515 188.805 145.724 188.775 145.929C188.746 146.133 188.641 146.32 188.481 146.452L188.121 146.244ZM173.948 152.705C172.334 153.214 170.682 153.58 168.836 154.075C168.629 154.124 168.411 154.092 168.227 153.986C168.043 153.88 167.906 153.707 167.846 153.503C167.8 153.411 167.777 153.309 167.781 153.206C167.784 153.103 167.812 153.003 167.864 152.913C167.915 152.824 167.988 152.749 168.076 152.695C168.163 152.641 168.263 152.609 168.365 152.603C170.159 152.198 171.773 151.69 173.245 151.219C173.452 151.17 173.67 151.201 173.854 151.308C174.038 151.414 174.175 151.587 174.236 151.791C174.236 151.791 174.412 152.733 174.308 152.913L173.948 152.705ZM158.577 155.834C158.569 155.942 158.536 156.046 158.482 156.139C158.428 156.233 158.354 156.313 158.266 156.374C156.434 156.637 154.795 156.772 153.067 156.854C152.862 156.882 152.654 156.841 152.475 156.737C152.296 156.634 152.156 156.474 152.077 156.282C152.028 156.076 152.059 155.858 152.166 155.673C152.272 155.489 152.445 155.353 152.649 155.292C154.235 155.248 155.925 155.023 157.705 154.85C157.912 154.801 158.13 154.833 158.314 154.939C158.498 155.045 158.635 155.218 158.695 155.422L158.577 155.834ZM143 156.203C142.985 156.327 142.945 156.447 142.882 156.555C142.82 156.663 142.736 156.758 142.636 156.833C140.832 156.632 139.118 156.483 137.456 156.243C135.794 156.004 136.646 155.775 136.556 155.723C136.529 155.63 136.522 155.533 136.534 155.437C136.547 155.341 136.578 155.248 136.626 155.164C136.675 155.08 136.739 155.007 136.816 154.948C136.893 154.89 136.981 154.847 137.075 154.823C138.761 155.097 140.46 155.277 142.166 155.362C142.259 155.336 142.357 155.328 142.453 155.341C142.549 155.353 142.641 155.384 142.725 155.432C142.809 155.481 142.882 155.545 142.941 155.622C142.999 155.7 143.042 155.788 143.066 155.881L143 156.203ZM127.656 153.466C127.57 153.599 127.447 153.704 127.303 153.77C127.159 153.836 126.999 153.859 126.842 153.836C125.402 153.005 123.507 152.751 121.821 152.138C121.627 152.063 121.468 151.917 121.376 151.731C121.283 151.544 121.265 151.33 121.323 151.13C121.398 150.936 121.543 150.777 121.73 150.685C121.916 150.592 122.131 150.573 122.331 150.631C123.861 151.515 125.613 151.807 127.262 152.278C127.456 152.353 127.615 152.498 127.707 152.685C127.799 152.872 127.818 153.086 127.76 153.286L127.656 153.466ZM113.757 147.602C113.631 147.775 113.449 147.9 113.243 147.955C113.036 148.01 112.817 147.993 112.621 147.906C111.271 147.127 109.83 146.295 108.48 145.516C107.129 144.736 107.76 145.1 108.265 144.432C108.317 144.34 108.388 144.261 108.473 144.199C108.558 144.138 108.655 144.095 108.758 144.075C108.861 144.055 108.967 144.057 109.069 144.081C109.171 144.106 109.267 144.152 109.349 144.217C110.7 144.997 112.05 145.776 113.401 146.556C113.563 146.67 113.686 146.833 113.75 147.021C113.814 147.209 113.816 147.412 113.757 147.602ZM101.175 138.417C101.021 138.549 100.828 138.628 100.626 138.641C100.424 138.654 100.222 138.601 100.053 138.49C98.6124 137.658 97.5879 136.106 96.3173 134.772C96.1502 134.676 96.0282 134.517 95.9783 134.331C95.9284 134.144 95.9545 133.946 96.051 133.778C96.1475 133.611 96.3064 133.489 96.4928 133.439C96.6792 133.39 96.8779 133.416 97.045 133.512C98.4854 134.344 99.548 136.038 100.742 137.087C100.96 137.176 101.136 137.344 101.235 137.557C101.335 137.77 101.35 138.013 101.279 138.237L101.175 138.417ZM90.7824 126.896C90.5956 126.924 90.4046 126.888 90.241 126.794C90.0774 126.699 89.9508 126.552 89.8821 126.376C88.8063 124.973 87.8057 123.514 86.8844 122.004C86.8559 121.818 86.8919 121.627 86.9863 121.463C87.0808 121.299 87.2282 121.173 87.4042 121.104C87.6111 121.055 87.829 121.086 88.0132 121.193C88.1974 121.299 88.3338 121.472 88.3945 121.676C89.239 123.124 90.2255 124.534 91.2121 125.943C91.231 126.089 91.2108 126.238 91.1536 126.373C91.0963 126.509 91.0041 126.627 90.8863 126.716L90.7824 126.896ZM83.0293 113.297L82.7695 113.747C82.5626 113.796 82.3447 113.765 82.1605 113.658C81.9763 113.552 81.8399 113.379 81.7792 113.175L79.9315 108.267C79.8821 108.06 79.9138 107.843 80.0202 107.658C80.1265 107.474 80.2994 107.338 80.5032 107.277C80.5965 107.251 80.694 107.244 80.79 107.256C80.886 107.268 80.9787 107.299 81.0626 107.348C81.1464 107.396 81.2197 107.461 81.2782 107.538C81.3368 107.615 81.3794 107.703 81.4035 107.797L83.2131 112.563L83.0293 113.297ZM79.0863 98.2967C79.0863 98.4062 79.0574 98.5137 79.0027 98.6086C78.948 98.7034 78.8692 98.7822 78.7744 98.8369C78.5675 98.8863 78.3496 98.8546 78.1654 98.7482C77.9812 98.6419 77.8448 98.469 77.7841 98.2652C77.6357 96.8591 77.5011 95.221 77.1624 93.1049C77.1348 92.8998 77.176 92.6914 77.2794 92.5122C77.3829 92.3331 77.5428 92.1932 77.7342 92.1146C77.941 92.0652 78.159 92.097 78.3431 92.2033C78.5273 92.3096 78.6638 92.4825 78.7244 92.6863L79.2561 97.7947L79.0863 98.2967ZM77.3632 82.7779C77.3477 82.9019 77.3075 83.0216 77.245 83.1298C77.1825 83.238 77.099 83.3326 76.9993 83.408C76.8126 83.4366 76.6216 83.4007 76.458 83.3062C76.2944 83.2117 76.1678 83.0643 76.0991 82.8883L75.5294 77.638C75.5034 77.5448 75.4963 77.4472 75.5084 77.3512C75.5205 77.2551 75.5517 77.1625 75.6001 77.0787C75.6485 76.9948 75.7132 76.9215 75.7903 76.863C75.8674 76.8044 75.9554 76.7619 76.0491 76.7378C76.1424 76.7118 76.2399 76.7046 76.3359 76.7167C76.432 76.7289 76.5246 76.7601 76.6085 76.8085C76.6923 76.8569 76.7656 76.9215 76.8242 76.9986C76.8827 77.0757 76.9253 77.1638 76.9494 77.2575L77.5711 82.4178L77.3632 82.7779ZM75.654 67.027C75.654 67.1365 75.6252 67.244 75.5705 67.3389C75.5157 67.4337 75.437 67.5124 75.3422 67.5671C75.1353 67.6165 74.9174 67.5848 74.7332 67.4785C74.549 67.3721 74.4125 67.1993 74.3519 66.9954L73.7302 61.8351C73.6808 61.6283 73.7125 61.4103 73.8189 61.2261C73.9252 61.0419 74.0981 60.9055 74.302 60.8448C74.3952 60.8188 74.4927 60.8117 74.5887 60.8239C74.6848 60.836 74.7775 60.8672 74.8613 60.9156C74.9451 60.964 75.0184 61.0287 75.077 61.1058C75.1355 61.1829 75.1781 61.2708 75.2022 61.3646C75.4787 62.9647 75.6513 64.7448 75.8239 66.5249L75.654 67.027ZM72.4729 51.7466C72.2678 51.7742 72.0594 51.7331 71.8803 51.6296C71.7011 51.5262 71.5612 51.3663 71.4826 51.1749C70.8643 49.6236 70.0613 48.1524 69.091 46.7933C69.0625 46.6065 69.0985 46.4155 69.1929 46.2519C69.2874 46.0883 69.4348 45.9617 69.6108 45.893C69.704 45.867 69.8016 45.8598 69.8976 45.872C69.9936 45.8841 70.0863 45.9153 70.1701 45.9637C70.2539 46.0121 70.3273 46.0768 70.3858 46.1539C70.4444 46.231 70.4869 46.319 70.511 46.4128C71.5638 47.8682 72.4236 49.4539 73.0688 51.1304C73.0257 51.2731 72.9492 51.4036 72.8456 51.5107C72.7419 51.6179 72.6141 51.6988 72.4729 51.7466ZM62.2604 40.3289C62.1639 40.496 62.0049 40.618 61.8185 40.6679C61.6321 40.7179 61.4335 40.6917 61.2664 40.5952C59.8195 39.7949 58.275 39.1856 56.6714 38.7826C56.6714 38.7826 55.9512 38.3667 56.0311 37.8126C56.0187 37.6463 56.0568 37.48 56.1402 37.3355C56.2236 37.191 56.3486 37.075 56.4988 37.0025C58.2849 37.4129 60.0019 38.0807 61.5959 38.985C61.763 39.0815 61.885 39.2404 61.9349 39.4268C61.9849 39.6132 61.9587 39.8118 61.8622 39.979L62.2604 40.3289ZM47.2447 39.1017L45.6307 39.6102C44.6091 40.265 43.547 40.8546 42.451 41.3754C42.2642 41.4039 42.0733 41.368 41.9096 41.2735C41.746 41.179 41.6194 41.0317 41.5507 40.8557C41.5247 40.7624 41.5176 40.6649 41.5297 40.5689C41.5419 40.4728 41.5731 40.3801 41.6215 40.2963C41.6699 40.2125 41.7345 40.1391 41.8116 40.0806C41.8887 40.0221 41.9767 39.9795 42.0705 39.9554C43.2146 39.674 44.3401 39.3216 45.4404 38.9002L47.0024 38.4817C47.2093 38.4323 47.4273 38.4639 47.6115 38.5703C47.7957 38.6766 47.9321 38.8496 47.9927 39.0534L47.2447 39.1017ZM32.2558 40.5306C32.1756 40.6268 32.0747 40.7036 31.9606 40.7553C31.8466 40.807 31.7223 40.8322 31.5971 40.8292C31.4719 40.8262 31.349 40.7949 31.2376 40.7378C31.1262 40.6806 31.0292 40.5989 30.9537 40.499C29.9634 39.9273 28.9732 39.3556 27.8929 38.7318C26.8126 38.1081 26.8126 38.1081 26.3625 37.8483C26.3106 37.738 26.2872 37.6165 26.2945 37.4949C26.3018 37.3733 26.3395 37.2555 26.4042 37.1522C26.5273 36.9899 26.7057 36.8784 26.9055 36.8389C27.1053 36.7994 27.3127 36.8346 27.4883 36.9378C27.4883 36.9378 28.3885 37.4576 28.9286 37.7694C29.8331 38.4153 30.7978 38.9723 31.8094 39.4327C31.9219 39.4501 32.0275 39.4981 32.1147 39.5713C32.2018 39.6444 32.2674 39.7401 32.3041 39.8478C32.3408 39.9556 32.3473 40.0713 32.3229 40.1825C32.2985 40.2937 32.2442 40.3961 32.1658 40.4786L32.2558 40.5306Z" fill="#E2DFFE"/>
<circle cx="19" cy="32" r="5" fill="#F0EFFD"/>
</svg>
