<svg width="411" height="301" viewBox="0 0 411 301" fill="none" xmlns="http://www.w3.org/2000/svg">
<path d="M193.289 274.125C181.565 274.125 169.837 274.317 158.133 275.113C153.729 275.413 149.396 276.073 144.976 276.337C136.139 276.869 127.462 277.861 118.593 278.317C111.454 278.685 104.283 278.905 97.1636 279.369C90.2683 279.819 83.3474 279.685 76.4746 278.969C71.5737 278.433 66.6447 278.129 61.8238 277.269C56.2599 276.23 50.6148 275.687 44.9547 275.645C36.9466 275.681 29.1347 275.685 21.467 277.381C18.7762 277.981 15.4609 278.981 13.4348 280.214C8.7581 283.078 8.12546 290.215 12.7942 293.204C20.6662 298.208 37.4632 300.173 48.4943 300.265C60.5826 300.365 72.3224 299.817 84.4307 299.497C95.6781 299.197 106.897 298.768 118.165 298.784C141.176 298.816 164.211 298.784 187.163 297.844C208.745 296.964 230.378 297.268 252.028 297.268C274.207 297.268 296.237 297.372 318.255 299.173C327.865 299.973 337.627 300.233 347.269 300.773C355.901 301.265 364.202 300.773 372.803 300.305C379.897 299.967 386.928 298.816 393.76 296.876C398.965 295.36 408.214 290.647 409.808 287.031C414.273 276.881 346.876 277.125 336.534 277.149C324.958 277.173 313.31 277.405 301.723 277.149C296.897 276.973 292.084 276.528 287.308 275.817C282.579 275.185 277.814 275.345 273.018 275.081C252.997 273.969 232.977 274.129 212.901 274.129C206.354 274.145 199.824 274.113 193.289 274.125Z" fill="#EFEEF5"/>
<path d="M62.515 162.046L73.2739 150.964L77.5182 132.87L79.8926 132.245L66.7674 134.094L63.7523 141.043L46.3066 162.274L46.3427 162.402C51.7361 162.826 57.1256 161.262 62.515 162.046Z" fill="#474EBB"/>
<path d="M257.781 136.478L282.286 153.697L298.398 167.947L291.523 168.995L259.767 147.74L257.781 136.478Z" fill="#D7E8F4"/>
<path d="M217.939 86.8144C217.938 86.4629 217.884 86.1137 217.779 85.7782C217.586 85.2157 217.277 84.7003 216.87 84.266C215.853 83.1338 214.32 82.6377 212.866 82.1456C211.321 81.6176 209.759 81.0215 208.522 79.9653C206.163 77.965 206.964 74.8685 205.319 72.5081C204.145 70.8199 202.88 70.5878 201.351 70.7358L193.062 47.8482L194.592 47.4762C195.308 47.3041 198.139 45.7919 197.935 44.9598V44.9278C197.872 44.5486 197.662 44.2096 197.35 43.9848C197.038 43.76 196.649 43.6675 196.269 43.7276L195.669 43.8716C195.705 43.7123 195.705 43.5469 195.669 43.3875V43.3635C195.634 43.2198 195.571 43.0844 195.484 42.965C195.397 42.8457 195.286 42.7448 195.16 42.6682C195.033 42.5916 194.893 42.5407 194.746 42.5186C194.6 42.4965 194.451 42.5036 194.307 42.5394L191.392 43.2475L190.083 39.6469L193.202 38.8868C193.346 38.853 193.482 38.791 193.602 38.7044C193.722 38.6177 193.824 38.5082 193.902 38.3821C193.979 38.256 194.031 38.1159 194.054 37.9697C194.077 37.8236 194.07 37.6743 194.035 37.5306V37.5106C194 37.3666 193.937 37.231 193.849 37.1115C193.761 36.9919 193.651 36.8908 193.524 36.8139C193.397 36.737 193.257 36.6858 193.11 36.6633C192.963 36.6407 192.814 36.6472 192.67 36.6825L191.665 36.9265L196.217 22.4042C196.278 22.1085 196.271 21.803 196.196 21.5105C196.122 21.218 195.982 20.9461 195.788 20.7152C195.593 20.4843 195.349 20.3003 195.073 20.1771C194.797 20.0539 194.497 19.9947 194.195 20.0039L188.638 20.1079C187.773 20.1079 186.912 20.1759 186.055 20.2519L186.007 20.0559C185.871 19.5037 185.522 19.0278 185.035 18.733C184.549 18.4382 183.965 18.3485 183.412 18.4836L183.308 18.5116L182.075 16.1112L186.944 14.9311C187.1 14.8954 187.246 14.8291 187.376 14.736C187.506 14.6429 187.616 14.525 187.699 14.389C187.783 14.2531 187.838 14.1018 187.863 13.9442C187.887 13.7865 187.879 13.6256 187.841 13.4708L186.552 8.12198C186.515 7.96636 186.448 7.8196 186.354 7.69031C186.26 7.56102 186.141 7.4518 186.004 7.36907C185.867 7.28634 185.715 7.23176 185.557 7.20854C185.398 7.18532 185.237 7.19392 185.082 7.23384L180.902 8.246L180.405 2.86915C180.395 2.75113 180.356 2.63741 180.292 2.53776C180.228 2.43812 180.14 2.35552 180.037 2.29706L176.177 0.0967156C176.012 0.00306178 175.817 -0.0238345 175.632 0.0215388C175.447 0.0669121 175.287 0.181119 175.184 0.340754L172.782 4.05734C172.717 4.15628 172.677 4.26938 172.665 4.38708C172.653 4.50477 172.67 4.62358 172.714 4.73345L174.744 9.73823L170.571 10.7544C170.415 10.79 170.268 10.8565 170.138 10.9498C170.008 11.0431 169.898 11.1615 169.814 11.2979C169.731 11.4343 169.675 11.586 169.651 11.7441C169.627 11.9023 169.635 12.0636 169.674 12.2186L170.972 17.5715C171.008 17.7271 171.076 17.8738 171.17 18.0031C171.264 18.1324 171.383 18.2416 171.52 18.3244C171.656 18.4071 171.808 18.4617 171.967 18.4849C172.125 18.5081 172.286 18.4995 172.441 18.4596L177.306 17.2594V19.9598H177.23C176.955 20.0243 176.695 20.1425 176.465 20.3076C176.235 20.4726 176.04 20.6814 175.892 20.9219C175.743 21.1623 175.643 21.4298 175.598 21.7089C175.553 21.988 175.563 22.2732 175.628 22.5483L175.669 22.7043C174.726 23.0803 173.801 23.4951 172.894 23.9485L168.285 26.2528C168.019 26.3848 167.786 26.5741 167.603 26.807C167.419 27.04 167.29 27.3108 167.224 27.5999C167.158 27.889 167.157 28.1891 167.222 28.4785C167.286 28.7679 167.414 29.0394 167.596 29.2733L178.031 40.183L176.99 40.4351C176.846 40.4693 176.709 40.5318 176.589 40.6188C176.469 40.7058 176.368 40.8157 176.29 40.9421C176.213 41.0685 176.161 41.209 176.138 41.3554C176.116 41.5018 176.122 41.6513 176.157 41.7953C176.228 42.0852 176.411 42.3351 176.667 42.4903C176.922 42.6455 177.228 42.6934 177.518 42.6234L180.485 41.9033L181.03 45.6999L178.603 46.288C178.459 46.3223 178.323 46.3847 178.203 46.4717C178.083 46.5587 177.981 46.6686 177.904 46.795C177.827 46.9214 177.775 47.0619 177.752 47.2083C177.729 47.3547 177.735 47.5042 177.771 47.6482V47.6682C177.81 47.8277 177.884 47.9766 177.987 48.1043L177.703 48.1723C177.339 48.2932 177.037 48.5522 176.862 48.8935C176.688 49.2348 176.654 49.631 176.77 49.9966V50.0286C176.974 50.8607 180.101 50.9287 180.818 50.7527L181.715 50.5367L185.138 74.2924C183.757 74.8965 182.712 75.8687 182.475 77.6689C182.103 80.5174 184.229 82.8898 183.06 85.7582C182.443 87.2664 181.33 88.5106 180.197 89.6868C179.14 90.787 178.003 91.9312 177.622 93.4034C177.46 93.9069 177.4 94.4378 177.446 94.9648C177.492 95.4917 177.643 96.0042 177.891 96.4719C177.121 96.856 176.503 97.4895 176.14 98.2691C175.776 99.0486 175.688 99.9283 175.889 100.765L175.909 100.841C176.027 101.327 176.239 101.786 176.535 102.19C176.831 102.594 177.203 102.937 177.631 103.197C178.059 103.457 178.535 103.63 179.03 103.706C179.525 103.783 180.031 103.76 180.517 103.641L218.828 94.3476C219.808 94.1096 220.654 93.4928 221.18 92.6325C221.705 91.7721 221.867 90.7386 221.631 89.7588V89.6828C221.423 88.8622 220.947 88.1344 220.278 87.6148C219.61 87.0952 218.786 86.8135 217.939 86.8144Z" fill="#3138A7"/>
<path d="M196.366 106.841L199.413 101.469L196.578 95.8438L193.511 97.408L193.811 102.005L192.186 103.541L192.75 107.486L196.366 106.841Z" fill="#FFB68E"/>
<path d="M176.383 136.194L194.665 135.166L191.73 107.246L198.137 106.101L204.896 141.995L197.965 148.308L179.33 150.612L176.383 136.194Z" fill="#FF151F"/>
<path d="M161.872 57.7258L112.954 62.3226L122.124 75.7527C107.329 86.1543 88.8179 99.2204 88.2653 99.8965C87.3404 101.025 79.7527 74.0884 79.7527 74.0884L40.469 104.213L31.4198 86.2623L0 110.634L27.3917 98.4963L37.4019 118.051L72.2371 93.5915L80.0891 121.46L131.173 89.0068L141.031 103.437L161.872 57.7258Z" fill="#EFEEF5"/>
<path d="M80.0527 121.52L131.801 89.8109L129.839 86.4183L80.0527 121.52Z" fill="#3138A7"/>
<path d="M37.4492 117.875L73.1894 96.7319L72.1403 93.0753L37.4492 117.875Z" fill="#3138A7"/>
<path d="M27.4925 98.3322L0.212891 110.602L28.5296 100.717L27.4925 98.3322Z" fill="#3138A7"/>
<path d="M121.27 109.114L120.437 100.965L114.988 97.2841L113.414 101.677L116.017 106.67V110.762L121.27 109.114Z" fill="#FFB68E"/>
<path d="M103.221 288.314L97.5112 283.045C95.8536 282.209 94.1038 281.621 92.6823 281.641C91.6533 281.641 90.7964 281.985 90.2799 282.765C90.0353 283.137 89.8839 283.561 89.8386 284.004C89.7933 284.446 89.8554 284.893 90.0197 285.306C90.1479 285.594 90.3149 285.863 90.5162 286.106C90.6843 286.318 90.8725 286.506 91.0567 286.718C91.1768 286.846 91.305 286.982 91.4571 287.118C92.6583 288.398 94.6163 290.483 95.4011 290.951C96.5543 291.643 99.0928 293.487 102.088 291.415L102.052 291.383C102.536 291.051 102.908 290.58 103.117 290.031C103.326 289.483 103.362 288.884 103.221 288.314Z" fill="#292949"/>
<path d="M98.7407 242.439L98.2802 249.052L96.0179 281.245L98.2802 284.99C98.2802 284.99 98.7407 287.986 95.2812 287.754C94.2521 287.686 90.6084 283.057 90.6084 283.057L91.137 280.937L88.5704 256.765L88.5944 249.744L87.3691 241.951L98.7407 242.439Z" fill="#FFB68E"/>
<path d="M62.548 280.141C61.483 279.805 60.494 279.857 59.7011 280.485C59.3241 280.783 59.0249 281.168 58.829 281.607C58.6331 282.046 58.5463 282.526 58.576 283.005C58.6653 283.638 58.8645 284.25 59.1646 284.814C60.546 287.798 64.4139 294.551 68.8504 293.311C70.7123 292.791 71.421 290.911 71.0406 289.21C70.472 286.678 66.0996 281.245 62.548 280.141Z" fill="#292949"/>
<path d="M84.9108 238.566L84.138 248.088L65.4311 281.737C65.4311 281.737 68.1218 286.446 66.4161 286.846C64.7103 287.246 59.7093 285.834 59.6973 280.533C61.6633 274.132 69.3951 252.321 69.3951 252.321L72.9987 246.696L72.9467 236.126L84.9108 238.566Z" fill="#FFB68E"/>
<path d="M63.7759 206.693C63.6277 203.893 64.5247 196.564 65.4496 193.939C68.813 184.374 69.4536 179.657 69.4536 171.868C69.4536 164.079 68.797 139.387 68.797 139.387L75.2035 132.186L92.4209 132.586L100.429 135.222C100.429 135.222 102.123 166.287 102.603 176.3C102.948 183.446 103.444 189.635 104.097 197.904C104.097 197.904 105.931 216.787 103.1 237.03C103.1 237.03 102.467 243.755 102.183 244.343C102.147 244.543 102.123 244.651 102.123 244.651H69.9702V233.125C68.9024 229.421 67.8867 225.704 66.9231 221.976C65.6898 217.235 64.0642 211.902 63.7759 206.693Z" fill="#292949"/>
<path d="M66.7747 134.094L65.6376 139.163C65.6376 139.163 69.2412 166.907 69.4615 171.868C69.6817 176.829 63.2832 196.672 63.2832 196.672L89.798 200.124C89.798 200.124 93.694 178.937 94.8191 168.427C95.9443 157.918 79.9 132.258 79.9 132.258L66.7747 134.094Z" fill="#474EBB"/>
<path d="M97.1308 133.858L102.54 136.422C102.54 136.422 101.779 168.027 103.169 176.068C104.014 180.965 107.309 196.832 107.309 196.832L98.7484 199.756C98.7484 199.756 93.4751 179.929 92.43 169.411C91.385 158.894 92.5221 132.722 92.5221 132.722L97.1308 133.858Z" fill="#305399"/>
<path d="M96.0969 122.276C96.7977 124.992 95.184 127.677 93.7746 129.969C93.198 130.905 92.3051 132.206 93.0459 133.274C93.8787 134.474 95.9488 134.23 96.8577 133.338C97.4504 132.674 97.8735 131.876 98.091 131.013C99.3202 127.273 101.034 122.032 100.702 118.099C100.429 114.947 96.5614 109.346 92.5734 111.35C91.8843 111.757 91.328 112.354 90.9718 113.07C90.7114 113.456 90.5367 113.892 90.4592 114.351C90.271 116.175 92.0328 116.643 93.19 117.627C94.6092 118.846 95.6231 120.467 96.0969 122.276Z" fill="#172755"/>
<path d="M89.4268 132.021C92.0895 131.685 94.3158 129.825 95.505 127.585C96.6942 125.344 96.9825 122.784 96.9344 120.26C96.7823 111.898 85.6871 111.434 81.3707 117.459C77.6109 122.692 81.683 133.018 89.4268 132.021Z" fill="#FFB68E"/>
<path d="M81.8543 121.4C81.7622 122.412 81.2457 123.488 81.1055 124.528C80.8413 126.441 81.2697 128.929 80.569 130.673C78.4293 130.288 76.4381 129.318 74.8152 127.873C73.3457 126.509 73.614 124.484 73.2816 122.476C72.9773 120.62 72.5889 118.755 72.693 116.875C73.2736 106.594 83.544 100.973 92.5892 105.609C96.0126 107.366 97.5101 111.826 94.9916 114.755C92.2849 117.907 86.7833 116.539 83.54 118.879C82.8193 119.384 82.2667 120.316 81.8543 121.4Z" fill="#172755"/>
<path d="M89.6507 131.173C89.5146 131.793 89.3784 132.418 89.2503 133.038C89.1862 133.326 89.2103 134.142 88.966 134.338C88.8238 134.426 88.6533 134.456 88.4895 134.422C88.0091 134.366 83.6847 133.818 83.7488 133.542C83.863 132.813 84.0289 132.094 84.2452 131.389C84.4294 130.825 84.5015 129.761 84.8419 129.329C85.5614 129.808 86.3557 130.163 87.1922 130.381C88.0197 130.616 88.8552 130.839 89.6988 131.049C89.6908 131.077 89.6587 131.125 89.6507 131.173Z" fill="#EAC5B0"/>
<path d="M100.438 135.722L118.48 137.258L114.44 106.481L121.022 106.521L130.684 138.787L127.329 148.948L101.899 151.224L100.438 135.722Z" fill="#474EBB"/>
<path d="M147.521 177.493L144.43 176.648L146.664 172.16L150.532 171.716L152.538 174.348L147.521 177.493Z" fill="#D2C3A8"/>
<path d="M309.297 123.436L307.143 121.62L304.34 122.508L302.738 124.832L303.467 126.833L305.729 128.141L304.872 128.373L305.029 129.073L308.584 130.673C309.437 129.785 312.32 129.101 312.776 128.625L310.402 126.581L309.297 123.436Z" fill="#EAC5B0"/>
<path d="M377.551 285.458L377.631 286.222L377.891 288.77L372.814 291.867L369.883 289.594L372.289 286.774L372.513 286.638L372.634 286.93L377.551 285.458Z" fill="#292949"/>
<path d="M356.408 230.601C362.162 230.977 367.503 231.133 371.7 231.189L371.552 250.84L377.826 285.366L377.55 285.45L372.633 286.922L372.513 286.626L356.024 245.931L355.447 237.638L356.408 230.601Z" fill="#292949"/>
<path d="M355.159 233.374L355.452 237.63L353.958 248.44L352.28 287.386H352.252L352.228 286.822L347.211 286.978L339.307 245.611L338.883 228.717C344.32 229.585 350.026 230.157 355.412 230.533L355.159 233.374Z" fill="#292949"/>
<path d="M355.412 230.533L356.409 230.601L355.448 237.638L355.16 233.374L355.412 230.533Z" fill="#3B455A"/>
<path d="M346.884 286.97L347.228 286.962L352.245 286.806L352.265 287.37L352.341 289.366L347.072 292.087L344.297 289.61L346.884 286.97Z" fill="#292949"/>
<path d="M365.53 138.971C365.71 138.522 365.886 138.078 366.062 137.63L366.022 137.598C363.672 135.818 362.595 132.714 362.723 129.781C362.842 127.869 363.313 125.994 364.112 124.252C364.692 123.246 365.414 122.329 366.255 121.528C367.768 120.096 369.818 118.955 371.82 119.027C372.621 119.055 372.293 119.688 373.278 119.187C373.446 119.086 373.596 118.958 373.722 118.807L373.995 119.103C374.939 120.088 375.997 120.556 377.118 121.268C378.835 122.348 379.76 124.644 379.348 126.809C379.18 127.705 378.803 128.629 379.02 129.485C379.208 130.237 379.82 130.753 380.189 131.405C380.413 131.793 380.557 132.221 380.613 132.666C378.731 136.086 375.16 138.835 371.484 139.171V139.211C371.436 139.431 371.388 139.647 371.324 139.859C371.056 140.799 370.415 141.795 369.434 141.859C368.982 141.856 368.537 141.751 368.133 141.551L365.606 140.531C365.516 140.507 365.432 140.465 365.358 140.408C365.285 140.351 365.223 140.28 365.178 140.199C365.141 140.039 365.164 139.871 365.242 139.727L365.53 138.971Z" fill="#FFB68E"/>
<path d="M347.404 115.155C349.406 115.035 351.156 116.199 352.773 117.323C353.062 115.367 354.947 114.019 356.753 113.491C358.559 112.962 360.465 112.966 362.231 112.29C364.357 111.458 366.455 109.626 368.565 110.222C370.463 110.762 371.648 113.067 372.83 115.115L372.922 115.019C373.831 114.075 374.82 113.167 375.993 112.682C379.781 111.118 379.344 115.843 382.255 115.595C382.96 115.531 383.552 114.979 384.217 114.687C385.466 114.135 386.86 114.571 387.981 115.251C389.102 115.931 390.087 116.851 391.292 117.359C392.365 117.811 393.575 117.923 394.572 118.523C396.069 119.42 395.773 121.048 396.029 122.524C396.325 124.164 396.778 126.373 397.663 127.725C398.303 128.709 399.292 129.349 400.121 130.149C400.95 130.949 401.667 132.066 401.491 133.29C401.322 134.454 400.397 135.394 400.133 136.542C399.773 138.254 399.957 139.183 399.192 140.883C398.792 141.763 398.363 142.687 397.591 143.223C396.574 143.923 395.28 143.739 394.167 143.403C393.054 143.067 391.921 142.603 390.752 142.831C388.213 143.327 388.349 145.832 387.444 147.796C386.833 149.072 385.793 150.093 384.505 150.68C383.736 151.068 382.887 151.27 382.025 151.27C381.163 151.27 380.314 151.068 379.544 150.68C377.306 149.432 376.289 146.532 376.742 143.855C376.969 142.903 377.262 141.967 377.618 141.055C377.735 140.705 377.823 140.347 377.883 139.983C378.087 138.687 377.582 136.782 378.9 135.914C379.246 135.752 379.581 135.569 379.905 135.366C380.138 135.146 380.313 134.871 380.413 134.566C380.635 133.963 380.703 133.314 380.609 132.678C380.553 132.233 380.409 131.805 380.185 131.417C379.785 130.765 379.204 130.249 379.016 129.497C378.8 128.641 379.176 127.717 379.344 126.821C379.745 124.656 378.832 122.36 377.114 121.28C375.981 120.568 374.936 120.1 373.991 119.115L373.718 118.819C373.592 118.97 373.442 119.098 373.274 119.199C372.289 119.7 372.629 119.067 371.817 119.039C369.815 118.967 367.764 120.108 366.251 121.54C365.41 122.341 364.689 123.258 364.109 124.264C363.052 126.06 362.454 128.088 362.367 130.169C362.275 133.11 363.8 134.406 362.399 137.37C362.088 138.028 361.708 138.65 361.266 139.227C360.1 140.8 358.481 141.979 356.625 142.607C356.417 142.607 356.213 142.599 356.013 142.583C354.996 142.499 354.005 142.216 353.098 141.751C352.185 141.289 351.363 140.667 350.671 139.915C349.594 138.756 348.855 137.326 348.533 135.778C348.357 134.914 348.273 133.962 347.704 133.338C347.248 132.834 346.551 132.642 346.103 132.138C344.157 130.097 347.864 126.397 347.031 123.592C346.503 121.82 344.321 121.128 343.828 119.335C343.316 117.347 345.414 115.275 347.404 115.155Z" fill="#172755"/>
<path d="M305.43 129.621C305.578 129.593 312.305 140.383 316.993 145.656C321.274 150.456 334.375 157.714 339.268 161.906C337.718 167.343 340.037 194.291 338.868 199.756C331.536 234.522 332.737 227.577 332.737 227.577C334.739 228.005 336.781 228.377 338.88 228.717C344.317 229.585 350.023 230.157 355.408 230.533L356.405 230.601C362.159 230.977 367.501 231.133 371.697 231.189C377.134 231.261 380.65 231.165 380.65 231.165L392.83 162.322L384.51 150.676C383.74 151.064 382.891 151.266 382.029 151.266C381.168 151.266 380.318 151.064 379.549 150.676C377.31 149.428 376.293 146.528 376.746 143.851C376.973 142.899 377.266 141.963 377.623 141.051L376.458 139.423L371.473 139.223C371.424 139.443 371.376 139.659 371.312 139.871C371.044 140.811 370.403 141.807 369.422 141.871C368.971 141.868 368.526 141.763 368.121 141.563L365.595 140.543C365.505 140.519 365.42 140.477 365.347 140.42C365.273 140.363 365.212 140.292 365.166 140.211C365.13 140.051 365.153 139.883 365.23 139.739L365.531 138.975L362.908 138.871C362.531 138.951 361.975 139.071 361.278 139.231C360.112 140.804 358.493 141.983 356.638 142.611C356.429 142.611 356.225 142.603 356.025 142.587C355.008 142.503 354.018 142.22 353.11 141.755C352.197 141.293 351.376 140.671 350.684 139.919C344.978 140.167 335.788 143.739 330.932 140.811C329.33 139.855 312.641 127.609 313.037 127.541C313.037 127.541 306.271 129.457 305.622 129.573L305.43 129.621Z" fill="#353A85"/>
<path d="M342.2 113.137C363.071 92.8233 363.506 59.448 343.171 38.5917C322.836 17.7354 289.433 17.296 268.562 37.6102C247.691 57.9244 247.256 91.2997 267.591 112.156C287.925 133.012 321.329 133.452 342.2 113.137Z" fill="#FF151F"/>
<path d="M266.246 75.2445C266.222 82.978 268.493 90.5451 272.773 96.9887C277.053 103.432 283.15 108.463 290.292 111.444C297.434 114.426 305.3 115.224 312.896 113.738C320.492 112.252 327.476 108.549 332.966 103.097C338.455 97.6447 342.203 90.6884 343.735 83.1079C345.267 75.5274 344.515 67.6632 341.573 60.5098C338.632 53.3565 333.633 47.2354 327.21 42.9208C320.786 38.6062 313.226 36.2918 305.486 36.2704C295.111 36.2438 285.15 40.3341 277.792 47.6422C270.434 54.9504 266.281 64.8785 266.246 75.2445Z" fill="white"/>
<path d="M323.145 93.3186C333.061 83.5184 333.147 67.5426 323.339 57.6357C313.53 47.7289 297.541 47.6424 287.625 57.4427C277.71 67.2429 277.623 83.2187 287.432 93.1255C297.241 103.032 313.23 103.119 323.145 93.3186Z" fill="#FF151F"/>
<path d="M294.766 75.3325C294.759 77.4295 295.374 79.4815 296.534 81.2289C297.694 82.9764 299.347 84.3409 301.283 85.1497C303.22 85.9586 305.353 86.1755 307.413 85.7731C309.472 85.3707 311.366 84.3671 312.855 82.889C314.344 81.411 315.361 79.525 315.777 77.4697C316.193 75.4143 315.989 73.2818 315.192 71.342C314.395 69.4021 313.04 67.742 311.298 66.5717C309.557 65.4013 307.507 64.7732 305.408 64.7669C302.595 64.7594 299.894 65.868 297.899 67.8492C295.903 69.8303 294.776 72.5218 294.766 75.3325Z" fill="white"/>
<path d="M382.695 180.909L384.737 176.388L401.642 183.874L390.302 187.466L395.239 198.06L378.334 190.579L380.384 186.038L328.556 163.71L326.506 168.251L316.031 155.253L332.924 154.045L330.874 158.586L382.695 180.909Z" fill="#FF151F"/>
<path d="M400.682 185.998V185.954V185.998ZM401.631 183.894L401.655 183.85L401.631 183.894Z" fill="#587BC9"/>
<path d="M234.941 144.403L227.461 173.164L208.65 181.769L210.008 189.018L230.861 184.486L247.786 157.77L234.941 144.403Z" fill="#474EBB"/>
<path d="M230.633 209.174V239.066L238.793 287.302H246.729L244.915 244.727L250.129 209.854L230.633 209.174Z" fill="#292949"/>
<path d="M234.79 144.423L250.182 135.418C250.182 135.418 258.226 148.98 268.396 171.12C278.566 193.259 273.393 224.22 273.393 224.22C273.393 224.22 234.482 221.052 226.758 220.727L229.673 176.949L234.79 144.423Z" fill="#474EBB"/>
<path d="M242.705 210.85L253.904 287.402H262.365L262.209 245.648L269.172 203.893L242.705 210.85Z" fill="#292949"/>
<path d="M228.592 122.984C233.397 122.584 237.229 118.035 242.045 118.283C245.181 118.447 247.987 120.772 249.381 123.664C250.076 124.996 250.364 126.503 250.21 127.997C250.057 128.946 249.718 129.855 249.213 130.673C248.565 131.766 247.724 132.731 246.73 133.522C247.473 134.387 248.292 135.183 249.177 135.902L242.998 139.419L240.968 135.87C240.303 135.936 239.632 135.936 238.966 135.87C236.916 135.616 234.973 134.812 233.343 133.544C231.712 132.277 230.455 130.592 229.705 128.669C229.032 126.865 228.792 124.912 228.592 122.984Z" fill="#FFB68E"/>
<path d="M230.008 124.228L244.41 120.244L248.975 131.001L252.615 127.085L247.67 109.09L226.896 111.814L218.74 118.439L219.925 123.648L228.77 127.813L230.008 124.228Z" fill="#172755"/>
<path d="M240.122 139.539L257.456 136.698C257.456 136.698 263.554 144.095 273.728 166.235C283.903 188.374 278.725 219.331 278.725 219.331C278.725 219.331 242.597 207.893 234.873 207.573L235.005 172.08L240.122 139.539Z" fill="white"/>
<path d="M237.841 172.916C237.577 176.148 237.32 179.781 238.418 182.717C238.418 182.717 241.116 186.67 241.268 186.466C241.268 186.33 243.27 184.066 243.715 182.529C244.448 179.925 244.219 176.845 243.823 174.092C242.41 164.327 240.323 154.581 240.496 144.711C242.325 143.831 243.759 142.167 242.269 140.347C238.746 142.347 239.643 150.804 239.35 154.349C238.854 160.534 238.351 166.723 237.841 172.916Z" fill="#305399"/>
<path d="M238.795 287.302L231.771 290.426V292.379L239.704 292.963L246.955 291.991L246.731 287.302H238.795Z" fill="#292949"/>
<path d="M255.05 287.302L251.242 291.491L248.768 293.771L251.054 296.055L257.524 294.723L263.046 289.966L262.097 287.302H255.05Z" fill="#1A3151"/>
<path d="M274.137 166.575C263.911 144.087 257.78 136.478 257.78 136.478L240.463 139.411V139.503C240.975 140.407 241.5 141.303 241.976 142.227C243.87 145.87 245.43 149.677 246.637 153.601C248.755 160.506 249.977 167.747 250.845 174.908C251.684 181.782 252.021 188.708 251.854 195.631C251.608 204.75 250.476 213.823 248.475 222.724C264.199 223.524 282.71 224.5 282.71 224.5C282.71 224.5 284.363 189.058 274.137 166.575Z" fill="#474EBB"/>
<path d="M174.66 283.345L179.865 287.014L181.591 289.814C180.614 290.255 179.603 290.616 178.568 290.895C177.487 291.111 169.062 289.814 169.062 289.814V284.846L174.66 283.345Z" fill="#292949"/>
<path d="M155.87 285.718L158.673 288.518C158.673 288.518 161.047 292.403 159.97 292.403C158.893 292.403 153.055 293.051 152.623 292.403C152.19 291.755 148.951 289.602 148.519 289.166C148.086 288.73 148.287 284.95 148.287 284.95L155.87 285.718Z" fill="#292949"/>
<path d="M165.803 209.962L162.132 246.868L155.869 285.718H148.306L147.445 245.143C147.445 245.143 139.881 208.238 139.236 197.232L165.803 209.962Z" fill="#292949"/>
<path d="M183.086 210.61L176.603 284.854H168.827L166.453 246.868L161.988 213.238L178.981 193.343L183.086 210.61Z" fill="#292949"/>
<path d="M179.899 137.986C179.899 137.986 170.413 130.841 160.215 135.91C150.017 140.979 142.465 153.169 137.216 181.517C131.967 209.866 129.476 213.186 133.656 214.246C137.836 215.307 149.028 211.63 152.688 212.446C156.347 213.262 180.744 219.203 188.288 212.982C195.831 206.761 182.87 193.843 182.025 173.628C181.18 153.413 187.815 144.847 179.899 137.986Z" fill="#FF151F"/>
<path d="M168.395 134.754L165.584 134.438L164.875 137.206L170.809 167.427L174.985 155.345L175.197 136.922L168.395 134.754Z" fill="#F7F7F7"/>
<path d="M174.221 157.557C174.373 156.421 174.469 155.397 174.501 154.561C174.718 148.772 171.771 140.731 171.771 140.731C171.758 139.701 171.8 138.672 171.895 137.646L168.6 136.586L168.283 140.147L169.512 141.891C169.512 141.891 171.01 155.973 170.257 161.414C170.181 161.986 170.081 162.57 169.973 163.162L170.81 167.427L174.221 157.557Z" fill="#7DB5DB"/>
<path d="M170.408 178.681L157.795 209.106L165.803 211.798L171.457 213.23L171.913 184.182L170.408 178.681Z" fill="#F7F7F7"/>
<path d="M172.39 137.818L166.82 136.15C167.101 134.631 167.503 133.137 168.022 131.681C166.552 130.817 164.89 129.633 164.939 127.929C164.984 127.394 165.12 126.871 165.339 126.381C166.14 124.308 166.272 121.98 167.705 120.168C168.178 119.564 168.262 118.711 168.79 118.167C169.715 117.191 171.193 116.967 172.53 116.999C175.966 117.071 179.445 118.495 181.599 121.172C182.207 121.863 182.622 122.702 182.801 123.604C183.013 124.996 182.4 126.365 181.772 127.633C181.206 128.801 180.64 129.972 180.074 131.145C179.425 132.494 178.572 134.002 177.099 134.266C176.318 134.406 175.473 134.158 174.736 134.45C173.415 134.946 173.235 136.702 172.39 137.818Z" fill="#FFB68E"/>
<path d="M189.66 113.327C189.24 113.151 188.844 112.925 188.478 112.654C187.277 111.718 186.616 110.294 185.311 109.374C182.676 107.51 178.973 106.75 175.797 107.23C172.762 107.686 168.902 107.182 166.052 108.114C164.867 108.535 163.805 109.239 162.956 110.166C161.466 111.751 160.451 113.722 160.026 115.855C159.602 117.988 159.784 120.198 160.554 122.232C160.923 123.132 161.372 123.997 161.895 124.816C162.952 126.529 164.202 128.637 165.939 129.533C166.308 127.893 165.819 122.408 167.349 121.304C169.375 119.84 172.422 120.66 174.556 121.42C177.107 122.324 179.465 122.032 182.036 122.82C183.345 123.22 184.779 123.868 186.012 123.272C187.437 122.584 190.717 120.072 191.654 118.851C192.045 118.299 192.272 117.646 192.307 116.97C192.341 116.293 192.183 115.621 191.85 115.031C191.305 114.019 190.492 113.703 189.66 113.327Z" fill="#172755"/>
<path d="M164.903 134.438L155.609 136.022L146.092 151.425L171.93 182.225L198.901 189.699L201.848 182.677L177.143 168.635L161.956 141.007L164.903 134.438Z" fill="#FF151F"/>
<path d="M201.643 183.17L203.208 184.034L200.714 189.699L199.156 189.09L201.643 183.17Z" fill="#DAE5EA"/>
<path d="M208.716 182.113L206.838 182.677L208.195 189.019L209.901 188.434L208.716 182.113Z" fill="#EDEEEF"/>
<path d="M203.21 184.034L205.476 182.449L208.651 184.034L210.009 184.942V188.338L206.837 189.471L201.184 188.634L203.21 184.034Z" fill="#FFB68E"/>
<path d="M206.837 182.677L204.795 182.225L203.209 182.449L203.661 185.622L205.023 185.394V182.765L205.475 182.449L206.941 183.169L206.837 182.677Z" fill="#FFB68E"/>
<path d="M327.903 289.11C327.903 287.661 327.413 286.253 326.512 285.116C325.612 283.98 324.354 283.179 322.942 282.845C323.078 282.261 323.127 281.66 323.087 281.061C322.994 280.058 322.69 279.086 322.194 278.209C320.992 275.932 318.65 274.504 316.468 273.116C314.137 271.632 311.807 270.023 310.193 267.783C307.118 263.522 309.653 258.753 307.899 254.181C306.642 250.928 304.656 250.036 302.077 249.676L301.793 247.112C309.096 247.284 314.606 247.236 315.147 246.712C315.619 246.271 316.075 242.911 316.216 237.698L325.589 235.558C328.572 234.842 323.731 202.081 323.067 199.104C319.84 184.665 311.651 171.811 299.923 162.778C294.52 158.603 288.496 155.299 282.069 152.989C281.2 152.677 275.642 152.217 275.398 151.885L265.853 139.083C265.352 138.411 264.207 138.611 264.183 139.375L263.722 153.921C251.514 157.121 243.178 162.666 243.178 162.666L246.313 169.523C248.507 174.324 235.266 196.196 235.266 196.196L244.671 209.518C244.671 209.518 253 209.582 253.6 205.445C254.201 201.308 256.803 197.904 256.803 197.904L280.387 193.231L279.691 197.232L256.067 231.905C255.899 232.153 255.796 232.439 255.769 232.737C255.742 233.035 255.79 233.335 255.911 233.61L260.611 244.327C260.743 244.625 260.954 244.881 261.222 245.067C261.49 245.252 261.803 245.361 262.129 245.379C264.131 245.491 268.691 245.747 274.357 246.035L274.061 249.208C271.55 249.66 269.444 250.848 268.343 253.729C266.605 258.289 269.144 263.046 266.097 267.331C264.495 269.575 262.161 271.187 259.834 272.68C257.66 274.076 255.342 275.512 254.129 277.792C253.1 279.725 252.928 281.441 253.356 282.961C251.932 283.288 250.661 284.087 249.751 285.229C248.84 286.37 248.344 287.787 248.343 289.246V289.378C248.343 290.226 248.511 291.065 248.837 291.847C249.162 292.63 249.639 293.34 250.239 293.939C250.84 294.537 251.553 295.011 252.337 295.334C253.121 295.656 253.961 295.821 254.809 295.819L321.457 295.711C322.305 295.711 323.145 295.543 323.929 295.218C324.712 294.892 325.424 294.416 326.023 293.815C326.621 293.215 327.096 292.502 327.419 291.718C327.741 290.934 327.906 290.094 327.903 289.246V289.11Z" fill="#8CABEF"/>
<g style="mix-blend-mode:multiply" opacity="0.16">
<g style="mix-blend-mode:multiply" opacity="0.16">
<path d="M274.35 246.028L301.793 247.14L302.078 249.704L274.35 246.948V246.028Z" fill="black"/>
</g>
</g>
<g style="mix-blend-mode:multiply" opacity="0.16">
<g style="mix-blend-mode:multiply" opacity="0.16">
<path d="M316.217 237.742C316.841 237.598 314.755 221.716 314.535 220.111C313.742 214.088 312.481 208.136 310.763 202.309C307.159 190.419 301.117 178.937 291.211 171.16C284.344 165.771 275.68 161.018 266.65 161.114C273.429 161.042 280.552 161.914 286.999 163.995C298.507 167.735 306.218 178.693 311.62 188.922C316.667 198.496 319.874 208.93 321.073 219.683C321.206 220.883 323.14 236.046 322.347 236.342L316.217 237.742Z" fill="black"/>
</g>
</g>
<path d="M254.81 295.859C253.086 295.858 251.433 295.175 250.212 293.959C248.991 292.743 248.302 291.093 248.296 289.37V289.246C248.288 287.782 248.778 286.359 249.686 285.209C250.594 284.06 251.866 283.253 253.293 282.921C252.844 281.321 253.109 279.593 254.094 277.76C255.295 275.544 257.477 274.132 259.607 272.768L259.82 272.632C262.086 271.175 264.44 269.567 266.066 267.295C267.792 264.894 267.728 262.374 267.667 259.718C267.615 257.741 267.563 255.717 268.32 253.717C269.301 251.152 271.123 249.716 274.038 249.172L274.326 246.083C268.829 245.807 264.336 245.555 262.146 245.431C261.812 245.413 261.489 245.301 261.215 245.11C260.941 244.918 260.725 244.654 260.592 244.347L255.86 233.637C255.735 233.357 255.685 233.05 255.713 232.745C255.741 232.439 255.847 232.146 256.02 231.893L279.644 197.228L280.316 193.359L256.812 198.016C256.632 198.26 254.214 201.576 253.641 205.521C253.057 209.566 245.049 209.634 244.696 209.634H244.648L235.223 196.288V196.26C235.355 196.044 248.436 174.356 246.266 169.631L243.115 162.734L243.147 162.714C249.524 158.811 256.441 155.866 263.675 153.973L264.132 139.463C264.138 139.355 264.167 139.249 264.215 139.152C264.264 139.055 264.331 138.969 264.414 138.899C264.497 138.829 264.593 138.777 264.696 138.745C264.8 138.713 264.909 138.703 265.017 138.715C265.185 138.712 265.352 138.75 265.503 138.825C265.654 138.899 265.785 139.008 265.886 139.143L275.431 151.945C275.551 152.109 277.433 152.345 278.943 152.541C279.998 152.641 281.047 152.805 282.082 153.033C288.513 155.346 294.542 158.652 299.948 162.83C305.721 167.285 310.685 172.698 314.623 178.833C318.632 185.049 321.511 191.924 323.128 199.14C323.744 201.904 328.701 234.906 325.618 235.646L322.371 236.386L321.254 236.642L316.281 237.778C316.145 242.691 315.708 246.311 315.196 246.792C314.843 247.116 312.609 247.276 308.365 247.276C306.559 247.276 304.361 247.248 301.862 247.188L302.138 249.664C304.729 250.032 306.707 250.948 307.96 254.193C308.725 256.193 308.677 258.217 308.633 260.194C308.573 262.854 308.513 265.362 310.235 267.767C311.868 270.031 314.239 271.635 316.501 273.084L316.713 273.22C318.847 274.576 321.054 275.98 322.239 278.197C322.74 279.079 323.047 280.058 323.14 281.069C323.179 281.655 323.133 282.244 323.003 282.817C324.416 283.158 325.673 283.965 326.571 285.106C327.47 286.248 327.958 287.658 327.956 289.11V289.246C327.959 290.97 327.276 292.624 326.058 293.844C324.84 295.065 323.187 295.752 321.462 295.755L254.81 295.859ZM280.436 193.219L279.732 197.252L256.108 231.925C255.943 232.165 255.842 232.444 255.816 232.734C255.789 233.023 255.837 233.315 255.956 233.581L260.664 244.299C260.79 244.59 260.995 244.84 261.255 245.021C261.516 245.201 261.821 245.306 262.138 245.323C264.336 245.447 268.849 245.699 274.366 245.979H274.418L274.11 249.236H274.078C271.175 249.756 269.369 251.184 268.396 253.729C267.647 255.693 267.7 257.729 267.752 259.694C267.816 262.25 267.884 264.894 266.15 267.327C264.512 269.615 262.146 271.231 259.88 272.692L259.663 272.828C257.545 274.184 255.355 275.588 254.186 277.784C253.217 279.609 252.957 281.337 253.421 282.921V282.969H253.373C251.948 283.287 250.676 284.084 249.769 285.226C248.861 286.369 248.374 287.788 248.388 289.246V289.378C248.388 291.076 249.063 292.704 250.264 293.904C251.466 295.105 253.095 295.779 254.794 295.779L321.458 295.647C323.157 295.647 324.787 294.973 325.988 293.772C327.189 292.572 327.864 290.944 327.864 289.246V289.114C327.861 287.676 327.373 286.281 326.478 285.154C325.584 284.026 324.336 283.233 322.935 282.901H322.891V282.857C323.025 282.278 323.072 281.682 323.032 281.089C322.941 280.092 322.638 279.126 322.143 278.257C320.969 276.064 318.775 274.656 316.653 273.316L316.437 273.18C314.155 271.727 311.792 270.115 310.146 267.835C308.397 265.406 308.457 262.766 308.513 260.21C308.561 258.241 308.605 256.209 307.848 254.241C306.607 251.04 304.645 250.128 302.066 249.768H302.03L301.734 247.116H301.786C304.317 247.176 306.523 247.208 308.341 247.208C312.501 247.208 314.775 247.052 315.107 246.744C315.508 246.371 316.008 243.403 316.161 237.762V237.726L322.327 236.298L325.574 235.554C326.775 235.266 326.799 229.113 325.642 218.227C324.733 209.702 323.352 200.68 323.011 199.16C321.41 191.938 318.546 185.056 314.551 178.829C310.618 172.708 305.664 167.307 299.904 162.858C294.505 158.687 288.484 155.386 282.062 153.077C281.033 152.854 279.991 152.691 278.943 152.589C276.809 152.321 275.503 152.141 275.367 151.957L265.822 139.155C265.73 139.029 265.609 138.927 265.47 138.857C265.331 138.787 265.177 138.752 265.021 138.755C264.925 138.744 264.829 138.753 264.736 138.78C264.644 138.807 264.558 138.852 264.484 138.913C264.409 138.974 264.347 139.049 264.302 139.133C264.257 139.218 264.229 139.311 264.22 139.407L263.768 154.025H263.735C256.514 155.916 249.609 158.853 243.239 162.742L246.354 169.567C247.271 171.568 245.689 176.677 241.653 184.742C238.758 190.527 235.575 195.836 235.323 196.256L244.696 209.53C245.053 209.53 252.977 209.482 253.553 205.497C254.146 201.396 256.728 197.972 256.756 197.936L280.436 193.219Z" fill="#6D6E71"/>
<path d="M64.4647 238.094L62.3145 242.739C62.1554 243.096 61.9275 243.418 61.6437 243.687C61.3599 243.956 61.0258 244.166 60.6607 244.306C60.2955 244.445 59.9063 244.512 59.5154 244.501C59.1245 244.49 58.7395 244.403 58.3825 244.243L46.4465 238.738C45.7344 238.398 45.1864 237.79 44.9229 237.047C44.6594 236.303 44.7019 235.486 45.041 234.774L47.1912 230.125L64.4647 238.094Z" fill="#73726F"/>
<path d="M55.7878 158.366C63.3514 142.023 82.4187 134.734 98.3789 142.103C114.339 149.472 121.15 168.703 113.594 185.054C111.025 190.637 106.95 195.396 101.826 198.796C87.4118 208.886 80.2045 219.599 80.2045 219.599L65.6658 212.874L51.123 206.157C51.123 206.157 54.6106 193.755 52.9529 176.224C52.2202 170.124 53.2018 163.94 55.7878 158.366Z" fill="#D7E8F4"/>
<path d="M80.5303 219.743L71.3971 239.486C71.3139 239.681 71.193 239.856 71.0415 240.004C70.89 240.151 70.7108 240.267 70.5143 240.344C70.3177 240.422 70.1077 240.46 69.8964 240.456C69.6851 240.453 69.4766 240.407 69.2829 240.323L42.3757 227.897C42.186 227.804 42.0164 227.675 41.8768 227.517C41.7372 227.359 41.6303 227.174 41.5622 226.975C41.4941 226.775 41.4662 226.564 41.48 226.354C41.4939 226.143 41.5493 225.937 41.6429 225.748L50.7722 206.005L80.5303 219.743Z" fill="#AFADAC"/>
<path d="M58.8589 153.057C59.4074 171.148 63.1592 200.432 80.2445 219.515L80.1925 219.587L65.6658 212.874L51.123 206.157C51.123 206.157 54.6106 193.755 52.9529 176.224C52.2252 170.122 53.2124 163.939 55.8038 158.366C56.6577 156.506 57.6803 154.729 58.8589 153.057Z" fill="#F7F7F7"/>
<path d="M107.741 185.306C114.344 171.032 108.398 154.245 94.4639 147.812C90.5694 146.025 86.3109 145.172 82.0279 145.321C77.745 145.469 73.556 146.616 69.7949 148.668C77.735 142.931 88.3137 141.487 97.6711 145.804C111.605 152.237 117.551 169.027 110.949 183.302C108.337 188.988 103.943 193.67 98.4319 196.64C102.458 193.724 105.665 189.82 107.741 185.306Z" fill="#F7F7F7"/>
<path d="M71.2719 215.471L92.2972 179.189L85.4983 181.093L84.4373 172.22L77.0298 176.917L74.0708 170.732L60.0286 210.278L58.5391 209.59L73.8546 166.435L77.7265 174.524L85.7626 169.427L86.9038 178.977L95.7487 176.5L72.7615 216.159L71.2719 215.471Z" fill="#F4F5F5"/>
<path d="M74.8752 212.538L72.777 216.139L71.2715 215.467L73.8581 210.998C74.1865 211.518 74.5255 212.032 74.8752 212.538Z" fill="#EBEAEB"/>
<path d="M65.8104 193.995L60.0286 210.278L58.5391 209.59L64.9696 191.471C65.2392 192.316 65.5195 193.158 65.8104 193.995Z" fill="#EBEAEB"/>
<path d="M48.5065 210.902L46.8203 214.548L76.5783 228.287L78.2646 224.641L48.5065 210.902Z" fill="#868381"/>
<path d="M44.905 218.685L43.2188 222.331L72.9768 236.069L74.663 232.423L44.905 218.685Z" fill="#868381"/>
<path d="M58.3479 224.9L44.9062 218.691L46.8202 214.551L55.1126 218.379C56.0596 220.615 57.14 222.793 58.3479 224.9Z" fill="#94908B"/>
<path d="M48.5059 210.906L50.7722 206.005L51.2406 206.221C51.7852 208.622 52.4138 210.902 53.1105 213.022L48.5059 210.906Z" fill="#94908B"/>
<path d="M69.2693 240.323L42.362 227.897C42.1723 227.804 42.0028 227.675 41.8631 227.517C41.7235 227.359 41.6166 227.174 41.5485 226.975C41.4804 226.775 41.4525 226.564 41.4663 226.353C41.4802 226.143 41.5356 225.937 41.6293 225.748L43.2069 222.34L62.6345 231.309C65.1034 234.501 67.9694 237.366 71.1632 239.835C70.9458 240.114 70.6421 240.313 70.2995 240.401C69.9568 240.489 69.5946 240.462 69.2693 240.323Z" fill="#94908B"/>
<path d="M55.1127 218.379L46.8203 214.551L48.506 210.906L53.1107 213.034C53.7406 214.92 54.408 216.702 55.1127 218.379Z" fill="#73726F"/>
<path d="M62.6484 231.309L43.2207 222.34L44.9064 218.691L58.348 224.9C59.6291 227.135 61.0661 229.276 62.6484 231.309Z" fill="#73726F"/>
<path d="M45.8939 232.949C47.7198 237.81 53.6858 241.779 55.6958 243.007L46.4465 238.738C45.7344 238.398 45.1864 237.79 44.9229 237.047C44.6594 236.303 44.7019 235.486 45.041 234.774L45.8939 232.949Z" fill="#5D5A59"/>
<path d="M276.949 156.657L279.007 162.478L283.103 161.93L282.283 157.906L283.296 154.757L278.835 153.505L276.949 156.657Z" fill="#FFB68E"/>
<path d="M277.817 148.492L275.943 153.961L284.3 155.821V152.613L277.817 148.492Z" fill="#474EBB"/>
<path d="M363.688 139.363V165.367L372.637 139.419L369.882 141.871L363.688 139.363Z" fill="#DDDDDD"/>
<path d="M78.1987 172.568L81.438 172.484L81.3659 174.42L84.7693 176.929L81.4099 179.117L77.1016 176.889L78.1987 172.568Z" fill="#FFB68E"/>
<path d="M53.834 161.866C53.834 161.866 52.0922 161.366 46.3184 162.402L47.4915 170.515L77.4058 177.045L80.2447 172.644L53.834 161.866Z" fill="#474EBB"/>
<path d="M362.92 174.464L362.271 171.724L364.326 169.643L367.128 169.275L368.57 170.824L368.714 173.432L369.307 172.772L369.863 173.228L369.695 177.129C368.514 177.485 366.6 179.745 365.967 179.929L365.222 176.885L362.92 174.464Z" fill="#FFB68E"/>
<path d="M372.637 205.493L363.672 177.653L369.694 176.204L381.306 201.024L372.637 205.493Z" fill="#353A85"/>
</svg>
