<svg width="662" height="617" viewBox="0 0 662 617" fill="none" xmlns="http://www.w3.org/2000/svg">
<path d="M546.999 222.001C532.365 284.065 521.605 272.492 540.944 318.737C579.129 409.584 463.543 498.905 385.165 495.816C294.109 492.194 263.16 582.891 184.422 538.215C122.759 503.195 170.735 411.348 129.593 382.568C88.451 353.789 31.7637 348.54 28.5628 280.988C26.7455 242.42 90.6154 156.505 198.326 203.596C330.358 261.322 354.296 149.231 476.001 140.001C501 138.105 597.001 160 546.999 222.001Z" fill="#E2DFFE"/>
<path d="M105.235 236.598C102.984 235.747 100.566 235.43 98.1723 235.671C96.0764 237.665 92.1515 238.211 89.2808 238.414C86.2523 235.444 82.8027 232.936 79.043 230.971C76.5788 229.701 73.6954 228.431 72.946 225.738C71.6758 221.495 64.4611 219.781 60.1424 220.759C54.6805 219.272 48.4438 221.178 44.0489 224.76C42.1182 226.335 44.2902 230.26 45.9669 232.114C47.6436 233.969 49.714 236.052 49.333 238.465C47.1022 239.361 44.6873 239.701 42.296 239.456C40.9725 239.246 39.6222 239.272 38.3076 239.532C37.0247 240.002 35.9069 241.361 36.3515 242.543C35.475 244.08 34.4208 244.867 35.4369 246.353C36.3515 247.484 37.6217 248.398 37.6217 249.77C37.5524 250.313 37.3392 250.828 37.0043 251.261C36.6693 251.695 36.2247 252.03 35.7164 252.234C34.6992 252.603 33.7027 253.027 32.7314 253.504C29.848 255.384 29.8226 259.5 30.1275 262.866C31.9947 265.152 32.2868 269.09 31.3977 271.897C30.8803 272.902 30.702 274.047 30.8896 275.161C31.3342 276.432 32.7568 276.851 34.0016 277.168C36.669 277.854 39.7937 278.439 41.915 276.698C47.5039 272.075 56.1666 274.476 63.2417 276.063C65.6805 276.609 68.259 277.511 69.6816 279.569C71.5869 282.313 70.774 286.111 69.2116 289.057C67.6493 292.004 65.401 294.634 64.3976 297.809C63.661 300.862 63.5273 304.029 64.0038 307.132C64.334 310.943 64.7278 315.008 66.9507 318.158C69.3924 321.768 70.6569 326.045 70.5707 330.403C70.4183 333.642 69.3005 336.817 69.58 340.056C70.1135 345.899 75.1689 350.294 80.3259 353.114C85.9091 356.082 90.1647 361.05 92.2404 367.023C93.1804 369.969 93.5106 373.081 94.2854 376.066C95.7294 381.259 98.7741 385.864 102.986 389.226C106.035 391.652 111.039 392.515 114.875 393.214C116.87 393.57 119.016 393.862 120.515 395.221C121.201 395.843 121.696 396.656 122.37 397.304C125.571 400.48 131.464 399.171 134.703 402.309C135.471 403.181 136.188 404.097 136.85 405.052C137.855 406.257 139.133 407.204 140.578 407.814C142.023 408.424 143.593 408.679 145.157 408.558C144.433 410.933 147.291 413.728 146.427 416.052C145.716 417.932 143.582 418.758 142.109 420.117C139.568 422.48 139.149 426.468 140.254 429.809C141.359 433.149 143.684 435.842 146.008 438.421C150.34 443.222 155.535 445.546 160.222 449.979C164.578 454.095 165.557 460.751 164.604 466.657C163.651 472.564 161.06 478.089 159.218 483.754C155.763 494.386 154.925 506.059 158.227 516.779C161.53 527.5 169.253 536.976 179.618 541.18C180.245 541.309 180.896 541.258 181.496 541.033C182.096 540.809 182.621 540.419 183.009 539.91C183.419 539.446 183.68 538.87 183.757 538.255C183.834 537.641 183.724 537.018 183.441 536.468C181.574 533.025 178.246 530.117 175.82 527.017C174.943 526.138 174.419 524.967 174.346 523.727C174.461 522.343 175.617 521.352 176.518 520.285C177.852 518.64 178.555 516.572 178.5 514.455C178.5 512.486 177.306 510.555 177.369 508.587C177.352 507.599 177.627 506.627 178.16 505.796C178.694 504.964 179.462 504.308 180.367 503.912C181.218 503.62 182.158 503.646 182.984 503.29C185.677 502.096 185.245 497.98 187.201 495.77C188.201 494.835 189.381 494.113 190.668 493.649C195.889 491.109 200.182 486.168 200.652 480.388C201.033 475.777 199.382 470.227 202.862 467.153C206.089 464.371 211.043 466.213 215.247 465.539C216.949 465.26 218.092 463.672 218.892 462.135C219.638 460.552 219.848 458.768 219.489 457.055C219.134 454.959 218.219 452.914 218.435 450.792C218.715 447.807 221.052 445.508 222.855 443.171C224.995 440.337 226.511 437.082 227.301 433.619C228.216 429.682 225.688 425.033 222.157 423.064C218.626 421.095 214.383 421.044 210.344 420.93C206.305 420.816 202.024 420.511 198.722 418.174C195.698 416.04 193.996 412.547 191.596 409.714C187.569 404.951 181.701 402.194 176.023 399.552C173.889 398.562 171.488 397.558 169.24 398.282C168.416 398.675 167.567 399.014 166.7 399.298C164.159 399.781 162.165 397.406 159.93 396.199C155.268 393.659 148.574 397.33 148.167 402.55C145.754 403.388 141.296 402.664 139.924 400.518C138.946 398.968 138.539 396.796 136.85 396.097C135.948 395.716 134.818 395.869 134.081 395.221C132.811 394.141 133.814 392.198 134.081 390.585C134.424 388.044 132.506 385.58 130.169 384.462C127.742 383.523 125.148 383.091 122.547 383.192C119.939 383.294 117.339 382.831 114.926 381.833C110.417 379.572 108.575 373.45 110.544 368.801C111.639 366.517 113.378 364.602 115.547 363.294C117.715 361.985 120.219 361.338 122.751 361.434C127.692 361.586 132.912 365.244 132.912 370.147C132.912 371.417 134.932 371.532 136.024 370.909C136.55 370.551 136.994 370.087 137.329 369.547C137.663 369.006 137.881 368.402 137.968 367.772C138.234 366.502 138.26 365.232 138.641 364.076C139.105 362.695 139.989 361.493 141.168 360.637C142.347 359.781 143.764 359.313 145.221 359.3C148.244 359.3 150.378 356.315 152.524 354.219C153.632 353.184 154.449 351.878 154.895 350.429C155.341 348.981 155.399 347.441 155.065 345.963C154.607 344.387 153.553 342.812 154.074 341.263C154.355 340.685 154.753 340.173 155.243 339.757C155.733 339.342 156.304 339.033 156.919 338.849C160.201 337.478 163.743 336.841 167.297 336.982C170.383 337.122 171.971 335.179 173.546 332.524C174.677 330.606 175.185 328.18 177.001 326.871C179.707 324.928 183.454 326.643 186.794 326.427C187.989 326.281 189.139 325.884 190.17 325.263C191.2 324.642 192.088 323.81 192.775 322.822C193.462 321.834 193.933 320.712 194.157 319.53C194.38 318.347 194.352 317.131 194.073 315.96C193.207 313.809 192.035 311.794 190.592 309.978C188.849 307.291 187.625 304.301 186.985 301.162C186.401 298.279 186.235 295.116 184.343 292.881C181.383 293.02 177.789 292.881 175.147 294.291C174.626 291.268 174.054 288.13 172.187 285.691C170.32 283.253 166.738 281.881 164.109 283.405C161.479 284.929 160.971 288.486 161.441 291.42C161.911 294.354 163.143 297.238 163.067 300.235C162.991 303.233 160.908 306.586 157.923 306.447C156.354 306.291 154.904 305.541 153.871 304.351C152.296 302.763 151.051 300.731 149.031 299.778C147.412 299.233 145.738 298.867 144.039 298.686C142.6 298.377 141.239 297.776 140.041 296.922C138.842 296.067 137.831 294.976 137.07 293.715C136.31 292.455 135.815 291.053 135.617 289.594C135.418 288.135 135.521 286.651 135.918 285.234C136.315 283.816 136.998 282.495 137.925 281.351C138.852 280.208 140.003 279.266 141.308 278.584C142.612 277.902 144.043 277.495 145.511 277.387C146.979 277.279 148.454 277.472 149.844 277.956C156.538 275.492 159.256 267.058 156.589 260.44C153.921 253.822 146.732 249.694 139.619 249.376C137.531 249.448 135.442 249.308 133.382 248.957C127.666 247.509 124.669 241.222 119.702 238.059C116.374 235.976 108.855 237.97 105.235 236.598Z" fill="#8CABEF"/>
<path d="M195.355 216.173C193.145 219.527 195.609 224.099 198.81 226.525C202.011 228.951 206.025 230.336 208.553 233.499C212.63 238.503 211.474 245.909 209.239 251.955C207.003 258.001 203.866 264.136 204.641 270.487C205.067 273.527 206.155 276.437 207.829 279.01C209.391 281.551 211.512 283.913 214.37 284.599C218.016 285.475 221.699 283.329 224.468 280.788C227.237 278.248 229.625 275.187 232.979 273.536C237.831 271.173 244.055 272.049 248.221 268.696C253.442 264.53 252.667 256.591 254.102 250.075C256.516 239.126 265.991 231.022 269.688 220.466C270.469 218.409 270.87 216.227 270.869 214.027C270.704 206.939 264.734 201.045 258.053 198.695C249.809 195.786 241.476 197.603 233.017 197.222C228.406 197.019 223.325 195.062 218.867 196.942C211.995 199.813 214.015 206.596 209.518 210.622C205.669 214.115 198.48 211.397 195.355 216.173Z" fill="#8CABEF"/>
<path d="M380.957 259.055C377.02 255.245 370.593 258.928 366.503 262.599L354.321 273.536C351.273 276.279 347.97 279.137 343.944 279.81C339.917 280.484 335.052 277.918 334.862 273.828C337.631 271.287 343.143 275.098 345.671 272.253C347.907 269.712 344.591 266.13 341.683 264.441C336.335 261.367 330.822 258.217 324.726 257.391C318.629 256.566 311.693 258.661 308.518 263.882C305.799 268.404 306.308 274.31 303.615 278.845C301.938 281.69 299.156 283.723 297.264 286.466C295.371 289.21 294.533 293.224 296.87 295.548C298.763 297.428 301.951 297.441 303.843 299.359C305.279 300.82 305.774 303.271 307.654 304.071C309.813 304.998 312.252 302.915 312.735 300.629C313.217 298.343 312.519 295.98 312.151 293.668C311.02 286.746 314.5 278.235 321.436 277.245C323.023 277.245 323.544 279.569 322.833 280.979C322.122 282.389 320.75 283.38 320 284.79C319.689 285.457 319.524 286.183 319.514 286.919C319.505 287.656 319.652 288.385 319.947 289.06C320.241 289.736 320.675 290.34 321.221 290.835C321.767 291.329 322.412 291.702 323.112 291.928C326.123 292.703 331.14 292.08 330.734 295.154C330.314 298.432 324.256 296.285 322.299 298.965C321.144 300.54 322.16 302.776 322.134 304.668C322.134 308.479 317.879 310.943 314.081 311.222C310.283 311.502 306.46 310.359 302.649 310.714C298.839 311.07 294.723 313.737 294.901 317.535C289.65 319.999 284.192 321.997 278.592 323.505C278.833 327.621 286.607 328.015 286.569 332.13C286.569 334.607 283.495 335.941 281.018 335.725C278.541 335.509 276.051 334.556 273.663 335.191C269.522 336.284 268.074 342.101 270.374 345.708C272.673 349.316 277.372 350.789 281.628 350.421C282.487 350.428 283.338 350.26 284.131 349.928C284.923 349.596 285.64 349.107 286.238 348.49C287.267 347.22 287.343 345.454 287.775 343.867C288.281 342.066 289.263 340.435 290.617 339.145C291.972 337.855 293.649 336.954 295.473 336.538C297.492 336.08 299.957 336.042 301.049 334.289C303.35 335.562 305.313 337.368 306.772 339.556C308.23 341.744 309.143 344.251 309.432 346.864C310.906 348.77 314.221 346.305 313.891 343.905C313.56 341.504 311.452 339.84 309.763 338.1C308.073 336.36 306.676 333.654 307.997 331.622C311.936 332.836 315.486 335.064 318.293 338.083C321.099 341.101 323.063 344.804 323.989 348.82C324.65 348.638 325.261 348.306 325.774 347.849C326.287 347.393 326.689 346.826 326.948 346.19C327.206 345.554 327.316 344.868 327.268 344.183C327.219 343.498 327.015 342.834 326.669 342.241C327.52 340.323 330.645 341.415 331.546 343.32C332.448 345.226 332.309 347.538 333.579 349.24C337.301 354.041 347.259 348.185 350.307 353.431C352.441 357.115 347.627 361.408 343.372 361.268C339.117 361.129 335.243 358.728 331.013 358.283C326.339 357.826 321.804 359.833 317.13 360.379C312.455 360.926 306.727 359.109 305.698 354.498C305.639 353.237 305.364 351.996 304.885 350.827C303.958 349.29 301.862 348.935 300.084 349.138C292.323 350.014 284.447 358.029 278.046 353.558C273.943 361.535 263.921 364.533 258.345 371.544C252.26 379.166 252.768 390.953 258.675 398.714C264.581 406.475 275.01 410.146 284.689 408.876C286.912 408.596 289.236 408.101 291.306 408.952C293.377 409.803 294.66 411.772 296.387 413.182C298.115 414.592 300.922 415.29 302.345 413.588C301.548 415.609 301.239 417.789 301.442 419.952C301.645 422.114 302.355 424.199 303.513 426.036C306.054 429.961 310.741 433.073 310.639 437.747C310.639 440.161 309.191 442.32 308.53 444.645C305.52 455.314 318.12 464.015 320.102 474.914C320.648 477.835 320.635 481.379 323.125 483.03C324.327 483.704 325.685 484.05 327.063 484.034C334.087 484.504 342.928 482.408 344.388 475.523C344.632 473.547 344.692 471.553 344.566 469.566C344.693 466.58 345.604 463.681 347.207 461.159C348.811 458.637 351.049 456.582 353.699 455.2C355.209 454.623 356.619 453.813 357.878 452.799C360.418 450.259 359.859 446.08 358.551 442.765C357.243 439.449 355.363 436.122 355.807 432.603C356.544 426.938 362.628 423.94 367.239 420.562C370.708 417.992 373.634 414.761 375.847 411.055C378.06 407.349 379.516 403.241 380.132 398.968C373.781 400.988 365.905 402.702 361.079 398.092C359.49 396.394 358.228 394.417 357.357 392.261C354.334 385.961 351.319 379.665 348.313 373.374C348.063 372.986 347.893 372.553 347.812 372.1C347.732 371.646 347.742 371.181 347.843 370.731C348.72 368.394 352.225 370.35 353.585 372.446C358.415 379.94 362.747 387.743 366.553 395.805C374.377 394.385 381.767 391.177 388.147 386.431C390.166 384.92 392.173 383.116 392.859 380.69C393.545 378.264 392.288 375.152 389.798 374.72C388.825 374.639 387.845 374.699 386.889 374.898C381.021 375.507 375.927 371.087 372.091 366.553C374.721 363.606 379.497 365.282 383.079 366.959C389.514 369.918 396.308 372.028 403.288 373.234C405.041 373.429 406.755 373.892 408.368 374.606C409.445 375.213 410.436 375.96 411.315 376.828C419.389 384.294 425.266 393.826 428.311 404.392C431.372 405.09 433.531 401.305 433.772 398.168C434.014 395.03 433.645 391.41 435.906 389.276C437.685 387.549 440.593 387.32 442.156 385.402C444.112 382.976 443.096 378.912 445.382 376.803C448.253 374.161 452.902 377.387 454.426 380.982C455.95 384.577 456.522 388.972 459.748 391.144L464.969 390.394C465.023 399.277 468.025 407.891 473.504 414.884C476.477 413.321 475.13 408.799 473.276 405.992C471.421 403.185 469.579 399.019 472.234 396.936C475.892 396.936 477.607 402.017 481.126 402.893C484.644 403.769 487.832 399.54 487.197 395.945C486.562 392.35 483.463 389.721 480.275 387.943C477.417 384.818 481.545 379.813 485.724 379.051C489.903 378.289 494.475 379.534 498.273 377.629C502.808 375.355 504.332 369.36 503.291 364.38C502.249 359.401 499.315 355.095 496.94 350.624C494.882 346.814 493.866 340.844 497.867 339.192C498.974 338.837 500.135 338.678 501.296 338.722C516.425 338.075 528.949 322.057 525.913 307.209C525.452 304.372 524.187 301.727 522.267 299.587C518.66 295.917 512.563 295.053 509.87 290.696C506.58 285.336 510.645 278.223 515.916 274.78C521.188 271.338 527.615 269.839 532.531 265.889C533.801 265.889 534.538 264.619 534.779 263.285C534.84 262.464 534.819 261.638 534.715 260.821C534.707 259.681 535.07 258.569 535.749 257.653C536.429 256.738 537.388 256.069 538.482 255.747C539.576 255.426 540.744 255.469 541.811 255.871C542.878 256.273 543.785 257.012 544.394 257.976C545.881 260.325 545.284 263.437 544.204 266.003C543.124 268.569 541.587 271.084 541.308 273.802C541.028 276.521 542.578 279.823 545.36 280.153C548.751 280.534 550.936 276.521 551.152 273.116C551.368 269.712 550.72 266.003 552.536 263.133C555.318 258.763 562.99 257.734 563.181 252.564C563.346 248.386 558.1 245.921 557.135 241.844C556.915 240.153 556.966 238.438 557.287 236.763C557.588 233.604 557.096 230.419 555.854 227.498C554.612 224.577 552.66 222.013 550.175 220.038C547.691 218.063 544.752 216.74 541.626 216.19C538.5 215.639 535.287 215.878 532.277 216.884C530.321 217.532 528.466 218.485 526.485 219.006C523.509 219.614 520.455 219.734 517.441 219.361L501.246 218.256C496.406 217.926 491.275 217.647 486.969 219.908C480.694 223.21 477.124 231.441 470.088 232.292C465.121 232.889 460.688 229.459 456.039 227.618C452.249 226.173 448.149 225.739 444.14 226.358C440.132 226.977 436.353 228.628 433.175 231.149C430.813 229.879 431.537 226.436 430.711 223.921C429.886 221.406 427.015 219.717 424.271 219.476C421.49 219.418 418.726 219.919 416.142 220.949C410.477 222.804 403.897 225.954 403.376 231.886C403.224 233.55 403.605 235.328 402.894 236.852C401.903 239.011 399.185 239.735 397.508 241.425C395.488 243.444 395.171 246.506 395.095 249.389C395.019 252.272 394.942 255.245 393.278 257.594C391.614 259.944 383.002 261.075 380.957 259.055Z" fill="#8CABEF"/>
<path d="M486.868 422.911C488.324 424.717 490.262 426.074 492.457 426.824C494.997 427.916 498.135 428.754 500.446 427.205C502.021 426.138 507.28 418.86 507.648 417.285C508.36 414.236 507.344 414.414 504.308 413.791C499.379 412.75 481.241 414.706 486.868 422.911Z" fill="#8AA9EF"/>
<path d="M468.983 421.883C472.6 428.265 477.844 433.574 484.181 437.27C490.518 440.965 497.721 442.914 505.057 442.917C506.073 441.876 504.575 440.288 503.241 439.729C499.545 438.167 495.62 437.392 491.809 436.058C487.998 434.724 484.277 432.73 482.028 429.402C481.164 427.971 480.384 426.491 479.691 424.969C477.468 420.689 468.78 409.892 463.344 412.483C464.792 415.455 467.256 418.732 468.983 421.883Z" fill="#8AA9EF"/>
<path d="M507.242 451.758C505.362 453.854 503.61 456.432 500.891 457.08C499.265 457.474 497.538 457.08 495.912 457.474C491.136 458.579 490.031 465.006 491.123 469.782C492.216 474.558 494.439 479.575 492.66 484.135C492.19 485.005 491.897 485.959 491.797 486.942C491.852 487.532 492.042 488.102 492.35 488.608C492.658 489.114 493.077 489.543 493.575 489.864C497.932 493.141 504.118 490.791 508.906 488.2C513.695 485.609 519.512 482.789 524.288 485.405C529.369 488.2 529.89 495.275 533.053 500.178C535.822 504.497 541.944 507.075 546.263 504.331C547.676 503.305 548.901 502.042 549.883 500.597L556.386 492.099C559.244 488.289 562.217 484.364 562.737 479.677C563.804 470.62 555.777 463.355 548.549 457.817C548.356 454.907 547.583 452.065 546.276 449.459C543.329 444.378 537.308 443.882 538.947 451.021C534.221 451.173 530.411 444.175 525.152 443.501C518.776 442.676 511.307 447.198 507.242 451.758Z" fill="#8CABEF"/>
<path d="M180.289 422.975C180.228 424.748 180.007 426.512 179.629 428.246C179.481 428.364 179.31 428.451 179.127 428.503C178.945 428.554 178.754 428.568 178.566 428.544C178.377 428.521 178.196 428.46 178.032 428.365C177.867 428.27 177.724 428.143 177.609 427.992C177.228 427.37 178.613 423.191 178.613 423.191L180.289 422.975Z" fill="#27234C"/>
<path d="M188.689 380.423L190.188 389.861L189.032 408.723L187.99 422.911C187.914 423.521 188.194 423.877 187.597 424.004C187.383 424.045 187.162 424.036 186.952 423.979C186.742 423.922 186.548 423.818 186.384 423.675C186.22 423.532 186.09 423.353 186.006 423.153C185.921 422.952 185.883 422.735 185.894 422.518L186.326 407.605L186.834 393.925L183.532 394.179L182.02 410.374L180.102 423.165L178.68 423.496L179.023 409.523L180.521 390.89L181.36 384.78L184.523 384.107L188.689 380.423Z" fill="#F7B690"/>
<path d="M187.976 422.911L191.354 424.715L191.113 425.121C190.369 425.314 189.58 425.219 188.903 424.855L185.943 423.585V422.556L187.976 422.911Z" fill="#27234C"/>
<path d="M183.859 381.109L179.477 387.79L177.127 405.129C177.127 405.129 184.621 407.58 187.936 405.7C191.252 403.82 191.099 402.969 191.099 402.969L190.413 388.019L186.73 377.857C186.653 376.587 186.158 374.656 184.888 374.402L184.431 372.904L181.09 373.831H181.433C180.455 374.504 181.128 374.047 180.861 375.203L183.859 381.109Z" fill="#292949"/>
<path d="M181.611 371.201L187.111 370.693L185.473 376.231L181.611 371.201Z" fill="#EAC1CE"/>
<path d="M179.25 363.466C179.25 364.436 179.538 365.384 180.076 366.19C180.615 366.996 181.381 367.625 182.277 367.996C183.173 368.367 184.158 368.464 185.11 368.275C186.061 368.086 186.934 367.619 187.62 366.933C188.306 366.247 188.773 365.374 188.962 364.423C189.151 363.471 189.054 362.486 188.683 361.59C188.312 360.694 187.683 359.928 186.877 359.389C186.071 358.851 185.123 358.563 184.153 358.563C182.853 358.563 181.606 359.08 180.686 359.999C179.767 360.919 179.25 362.166 179.25 363.466Z" fill="#27234C"/>
<path d="M178.385 359.998C178.385 360.552 178.549 361.092 178.857 361.552C179.164 362.012 179.601 362.37 180.113 362.581C180.624 362.792 181.187 362.847 181.729 362.738C182.271 362.629 182.769 362.362 183.16 361.97C183.55 361.578 183.815 361.079 183.922 360.536C184.028 359.993 183.971 359.43 183.757 358.92C183.544 358.41 183.184 357.974 182.722 357.669C182.261 357.363 181.72 357.201 181.167 357.204C180.428 357.207 179.72 357.503 179.199 358.027C178.677 358.551 178.385 359.259 178.385 359.998Z" fill="#27234C"/>
<path d="M187.785 370.643C187.785 370.643 196.296 378.619 196.41 378.264C196.524 377.908 200.437 371.011 200.437 371.011L201.592 371.697L197.782 380.83C197.71 381.004 197.604 381.162 197.469 381.295C197.335 381.427 197.175 381.531 196.999 381.6C196.824 381.668 196.636 381.701 196.447 381.695C196.259 381.689 196.073 381.646 195.902 381.566L187.506 378.124L187.785 370.643Z" fill="#FDFEFE"/>
<path d="M184.699 359.465C185.801 359.468 186.857 359.906 187.637 360.684C188.417 361.462 188.859 362.517 188.865 363.618V366.248C188.897 366.813 188.812 367.379 188.617 367.911C188.422 368.443 188.121 368.93 187.732 369.341C187.342 369.753 186.873 370.08 186.353 370.304C185.832 370.528 185.272 370.644 184.705 370.644C184.139 370.644 183.578 370.528 183.058 370.304C182.538 370.08 182.068 369.753 181.679 369.341C181.29 368.93 180.988 368.443 180.793 367.911C180.599 367.379 180.514 366.813 180.545 366.248V363.631C180.545 362.528 180.983 361.471 181.761 360.69C182.54 359.909 183.596 359.468 184.699 359.465Z" fill="#F7B690"/>
<path d="M184.698 359.465C183.596 359.468 182.539 359.909 181.761 360.69C180.982 361.471 180.545 362.528 180.545 363.631V365.752C181.205 365.467 181.767 364.996 182.162 364.395C182.556 363.795 182.767 363.092 182.768 362.374C182.762 362.042 182.711 361.713 182.615 361.396C183.387 361.94 184.34 362.167 185.274 362.027C186.209 361.887 187.054 361.393 187.633 360.646C186.849 359.881 185.794 359.456 184.698 359.465Z" fill="#27234C"/>
<path d="M189.486 380.652L190.756 378.823C191.042 378.402 191.209 377.912 191.238 377.404C191.267 376.896 191.158 376.39 190.921 375.939L190.21 374.555C189.118 373.107 189.08 370.897 187.809 370.643L179.451 371.392L179.185 371.583C178.537 372.027 178.13 374.847 179.045 377.667C179.722 379.074 180.576 380.388 181.585 381.579L179.363 387.93C179.673 388.299 180.063 388.593 180.502 388.791C180.942 388.989 181.421 389.085 181.903 389.073C184.138 389.175 189.092 388.933 190.693 387.955L189.486 380.652Z" fill="#FDFEFE"/>
<path d="M179.162 371.583L172.811 381.808L175.11 392.617L176.837 392.846L176.494 382.036L181.791 375.012L179.162 371.583Z" fill="#FDFEFE"/>
<path d="M172.239 391.918L180.75 394.916L179.251 403.084L170.512 399.743L172.239 391.918Z" fill="#FF151F"/>
<path d="M175.806 395.107C176.613 395.107 177.267 394.453 177.267 393.646C177.267 392.839 176.613 392.185 175.806 392.185C175 392.185 174.346 392.839 174.346 393.646C174.346 394.453 175 395.107 175.806 395.107Z" fill="#F7B690"/>
<path d="M198.344 366.959L198.125 367.223L203.463 371.65L203.682 371.386L198.344 366.959Z" fill="#27234C"/>
<path d="M201.338 372.053C202.144 372.053 202.798 371.399 202.798 370.592C202.798 369.785 202.144 369.131 201.338 369.131C200.531 369.131 199.877 369.785 199.877 370.592C199.877 371.399 200.531 372.053 201.338 372.053Z" fill="#F7B690"/>
<path d="M507.889 252.056C507.955 253.766 508.172 255.466 508.536 257.137C508.681 257.253 508.847 257.339 509.024 257.389C509.202 257.44 509.388 257.454 509.572 257.432C509.755 257.409 509.932 257.35 510.093 257.258C510.253 257.166 510.393 257.043 510.505 256.896C510.874 256.273 509.527 252.209 509.527 252.209L507.889 252.056Z" fill="#27234C"/>
<path d="M499.723 210.61L497.957 218.053L498.503 237.729L500.396 251.942C500.472 252.539 500.193 252.895 500.79 252.996C500.997 253.037 501.21 253.03 501.414 252.976C501.618 252.922 501.807 252.822 501.967 252.683C502.126 252.545 502.252 252.372 502.334 252.177C502.416 251.983 502.453 251.772 502.441 251.561V238.097L502.517 223.769L504.181 223.896L505.451 239.761L508.068 252.196L509.452 252.514L509.122 238.948L508.957 218.117L506.848 214.852L503.787 214.192L499.723 210.61Z" fill="#292949"/>
<path d="M500.407 251.942L497.117 253.708L497.359 254.089C498.08 254.286 498.85 254.195 499.505 253.835L502.376 252.564L502.439 251.561L500.407 251.942Z" fill="#27234C"/>
<path d="M506.604 201.629L501.244 201.134L502.845 206.532L506.604 201.629Z" fill="#EAC1CE"/>
<path d="M508.868 194.097C508.868 195.042 508.588 195.966 508.063 196.752C507.537 197.537 506.791 198.15 505.917 198.511C505.044 198.872 504.083 198.966 503.156 198.78C502.229 198.595 501.378 198.139 500.711 197.47C500.043 196.8 499.589 195.948 499.407 195.021C499.224 194.094 499.32 193.133 499.684 192.261C500.047 191.388 500.661 190.643 501.448 190.12C502.235 189.597 503.16 189.319 504.105 189.321C504.732 189.321 505.352 189.445 505.931 189.685C506.51 189.925 507.035 190.277 507.478 190.721C507.92 191.164 508.271 191.691 508.509 192.27C508.748 192.85 508.87 193.47 508.868 194.097Z" fill="#27234C"/>
<path d="M509.743 190.718C509.743 191.256 509.583 191.782 509.284 192.23C508.985 192.677 508.56 193.025 508.062 193.231C507.565 193.436 507.018 193.489 506.49 193.383C505.962 193.277 505.478 193.017 505.098 192.636C504.719 192.254 504.461 191.769 504.357 191.241C504.254 190.713 504.31 190.166 504.517 189.669C504.725 189.173 505.075 188.749 505.524 188.452C505.973 188.155 506.499 187.998 507.038 188C507.394 188 507.747 188.07 508.076 188.207C508.405 188.344 508.704 188.544 508.955 188.797C509.207 189.05 509.406 189.349 509.541 189.679C509.676 190.009 509.745 190.362 509.743 190.718Z" fill="#27234C"/>
<path d="M500.598 201.083C500.598 201.083 492.304 208.844 492.189 208.514C492.075 208.184 488.264 201.451 488.264 201.451L487.146 202.125L490.868 211.016C490.939 211.184 491.042 211.336 491.172 211.463C491.302 211.59 491.457 211.69 491.626 211.756C491.795 211.822 491.976 211.854 492.158 211.849C492.34 211.844 492.519 211.803 492.685 211.727L500.839 208.361L500.598 201.083Z" fill="#FDFEFE"/>
<path d="M503.597 190.198C503.063 190.197 502.534 190.303 502.04 190.508C501.547 190.714 501.099 191.014 500.723 191.393C500.346 191.772 500.048 192.222 499.846 192.716C499.644 193.211 499.542 193.741 499.545 194.275V196.815C499.656 197.805 500.129 198.719 500.871 199.383C501.614 200.047 502.575 200.414 503.572 200.414C504.568 200.414 505.529 200.047 506.272 199.383C507.015 198.719 507.487 197.805 507.598 196.815V194.275C507.605 193.205 507.188 192.175 506.438 191.411C505.689 190.647 504.667 190.211 503.597 190.198Z" fill="#F7B690"/>
<path d="M503.595 190.198C504.666 190.211 505.687 190.647 506.437 191.411C507.186 192.175 507.603 193.205 507.596 194.275V196.371C506.954 196.091 506.407 195.629 506.023 195.042C505.639 194.455 505.436 193.769 505.437 193.068C505.438 192.75 505.485 192.433 505.577 192.128C504.971 192.555 504.248 192.786 503.506 192.789C502.963 192.785 502.428 192.657 501.941 192.415C501.455 192.173 501.03 191.823 500.699 191.392C501.079 191.01 501.53 190.708 502.027 190.503C502.524 190.298 503.057 190.194 503.595 190.198Z" fill="#27234C"/>
<path d="M498.935 210.788L497.665 208.997C497.39 208.588 497.23 208.112 497.203 207.62C497.176 207.128 497.283 206.638 497.512 206.202L498.211 204.843C499.265 203.433 499.303 201.274 500.548 201.032L508.69 201.769L508.944 201.947C509.566 202.379 509.973 205.135 509.084 207.866C508.428 209.239 507.595 210.52 506.607 211.677L508.868 217.901C508.557 218.267 508.167 218.557 507.726 218.749C507.286 218.94 506.807 219.028 506.327 219.006C504.143 219.107 499.316 218.879 497.754 217.913L498.935 210.788Z" fill="#FDFEFE"/>
<path d="M508.995 201.998L515.18 211.956L512.932 222.486L511.255 222.702L511.598 212.172L506.441 205.338L508.995 201.998Z" fill="#FDFEFE"/>
<path d="M515.74 221.813L507.445 224.722L508.906 232.673L517.416 229.434L515.74 221.813Z" fill="#FF151F"/>
<path d="M512.261 224.912C513.046 224.912 513.683 224.275 513.683 223.49C513.683 222.704 513.046 222.067 512.261 222.067C511.475 222.067 510.838 222.704 510.838 223.49C510.838 224.275 511.475 224.912 512.261 224.912Z" fill="#F7B690"/>
<path d="M490.326 197.536L485.125 201.85L485.336 202.104L490.537 197.79L490.326 197.536Z" fill="#27234C"/>
<path d="M487.389 202.455C488.175 202.455 488.812 201.818 488.812 201.032C488.812 200.247 488.175 199.61 487.389 199.61C486.604 199.61 485.967 200.247 485.967 201.032C485.967 201.818 486.604 202.455 487.389 202.455Z" fill="#F7B690"/>
<path d="M402.096 260.872L400.203 276.838L404.433 276.66C405.435 275.475 406.323 274.2 407.088 272.85C407.088 272.316 409.768 270.754 408.243 268.887C406.719 267.019 402.096 260.872 402.096 260.872Z" fill="#27234C"/>
<path d="M406.161 257.48L402.464 258.306C402.082 258.499 401.755 258.785 401.513 259.138C401.271 259.491 401.122 259.899 401.08 260.325L398.082 281.474L400.203 281.652L403.252 264.619L406.161 257.48Z" fill="#292949"/>
<path d="M403.249 264.619L402.309 273.027L403.033 288.803L404.709 301.785C404.747 302.039 404.86 302.276 405.035 302.464C405.209 302.652 405.437 302.783 405.687 302.839C405.868 302.865 406.053 302.851 406.228 302.799C406.403 302.746 406.565 302.657 406.703 302.536C406.84 302.416 406.95 302.267 407.025 302.1C407.099 301.933 407.137 301.752 407.135 301.569L406.767 288.867L406.335 277.206L409.155 277.422L410.425 290.048L412.064 307.437C412.132 307.818 412.322 308.165 412.607 308.427C412.891 308.689 413.254 308.85 413.639 308.885C413.9 308.91 414.163 308.876 414.409 308.786C414.654 308.695 414.877 308.551 415.06 308.363C415.242 308.176 415.381 307.949 415.465 307.701C415.549 307.453 415.576 307.189 415.544 306.929L414.033 289.54L413.143 274.031L410.933 269.471L408.24 268.899L403.249 264.619Z" fill="#292949"/>
<path d="M403.442 259.805C403.51 259.461 403.648 259.135 403.847 258.847C404.047 258.56 404.304 258.316 404.602 258.132C404.9 257.949 405.233 257.829 405.58 257.78C405.927 257.731 406.28 257.754 406.617 257.849C407.227 258.039 411.698 258.217 411.698 258.217L413.146 260.757L412.511 262.904L413.172 274.437C413.172 274.437 407.786 275.924 406.109 275.2C404.765 274.492 403.539 273.579 402.477 272.494L403.264 260.478L403.442 259.805Z" fill="#FDFEFE"/>
<path d="M405.294 301.912L401.623 303.754L402.118 303.843C402.92 303.993 403.749 303.896 404.494 303.563L407.034 302.458V301.582L405.294 301.912Z" fill="#27234C"/>
<path d="M412.738 307.64C412.836 308.882 413.052 310.111 413.386 311.311C413.647 311.502 413.972 311.586 414.293 311.546C414.614 311.506 414.907 311.345 415.114 311.095C415.444 310.562 414.25 306.993 414.25 306.993L412.738 307.64Z" fill="#27234C"/>
<path d="M405.385 257.15C405.385 257.023 405.588 255.88 405.588 255.88C406.716 255.772 407.851 255.772 408.979 255.88C409.056 256.108 409.462 259.817 409.462 259.817C409.462 259.817 406.731 259.716 406.617 259.678C406.503 259.64 405.474 259.119 405.474 259.119L405.385 257.15Z" fill="#FDFEFE"/>
<path d="M405.637 257.201L407.224 257.328L406.373 258.712L405.637 257.201Z" fill="#FF151F"/>
<path d="M404.52 268.683L405.193 270.157L406.641 268.861L406.59 258.585L406.145 258.661L404.52 268.683Z" fill="#FF151F"/>
<path d="M407.683 248.309C406.784 248.239 405.893 248.529 405.208 249.115C404.522 249.701 404.096 250.535 404.025 251.434L403.847 253.568C403.797 254.451 404.094 255.318 404.675 255.985C405.255 256.652 406.073 257.066 406.954 257.139C407.835 257.212 408.709 256.938 409.391 256.375C410.073 255.812 410.509 255.006 410.605 254.127L410.782 251.993C410.86 251.093 410.577 250.2 409.996 249.509C409.414 248.818 408.583 248.387 407.683 248.309Z" fill="#F7B690"/>
<path d="M410.783 251.841C410.816 251.203 410.666 250.568 410.352 250.012C410.037 249.456 409.571 249.001 409.008 248.7C408.444 248.399 407.807 248.265 407.17 248.312C406.533 248.36 405.922 248.588 405.41 248.97C405.975 249.478 406.608 249.906 407.29 250.24C407.79 250.536 408.298 250.803 408.814 251.04C409.462 251.358 410.11 251.599 410.783 251.841Z" fill="#27234C"/>
<path d="M410.782 251.968C410.833 251.334 410.701 250.699 410.401 250.138C410.285 250.359 410.199 250.594 410.147 250.837C410.07 251.286 410.096 251.746 410.223 252.183C410.277 252.43 410.395 252.658 410.566 252.844C410.61 252.876 410.657 252.906 410.705 252.933L410.782 251.968Z" fill="#27234C"/>
<path d="M411.684 258.217L391.195 273.091L391.729 274.857L412.497 262.929L413.132 260.783L411.684 258.217Z" fill="#292949"/>
<path d="M409.029 257.785L409.906 279.683L415.736 278.108L413.132 260.77L412.802 259.208C412.613 258.871 412.351 258.582 412.034 258.361C411.717 258.141 411.354 257.996 410.973 257.937L409.029 257.785Z" fill="#292949"/>
<path d="M400.365 283.062C400.365 283.376 400.272 283.683 400.097 283.944C399.923 284.205 399.675 284.409 399.385 284.529C399.095 284.649 398.775 284.681 398.467 284.619C398.159 284.558 397.877 284.407 397.654 284.185C397.432 283.963 397.281 283.68 397.22 283.372C397.159 283.064 397.19 282.745 397.31 282.455C397.43 282.164 397.634 281.916 397.895 281.742C398.156 281.567 398.463 281.474 398.777 281.474C399.198 281.474 399.602 281.642 399.9 281.939C400.198 282.237 400.365 282.641 400.365 283.062Z" fill="#F7B690"/>
<path d="M392.605 274.018C392.608 274.351 392.511 274.677 392.328 274.955C392.145 275.232 391.883 275.449 391.576 275.578C391.269 275.706 390.931 275.74 390.605 275.676C390.278 275.612 389.978 275.452 389.743 275.216C389.508 274.981 389.348 274.681 389.284 274.355C389.219 274.028 389.254 273.69 389.382 273.383C389.51 273.077 389.727 272.815 390.005 272.632C390.283 272.448 390.609 272.352 390.941 272.354C391.382 272.358 391.803 272.534 392.114 272.845C392.426 273.157 392.602 273.578 392.605 274.018Z" fill="#F7B690"/>
<path d="M374.123 264.822L390.979 275.225L391.512 273.459C391.512 273.459 375.825 260.757 374.936 260.097L373.666 259.297H370.795L370.109 261.837C370.321 262.706 370.605 263.556 370.96 264.377C372.005 264.589 373.061 264.737 374.123 264.822Z" fill="#FDFEFE"/>
<path d="M370.555 259.17L366.871 259.474C365.958 259.939 365.177 260.624 364.597 261.469L357.713 270.741L365.715 279.226L366.515 275.517L361.219 270.741L367.316 264.174L370.555 259.17Z" fill="#FDFEFE"/>
<path d="M374.848 274.158L376.334 275.428V290.671L374.708 303.614C374.671 303.868 374.557 304.105 374.382 304.293C374.208 304.481 373.98 304.612 373.73 304.668C373.549 304.694 373.364 304.68 373.189 304.628C373.014 304.576 372.852 304.486 372.714 304.365C372.577 304.245 372.467 304.096 372.392 303.929C372.318 303.762 372.28 303.581 372.282 303.398L372.663 290.696L373.095 279.036L370.275 279.252L369.005 291.877L367.366 309.266C367.298 309.647 367.107 309.995 366.823 310.256C366.538 310.518 366.176 310.679 365.791 310.714C365.53 310.739 365.267 310.705 365.021 310.615C364.776 310.524 364.553 310.38 364.37 310.192C364.187 310.005 364.049 309.779 363.965 309.53C363.881 309.282 363.854 309.018 363.886 308.758L365.334 291.293L366.223 275.784L368.433 271.224L371.126 270.652L374.848 274.158Z" fill="#292949"/>
<path d="M375.354 262.37C375.112 260.884 374.185 259.195 372.75 259.64C372.14 259.83 367.669 260.008 367.669 260.008L366.221 262.548L366.869 264.695L366.195 276.228C366.195 276.228 371.581 277.714 373.258 276.99C374.35 276.516 375.407 275.964 376.42 275.339L375.836 265.406L375.354 262.37Z" fill="#FDFEFE"/>
<path d="M374.01 303.703L377.681 305.545L377.185 305.634C376.383 305.784 375.555 305.687 374.81 305.354L372.27 304.249V303.373L374.01 303.703Z" fill="#27234C"/>
<path d="M366.603 309.431C366.506 310.673 366.289 311.902 365.955 313.102C365.694 313.293 365.37 313.377 365.049 313.337C364.728 313.297 364.434 313.136 364.228 312.886C363.897 312.353 365.091 308.784 365.091 308.784L366.603 309.431Z" fill="#27234C"/>
<path d="M373.921 258.941C373.921 258.814 373.718 257.671 373.718 257.671C372.59 257.563 371.454 257.563 370.326 257.671C370.25 257.899 369.844 261.608 369.844 261.608C369.844 261.608 372.575 261.507 372.702 261.469C372.829 261.431 373.832 260.91 373.832 260.91L373.921 258.941Z" fill="#FDFEFE"/>
<path d="M374.467 258.725L372.879 258.852L373.717 260.249L374.467 258.725Z" fill="#FF151F"/>
<path d="M375.584 270.208L374.898 271.681L373.463 270.385L373.514 260.109L373.958 260.186L375.584 270.208Z" fill="#FF151F"/>
<path d="M371.686 250.164C372.582 250.09 373.471 250.375 374.157 250.956C374.843 251.537 375.27 252.367 375.344 253.263L375.522 255.397C375.571 255.847 375.53 256.303 375.4 256.737C375.27 257.17 375.055 257.574 374.767 257.923C374.479 258.273 374.123 258.561 373.722 258.771C373.321 258.98 372.881 259.108 372.43 259.145C371.979 259.182 371.525 259.129 371.094 258.988C370.664 258.847 370.266 258.621 369.925 258.324C369.583 258.027 369.304 257.664 369.105 257.257C368.906 256.851 368.79 256.408 368.764 255.956L368.587 253.822C368.516 252.927 368.802 252.04 369.383 251.355C369.964 250.669 370.791 250.241 371.686 250.164Z" fill="#F7B690"/>
<path d="M368.535 253.632C368.499 252.994 368.646 252.359 368.958 251.802C369.271 251.245 369.736 250.789 370.3 250.487C370.863 250.186 371.5 250.051 372.137 250.1C372.774 250.148 373.384 250.378 373.895 250.761C373.334 251.275 372.701 251.703 372.015 252.031C371.524 252.327 371.016 252.594 370.491 252.831C369.856 253.149 369.144 253.39 368.535 253.632Z" fill="#27234C"/>
<path d="M368.522 253.759C368.477 253.125 368.609 252.492 368.903 251.929C369.025 252.147 369.111 252.383 369.158 252.628C369.255 253.072 369.251 253.532 369.145 253.974C369.09 254.218 368.976 254.445 368.815 254.635C368.815 254.635 368.713 254.635 368.675 254.724L368.522 253.759Z" fill="#27234C"/>
<path d="M366.31 279.455C367.187 279.455 367.898 278.744 367.898 277.867C367.898 276.99 367.187 276.279 366.31 276.279C365.434 276.279 364.723 276.99 364.723 277.867C364.723 278.744 365.434 279.455 366.31 279.455Z" fill="#F7B690"/>
<path d="M390.892 275.225C391.818 275.225 392.568 274.474 392.568 273.548C392.568 272.622 391.818 271.872 390.892 271.872C389.966 271.872 389.215 272.622 389.215 273.548C389.215 274.474 389.966 275.225 390.892 275.225Z" fill="#F7B690"/>
<path d="M106.137 203.712L104.244 219.679L108.474 219.501C109.476 218.316 110.364 217.041 111.129 215.69C111.129 215.157 113.809 213.595 112.285 211.727C110.76 209.86 106.137 203.712 106.137 203.712Z" fill="#27234C"/>
<path d="M110.203 200.321L106.507 201.147C106.125 201.339 105.798 201.626 105.556 201.979C105.314 202.332 105.165 202.74 105.123 203.166L102.125 224.315L104.246 224.493L107.295 207.46L110.203 200.321Z" fill="#292949"/>
<path d="M107.293 207.46L106.354 215.868L107.078 231.644L108.754 244.626C108.792 244.88 108.905 245.116 109.08 245.305C109.254 245.493 109.482 245.624 109.732 245.68C109.913 245.706 110.098 245.692 110.273 245.64C110.448 245.587 110.61 245.498 110.748 245.377C110.885 245.257 110.995 245.108 111.07 244.941C111.144 244.774 111.182 244.593 111.18 244.41L110.812 231.708L110.38 220.047L113.2 220.263L114.47 232.889L116.109 250.278C116.177 250.651 116.363 250.991 116.64 251.25C116.917 251.508 117.269 251.671 117.646 251.713C117.906 251.738 118.169 251.704 118.415 251.614C118.661 251.523 118.884 251.379 119.066 251.191C119.249 251.004 119.388 250.778 119.471 250.529C119.555 250.281 119.582 250.017 119.551 249.757L118.077 232.381L117.188 216.872L114.978 212.274L112.285 211.702L107.293 207.46Z" fill="#292949"/>
<path d="M107.481 202.646C107.549 202.302 107.687 201.976 107.886 201.688C108.086 201.4 108.343 201.157 108.641 200.973C108.939 200.79 109.272 200.67 109.619 200.621C109.966 200.572 110.319 200.595 110.656 200.689C111.266 200.88 115.737 201.058 115.737 201.058L117.185 203.598L116.55 205.745L117.211 217.278C117.211 217.278 111.825 218.764 110.148 218.04C108.804 217.333 107.579 216.42 106.516 215.335L107.303 203.319L107.481 202.646Z" fill="#FDFEFE"/>
<path d="M109.339 244.753L105.668 246.595L106.163 246.683C106.97 246.818 107.799 246.703 108.539 246.353L111.079 245.248V244.372L109.339 244.753Z" fill="#27234C"/>
<path d="M116.781 250.481C116.879 251.723 117.095 252.952 117.429 254.152C117.686 254.347 118.007 254.438 118.328 254.405C118.649 254.372 118.945 254.218 119.157 253.974C119.487 253.441 118.293 249.872 118.293 249.872L116.781 250.481Z" fill="#27234C"/>
<path d="M109.426 199.991C109.426 199.864 109.629 198.721 109.629 198.721C110.757 198.613 111.893 198.613 113.02 198.721C113.097 198.949 113.503 202.658 113.503 202.658C113.503 202.658 110.772 202.557 110.658 202.518C110.544 202.48 109.515 201.96 109.515 201.96L109.426 199.991Z" fill="#FDFEFE"/>
<path d="M109.682 200.25L111.269 200.377L110.418 201.761L109.682 200.25Z" fill="#FF151F"/>
<path d="M108.564 211.524L109.238 212.998L110.686 211.702L110.635 201.426L110.19 201.49L108.564 211.524Z" fill="#FF151F"/>
<path d="M111.724 191.15C110.825 191.08 109.934 191.37 109.249 191.956C108.563 192.541 108.137 193.376 108.066 194.275L107.888 196.409C107.838 197.292 108.135 198.159 108.716 198.826C109.296 199.493 110.114 199.907 110.995 199.98C111.876 200.052 112.75 199.778 113.432 199.216C114.114 198.653 114.55 197.847 114.646 196.968L114.823 194.834C114.901 193.934 114.618 193.041 114.037 192.35C113.455 191.659 112.624 191.228 111.724 191.15Z" fill="#F7B690"/>
<path d="M114.824 194.681C114.857 194.043 114.707 193.409 114.393 192.853C114.078 192.297 113.612 191.842 113.049 191.541C112.485 191.24 111.848 191.105 111.211 191.153C110.574 191.201 109.963 191.429 109.451 191.811C110.016 192.319 110.649 192.746 111.331 193.081C111.831 193.369 112.339 193.636 112.855 193.881C113.503 194.199 114.151 194.44 114.824 194.681Z" fill="#172755"/>
<path d="M114.827 194.808C114.878 194.175 114.746 193.54 114.446 192.979C114.33 193.2 114.244 193.435 114.192 193.678C114.115 194.127 114.141 194.587 114.268 195.024C114.322 195.271 114.44 195.499 114.611 195.685C114.655 195.717 114.702 195.747 114.75 195.774L114.827 194.808Z" fill="#172755"/>
<path d="M115.727 201.058L95.2383 215.932L95.7718 217.697L116.54 205.77L117.175 203.624L115.727 201.058Z" fill="#292949"/>
<path d="M113.072 200.626L113.949 222.524L119.779 220.949L117.175 203.624L116.845 202.061C116.656 201.724 116.394 201.435 116.077 201.215C115.76 200.995 115.397 200.85 115.016 200.791L113.072 200.626Z" fill="#292949"/>
<path d="M104.408 225.903C104.408 226.217 104.315 226.524 104.14 226.785C103.966 227.046 103.718 227.25 103.428 227.37C103.138 227.49 102.818 227.521 102.51 227.46C102.202 227.399 101.92 227.248 101.697 227.026C101.475 226.804 101.324 226.521 101.263 226.213C101.202 225.905 101.233 225.585 101.353 225.295C101.473 225.005 101.677 224.757 101.938 224.583C102.199 224.408 102.506 224.315 102.82 224.315C103.241 224.315 103.645 224.482 103.943 224.78C104.241 225.078 104.408 225.482 104.408 225.903Z" fill="#F7B690"/>
<path d="M96.6482 216.859C96.6507 217.192 96.5542 217.518 96.3709 217.795C96.1877 218.073 95.926 218.29 95.6191 218.418C95.3122 218.547 94.974 218.581 94.6476 218.517C94.3212 218.453 94.0213 218.293 93.786 218.057C93.5508 217.822 93.3908 217.522 93.3265 217.196C93.2622 216.869 93.2965 216.531 93.425 216.224C93.5535 215.917 93.7703 215.656 94.048 215.472C94.3257 215.289 94.6516 215.193 94.9842 215.195C95.4245 215.198 95.8458 215.375 96.1572 215.686C96.4685 215.997 96.6449 216.419 96.6482 216.859Z" fill="#F7B690"/>
<path d="M78.1671 207.663L95.0227 218.066L95.5562 216.3C95.5562 216.3 79.8692 203.598 79.0436 202.938L77.7734 202.137H74.9027L74.2168 204.678C74.428 205.547 74.7127 206.397 75.0678 207.218C76.0913 207.427 77.1262 207.576 78.1671 207.663Z" fill="#292949"/>
<path d="M74.5957 202.01L70.9121 202.315C69.9993 202.779 69.2176 203.465 68.6384 204.31L61.7539 213.582L69.7562 222.067L70.5437 218.409L65.247 213.582L71.3439 206.977L74.5957 202.01Z" fill="#292949"/>
<path d="M78.8916 216.999L80.3778 218.269V233.511L78.7011 246.417C78.6637 246.671 78.5502 246.907 78.3756 247.096C78.201 247.284 77.9735 247.415 77.723 247.471C77.542 247.497 77.3575 247.483 77.1822 247.431C77.0069 247.378 76.845 247.289 76.7075 247.168C76.57 247.048 76.4602 246.899 76.3856 246.732C76.3109 246.565 76.2732 246.384 76.275 246.201L76.6561 233.499L77.0879 221.838L74.2681 222.054L72.9979 234.68L71.3466 252.056C71.2788 252.437 71.0879 252.785 70.8034 253.046C70.5189 253.308 70.1564 253.469 69.7716 253.504C69.5108 253.529 69.2478 253.495 69.0019 253.405C68.756 253.314 68.5335 253.17 68.3507 252.982C68.1679 252.795 68.0296 252.569 67.9457 252.32C67.8619 252.072 67.8347 251.808 67.8663 251.548L69.3778 234.134L70.267 218.625L72.4771 214.065L75.1699 213.493L78.8916 216.999Z" fill="#292949"/>
<path d="M79.3974 205.211C79.156 203.725 78.2288 202.036 76.857 202.48C76.2473 202.671 71.7762 202.849 71.7762 202.849L70.3281 205.389L70.9759 207.536L70.3027 219.069C70.3027 219.069 75.6884 220.555 77.3651 219.831C78.4574 219.357 79.5143 218.805 80.5279 218.18L79.8801 208.247L79.3974 205.211Z" fill="#292949"/>
<path d="M78.0527 246.544L81.7236 248.386L81.2282 248.474C80.4264 248.625 79.5979 248.527 78.8529 248.195L76.3125 247.09V246.214L78.0527 246.544Z" fill="#27234C"/>
<path d="M70.6459 252.272C70.5487 253.514 70.3317 254.743 69.9981 255.943C69.7368 256.134 69.4126 256.218 69.0916 256.178C68.7705 256.138 68.4769 255.976 68.2706 255.727C67.9404 255.194 69.1344 251.625 69.1344 251.625L70.6459 252.272Z" fill="#27234C"/>
<path d="M77.9641 201.782C77.9641 201.655 77.7609 200.512 77.7609 200.512C76.6329 200.404 75.4974 200.404 74.3694 200.512C74.2932 200.74 73.8105 203.192 73.8105 203.192C73.8105 203.192 76.6177 204.348 76.7447 204.309C76.8717 204.271 77.8752 203.751 77.8752 203.751L77.9641 201.782Z" fill="#FDFEFE"/>
<path d="M78.5077 201.566L76.9199 201.693L77.7583 203.09L78.5077 201.566Z" fill="#FF151F"/>
<path d="M75.7283 193.005C76.6244 192.931 77.513 193.216 78.199 193.797C78.885 194.378 79.3121 195.208 79.3865 196.104L79.5389 198.174C79.5881 198.625 79.5466 199.08 79.4169 199.514C79.2871 199.948 79.0718 200.351 78.7837 200.701C78.4955 201.05 78.1403 201.338 77.739 201.548C77.3376 201.758 76.8984 201.885 76.4471 201.922C75.9958 201.96 75.5415 201.906 75.1112 201.765C74.6809 201.624 74.2832 201.398 73.9415 201.101C73.5999 200.804 73.3212 200.441 73.122 200.035C72.9227 199.628 72.8069 199.185 72.7815 198.733L72.6036 196.599C72.5509 195.711 72.8485 194.837 73.4326 194.165C74.0167 193.493 74.8409 193.076 75.7283 193.005Z" fill="#F7B690"/>
<path d="M72.5775 196.472C72.5417 195.835 72.6888 195.2 73.0014 194.643C73.3141 194.086 73.7794 193.63 74.3425 193.328C74.9056 193.027 75.5431 192.892 76.18 192.941C76.817 192.989 77.4268 193.218 77.9378 193.602C77.3772 194.115 76.7437 194.543 76.0579 194.872C75.5583 195.168 75.0502 195.435 74.5337 195.672C73.8986 195.99 73.1872 196.231 72.5775 196.472Z" fill="#172755"/>
<path d="M72.5654 196.599C72.52 195.966 72.652 195.333 72.9464 194.77C73.0679 194.988 73.1536 195.224 73.2005 195.469C73.298 195.913 73.2936 196.373 73.1878 196.815C73.1325 197.059 73.0192 197.285 72.8575 197.476C72.8575 197.476 72.7559 197.476 72.7178 197.565L72.5654 196.599Z" fill="#172755"/>
<path d="M70.3553 222.296C71.2322 222.296 71.9431 221.585 71.9431 220.708C71.9431 219.831 71.2322 219.12 70.3553 219.12C69.4784 219.12 68.7676 219.831 68.7676 220.708C68.7676 221.585 69.4784 222.296 70.3553 222.296Z" fill="#F7B690"/>
<path d="M94.9325 218.066C95.8585 218.066 96.6092 217.315 96.6092 216.389C96.6092 215.463 95.8585 214.712 94.9325 214.712C94.0065 214.712 93.2559 215.463 93.2559 216.389C93.2559 217.315 94.0065 218.066 94.9325 218.066Z" fill="#F7B690"/>
<path d="M73.8105 203.192L77.8498 212.426L78.1673 207.663L77.7609 202.811L73.8105 203.192Z" fill="#FDFEFE"/>
<path d="M79.629 213.048L78.9431 214.522L77.5078 213.226L77.5586 202.95L78.0032 203.027L79.629 213.048Z" fill="#FF151F"/>
<path d="M103.99 338.837C103.927 340.61 103.706 342.374 103.329 344.108C103.179 344.225 103.007 344.311 102.824 344.361C102.641 344.412 102.449 344.426 102.26 344.402C102.072 344.378 101.889 344.318 101.724 344.224C101.559 344.13 101.413 344.004 101.297 343.854C100.928 343.219 102.313 339.04 102.313 339.04L103.99 338.837Z" fill="#27234C"/>
<path d="M112.386 296.272L113.834 305.71L112.691 324.572L111.649 338.71C111.573 339.319 111.853 339.688 111.243 339.802C111.031 339.843 110.812 339.835 110.604 339.778C110.395 339.722 110.202 339.619 110.039 339.477C109.876 339.335 109.748 339.158 109.664 338.959C109.58 338.76 109.542 338.544 109.554 338.329L110.024 323.404L110.532 309.736L107.229 309.978L105.718 326.185L103.8 338.976L102.377 339.294L102.72 325.322L104.219 306.688L105.057 300.578L108.207 299.905L112.386 296.272Z" fill="#292949"/>
<path d="M111.674 338.722L115.103 340.526L114.875 340.92C114.132 341.118 113.343 341.027 112.665 340.666L109.705 339.396V338.367L111.674 338.722Z" fill="#27234C"/>
<path d="M102.086 278.451C102.083 279.005 102.246 279.547 102.552 280.008C102.858 280.47 103.294 280.83 103.805 281.043C104.316 281.256 104.879 281.313 105.422 281.205C105.966 281.098 106.465 280.831 106.856 280.44C107.248 280.048 107.514 279.549 107.622 279.006C107.729 278.463 107.673 277.9 107.46 277.389C107.247 276.878 106.886 276.441 106.425 276.135C105.963 275.829 105.421 275.667 104.868 275.669C104.13 275.669 103.422 275.963 102.901 276.484C102.379 277.006 102.086 277.713 102.086 278.451Z" fill="#27234C"/>
<path d="M109.615 286.161C109.615 286.161 110.238 290.544 109.882 290.988C109.527 291.433 107.824 290.213 107.786 289.947C107.609 288.753 107.342 284.866 107.342 284.866L109.615 286.161Z" fill="#F7B690"/>
<path d="M104.789 283.189C104.843 283.75 105.016 284.293 105.297 284.782C105.578 285.27 105.961 285.693 106.419 286.021C106.877 286.35 107.4 286.576 107.953 286.686C108.506 286.796 109.076 286.786 109.625 286.657C110.173 286.528 110.688 286.283 111.134 285.938C111.581 285.594 111.948 285.158 112.212 284.66C112.476 284.162 112.63 283.613 112.664 283.051C112.698 282.488 112.611 281.925 112.41 281.398C112.356 280.837 112.183 280.294 111.901 279.806C111.62 279.317 111.238 278.894 110.78 278.566C110.322 278.237 109.798 278.011 109.246 277.901C108.693 277.792 108.123 277.802 107.574 277.931C107.025 278.06 106.51 278.305 106.064 278.649C105.618 278.993 105.251 279.429 104.987 279.927C104.723 280.425 104.569 280.974 104.535 281.537C104.5 282.099 104.587 282.663 104.789 283.189Z" fill="#F7B690"/>
<path d="M109.82 287.444C109.82 287.444 109.731 290.62 109.375 290.353C108.705 289.546 108.085 288.697 107.521 287.813L104.345 291.928L105.692 299.27L102.986 303.716C108.651 308.403 114.418 304.02 114.418 304.02L113.148 297.962C113.022 297.357 113.098 296.728 113.364 296.171L113.872 295.104C114.124 294.57 114.204 293.97 114.101 293.389L113.618 290.747L113.745 286.568L109.82 287.444Z" fill="#FDFEFE"/>
<path d="M106.593 279.658L109.794 279.264L111.204 279.035C110.885 278.622 110.487 278.275 110.034 278.016C109.58 277.757 109.08 277.589 108.562 277.524C107.475 277.587 106.448 278.038 105.666 278.794C105.353 279.005 105.096 279.288 104.916 279.62C104.682 279.99 104.502 280.392 104.383 280.814C104.29 281.572 104.355 282.342 104.574 283.074C104.792 283.806 105.16 284.485 105.653 285.069C105.742 284.637 106.11 283.913 105.983 283.507C105.856 283.1 105.17 282.821 105.107 282.44C105.062 282.255 105.081 282.062 105.159 281.889C105.237 281.717 105.371 281.575 105.539 281.487C105.882 281.347 106.339 282.224 106.618 282.465C106.666 281.53 106.658 280.592 106.593 279.658Z" fill="#27234C"/>
<path d="M111.36 281.246C111.487 282.008 112.033 282.516 112.63 282.516C113.227 282.516 113.507 281.741 113.392 280.979C113.278 280.217 112.719 279.709 112.122 279.709C111.525 279.709 111.296 280.484 111.36 281.246Z" stroke="#0F1E51" stroke-width="0.25" stroke-miterlimit="10"/>
<path d="M108.868 282.097C108.995 282.859 109.529 283.367 110.075 283.367C110.621 283.367 110.964 282.592 110.837 281.83C110.71 281.068 110.177 280.56 109.567 280.56C108.957 280.56 108.754 281.335 108.868 282.097Z" stroke="#0F1E51" stroke-width="0.25" stroke-miterlimit="10"/>
<path d="M122.649 270.208L119.372 279.76L113.758 286.555L113.453 291.064L121.862 281.589C121.862 281.589 124.606 272.176 124.402 271.783C123.857 271.216 123.271 270.69 122.649 270.208Z" fill="#FDFEFE"/>
<path d="M106.569 291.268L105.909 290.086L104.346 291.915L99.5068 300.807L97.8047 308.784C97.8047 308.784 99.6338 309.965 99.7608 309.444C100.477 306.802 101.399 304.22 102.517 301.721C103.686 299.498 106.734 295.218 106.734 295.218L106.569 291.268Z" fill="#FDFEFE"/>
<path d="M123.717 271.491C124.509 271.491 125.152 270.848 125.152 270.055C125.152 269.262 124.509 268.62 123.717 268.62C122.924 268.62 122.281 269.262 122.281 270.055C122.281 270.848 122.924 271.491 123.717 271.491Z" fill="#F7B690"/>
<path d="M98.4646 311.769C99.2573 311.769 99.9 311.126 99.9 310.333C99.9 309.541 99.2573 308.898 98.4646 308.898C97.6719 308.898 97.0293 309.541 97.0293 310.333C97.0293 311.126 97.6719 311.769 98.4646 311.769Z" fill="#F7B690"/>
<path d="M422.176 334.188C422.176 335.645 421.743 337.07 420.933 338.282C420.123 339.494 418.972 340.438 417.625 340.995C416.278 341.553 414.796 341.698 413.367 341.412C411.937 341.127 410.625 340.424 409.595 339.393C408.565 338.361 407.864 337.047 407.581 335.617C407.299 334.187 407.446 332.706 408.006 331.36C408.565 330.014 409.512 328.864 410.725 328.056C411.938 327.248 413.364 326.818 414.821 326.821C415.788 326.821 416.746 327.011 417.639 327.382C418.532 327.752 419.343 328.295 420.026 328.979C420.709 329.663 421.251 330.476 421.62 331.369C421.988 332.263 422.177 333.221 422.176 334.188Z" fill="#3138A7"/>
<path d="M533.523 466.695C533.523 468.152 533.091 469.577 532.282 470.788C531.472 472 530.322 472.944 528.976 473.502C527.629 474.059 526.148 474.205 524.719 473.921C523.29 473.637 521.977 472.935 520.947 471.905C519.917 470.874 519.215 469.562 518.931 468.133C518.646 466.703 518.792 465.222 519.35 463.876C519.907 462.53 520.852 461.379 522.063 460.57C523.275 459.76 524.699 459.328 526.156 459.328C528.11 459.328 529.984 460.104 531.366 461.486C532.747 462.868 533.523 464.741 533.523 466.695Z" fill="#3138A7"/>
<path d="M494.895 305.659C494.895 307.117 494.462 308.541 493.652 309.753C492.842 310.965 491.691 311.909 490.344 312.467C488.997 313.024 487.515 313.169 486.085 312.884C484.656 312.598 483.343 311.895 482.313 310.864C481.284 309.832 480.583 308.518 480.3 307.088C480.017 305.658 480.165 304.177 480.725 302.831C481.284 301.485 482.23 300.335 483.444 299.527C484.657 298.719 486.082 298.289 487.54 298.292C489.492 298.295 491.362 299.073 492.741 300.454C494.12 301.835 494.895 303.707 494.895 305.659Z" fill="#3138A7"/>
<path d="M251.016 235.722C251.018 237.179 250.588 238.605 249.78 239.818C248.972 241.031 247.822 241.977 246.477 242.537C245.131 243.097 243.649 243.244 242.219 242.961C240.789 242.679 239.475 241.978 238.444 240.948C237.412 239.918 236.709 238.606 236.424 237.176C236.138 235.747 236.284 234.265 236.841 232.918C237.398 231.571 238.342 230.42 239.554 229.61C240.766 228.799 242.191 228.367 243.648 228.367C245.6 228.367 247.472 229.142 248.853 230.52C250.235 231.899 251.012 233.77 251.016 235.722Z" fill="#3138A7"/>
<path d="M93.6758 254.127C93.6783 255.585 93.248 257.011 92.4395 258.225C91.6309 259.438 90.4804 260.384 89.1337 260.943C87.7871 261.503 86.3047 261.65 84.8744 261.366C83.4442 261.082 82.1303 260.38 81.0992 259.349C80.0681 258.318 79.3662 257.004 79.0824 255.574C78.7985 254.143 78.9455 252.661 79.5046 251.314C80.0638 249.968 81.01 248.817 82.2235 248.009C83.437 247.2 84.8631 246.77 86.3213 246.772C88.2708 246.776 90.1395 247.552 91.518 248.93C92.8965 250.309 93.6724 252.177 93.6758 254.127Z" fill="#3138A7"/>
<path d="M198.584 446.448C198.584 447.905 198.152 449.33 197.342 450.541C196.533 451.753 195.382 452.697 194.036 453.255C192.69 453.812 191.209 453.958 189.78 453.674C188.35 453.39 187.038 452.688 186.007 451.658C184.977 450.627 184.275 449.315 183.991 447.886C183.707 446.456 183.853 444.975 184.41 443.629C184.968 442.283 185.912 441.132 187.124 440.323C188.335 439.513 189.76 439.081 191.217 439.081C193.171 439.081 195.045 439.857 196.426 441.239C197.808 442.62 198.584 444.494 198.584 446.448Z" fill="#3138A7"/>
<path d="M140.609 331.457C140.612 332.914 140.182 334.34 139.374 335.553C138.566 336.766 137.416 337.713 136.07 338.272C134.724 338.832 133.243 338.979 131.813 338.697C130.383 338.414 129.069 337.713 128.037 336.683C127.006 335.654 126.303 334.341 126.017 332.911C125.732 331.482 125.877 330 126.435 328.653C126.992 327.306 127.936 326.155 129.148 325.345C130.36 324.535 131.785 324.102 133.242 324.102C135.194 324.102 137.066 324.877 138.447 326.256C139.828 327.634 140.606 329.505 140.609 331.457Z" fill="#3138A7"/>
<path d="M308.074 387.549C308.077 389.007 307.646 390.433 306.838 391.647C306.029 392.86 304.879 393.806 303.532 394.366C302.185 394.925 300.703 395.072 299.273 394.788C297.843 394.504 296.529 393.802 295.498 392.771C294.467 391.74 293.765 390.426 293.481 388.996C293.197 387.566 293.344 386.083 293.903 384.736C294.462 383.39 295.408 382.239 296.622 381.431C297.835 380.622 299.262 380.192 300.72 380.194C302.669 380.198 304.538 380.974 305.916 382.352C307.295 383.731 308.071 385.599 308.074 387.549Z" fill="#3138A7"/>
<path d="M85.1641 252.92C85.5705 252.425 85.9643 251.942 86.4343 251.459" stroke="white" stroke-miterlimit="10"/>
<path d="M88.8613 248.601C108.293 227.036 135.128 213.571 164.032 210.883C192.936 208.196 221.793 216.482 244.868 234.096" stroke="white" stroke-miterlimit="10" stroke-dasharray="2.98 2.98"/>
<path d="M246.354 235.264L247.84 236.458C247.84 236.458 248.284 235.899 249.11 235.01" stroke="white" stroke-miterlimit="10"/>
<path d="M251.793 232.305C264.698 220.441 304.595 197.819 300.81 376.359" stroke="white" stroke-miterlimit="10" stroke-dasharray="3.02 3.02"/>
<path d="M300.758 378.289V380.194" stroke="white" stroke-miterlimit="10"/>
<path d="M414.683 334.15L412.904 333.476" stroke="white" stroke-miterlimit="10"/>
<path d="M409.244 332.232C388.493 325.691 366.056 327.052 346.248 336.054C326.44 345.055 310.658 361.061 301.938 380.995" stroke="white" stroke-miterlimit="10" stroke-dasharray="3.03 3.03"/>
<path d="M301.188 382.735C300.947 383.319 300.718 383.916 300.477 384.5" stroke="white" stroke-miterlimit="10"/>
<path d="M482.269 305.367C481.684 305.138 481.087 304.922 480.49 304.719" stroke="white" stroke-miterlimit="10"/>
<path d="M476.972 303.627C465.307 300.498 452.913 301.561 441.951 306.63C430.989 311.699 422.152 320.454 416.98 331.368" stroke="white" stroke-miterlimit="10" stroke-dasharray="2.9 2.9"/>
<path d="M416.232 333.045C415.978 333.629 415.736 334.226 415.508 334.81" stroke="white" stroke-miterlimit="10"/>
<path d="M299.74 384.412C299.448 383.853 299.143 383.294 298.838 382.735" stroke="white" stroke-miterlimit="10"/>
<path d="M296.998 379.458C281.229 352.4 255.815 332.302 225.85 323.195C195.886 314.088 163.586 316.644 135.428 330.352" stroke="white" stroke-miterlimit="10" stroke-dasharray="2.95 2.95"/>
<path d="M133.79 331.19L132.088 332.054" stroke="white" stroke-miterlimit="10"/>
<path d="M273.498 389.759C273.604 391.216 273.855 392.658 274.247 394.065C274.398 394.182 274.569 394.268 274.753 394.318C274.936 394.369 275.128 394.383 275.316 394.359C275.505 394.335 275.687 394.275 275.853 394.181C276.018 394.087 276.163 393.961 276.28 393.811C276.661 393.176 275.264 388.997 275.264 388.997L273.498 389.759Z" fill="#27234C"/>
<path d="M262.359 345.531L261.254 355.426L262.105 373.933L263.998 389.111C264.023 389.419 264.148 389.71 264.355 389.939C264.561 390.169 264.837 390.324 265.141 390.382C265.354 390.425 265.574 390.418 265.784 390.363C265.994 390.308 266.189 390.205 266.353 390.063C266.518 389.92 266.647 389.742 266.732 389.542C266.817 389.342 266.855 389.125 266.843 388.908L266.398 373.983L265.903 360.316L269.205 360.57L270.704 375.381L272.61 389.505C272.684 389.952 272.906 390.36 273.24 390.666C273.574 390.972 274 391.158 274.451 391.195C274.757 391.221 275.064 391.18 275.351 391.073C275.638 390.965 275.898 390.795 276.111 390.575C276.324 390.355 276.485 390.09 276.583 389.799C276.68 389.508 276.711 389.2 276.674 388.895L275.01 374.644L275.277 351.259L271.377 351.107L268.215 350.434L262.359 345.531Z" fill="#292949"/>
<path d="M264.759 389.251L260.453 391.398L261.037 391.512C261.976 391.688 262.945 391.577 263.819 391.194L266.779 389.924L266.842 388.895L264.759 389.251Z" fill="#27234C"/>
<path d="M263.833 336.995L262.309 337.833C261.555 338.245 260.899 338.817 260.388 339.508C259.877 340.199 259.522 340.993 259.349 341.834L258.295 347.017L264.366 349.163L266.335 343.803L263.833 336.995Z" fill="#292949"/>
<path d="M283.508 363.657L275.976 340.793C275.662 339.844 275.089 339.002 274.321 338.362C273.553 337.722 272.622 337.31 271.632 337.173L269.091 336.804L263.896 336.982L261.826 339.624L261.178 354.206C261.633 355.442 262.49 356.49 263.612 357.181C264.734 357.872 266.055 358.166 267.364 358.017C272.356 357.814 275.34 352.428 275.34 352.428V351.158C277.881 356.569 281.692 364.571 281.692 364.571L283.508 363.657Z" fill="#292949"/>
<path d="M267.744 337.528L265.75 346.534L264.188 337.224L264.823 336.309L266.525 336.106L267.744 337.528Z" fill="#FDFEFE"/>
<path d="M284.74 365.079C284.74 365.463 284.626 365.839 284.413 366.159C284.199 366.478 283.896 366.727 283.541 366.875C283.186 367.022 282.795 367.06 282.418 366.985C282.041 366.91 281.695 366.725 281.423 366.453C281.151 366.181 280.966 365.835 280.891 365.458C280.816 365.081 280.854 364.69 281.001 364.335C281.149 363.98 281.398 363.677 281.717 363.463C282.037 363.25 282.413 363.136 282.797 363.136C283.053 363.134 283.306 363.183 283.543 363.28C283.779 363.377 283.994 363.52 284.175 363.701C284.356 363.882 284.499 364.097 284.596 364.333C284.693 364.57 284.742 364.823 284.74 365.079Z" fill="#F7B690"/>
<path d="M263.834 336.995L263.758 335.433L265.574 335.102L268.458 335.179L269.029 336.817L266.628 339.078C266.628 339.078 266.057 338.024 265.943 338.024C265.412 338.329 264.898 338.664 264.406 339.027L263.834 336.995Z" fill="#FDFEFE"/>
<path d="M264.596 337.986L265.65 337.084L266.463 337.859L265.815 339.561L267.555 350.053L265.853 351.475L264.52 350.256L265.294 339.396L264.596 337.986Z" fill="#27234C"/>
<path d="M257.393 343.079L266.335 343.803L267.592 354.892L259.184 353.99L257.393 343.079Z" fill="#FF151F"/>
<path d="M259.07 349.519C259.029 349.806 258.906 350.074 258.716 350.293C258.526 350.512 258.278 350.672 258 350.753C257.722 350.835 257.427 350.835 257.149 350.754C256.871 350.672 256.622 350.513 256.432 350.294C256.243 350.075 256.12 349.806 256.078 349.52C256.037 349.233 256.078 348.941 256.198 348.677C256.318 348.413 256.511 348.19 256.755 348.033C256.998 347.876 257.282 347.792 257.571 347.792C257.998 347.824 258.395 348.024 258.676 348.347C258.956 348.671 259.098 349.092 259.07 349.519Z" fill="#F7B690"/>
<path d="M269.902 331.203C269.816 332.067 269.484 332.888 268.944 333.569C268.405 334.25 267.681 334.762 266.859 335.043C266.038 335.325 265.152 335.364 264.309 335.157C263.465 334.95 262.699 334.505 262.101 333.875C261.503 333.244 261.099 332.456 260.936 331.603C260.773 330.749 260.859 329.867 261.183 329.061C261.507 328.256 262.056 327.56 262.764 327.057C263.472 326.553 264.31 326.264 265.177 326.224C266.463 326.26 267.682 326.805 268.568 327.738C269.453 328.671 269.933 329.917 269.902 331.203Z" fill="#F7B690"/>
<path d="M261.662 328.523C262.467 329.101 263.419 329.439 264.409 329.498C265.398 329.556 266.384 329.333 267.251 328.853C267.755 328.588 268.217 328.249 268.623 327.849C268.215 327.33 267.691 326.912 267.094 326.63C266.496 326.348 265.841 326.209 265.181 326.223C264.448 326.28 263.742 326.52 263.127 326.922C262.512 327.324 262.008 327.874 261.662 328.523Z" fill="#27234C"/>
<path d="M268.064 327.291C267.71 328.162 267.595 329.113 267.731 330.044C267.868 330.975 268.25 331.853 268.839 332.587C269.066 332.871 269.317 333.134 269.589 333.375C269.83 332.677 269.938 331.94 269.906 331.203C269.882 330.46 269.706 329.729 269.389 329.057C269.072 328.384 268.622 327.783 268.064 327.291Z" fill="#27234C"/>
<path d="M191.441 447.045C191.607 446.423 191.784 445.775 191.975 445.203" stroke="white" stroke-miterlimit="10"/>
<path d="M193.158 441.596C200.296 421.091 214.763 403.948 233.777 393.465C252.791 382.981 275.009 379.897 296.159 384.805" stroke="white" stroke-miterlimit="10" stroke-dasharray="3.03 3.03"/>
<path d="M298.014 385.313L299.855 385.796C299.855 385.796 300.3 385.301 301.126 384.412" stroke="white" stroke-miterlimit="10"/>
<path d="M303.854 381.782C323.3 363.745 411.503 298.025 524.018 463.52" stroke="white" stroke-miterlimit="10" stroke-dasharray="2.98 2.98"/>
<path d="M525.102 465.108C525.457 465.628 525.8 466.162 526.156 466.695" stroke="white" stroke-miterlimit="10"/>
<path d="M171.335 419.037L159.014 426.201L146.592 419.037L158.925 411.873L171.335 419.037Z" fill="#FF151F"/>
<path d="M171.337 419.037L171.299 433.784L158.965 440.961L159.016 426.201L171.337 419.037Z" fill="#FF151F"/>
<path d="M159.015 426.201L158.965 440.961L146.555 433.784L146.593 419.037L159.015 426.201Z" fill="#D81B34"/>
<path d="M481.446 258.001L469.112 265.165L456.689 258.001L469.023 250.837L481.446 258.001Z" fill="#E2DFFE"/>
<path d="M481.444 258.001L481.393 272.761L469.072 279.925L469.11 265.165L481.444 258.001Z" fill="#E2DFFE"/>
<path d="M469.111 265.165L469.073 279.925L456.65 272.761L456.688 258.001L469.111 265.165Z" fill="#474EBB"/>
<path d="M329.616 397.418L317.282 404.582L304.859 397.406L317.193 390.242L329.616 397.418Z" fill="#FF151F"/>
<path d="M329.615 397.419L329.564 412.166L317.23 419.33L317.281 404.582L329.615 397.419Z" fill="#FF151F"/>
<path d="M317.281 404.582L317.23 419.33L304.82 412.166L304.858 397.406L317.281 404.582Z" fill="#D81B34"/>
<path d="M555.012 471.992L542.678 479.156L530.256 471.979L542.59 464.815L555.012 471.992Z" fill="#FF151F"/>
<path d="M555.014 471.992L554.964 486.739L542.643 493.903L542.681 479.156L555.014 471.992Z" fill="#FF151F"/>
<path d="M542.681 479.156L542.643 493.903L530.221 486.739L530.259 471.979L542.681 479.156Z" fill="#D81B34"/>
<path d="M168.455 402.055L156.122 409.219L143.699 402.042L156.033 394.878L168.455 402.055Z" fill="#3138A7"/>
<path d="M168.456 402.055L168.405 416.802L156.084 423.966L156.122 409.219L168.456 402.055Z" fill="#3138A7"/>
<path d="M156.123 409.219L156.085 423.966L143.662 416.802L143.7 402.042L156.123 409.219Z" fill="#D81B34"/>
<path d="M464.919 268.099L452.586 275.263L440.176 268.099L452.497 260.922L464.919 268.099Z" fill="#FF151F"/>
<path d="M464.919 268.099L464.881 282.846L452.547 290.01L452.585 275.263L464.919 268.099Z" fill="#FF151F"/>
<path d="M452.586 275.263L452.548 290.01L440.125 282.846L440.176 268.099L452.586 275.263Z" fill="#D81B34"/>
<path d="M154.314 295.269L141.98 302.433L129.57 295.269L141.904 288.105L154.314 295.269Z" fill="#FF151F"/>
<path d="M154.317 295.269L154.279 310.028L141.945 317.192L141.983 302.433L154.317 295.269Z" fill="#FF151F"/>
<path d="M141.983 302.433L141.945 317.192L129.535 310.028L129.573 295.269L141.983 302.433Z" fill="#D81B34"/>
<path d="M537.854 460.116C537.745 461.586 537.485 463.042 537.079 464.46C536.929 464.58 536.757 464.669 536.572 464.722C536.387 464.774 536.194 464.789 536.003 464.765C535.812 464.742 535.628 464.68 535.462 464.584C535.295 464.488 535.15 464.359 535.034 464.206C534.653 463.571 536.063 459.341 536.063 459.341L537.854 460.116Z" fill="#27234C"/>
<path d="M549.119 415.354L550.237 425.376L549.374 444.086L547.456 459.455C547.426 459.763 547.297 460.053 547.089 460.282C546.88 460.511 546.603 460.666 546.3 460.725C546.085 460.771 545.862 460.766 545.649 460.711C545.436 460.656 545.239 460.553 545.073 460.409C544.906 460.265 544.776 460.084 544.691 459.881C544.607 459.678 544.57 459.459 544.585 459.239L545.029 444.136L545.538 430.304L542.184 430.558L540.622 445.508L538.678 459.849C538.597 460.299 538.371 460.711 538.033 461.021C537.696 461.33 537.267 461.521 536.811 461.564C536.502 461.592 536.189 461.552 535.898 461.444C535.606 461.336 535.342 461.165 535.125 460.942C534.908 460.719 534.744 460.45 534.645 460.156C534.545 459.861 534.513 459.548 534.55 459.239L536.265 444.86L535.986 421.209L539.936 421.057L543.162 420.371L549.119 415.354Z" fill="#292949"/>
<path d="M546.694 459.595L551.051 461.78L550.454 461.881C549.504 462.057 548.522 461.947 547.634 461.564L544.637 460.294V459.252L546.694 459.595Z" fill="#27234C"/>
<path d="M547.621 406.729L549.171 407.567C549.935 407.982 550.598 408.558 551.116 409.256C551.634 409.953 551.993 410.756 552.169 411.607L553.236 416.865L547.088 419.101L545.094 413.664L547.621 406.729Z" fill="#292949"/>
<path d="M527.717 433.696L535.338 410.578C535.656 409.618 536.237 408.765 537.013 408.117C537.789 407.468 538.731 407.049 539.733 406.907L542.375 406.539L547.621 406.729L549.729 409.397L550.326 424.144C549.859 425.387 548.988 426.438 547.853 427.129C546.718 427.82 545.384 428.11 544.064 427.954C538.983 427.751 535.986 422.302 535.986 422.302V421.032C533.445 426.506 529.482 434.61 529.482 434.61L527.717 433.696Z" fill="#292949"/>
<path d="M543.672 407.25L545.691 416.37L547.267 406.958L546.631 406.018L544.904 405.827L543.672 407.25Z" fill="#FDFEFE"/>
<path d="M526.471 435.143C526.471 435.533 526.586 435.913 526.803 436.237C527.019 436.561 527.326 436.813 527.686 436.962C528.046 437.111 528.442 437.15 528.824 437.074C529.206 436.998 529.556 436.811 529.832 436.536C530.107 436.26 530.295 435.909 530.371 435.528C530.447 435.146 530.408 434.75 530.259 434.39C530.11 434.03 529.857 433.723 529.533 433.506C529.21 433.29 528.829 433.175 528.44 433.175C528.181 433.173 527.924 433.223 527.684 433.321C527.445 433.419 527.227 433.564 527.044 433.747C526.861 433.931 526.716 434.148 526.617 434.388C526.519 434.628 526.469 434.884 526.471 435.143Z" fill="#F7B690"/>
<path d="M547.623 406.729L547.712 405.129L545.87 404.811L542.961 404.887L542.377 406.539L544.803 408.787C544.803 408.787 545.375 407.72 545.502 407.72C546.035 408.032 546.552 408.371 547.051 408.736L547.623 406.729Z" fill="#FDFEFE"/>
<path d="M546.846 407.72L545.779 406.818L544.966 407.593L545.614 409.32L543.861 419.939L545.576 421.362L546.935 420.142L546.148 409.155L546.846 407.72Z" fill="#27234C"/>
<path d="M554.136 412.877L545.092 413.601L543.822 424.829L552.333 423.915L554.136 412.877Z" fill="#FF151F"/>
<path d="M552.448 419.393C552.489 419.682 552.613 419.953 552.804 420.174C552.995 420.395 553.246 420.557 553.526 420.639C553.806 420.722 554.104 420.722 554.385 420.64C554.665 420.558 554.916 420.397 555.108 420.177C555.299 419.956 555.423 419.685 555.465 419.396C555.507 419.107 555.465 418.812 555.344 418.546C555.223 418.28 555.029 418.054 554.783 417.896C554.538 417.738 554.252 417.653 553.96 417.653C553.53 417.689 553.132 417.89 552.85 418.216C552.568 418.541 552.423 418.963 552.448 419.393Z" fill="#F7B690"/>
<path d="M541.485 400.861C541.581 401.732 541.924 402.557 542.474 403.239C543.025 403.921 543.759 404.431 544.59 404.709C545.421 404.987 546.314 405.021 547.164 404.807C548.014 404.592 548.784 404.139 549.384 403.501C549.985 402.862 550.389 402.065 550.55 401.204C550.712 400.343 550.623 399.453 550.294 398.641C549.966 397.828 549.411 397.127 548.696 396.62C547.982 396.113 547.137 395.822 546.261 395.78C545.613 395.798 544.976 395.944 544.384 396.209C543.793 396.475 543.26 396.855 542.816 397.327C542.373 397.799 542.026 398.354 541.798 398.961C541.57 399.567 541.463 400.213 541.485 400.861Z" fill="#F7B690"/>
<path d="M549.82 398.155C549.005 398.739 548.041 399.079 547.04 399.135C546.039 399.191 545.043 398.961 544.168 398.473C543.66 398.208 543.193 397.87 542.783 397.469C543.193 396.94 543.721 396.514 544.326 396.227C544.931 395.94 545.594 395.8 546.264 395.818C547.006 395.872 547.723 396.115 548.346 396.524C548.968 396.933 549.476 397.495 549.82 398.155Z" fill="#27234C"/>
<path d="M543.339 396.898C543.7 397.779 543.818 398.741 543.682 399.683C543.546 400.626 543.16 401.515 542.564 402.258C542.336 402.549 542.081 402.817 541.802 403.058C541.554 402.353 541.446 401.607 541.484 400.861C541.509 400.109 541.687 399.37 542.005 398.689C542.324 398.008 542.778 397.399 543.339 396.898Z" fill="#27234C"/>
<path d="M166.164 206.012L157.374 211.13L148.508 206.012L157.31 200.905L166.164 206.012Z" fill="#FF151F"/>
<path d="M166.164 206.012L166.126 216.529L157.336 221.648L157.374 211.13L166.164 206.012Z" fill="#FF151F"/>
<path d="M157.374 211.13L157.336 221.648L148.482 216.529L148.508 206.012L157.374 211.13Z" fill="#D81B34"/>
<path d="M417.641 357.14L408.851 362.247L399.998 357.14L408.788 352.021L417.641 357.14Z" fill="#FF151F"/>
<path d="M417.641 357.14L417.616 367.657L408.826 372.776L408.852 362.246L417.641 357.14Z" fill="#FF151F"/>
<path d="M408.851 362.246L408.826 372.776L399.973 367.657L399.998 357.14L408.851 362.246Z" fill="#D81B34"/>
</svg>
