<svg width="259" height="248" viewBox="0 0 259 248" fill="none" xmlns="http://www.w3.org/2000/svg">
<path d="M198.748 46.6474C198.918 46.7773 199.038 46.9616 199.089 47.1696L197.256 51.9673C197.237 52.0623 197.2 52.1525 197.146 52.2327C197.091 52.3129 197.022 52.3815 196.941 52.4344C196.86 52.4874 196.769 52.5236 196.674 52.541C196.578 52.5584 196.481 52.5566 196.386 52.5358C196.179 52.4865 195.999 52.3597 195.883 52.1817C195.766 52.0036 195.723 51.7877 195.761 51.5784L197.537 46.6936C197.604 46.4982 197.735 46.3308 197.909 46.2177C198.082 46.1046 198.288 46.052 198.494 46.0683L198.748 46.6474ZM193.996 61.4225C194.088 61.4788 194.166 61.5549 194.225 61.6452C194.284 61.7355 194.322 61.8378 194.337 61.9447L193.137 66.9502C193.087 67.1571 192.961 67.3372 192.783 67.4535C192.604 67.5698 192.389 67.6135 192.179 67.5755C192.009 67.5029 191.864 67.3815 191.763 67.2266C191.662 67.0717 191.609 66.8902 191.611 66.7052L192.841 61.5558C192.86 61.4609 192.898 61.3706 192.952 61.2904C193.006 61.2102 193.076 61.1417 193.157 61.0887C193.238 61.0358 193.329 60.9995 193.424 60.9821C193.519 60.9647 193.617 60.9665 193.712 60.9874C193.798 61.0193 193.875 61.0698 193.94 61.1351C194.004 61.2005 194.053 61.2792 194.083 61.3656L193.996 61.4225ZM191.027 76.6469L190.259 81.743C190.24 81.8379 190.202 81.9282 190.148 82.0084C190.094 82.0886 190.024 82.1571 189.943 82.21C189.862 82.263 189.771 82.2993 189.676 82.3167C189.581 82.3341 189.483 82.3323 189.388 82.3114C189.285 82.3107 189.184 82.2845 189.094 82.2352C189.004 82.1859 188.927 82.115 188.871 82.0288C188.814 81.9427 188.78 81.8439 188.771 81.7414C188.762 81.6388 188.779 81.5357 188.82 81.4411C188.951 79.7413 189.226 78.0716 189.532 76.258C189.581 76.0511 189.708 75.871 189.886 75.7547C190.064 75.6384 190.28 75.5948 190.489 75.6327L191.027 76.6469ZM188.862 92.3401L188.612 97.4699C188.611 97.5684 188.59 97.6657 188.552 97.7563C188.513 97.8468 188.457 97.9289 188.387 97.9979C188.317 98.0668 188.234 98.1212 188.142 98.1581C188.051 98.1949 187.953 98.2134 187.855 98.2125C187.757 98.2115 187.659 98.1912 187.569 98.1527C187.478 98.1142 187.396 98.0582 187.327 97.9879C187.258 97.9177 187.204 97.8345 187.167 97.7432C187.13 97.6519 187.111 97.5542 187.112 97.4558C187.157 95.8128 187.144 94.0827 187.306 92.239C187.364 92.0595 187.483 91.9054 187.641 91.8021C187.799 91.6987 187.988 91.6523 188.176 91.6705C188.34 91.71 188.49 91.793 188.611 91.9109C188.732 92.0287 188.818 92.177 188.862 92.3401ZM188.831 107.88L189.115 108.316L189.274 112.93C189.215 113.11 189.096 113.264 188.938 113.367C188.78 113.471 188.591 113.517 188.403 113.499C188.3 113.498 188.199 113.472 188.109 113.423C188.019 113.373 187.942 113.302 187.885 113.216C187.829 113.13 187.795 113.031 187.786 112.929C187.777 112.826 187.794 112.723 187.835 112.628L187.733 108.101L187.392 107.579C187.451 107.399 187.569 107.245 187.727 107.142C187.886 107.038 188.074 106.992 188.262 107.01C188.468 106.984 188.676 107.035 188.845 107.154C189.015 107.273 189.134 107.451 189.179 107.653L188.831 107.88ZM188.194 123.444C187.919 125.114 187.5 126.753 187.108 128.623C187.058 128.83 186.932 129.01 186.754 129.127C186.576 129.243 186.36 129.287 186.15 129.249C186.048 129.248 185.946 129.222 185.856 129.173C185.766 129.123 185.689 129.052 185.633 128.966C185.576 128.88 185.542 128.781 185.534 128.679C185.525 128.576 185.541 128.473 185.582 128.378C186.031 126.595 186.306 124.925 186.551 123.4C186.601 123.193 186.728 123.013 186.906 122.896C187.084 122.78 187.3 122.736 187.509 122.774C187.509 122.774 188.429 123.042 188.543 123.217L188.194 123.444ZM184.045 138.571C184.137 138.627 184.215 138.703 184.274 138.793C184.333 138.884 184.371 138.986 184.386 139.093C183.793 140.846 183.173 142.368 182.466 143.947C182.398 144.143 182.267 144.31 182.094 144.423C181.921 144.537 181.715 144.589 181.509 144.573C181.302 144.523 181.122 144.397 181.005 144.219C180.889 144.041 180.845 143.825 180.883 143.615C181.56 142.18 182.123 140.571 182.773 138.905C182.822 138.698 182.949 138.518 183.127 138.401C183.305 138.285 183.521 138.241 183.73 138.279L184.045 138.571ZM177.339 152.635C177.442 152.705 177.531 152.795 177.599 152.9C177.668 153.004 177.714 153.122 177.737 153.245C176.742 154.763 175.835 156.225 174.87 157.6C173.906 158.975 174.087 158.112 174 158.169C173.905 158.15 173.815 158.112 173.734 158.058C173.654 158.004 173.586 157.934 173.533 157.853C173.48 157.772 173.444 157.681 173.426 157.586C173.409 157.491 173.411 157.393 173.431 157.298C174.437 155.918 175.365 154.483 176.211 153C176.23 152.905 176.267 152.814 176.322 152.734C176.376 152.654 176.445 152.585 176.527 152.533C176.608 152.48 176.698 152.443 176.794 152.426C176.889 152.409 176.987 152.41 177.081 152.431L177.339 152.635ZM167.967 165.089C168.046 165.226 168.085 165.383 168.078 165.541C168.072 165.7 168.02 165.853 167.929 165.983C166.537 166.892 165.455 168.468 164.146 169.695C163.991 169.835 163.79 169.911 163.582 169.909C163.374 169.907 163.174 169.827 163.022 169.685C162.883 169.53 162.806 169.329 162.808 169.121C162.81 168.912 162.89 168.713 163.032 168.56C164.512 167.594 165.563 166.162 166.728 164.905C166.883 164.765 167.085 164.689 167.293 164.691C167.501 164.693 167.701 164.773 167.853 164.915L167.967 165.089ZM156.457 174.842C156.555 175.032 156.584 175.251 156.54 175.46C156.496 175.669 156.382 175.857 156.216 175.993C154.91 176.845 153.518 177.755 152.212 178.608C150.907 179.46 151.516 179.062 151.148 178.309C151.09 178.222 151.051 178.123 151.035 178.019C151.018 177.916 151.025 177.81 151.053 177.709C151.081 177.608 151.131 177.514 151.199 177.434C151.267 177.354 151.352 177.29 151.447 177.245C152.752 176.393 154.058 175.54 155.363 174.687C155.538 174.594 155.739 174.558 155.935 174.586C156.132 174.613 156.315 174.703 156.457 174.842ZM142.58 181.919C142.628 182.116 142.611 182.324 142.532 182.51C142.452 182.697 142.314 182.852 142.138 182.953C140.745 183.863 138.898 184.076 137.134 184.607C136.973 184.713 136.776 184.75 136.587 184.71C136.398 184.67 136.233 184.557 136.127 184.396C136.022 184.234 135.985 184.037 136.024 183.849C136.064 183.66 136.177 183.494 136.339 183.389C137.731 182.479 139.722 182.296 141.198 181.704C141.376 181.551 141.605 181.469 141.84 181.477C142.075 181.485 142.299 181.58 142.466 181.745L142.58 181.919ZM127.607 185.988C127.548 186.168 127.43 186.322 127.271 186.425C127.113 186.528 126.925 186.575 126.737 186.556C124.999 186.883 123.245 187.116 121.483 187.257C121.303 187.198 121.149 187.08 121.046 186.921C120.942 186.763 120.896 186.574 120.914 186.386C120.963 186.179 121.09 185.999 121.268 185.883C121.446 185.767 121.662 185.723 121.871 185.761C123.545 185.661 125.248 185.418 126.951 185.175C127.09 185.224 127.214 185.309 127.309 185.421C127.404 185.533 127.468 185.669 127.493 185.814L127.607 185.988ZM111.973 186.764L112.257 187.199C112.207 187.406 112.081 187.586 111.903 187.702C111.725 187.818 111.509 187.862 111.299 187.824L106.086 187.256C105.879 187.207 105.699 187.08 105.583 186.902C105.466 186.724 105.423 186.508 105.461 186.299C105.48 186.204 105.517 186.114 105.572 186.033C105.626 185.953 105.695 185.885 105.776 185.832C105.858 185.779 105.948 185.742 106.044 185.725C106.139 185.708 106.237 185.709 106.331 185.73L111.401 186.268L111.973 186.764ZM96.8085 183.507C96.9062 183.557 96.9891 183.631 97.049 183.722C97.1089 183.814 97.1436 183.92 97.1496 184.029C97.1003 184.236 96.9735 184.416 96.7955 184.533C96.6174 184.649 96.4015 184.693 96.1923 184.655C94.8707 184.152 93.3484 183.532 91.3075 182.879C91.1121 182.811 90.9447 182.68 90.8315 182.507C90.7184 182.333 90.6659 182.128 90.6822 181.921C90.7315 181.715 90.8583 181.534 91.0363 181.418C91.2144 181.302 91.4302 181.258 91.6395 181.296L96.4373 183.129L96.8085 183.507ZM82.1843 178.036C82.288 178.105 82.3766 178.195 82.445 178.3C82.5133 178.405 82.56 178.522 82.5823 178.645C82.5233 178.824 82.4051 178.978 82.2469 179.082C82.0887 179.185 81.9 179.231 81.7119 179.213L76.7703 177.35C76.6754 177.331 76.5851 177.294 76.5049 177.24C76.4247 177.185 76.3562 177.116 76.3032 177.035C76.2503 176.954 76.2141 176.863 76.1967 176.768C76.1793 176.672 76.181 176.575 76.2019 176.48C76.2208 176.385 76.2584 176.295 76.3126 176.215C76.3668 176.134 76.4365 176.066 76.5176 176.013C76.5986 175.96 76.6894 175.924 76.7847 175.906C76.8799 175.889 76.9776 175.891 77.0722 175.912L81.9569 177.687L82.1843 178.036ZM67.3595 172.447C67.4571 172.496 67.5401 172.571 67.5999 172.662C67.6598 172.754 67.6945 172.86 67.7005 172.969C67.6512 173.176 67.5244 173.356 67.3464 173.472C67.1683 173.589 66.9524 173.632 66.7432 173.594L61.8584 171.818C61.6515 171.769 61.4714 171.642 61.3551 171.464C61.2388 171.286 61.1951 171.07 61.2331 170.861C61.252 170.766 61.2897 170.676 61.3439 170.596C61.3981 170.516 61.4677 170.447 61.5488 170.394C61.6298 170.341 61.7206 170.305 61.8159 170.287C61.9111 170.27 62.0088 170.272 62.1034 170.293C63.6558 170.769 65.322 171.419 66.9882 172.069L67.3595 172.447ZM52.2895 168.384C52.2216 168.579 52.0907 168.747 51.9175 168.86C51.7443 168.973 51.5384 169.026 51.3322 169.009C49.6689 168.86 47.9936 168.912 46.3428 169.164C46.1632 169.105 46.0091 168.987 45.9058 168.829C45.8024 168.671 45.7561 168.482 45.7743 168.294C45.7932 168.199 45.8309 168.109 45.8851 168.028C45.9393 167.948 46.009 167.88 46.09 167.827C46.1711 167.774 46.2618 167.738 46.3571 167.72C46.4523 167.703 46.5501 167.705 46.6446 167.725C48.4186 167.443 50.2217 167.393 52.0088 167.574C52.1168 167.677 52.1986 167.804 52.2474 167.945C52.2962 168.086 52.3107 168.236 52.2895 168.384ZM37.4903 172.339C37.5958 172.501 37.6329 172.697 37.5932 172.886C37.5536 173.075 37.4406 173.241 37.279 173.346C35.9115 174.276 34.6703 175.378 33.5865 176.627C33.5865 176.627 32.8902 177.082 32.4319 176.76C32.2779 176.696 32.1467 176.587 32.0555 176.448C31.9643 176.308 31.9172 176.144 31.9203 175.977C33.0932 174.569 34.4644 173.339 35.9911 172.325C36.1527 172.219 36.3496 172.182 36.5384 172.222C36.7273 172.262 36.8927 172.375 36.9983 172.536L37.4903 172.339ZM29.6137 185.182L29.3385 186.851C29.4613 188.059 29.5077 189.273 29.4774 190.486C29.4185 190.665 29.3002 190.819 29.142 190.923C28.9838 191.026 28.7951 191.072 28.6071 191.054C28.5121 191.035 28.4219 190.998 28.3417 190.943C28.2615 190.889 28.1929 190.819 28.14 190.738C28.087 190.657 28.0508 190.567 28.0334 190.471C28.016 190.376 28.0178 190.278 28.0386 190.184C28.3043 189.036 28.4981 187.873 28.6192 186.701L28.9512 185.118C29.0005 184.911 29.1272 184.731 29.3053 184.615C29.4834 184.498 29.6993 184.455 29.9085 184.493L29.6137 185.182ZM24.1192 199.2C24.1687 199.315 24.1917 199.44 24.1863 199.565C24.1809 199.69 24.1473 199.812 24.0881 199.923C24.0288 200.033 23.9455 200.129 23.8441 200.202C23.7428 200.276 23.6261 200.326 23.5029 200.348C22.5456 200.973 21.5882 201.598 20.5439 202.28C19.4995 202.963 19.4995 202.963 19.0643 203.247C18.9425 203.243 18.8236 203.209 18.7184 203.148C18.6132 203.086 18.5251 203 18.4622 202.895C18.373 202.712 18.3541 202.503 18.4091 202.307C18.4641 202.11 18.5891 201.941 18.7605 201.831C18.7605 201.831 19.6308 201.263 20.153 200.922C21.1377 200.406 22.0704 199.797 22.938 199.103C23.0044 199.01 23.0948 198.938 23.1995 198.893C23.3042 198.848 23.4191 198.833 23.5318 198.849C23.6445 198.865 23.7507 198.911 23.8389 198.983C23.9271 199.055 23.9939 199.15 24.0321 199.257L24.1192 199.2Z" fill="#E2DFFE"/>
<path d="M255.632 0.796626C255.649 0.99963 255.59 1.20174 255.468 1.36448C255.345 1.52722 255.167 1.6393 254.968 1.67956C253.268 1.70602 251.572 1.83118 249.888 2.05441C249.794 2.09594 249.691 2.11351 249.588 2.10556C249.485 2.09761 249.386 2.06443 249.3 2.0089C249.213 1.95337 249.141 1.87728 249.091 1.78738C249.041 1.69747 249.014 1.59653 249.013 1.49362C248.974 0.975267 248.951 0.664217 249.566 0.514647C251.285 0.292649 253.016 0.164954 254.749 0.132138C254.852 0.10953 254.958 0.109375 255.06 0.131676C255.163 0.153976 255.259 0.198208 255.343 0.261333C255.427 0.324457 255.497 0.405017 255.546 0.497418C255.596 0.58982 255.625 0.691862 255.632 0.796626ZM240.592 4.61664C240.595 4.77503 240.553 4.93104 240.471 5.06638C240.388 5.20172 240.269 5.31074 240.127 5.38058C238.542 6.032 236.996 6.77251 235.496 7.59855C235.433 7.6725 235.357 7.73328 235.27 7.77725C235.184 7.82122 235.09 7.8475 234.993 7.85463C234.897 7.86175 234.8 7.84957 234.708 7.81874C234.616 7.78791 234.532 7.73903 234.459 7.67506C234.33 7.53665 234.253 7.35861 234.239 7.17018C234.225 6.98174 234.276 6.79416 234.382 6.63837C235.918 5.80914 237.499 5.06611 239.117 4.41275C239.263 4.29891 239.439 4.23087 239.624 4.21726C239.808 4.20364 239.993 4.24505 240.154 4.33625L240.592 4.61664ZM227.331 12.7874C227.417 12.9834 227.434 13.2029 227.377 13.4094L223.452 16.7218C223.39 16.7958 223.313 16.8565 223.227 16.9004C223.141 16.9444 223.047 16.9708 222.95 16.9779C222.854 16.985 222.757 16.9728 222.665 16.9419C222.573 16.9111 222.488 16.8623 222.416 16.7983C222.258 16.6551 222.162 16.457 222.147 16.2449C222.131 16.0328 222.197 15.8227 222.332 15.6579L226.249 12.2418C226.403 12.1037 226.598 12.0205 226.805 12.0052C227.011 11.99 227.217 12.0436 227.389 12.1577L227.331 12.7874ZM216.025 23.4197C216.078 23.5135 216.11 23.6181 216.118 23.7256C216.126 23.8332 216.11 23.9412 216.071 24.0418L212.599 27.842C212.456 27.9992 212.257 28.0955 212.045 28.1111C211.833 28.1268 211.623 28.0606 211.458 27.9261C211.345 27.7802 211.277 27.6039 211.263 27.4194C211.249 27.2349 211.291 27.0504 211.382 26.8894L214.95 22.9779C215.012 22.904 215.089 22.8432 215.175 22.7992C215.261 22.7553 215.356 22.729 215.452 22.7219C215.549 22.7147 215.646 22.7269 215.737 22.7577C215.829 22.7886 215.914 22.8375 215.987 22.9014C216.046 22.9709 216.09 23.0527 216.115 23.141C216.139 23.2292 216.144 23.3218 216.129 23.4121L216.025 23.4197ZM206.062 35.3081L202.924 39.3963C202.861 39.4703 202.785 39.5311 202.698 39.575C202.612 39.619 202.518 39.6453 202.422 39.6524C202.325 39.6595 202.228 39.6474 202.136 39.6165C202.044 39.5857 201.96 39.5368 201.887 39.4728C201.797 39.4224 201.722 39.3505 201.666 39.2637C201.611 39.1768 201.578 39.0777 201.571 38.9751C201.563 38.8724 201.581 38.7695 201.623 38.6755C201.665 38.5814 201.729 38.4992 201.811 38.4361C202.748 37.0119 203.796 35.6838 204.941 34.2443C205.084 34.0871 205.282 33.9907 205.494 33.975C205.707 33.9594 205.917 34.0256 206.081 34.1601L206.062 35.3081Z" fill="#E2DFFE"/>
</svg>
