<svg width="487" height="300" viewBox="0 0 487 300" fill="none" xmlns="http://www.w3.org/2000/svg">
<path d="M227.752 247.465C213.725 247.51 199.699 247.848 185.698 249.402C180.414 249.987 175.249 251.273 169.955 251.795C159.387 252.832 149.003 254.773 138.395 255.662C129.857 256.382 121.279 256.809 112.761 257.722C104.515 258.605 96.1875 258.349 88.0121 256.963C82.1459 255.92 76.2498 255.329 70.4831 253.646C64.0149 251.765 57.049 250.419 50.3021 250.469C40.7142 250.538 31.3949 250.548 22.205 253.87C18.9858 255.036 15.0451 256.953 12.5971 259.395C7.00457 265.001 6.24331 278.976 11.8309 284.785C21.2447 294.56 41.3361 298.378 54.5364 298.577C68.9954 298.776 83.0415 297.703 97.5255 297.088C110.96 296.502 124.394 295.668 137.882 295.697C165.412 295.757 192.947 295.697 220.423 293.86C246.241 292.138 272.124 292.728 297.997 292.728C324.532 292.728 350.882 292.937 377.228 296.457C388.702 297.991 400.395 298.527 411.933 299.6C422.262 300.563 432.189 299.6 442.478 298.691C451.17 297.973 459.662 295.702 467.55 291.989C473.765 289.01 484.84 279.82 486.746 272.751C492.09 252.922 411.465 253.388 399.086 253.443C385.239 253.492 371.282 253.939 357.445 253.443C351.624 253.219 345.887 252.087 340.21 250.841C334.533 249.595 328.851 249.918 323.109 249.397C299.181 247.227 275.199 247.545 251.197 247.545C243.385 247.515 235.568 247.445 227.752 247.465Z" fill="#E2DFFE"/>
<path d="M149.845 92.0088L152.201 90L155.246 90.9788L157 93.5355L156.199 95.7268L153.72 97.1878L154.662 97.4398L154.488 98.2141L150.596 100C149.661 99.0176 146.504 98.2652 146 97.7356L148.606 95.4821L149.845 92.0088Z" fill="#FFB68E"/>
<path d="M74.3834 268L74.2954 268.96L74 272.137L79.7081 276L83 273.163L80.2954 269.643L80.0422 269.471L79.9086 269.838L74.3834 268Z" fill="#292949"/>
<path d="M103 204C96.4502 204.425 85.7347 206.737 80.9596 206.801L81.1271 229.09L74 268.238L74.3136 268.33L79.9119 270L80.0473 269.667L98.8235 223.517L99.4792 214.104L103 204Z" fill="#292949"/>
<path d="M99.3592 209.312L99 214.177L100.692 226.508L102.62 271H102.653L102.678 270.353L108.425 270.529L117.512 223.29L118 204C111.758 204.99 105.21 205.643 99.0287 206.072L99.3592 209.312Z" fill="#292949"/>
<path d="M109.106 270.185L108.718 270.171L103.108 270L103.084 270.64L103 272.908L108.893 276L112 273.185L109.106 270.185Z" fill="#292949"/>
<path d="M89.0011 108.851L88.4355 107.393L88.4777 107.365C90.9753 105.434 92.117 102.07 91.9906 98.8929C91.8652 96.8211 91.3663 94.7906 90.5187 92.9035C89.9017 91.8139 89.1365 90.8189 88.2458 89.9482C86.6369 88.3971 84.4625 87.1612 82.3372 87.2365C81.4765 87.2687 81.8349 87.9529 80.7915 87.412C80.611 87.3041 80.4504 87.1647 80.3173 87L80.0292 87.3224C79.0246 88.3971 77.9215 88.895 76.7166 89.6652C74.8899 90.8365 73.9063 93.3262 74.3454 95.6725C74.5246 96.6432 74.9251 97.6427 74.6967 98.5705C74.4965 99.3836 73.8571 99.946 73.4532 100.648C73.2162 101.071 73.0622 101.537 73 102.02C74.9988 105.72 78.7927 108.701 82.6955 109.066V109.109C82.7482 109.346 82.8009 109.582 82.8641 109.826C83.1522 110.843 83.8302 111.921 84.8735 112C85.3537 111.995 85.8267 111.88 86.2576 111.663L88.9484 110.546C89.0436 110.52 89.1328 110.475 89.2107 110.414C89.2886 110.352 89.3535 110.275 89.4016 110.187C89.4417 110.015 89.4179 109.834 89.3348 109.679L89.0011 108.851Z" fill="#FFB68E"/>
<path d="M108.088 83.4141C105.957 83.2834 104.059 84.5304 102.322 85.7279C102.013 83.6366 99.9916 82.1954 98.0589 81.6337C96.1262 81.072 94.0727 81.072 92.1756 80.3337C89.8947 79.447 87.6423 77.4865 85.3757 78.1259C83.34 78.6981 82.0645 81.1639 80.7998 83.354L80.6967 83.248C79.7233 82.2413 78.6575 81.2734 77.3998 80.7541C73.3355 79.0832 73.8009 84.1312 70.6745 83.8627C69.9213 83.7991 69.2819 83.2057 68.5713 82.8948C67.2284 82.3049 65.7291 82.7712 64.5283 83.4989C63.3275 84.2266 62.2652 85.2086 60.9756 85.7526C59.8245 86.233 58.5278 86.3531 57.4549 86.9925C55.8455 87.9534 56.1759 89.6914 55.8917 91.274C55.5755 93.0402 55.0887 95.3858 54.1366 96.8412C53.4509 97.901 52.3887 98.5722 51.4969 99.4306C50.6052 100.289 49.8378 101.476 50.0297 102.786C50.2109 104.026 51.1985 105.033 51.4827 106.259C51.8735 108.092 51.671 109.085 52.4953 110.901C52.918 111.837 53.3834 112.829 54.2112 113.398C55.3019 114.151 56.6981 113.953 57.8847 113.592C59.0713 113.232 60.297 112.734 61.5547 112.978C64.2761 113.511 64.1269 116.185 65.1074 118.277C65.7556 119.646 66.869 120.745 68.2516 121.378C69.9711 122.177 71.9819 122.244 73.5806 121.361C75.9823 120.025 77.073 116.927 76.5862 114.069C76.4086 113.031 75.9645 112.077 75.6483 111.084C75.5228 110.71 75.4278 110.326 75.3641 109.936C75.1438 108.555 75.6839 106.527 74.2699 105.591C73.9028 105.418 73.5468 105.222 73.2041 105.005C72.952 104.77 72.7638 104.476 72.6569 104.15C72.4191 103.507 72.3458 102.815 72.4438 102.136C72.5067 101.66 72.6624 101.201 72.9021 100.784C73.3106 100.077 73.9679 99.5365 74.1597 98.7347C74.3907 97.8197 73.9857 96.8342 73.8045 95.8768C73.3604 93.563 74.3551 91.1079 76.2026 89.9528C77.4176 89.1933 78.5367 88.6917 79.5528 87.6425L79.8441 87.3246C79.9787 87.487 80.1411 87.6245 80.3237 87.7308C81.3895 88.2642 81.0165 87.5895 81.8869 87.5577C84.0363 87.4835 86.2354 88.7023 87.8626 90.2319C88.7646 91.0903 89.5397 92.0715 90.1647 93.1462C91.2969 95.0689 91.9351 97.2395 92.0228 99.4659C92.1223 102.61 90.4845 103.995 91.9873 107.16C92.3229 107.862 92.7313 108.527 93.2059 109.145C94.4549 110.824 96.1903 112.084 98.1797 112.755C98.3999 112.755 98.6202 112.755 98.8369 112.731C99.928 112.639 100.991 112.338 101.967 111.844C103.211 111.208 104.297 110.304 105.144 109.197C105.991 108.09 106.578 106.809 106.863 105.446C107.054 104.524 107.143 103.507 107.754 102.839C108.245 102.303 108.991 102.098 109.492 101.571C111.577 99.3917 107.598 95.4353 108.493 92.4397C109.058 90.5463 111.403 89.808 111.911 87.8933C112.479 85.7526 110.223 83.5412 108.088 83.4141Z" fill="#172755"/>
<path d="M153.788 99.2002C153.069 99.0716 145.735 97 145.732 97C146.163 97.0679 128.016 110.308 126.298 111.337C121.023 114.502 111.044 110.623 104.849 110.376C104.097 111.189 103.205 111.861 102.215 112.362C101.228 112.861 100.153 113.166 99.0496 113.259C98.8304 113.276 98.6076 113.284 98.3848 113.284C96.3727 112.605 94.6174 111.331 93.3541 109.633C92.5958 109.458 91.9922 109.33 91.5861 109.24L88.7365 109.358L89.0635 110.183C89.1485 110.338 89.1728 110.519 89.1318 110.691C89.0826 110.778 89.0162 110.855 88.9366 110.916C88.8569 110.977 88.7657 111.022 88.6683 111.048L85.9265 112.148C85.4858 112.364 85.0019 112.478 84.5107 112.484C83.4327 112.405 82.7499 111.33 82.4552 110.315C82.3906 110.087 82.3367 109.851 82.2828 109.601L76.8711 109.819L75.6062 111.58C75.926 112.584 76.3752 113.548 76.5549 114.598C77.0472 117.488 75.944 120.62 73.5148 121.97C71.9014 122.863 69.8675 122.795 68.1247 121.988L67 185.115L72.3111 208.946C72.3111 208.946 76.1273 209.049 82.0348 208.971C86.5913 208.91 92.3874 208.742 98.6364 208.335L99.7144 208.26C105.561 207.856 111.756 207.238 117.681 206.299C119.956 205.942 122.191 205.531 124.347 205.07C124.347 205.07 129.892 190.094 121.925 152.516C120.675 146.612 118.943 139.979 117.254 134.103C122.565 129.574 136.795 121.745 141.445 116.545C146.536 110.851 153.842 99.1931 154 99.2217L153.788 99.2002Z" fill="#FF151F"/>
<path d="M385 110L372.998 112.137L351.711 128.805L323.291 121.304L320 128.209L346.421 141.066L357.933 144L372.891 139.066L385 110Z" fill="#353A85"/>
<path d="M304.059 68.3941L297.864 71.4872L293.436 70.9858L293.411 69.4814L296.008 68.4487L287.604 66.6266L286.828 62.5802L296.904 60.192L306.029 62.8433L304.059 68.3941Z" fill="#EAC1A4"/>
<path d="M371.725 267L365.933 271.356L364 274.69C365.092 275.213 366.222 275.641 367.379 275.972C368.589 276.226 378 274.69 378 274.69V268.814L371.725 267Z" fill="#292949"/>
<path d="M415.6 269L413.607 272.669C413.607 272.669 412.359 277.301 413.442 276.984C414.526 276.668 420.547 275.592 420.791 274.827C421.036 274.061 423.647 270.904 423.953 270.337C424.26 269.769 422.959 266 422.959 266L415.6 269Z" fill="#292949"/>
<path d="M377 180.298L395.022 234.417L415.178 269L423 266.715L409.635 227.276C409.635 227.276 408.021 187.654 405.369 176L377 180.298Z" fill="#292949"/>
<path d="M362 188.68L369.066 269H377.542L380.134 227.907L385 191.525L366.478 170L362 188.68Z" fill="#292949"/>
<path d="M362.194 136.826C363.073 132.697 363.419 128.254 365.487 124.403C367.555 120.551 371.468 117.64 374.495 114.365C375.774 112.977 377.136 111.535 379.038 110.873C380.343 110.421 381.78 110.378 383.182 110.342L395.944 110.018C397.497 109.979 399.111 109.951 400.527 110.506C402.646 111.336 403.846 113.265 404.891 115.066C407.568 119.661 408.061 124.759 408.299 129.956C408.299 130.002 411.621 195.208 408.98 193.983C405.69 192.459 401.932 191.648 398.243 191.082C393.011 190.24 387.728 189.746 382.429 189.605L373.097 190.228H367.465C364.086 190.552 364.363 191.555 360.89 191.345C358.666 191.221 361.189 141.56 362.194 136.826Z" fill="#353A85"/>
<path d="M386.452 112L392.753 111.732C392.866 110.085 392.846 108.431 392.692 106.787C394.48 106.279 396.522 105.484 396.926 103.708C397.025 103.14 397.025 102.559 396.926 101.991C396.652 99.637 396.376 97.2826 396.097 94.9281C396.054 94.1064 395.847 93.301 395.489 92.5584C394.773 91.3011 393.293 90.6866 391.873 90.3617C388.247 89.5353 384.217 90.1004 381.245 92.3112C380.427 92.872 379.771 93.6341 379.343 94.522C378.749 95.9099 379.046 97.4956 379.343 98.9754L380.19 103.065C380.516 104.633 381.009 106.424 382.486 107.088C383.269 107.441 384.22 107.398 384.918 107.896C386.141 108.751 385.862 110.619 386.452 112Z" fill="#FFB68E"/>
<path d="M374.798 81.8215C375.285 81.7484 375.761 81.6172 376.216 81.4306C377.723 80.7734 378.779 79.4588 380.378 78.8406C383.611 77.5936 387.667 77.7748 390.843 79.1142C393.884 80.3968 398.032 80.8906 400.769 82.6102C401.889 83.3656 402.808 84.3825 403.449 85.5732C404.576 87.624 405.107 89.9504 404.982 92.2884C404.857 94.6265 404.08 96.8825 402.74 98.8004C402.116 99.6416 401.42 100.426 400.659 101.145C399.11 102.655 397.249 104.524 395.203 105C395.256 103.192 397.213 97.5924 395.912 96.0363C394.186 93.9756 390.8 94.0254 388.372 94.2599C385.483 94.5334 383.101 93.6026 380.219 93.7483C378.751 93.8193 377.088 94.1035 375.965 93.1692C374.66 92.0749 371.909 88.5931 371.257 87.0654C370.995 86.3845 370.932 85.6433 371.074 84.9276C371.216 84.212 371.557 83.5514 372.058 83.0223C372.905 82.1092 373.831 82.0026 374.798 81.8215Z" fill="#172755"/>
<path d="M381.186 155.368L375.744 162L373 154.075C372.993 153.422 373.117 152.774 373.366 152.169C374.515 149.464 386.45 115.552 386.45 115.552C386.752 114.464 386.996 113.362 387.181 112.249L391 112L390.367 115.851L388.575 117.367L381.186 155.368Z" fill="#FF151F"/>
<path d="M247.924 159.64V186.866C248.06 186.305 248.13 185.731 248.133 185.153V142.02H247.929L247.924 159.64Z" fill="#D9A3A3"/>
<path d="M247.933 123.02V96.3499C247.792 96.9169 247.72 97.4986 247.719 98.0826V140.779H247.923V123.02H247.933Z" fill="#D9A3A3"/>
<path d="M267.672 95.8735C264.711 94.8805 261.806 93.2868 258.88 91.6186C257.98 91.1023 256.982 90.7808 255.949 90.6753C256.962 90.8569 257.939 91.2024 258.84 91.698C261.87 93.3365 264.741 94.9054 267.672 95.8735Z" fill="#D9A3A3"/>
<path d="M247.929 58.0572V0.0844421H247.725V56.3444C247.726 56.9213 247.794 57.4961 247.929 58.0572Z" fill="#D9A3A3"/>
<path d="M239.902 219.484C238.888 219.669 237.911 220.015 237.006 220.507C233.976 222.15 231.09 223.714 228.175 224.682C223.781 226.172 219.273 226.405 214.422 223.774C204.541 218.412 200.883 205.151 206.58 195.475C213.611 183.56 226.388 185.049 236.723 191.459C237.727 192.081 238.866 192.456 240.044 192.553C241.223 192.649 242.407 192.466 243.501 192.016C244.594 191.567 245.564 190.865 246.332 189.967C247.1 189.07 247.644 188.004 247.918 186.856V142.02V140.774H247.714V141.767H202.162C201.045 141.39 200.024 140.773 199.171 139.961C198.318 139.148 197.653 138.159 197.223 137.063C196.794 135.967 196.61 134.79 196.684 133.616C196.759 132.441 197.09 131.297 197.654 130.264C200.321 125.607 202.759 120.995 202.998 116.149C203.024 113.434 202.338 110.759 201.008 108.389C195.644 98.5294 182.349 94.8704 172.647 100.55C166.507 104.149 163.915 109.268 163.691 114.794C163.691 119.843 165.592 125.195 168.607 130.016C169.488 131.404 169.875 133.048 169.706 134.682C169.677 136.316 169.109 137.895 168.091 139.175C167.073 140.456 165.662 141.366 164.074 141.767H124.483C124.349 141.971 124.215 142.164 124.09 142.368C120.667 147.943 121.374 152.089 126.474 155.599C129.742 157.843 133.196 159.774 136.057 162.688C140.425 167.156 140.709 169.768 137.37 175.274C133.618 181.47 133.638 181.728 139.405 186.122C140.952 187.303 142.594 188.192 140.4 190.431C137.201 193.718 138.345 196.93 141.097 199.328C144.968 202.694 145.55 207.008 144.823 211.834C144.187 216.049 143.256 220.204 142.465 224.389C140.336 235.674 143.301 240.917 153.521 243.881C164.188 246.979 174.806 244.298 185.449 243.27C192.579 242.585 199.6 240.108 206.894 241.91C211.631 243.082 214.248 245.971 214.855 251.263C215.741 258.983 218.044 266.356 219.363 273.952C220.433 280.148 223.139 282.084 228.727 281.831C233.414 281.622 240.116 281.523 247.893 281.493V225.159C247.472 223.41 246.432 221.871 244.963 220.828C243.494 219.785 241.696 219.308 239.902 219.484Z" fill="#353A85"/>
<path d="M247.928 58.0572C248.201 59.2056 248.745 60.2727 249.513 61.1704C250.282 62.0681 251.253 62.7707 252.347 63.2202C253.441 63.6697 254.626 63.8533 255.805 63.7558C256.984 63.6583 258.123 63.2825 259.128 62.6595C269.457 56.2302 282.234 54.7606 289.265 66.6759C294.962 76.3372 291.305 89.6029 281.423 94.9747C276.572 97.606 272.064 97.3776 267.671 95.8882C264.755 94.8952 261.869 93.3512 258.839 91.7129C257.938 91.2172 256.961 90.8718 255.948 90.6901C254.15 90.5071 252.346 90.9814 250.872 92.0251C249.398 93.0687 248.354 94.6108 247.933 96.3648V123.035V140.789V142.035H294.255C295.276 142.406 296.202 142.995 296.971 143.761C297.739 144.527 298.331 145.45 298.705 146.467C299.078 147.485 299.225 148.571 299.135 149.651C299.044 150.731 298.719 151.778 298.181 152.719C294.032 159.967 290.409 167.117 294.823 175.214C300.186 185.079 313.476 188.733 323.184 183.053C335.125 176.048 333.667 163.299 327.229 152.982C326.641 152.036 326.272 150.971 326.151 149.865C326.03 148.758 326.159 147.639 326.528 146.589C326.897 145.539 327.498 144.584 328.286 143.796C329.074 143.008 330.028 142.406 331.08 142.035H359.272C362.928 132.902 365.132 123.255 365.804 113.443C366.765 89.0468 362.018 68.8753 350.833 52.3776C327.856 18.5283 295.728 3.11289 258.386 0.25323C254.91 -0.0130047 251.421 -0.069374 247.938 0.0844299V58.0572H247.928Z" fill="#EFEEF5"/>
<path d="M332.448 281.861C339.12 281.503 335.881 277.343 332.806 270.889C307.833 218.511 337.577 176.296 342.449 170.388C349.494 161.864 355.16 152.292 359.241 142.02H331.049C329.998 142.392 329.043 142.993 328.255 143.781C327.468 144.569 326.867 145.524 326.498 146.574C326.128 147.624 325.999 148.744 326.121 149.85C326.242 150.956 326.61 152.022 327.198 152.967C333.637 163.284 335.1 176.033 323.153 183.038C313.466 188.718 300.176 185.064 294.792 175.199C290.379 167.092 294.001 159.953 298.151 152.704C298.689 151.763 299.014 150.716 299.104 149.636C299.195 148.556 299.048 147.47 298.674 146.453C298.3 145.435 297.709 144.512 296.94 143.746C296.172 142.981 295.245 142.392 294.225 142.02H248.126V185.153C248.124 185.731 248.054 186.305 247.917 186.866V187.05C247.629 188.185 247.077 189.236 246.305 190.118C245.533 191 244.564 191.688 243.476 192.126C242.388 192.565 241.211 192.74 240.042 192.64C238.873 192.54 237.744 192.165 236.747 191.548C226.408 185.124 213.631 183.659 206.61 195.579C200.918 205.246 205.117 218.283 215.014 223.635C219.79 226.226 224.01 226.063 228.174 224.682C231.135 223.689 234.04 222.096 236.966 220.433C237.868 219.916 238.868 219.593 239.902 219.484C243.698 218.814 247.062 220.914 247.912 225.03V225.159C248.053 225.726 248.125 226.308 248.126 226.892V281.498C278.219 281.394 324.243 282.308 332.448 281.861Z" fill="#8CABEF"/>
<path d="M236.723 191.469C226.389 185.014 213.612 183.57 206.581 195.485C200.884 205.151 204.541 218.412 214.423 223.784C219.274 226.415 223.782 226.187 228.175 224.692C224.011 226.072 219.791 226.236 215.015 223.645C205.128 218.293 200.919 205.275 206.611 195.589C213.631 183.674 226.409 185.134 236.748 191.558C237.745 192.175 238.874 192.549 240.043 192.65C241.212 192.75 242.389 192.574 243.477 192.136C244.565 191.698 245.534 191.01 246.306 190.128C247.078 189.246 247.63 188.195 247.918 187.06V186.876C247.643 188.023 247.099 189.088 246.33 189.984C245.562 190.88 244.591 191.581 243.498 192.03C242.405 192.478 241.221 192.661 240.043 192.563C238.865 192.466 237.727 192.091 236.723 191.469Z" fill="#353A85"/>
<path d="M289.265 66.6759C282.235 54.7606 269.457 56.25 259.128 62.6595C257.999 63.3614 256.701 63.7493 255.371 63.7829C254.041 63.8164 252.726 63.4945 251.562 62.8503C250.398 62.2062 249.428 61.2634 248.753 60.1195C248.077 58.9756 247.72 57.6722 247.719 56.3444V0.089386C232.295 0.779479 217.343 5.41154 202.969 12.4416C199.103 14.3331 195.306 16.4133 191.525 18.5283C165.094 33.4621 150.392 56.389 151.635 89.9851C152.337 108.851 143.923 122.568 131.494 134.101C129.245 136.187 127.016 138.262 125.175 140.764C124.931 141.092 124.678 141.434 124.469 141.757H164.084C165.672 141.356 167.084 140.446 168.102 139.165C169.119 137.885 169.687 136.306 169.717 134.672C169.749 133.238 169.358 131.826 168.592 130.611C165.463 125.597 163.512 120.007 163.701 114.784C163.905 109.258 166.498 104.139 172.657 100.54C182.345 94.8605 195.64 98.5195 201.018 108.379C202.348 110.749 203.034 113.424 203.008 116.139C202.959 121.218 200.421 126.019 197.64 130.874C197.074 131.863 196.743 132.967 196.672 134.103C196.6 135.238 196.791 136.375 197.229 137.426C197.666 138.477 198.339 139.414 199.196 140.164C200.054 140.915 201.072 141.46 202.173 141.757H247.729V98.0677C247.731 97.4837 247.802 96.9019 247.943 96.335C248.364 94.581 249.408 93.039 250.883 91.9953C252.357 90.9517 254.16 90.4773 255.959 90.6603C256.991 90.7659 257.99 91.0873 258.889 91.6036C261.815 93.2718 264.721 94.8506 267.681 95.8584C272.075 97.3478 276.582 97.5762 281.434 94.9449C291.305 89.6029 294.962 76.3372 289.265 66.6759Z" fill="#E2DFFE"/>
<path d="M401.413 122L379.241 142.897L346.353 133.109L344 140.495L380.148 157H389.66L407 139.5L401.413 122Z" fill="#353A85"/>
<path d="M344.739 139.891L338.69 140L335 135.002L344.386 130L347 133.075L344.739 139.891Z" fill="#FFB68E"/>
<path d="M131.105 149.641L131 152.904L136.708 155L139.997 152.486L140 148.688L136.823 148.509L136.722 147.675L135.683 147L131.105 149.641Z" fill="#FFB68E"/>
<path d="M113.744 142L132 145.646C132 145.646 130.948 156.878 130.959 155.945C130.97 155.012 107 153.907 107 153.907L113.744 142Z" fill="#FF151F"/>
<path d="M55.8392 7.00003H5.6218C2.51756 7.00003 0 9.75523 0 13.1565V43.0776C0 46.4789 2.51756 49.2341 5.6218 49.2341H47.2989C50.1357 52.2937 56.7601 59.3043 58.3865 59.9875C60.4659 60.8564 61.4536 60.8118 61.4536 43.0776V13.1565C61.4536 9.75523 58.9658 7.00003 55.8392 7.00003Z" fill="#FF151F"/>
<path d="M51.4651 20.2041C51.4661 20.8328 51.3431 21.4555 51.1032 22.0366C50.8633 22.6178 50.5111 23.1459 50.0669 23.5908C49.6227 24.0357 49.0952 24.3886 48.5144 24.6294C47.9337 24.8702 47.3112 24.9942 46.6825 24.9942H13.6646C12.3994 24.9863 11.1886 24.4782 10.2967 23.5808C9.40486 22.6833 8.90427 21.4694 8.9043 20.2041C8.90819 18.9414 9.4105 17.7314 10.302 16.8371C11.1934 15.9429 12.402 15.4368 13.6646 15.429H46.6528C47.2827 15.425 47.9072 15.5456 48.4904 15.7837C49.0736 16.0219 49.604 16.3729 50.0512 16.8166C50.4983 17.2603 50.8534 17.788 51.0961 18.3693C51.3387 18.9507 51.4641 19.5742 51.4651 20.2041Z" fill="white"/>
<path d="M51.4655 35.9779C51.4665 36.6066 51.3435 37.2293 51.1036 37.8104C50.8637 38.3915 50.5115 38.9196 50.0673 39.3645C49.6231 39.8094 49.0956 40.1623 48.5148 40.4031C47.9341 40.644 47.3116 40.7679 46.6829 40.7679H13.665C12.3946 40.7679 11.1763 40.2633 10.278 39.365C9.37966 38.4666 8.875 37.2483 8.875 35.9779C8.875 34.7075 9.37966 33.4891 10.278 32.5908C11.1763 31.6925 12.3946 31.1878 13.665 31.1878H46.6532C47.2819 31.1878 47.9044 31.3118 48.4851 31.5526C49.0659 31.7934 49.5934 32.1464 50.0376 32.5913C50.4818 33.0362 50.834 33.5643 51.0739 34.1454C51.3138 34.7265 51.4368 35.3492 51.4358 35.9779H51.4655Z" fill="white"/>
<path d="M405.845 1.00003H458.075C461.305 1.00003 463.919 3.86663 463.919 7.4016V38.5406C463.919 42.0755 461.305 44.9421 458.075 44.9421H414.727C411.756 48.1206 404.879 55.4208 403.193 56.0818C401.025 56.9878 400 56.9432 400 38.5034V7.4016C400 3.86663 402.614 1.00003 405.845 1.00003Z" fill="#FF151F"/>
<path d="M422.696 23.0788C422.696 24.6801 422.06 26.2158 420.928 27.348C419.795 28.4803 418.26 29.1164 416.658 29.1164C415.865 29.1174 415.079 28.962 414.346 28.659C413.612 28.356 412.946 27.9114 412.384 27.3507C411.823 26.7899 411.377 26.124 411.074 25.391C410.77 24.658 410.613 23.8723 410.613 23.0788C410.612 22.2846 410.768 21.4981 411.071 20.7643C411.375 20.0304 411.82 19.3636 412.382 18.8021C412.943 18.2405 413.61 17.7953 414.344 17.4918C415.078 17.1884 415.864 17.0327 416.658 17.0337C417.452 17.0337 418.238 17.1901 418.971 17.494C419.704 17.7978 420.37 18.2432 420.93 18.8047C421.491 19.3661 421.936 20.0326 422.239 20.766C422.542 21.4994 422.697 22.2853 422.696 23.0788Z" fill="white"/>
<path d="M438.625 23.0788C438.623 24.6807 437.986 26.2164 436.852 27.3485C435.719 28.4806 434.182 29.1164 432.58 29.1164C430.978 29.1164 429.442 28.4806 428.308 27.3485C427.175 26.2164 426.537 24.6807 426.535 23.0788C426.535 21.4755 427.172 19.9379 428.306 18.8042C429.439 17.6706 430.977 17.0337 432.58 17.0337C434.184 17.0337 435.721 17.6706 436.855 18.8042C437.988 19.9379 438.625 21.4755 438.625 23.0788Z" fill="white"/>
<path d="M454.548 23.0788C454.548 23.8723 454.391 24.658 454.087 25.391C453.783 26.124 453.338 26.7899 452.777 27.3507C452.215 27.9114 451.549 28.356 450.815 28.659C450.082 28.962 449.296 29.1174 448.503 29.1164C446.901 29.1164 445.366 28.4803 444.233 27.348C443.101 26.2158 442.465 24.6801 442.465 23.0788C442.464 22.2853 442.619 21.4994 442.922 20.766C443.225 20.0326 443.67 19.3661 444.231 18.8047C444.791 18.2432 445.457 17.7978 446.19 17.494C446.923 17.1901 447.709 17.0337 448.503 17.0337C449.297 17.0327 450.083 17.1884 450.817 17.4918C451.551 17.7953 452.218 18.2405 452.779 18.8021C453.341 19.3636 453.786 20.0304 454.089 20.7643C454.393 21.4981 454.549 22.2846 454.548 23.0788Z" fill="white"/>
</svg>
