<svg width="713" height="601" viewBox="0 0 713 601" fill="none" xmlns="http://www.w3.org/2000/svg">
<path d="M712.166 0.329825C685.491 -0.94357 652.168 1.3524 626.688 9.28217C601.209 17.2119 577.098 33.4574 565.746 57.6326C558.056 73.9938 556.765 92.5159 552.64 110.131C548.496 127.727 540.209 146.018 524.096 154.179C512.32 160.16 498.385 159.678 485.26 158.231C452.9 154.681 420.772 146.153 388.277 148.198C355.782 150.243 321.244 166.025 309.236 196.317C298.848 222.556 306.847 255.182 290.156 277.91C261.458 317 190.667 290.837 157.208 325.952C133.521 350.822 140.132 395.777 113.727 417.752C96.0921 432.435 69.5527 431.374 50.8768 444.706C32.702 457.671 25.9949 480.998 15.8763 500.89C5.73853 520.801 -1.24321 538.5 0.185348 548.5C3.68536 573 11.2892 580.187 42.3194 589.062C61.9782 594.696 82.543 596.163 102.973 597.243C152.293 599.867 201.71 600.388 251.108 600.697C385.289 601.507 519.49 600.697 653.652 598.227C673.118 597.88 693.278 597.378 712.185 592.709" fill="#E2DFFE"/>
</svg>
