<svg width="576" height="362" viewBox="0 0 576 362" fill="none" xmlns="http://www.w3.org/2000/svg">
<path d="M316.75 309.004C302.723 309.048 288.697 309.386 274.696 310.94C269.412 311.526 264.247 312.811 258.953 313.333C248.385 314.37 238.001 316.312 227.393 317.2C218.855 317.92 210.277 318.347 201.759 319.261C193.513 320.143 185.186 319.887 177.01 318.501C171.144 317.458 165.248 316.868 159.481 315.185C153.013 313.303 146.047 311.958 139.3 312.007C129.712 312.077 120.393 312.087 111.203 315.408C107.984 316.575 104.043 318.491 101.595 320.934C96.0026 326.539 95.2414 340.514 100.829 346.323C110.243 356.099 130.334 359.917 143.534 360.115C157.993 360.314 172.04 359.241 186.524 358.626C199.958 358.04 213.392 357.206 226.881 357.236C254.41 357.295 281.945 357.236 309.421 355.399C335.239 353.676 361.122 354.267 386.995 354.267C413.53 354.267 439.881 354.475 466.226 357.995C477.7 359.529 489.393 360.065 500.931 361.138C511.26 362.101 521.187 361.138 531.476 360.229C540.168 359.511 548.66 357.241 556.548 353.527C562.763 350.548 573.838 341.358 575.744 334.289C581.088 314.46 500.463 314.926 488.084 314.981C474.237 315.031 460.28 315.477 446.443 314.981C440.622 314.758 434.885 313.626 429.208 312.38C423.531 311.133 417.849 311.456 412.107 310.935C388.179 308.765 364.197 309.083 340.195 309.083C332.383 309.053 324.566 308.984 316.75 309.004Z" fill="#E2DFFE"/>
<path d="M283.76 92.9602L309.184 76.0034L326.579 45.21L333.813 49.9147L320.782 85.8214L289.557 99.2088L283.76 92.9602Z" fill="#353A85"/>
<path d="M442.327 104.097L436.641 106.793L413 141.156L414.233 149.41L431.734 149.189L442.327 104.097Z" fill="#8CABEF"/>
<path d="M320.492 184.495L322.047 250.812L310.568 336.478L300.958 336.592L293.957 257.754L279.873 179.002L320.492 184.495Z" fill="#292949"/>
<path d="M301.002 335.449L301.063 340.644L311.514 345.716L316.645 340.46L311.387 335.326L301.002 335.449Z" fill="#292949"/>
<path d="M268.312 337.952L276.57 344.977L274.505 349.11L259.225 345.802V337.952H268.312Z" fill="#292949"/>
<path d="M287.18 210.58L280.314 274.862L271.251 338.936L258.331 338.32L258.804 271.852L251.027 210.2L269.292 201.689L287.18 210.58Z" fill="#292949"/>
<path d="M260.848 97.0525L285.946 92.3396C285.946 92.3396 303.027 103.326 315.98 136.606C329.17 170.504 331.492 216.571 331.492 216.571C331.492 216.571 241.388 239.777 246.94 223.751L252.545 147.841L260.848 97.0525Z" fill="#353A85"/>
<path d="M280.227 97.1996L271.833 100.397C270.741 98.2701 269.819 96.0591 269.078 93.7854C266.465 94.1162 263.314 94.2223 261.766 92.0905C261.319 91.3912 260.991 90.6225 260.795 89.8157C259.812 86.5267 258.827 83.2418 257.839 79.961C257.5 78.8215 257.157 77.6494 257.276 76.4691C257.492 74.4026 259.084 72.7486 260.762 71.5111C265.036 68.3664 270.645 66.8349 275.801 68.0928C277.195 68.3708 278.49 69.0118 279.557 69.951C281.129 71.458 281.647 73.7288 282.092 75.8647C282.503 77.8332 282.911 79.8017 283.317 81.7702C283.79 84.0368 284.166 86.671 282.611 88.4026C281.794 89.3134 280.52 89.7994 279.884 90.853C278.777 92.7072 280.21 95.0391 280.227 97.1996Z" fill="#F7B690"/>
<path d="M291.273 53.9906C290.28 51.9379 289.047 50.0104 287.599 48.2484C285.272 45.3529 280.712 45.798 277.279 47.2152C269.862 50.2823 261.33 50.4824 255.574 56.4614C252.287 59.8838 247.082 62.9019 244.466 66.7245C243.412 68.3579 242.773 70.2238 242.604 72.1603C242.278 75.5087 242.897 78.8813 244.39 81.8958C245.883 84.9102 248.19 87.4459 251.05 89.2152C252.353 89.9704 253.719 90.6099 255.133 91.1265C258.043 92.2292 261.562 93.6341 264.522 93.0991C263.424 90.7426 257.656 84.4696 258.488 81.6638C259.815 77.2286 266.743 75.0886 270.625 74.0839C274.858 72.9812 279.627 73.9941 283.713 72.679C286.656 71.7315 289.473 68.6522 291.094 66.0793C293.649 62.0769 293.041 57.7846 291.273 53.9906Z" fill="#172755"/>
<path d="M281.081 96.9749C289.294 113.05 297.332 129.239 305.721 145.207C310.694 154.674 311.596 164.925 313.07 175.331L317.438 206.369C318.053 210.742 318.668 215.113 319.283 219.483L281.811 226.61C282.942 213.839 284.383 201.089 285.273 188.298C286.09 176.499 287.755 163.189 284.632 151.623C283.114 145.995 281.509 140.376 279.962 134.752C277.115 124.419 274.236 114.106 271.324 103.811C271.12 103.089 270.201 101.283 270.373 100.544L281.081 96.9749Z" fill="white"/>
<path d="M479.162 335.306L479.578 339.422L472.116 344.552L467.76 340.946L471.283 336.323L478.745 331.189L479.162 335.306Z" fill="#292949"/>
<path d="M478.974 209.494L480.239 221.991L469.05 264.926L479.439 333.925L471.793 336.568L451.626 269.202L448.426 249.607L448.54 208.121L478.974 209.494Z" fill="#292949"/>
<path d="M420.156 223.42L436.241 339.038H443.552L444.871 264.926L458.179 212.912L420.156 223.42Z" fill="#292949"/>
<path d="M443.511 338.124V342.277L435.604 346.431L431.652 342.277L435.604 338.124H443.511Z" fill="#292949"/>
<path d="M478.571 195.6C472.325 154.543 474.558 124.644 474.215 116.435C474.132 114.046 473.547 111.701 472.499 109.552C471.451 107.403 469.964 105.499 468.132 103.963C465.605 103.399 463.405 101.774 460.849 101.128C443.598 96.7912 434.184 109.974 427.722 124.199C419.77 141.74 413.07 159.823 407.673 178.312C402.926 194.53 398.17 210.89 396.178 227.729C395.361 234.672 394.671 241.255 402.268 244.318C414.381 249.219 427.987 249.092 440.777 250.661C455.473 252.457 470.169 253.773 484.972 254.385C492.675 254.7 484.829 236.652 478.571 195.6Z" fill="#8CABEF"/>
<path d="M224.727 330.768C224.727 330.768 225.238 334.971 230.381 335.04C235.525 335.11 237.615 338.569 232.904 338.503C228.193 338.438 222.58 339.32 220.715 335.824C218.849 332.328 223.339 328.273 224.727 330.768Z" fill="#EFEEF5"/>
<path d="M208.929 312.019C208.929 312.019 207.096 312.427 206.19 315.829C205.284 319.231 183.945 313.379 176.593 318.422C169.241 323.466 168.282 327.718 167.359 335.424C165.408 351.715 194.584 349.943 204.508 346.222C214.432 342.502 231.145 341.015 226.675 323.38C225.801 322.939 208.929 312.019 208.929 312.019Z" fill="#EFEEF5"/>
<path d="M228.08 321.739L226.606 322.894C226.606 322.894 219.307 325.255 211.02 315.894C207.754 310.932 208.803 310.099 208.803 310.099L210.661 310.508C210.661 310.508 214.086 321.322 228.08 321.739Z" fill="#FF151F"/>
<path d="M221.111 296.173C221.111 296.173 221.842 295.058 223.912 295.013C225.982 294.968 229.129 298.362 229.892 298.639C230.656 298.917 232.493 299.366 230.644 300.065C228.794 300.763 222.03 298.272 221.111 296.173Z" fill="#353A85"/>
<path d="M213.985 300.698C213.985 300.698 217.275 296.205 222.125 296.152C224.983 296.152 227.563 297.337 229.714 299.166C230.812 300.102 231.674 301.229 232.703 302.221C233.384 302.879 234.237 303.177 234.899 303.892C235.704 304.845 236.277 305.972 236.575 307.184C236.872 308.397 236.885 309.661 236.613 310.879C236.005 313.113 238.536 319.668 231.066 321.269C223.595 322.87 213.691 318.361 211.585 314.481C209.478 310.602 207.584 306.665 213.985 300.698Z" fill="#EFEEF5"/>
<path d="M215.2 301.245C215.2 301.245 212.979 299.901 211.117 300.837C209.256 301.772 207.79 301.421 207.851 303.495C207.913 305.57 207.549 310.745 210.023 312.337C212.497 313.93 211.913 309.67 213.175 308.204C214.436 306.738 216.551 301.878 215.2 301.245Z" fill="#353A85"/>
<path d="M224.786 331.969C224.786 331.969 225.194 337.968 228.183 338.438C231.171 338.908 238.417 342.008 237.111 343.707C235.804 345.406 233.681 343.658 231.542 343.629C229.403 343.6 223.157 344.491 217.944 342.428C213.045 341.816 210.816 344.001 210.816 344.001L224.786 331.969Z" fill="#EFEEF5"/>
<path d="M170.818 327.415C170.083 327.195 166.164 326.117 166 321.51C165.837 316.903 168.858 313.158 173.487 313.244C178.117 313.33 178.015 317.508 177.059 318.12C176.104 318.733 170.462 319.415 171.283 324.487C171.924 326.648 170.818 327.415 170.818 327.415Z" fill="#353A85"/>
<path d="M351.582 74.9008L357.363 80.0834L382.448 88.2923L384.322 83.857L364.772 70.2981L351.582 74.9008Z" fill="#F7B690"/>
<path d="M344.572 83.4078L347.287 89.4603L369.932 103.448L373.304 100.324L356.991 84.1878L353.7 75.5951L347.348 74.9253L344.572 83.4078Z" fill="#F7B690"/>
<path d="M327.937 27.0894C327.937 27.0894 330.664 24.5205 334.159 24.6757C337.653 24.8309 351.513 27.7714 358.685 34.1751C365.858 40.5789 375.831 47.3093 369.577 67.0963C365.67 76.2568 359.146 70.8291 353.778 76.1914C348.41 81.5538 346.087 88.2148 337.914 79.6833C329.742 71.1518 332.636 63.8128 325.467 52.0549C318.299 40.2971 318.577 31.9248 327.937 27.0894Z" fill="#FF151F"/>
<path d="M330.305 25.5293L345.675 16.6098L355.435 8.25391L359.461 12.0316L352.602 22.5112L341.845 30.8222L330.305 25.5293Z" fill="#FF151F"/>
<path d="M320.834 36.3845L316.098 48.559L306.57 53.9131L308.113 57.3927L319.817 54.7177L326.712 47.8361L320.834 36.3845Z" fill="#FF151F"/>
<path d="M303.084 18.4434C303.084 18.4434 301.835 27.5712 308.065 32.084C308.065 32.084 301.7 33.2153 298.888 27.8816C296.075 22.5479 295.357 20.0035 299.757 16.7731C304.158 13.5426 303.084 18.4434 303.084 18.4434Z" fill="#172755"/>
<path d="M304.897 29.217C296.932 21.0041 306.595 10.6552 316.352 12.6114C321.9 13.7223 329.86 19.9831 327.541 26.2234C328.297 26.8769 329.746 28.0572 329.852 29.0823C329.97 30.1727 327.917 31.8961 327.137 32.5904C326.937 32.8002 326.683 32.9501 326.403 33.0233C326.047 33.0846 325.459 32.7252 324.835 32.2923C324.348 32.8943 323.789 33.4335 323.169 33.8973C320.414 35.9393 316.585 36.1353 313.327 35.0367C310.069 33.9382 307.293 31.6838 304.897 29.217Z" fill="#F7B690"/>
<path d="M304.162 21.776C309.897 21.5309 314.237 16.9732 319.76 16.7935C319.76 16.7935 323.373 16.675 327.692 21.2859C329.018 19.7586 329.867 17.8763 330.134 15.8716C330.402 13.8669 330.077 11.8276 329.199 10.0058C326.161 3.52042 312.041 0 312.041 0C312.041 0 302.651 2.13594 297.716 11.4352C296.042 14.584 295.952 18.6599 299.426 20.6937C300.866 21.5088 302.512 21.8849 304.162 21.776Z" fill="#172755"/>
<path d="M381.84 88.566L383.559 93.3525L385.673 92.6378L386.62 85.4336L383.93 83.6162L381.84 88.566Z" fill="#3A3029"/>
<path d="M372.593 99.6255L368.588 102.537L367.266 105.862L369.531 107.544L374.434 101.165L372.593 99.6255Z" fill="#3A3029"/>
<path d="M355.869 8.66211L358.866 3.01392L360.033 3.66736L359.984 9.25837L361.197 8.91123L361.152 9.91182L358.87 11.476L355.869 8.66211Z" fill="#F7B690"/>
<path d="M307.807 54.3214L305.264 54.2234L303.354 56.7351L304.652 58.9894L307.424 59.5122L308.995 57.2701L307.807 54.3214Z" fill="#F7B690"/>
<path d="M372.916 97.1302C358.628 99.7154 343.189 112.413 342.434 126.229C334.8 114.691 311.253 112.707 297.61 117.71C261.608 130.909 260.98 177.994 284.583 203.135C297.284 216.665 313.127 227.231 329.685 236.048C343.565 243.448 378.019 257.767 378.089 257.665C378.195 257.718 400.701 227.929 408.926 214.533C418.748 198.536 427.089 181.428 431.212 163.328C438.87 129.7 410.649 90.314 372.916 97.1302Z" fill="#FF151F"/>
<g style="mix-blend-mode:multiply" opacity="0.12">
<path d="M425.051 168.988C419.032 183.404 411.455 197.118 402.456 209.886C393.781 222.113 382.861 233.679 369.185 240.267C362.874 243.356 355.976 245.061 348.953 245.265C363.331 251.718 378.787 258.11 378.831 258.044C378.938 258.097 401.443 228.309 409.669 214.913C419.491 198.916 427.831 181.808 431.954 163.708C433.259 157.862 433.555 151.835 432.828 145.889C430.823 153.774 428.223 161.496 425.051 168.988Z" fill="black"/>
</g>
<path d="M393.029 293.224V340.987H400.235L404.741 312.149L408.795 290.071L393.029 293.224Z" fill="#292949"/>
<path d="M408.795 288.266L411.497 308.997L415.098 342.338L422.307 341.889V316.205L425.908 290.071L408.795 288.266Z" fill="#292949"/>
<path d="M405.415 218.65C405.415 218.65 397.757 217.298 394.605 229.015C391.454 240.732 382.893 274.977 382.444 293C381.995 311.022 393.703 299.309 407.669 301.576C421.634 303.843 433.114 304.055 433.114 295.944C433.114 287.833 438.07 218.875 405.415 218.65Z" fill="#353A85"/>
<path d="M401.018 195.363C407.399 184.111 421.687 191.311 422.654 202.522C423.214 208.897 418.948 219.524 411.444 218.985C410.975 220.014 410.158 221.962 409.101 222.399C407.958 222.869 405.427 221.174 404.439 220.565C404.146 220.415 403.901 220.186 403.733 219.904C403.553 219.536 403.757 218.785 404.031 217.968C403.219 217.626 402.452 217.184 401.749 216.653C398.65 214.313 397.23 210.212 397.389 206.328C397.548 202.444 399.099 198.744 401.018 195.363Z" fill="#F7B690"/>
<path d="M409.921 192.439C409.921 192.439 420.127 194.991 420.127 199.247C420.127 205.642 420.535 209.931 420.127 213.737L427.353 209.457L431.607 197.544C431.607 197.544 430.753 187.762 425.655 186.059C420.556 184.356 409.921 182.657 409.921 182.657L401.843 185.21L395.891 184.802L397.932 202.665C397.932 202.665 400.565 189.907 409.921 192.439Z" fill="#172755"/>
<path d="M413.299 220.226L425.909 224.735L437.168 252.67L446.178 272.947L441.222 276.1L426.811 255.823L413.299 220.226Z" fill="#353A85"/>
<path d="M441.221 276.1L444.376 280.608L446.177 278.803H451.582L446.177 272.947L441.221 276.1Z" fill="#EACDB0"/>
<path d="M393.03 340.987L388.977 345.042L390.777 347.746L398.884 345.042V340.987H393.03Z" fill="#292949"/>
<path d="M416.299 342.265L417.801 348.199L422.757 350L425.459 348.648L421.263 341.954L416.299 342.265Z" fill="#292949"/>
<path d="M400.913 219.585L395.602 223.71L384.898 249.149L378.207 267.446L382.669 269.676L388.911 261.197L400.913 219.585Z" fill="#353A85"/>
<path d="M382.669 269.676L381.775 271.906L375.979 274.139V271.015L378.207 267.446L382.669 269.676Z" fill="#EACDB0"/>
<path d="M413.808 109.039L412.065 103.852L406.448 100.214L398.602 105.764L402.986 109.668L411.453 107.536L413.808 109.039Z" fill="#F7B690"/>
<path d="M346.014 40.8893L346.961 31.443L348.439 30.0381L350.345 30.8385L350.231 33.3543L351.986 30.7201L355.591 29.1804L360.677 33.5585L356.077 43.356L346.014 40.8893Z" fill="#F7B690"/>
<path d="M259.693 104.098L315.429 83.5876L346.205 36.7317L356.909 42.5351L334.608 95.6395L277.749 126.756L257.885 114.826L259.693 104.098Z" fill="#353A85"/>
<path d="M478.125 116.166L468.756 168.825L436.196 194.705L430.203 187.893L455.375 158.558L459.837 118.845L468.311 104.118L478.125 116.166Z" fill="#8CABEF"/>
<path d="M430.395 188.012L422.814 194.705L422.635 201.689L425.488 202.739L430.395 199.614L434.522 192.806L430.395 188.012Z" fill="#F7B690"/>
<path d="M448.472 70.0244C448.472 70.0244 443.916 72.1808 442.863 84.0326C441.81 95.8844 438.887 103.105 438.887 103.105C438.887 103.105 442.361 105.862 445.655 104.788C448.95 103.713 450.105 103.624 450.191 98.7228C450.276 93.8219 453.62 71.1884 453.62 71.1884L448.472 70.0244Z" fill="#172755"/>
<path d="M456.905 76.2118C454.584 76.3089 452.343 77.0834 450.457 78.4398C448.571 79.7961 447.122 81.675 446.291 83.8448C445.378 82.4394 444.815 80.8354 444.649 79.1673C444.483 77.4992 444.72 75.8157 445.339 74.258C445.958 72.7002 446.941 71.3137 448.206 70.2147C449.472 69.1157 450.982 68.3362 452.61 67.9417C454.959 70.0743 456.378 73.0438 456.562 76.2118H456.905Z" fill="#172755"/>
<path d="M446.654 79.8384C451.831 68.5625 466.078 74.2719 467.927 84.9067C468.981 90.951 465.776 101.459 458.538 101.561C458.175 102.582 457.554 104.51 456.579 105.012C455.525 105.555 452.978 104.155 451.974 103.644C451.681 103.524 451.428 103.324 451.243 103.068C451.043 102.733 451.174 101.998 451.37 101.194C450.566 100.935 449.797 100.575 449.083 100.124C445.932 98.1389 444.238 94.3408 444.07 90.6162C443.903 86.8915 445.099 83.2241 446.654 79.8384Z" fill="#F7B690"/>
<path d="M452.904 67.9825C452.904 67.9825 449.883 74.0432 457.635 77.8659C465.387 81.6885 469.119 89.4236 466.024 95.8355C462.93 102.247 455.631 105.743 458.394 108.324C461.158 110.906 473.36 112.045 473.36 112.045C473.36 112.045 486.423 89.93 479.365 77.2002C472.307 64.4703 458.501 60.6681 452.904 67.9825Z" fill="#172755"/>
<path d="M87.7864 233.609L75.5383 233.832L75.6643 231.026L87.7553 229.601L87.7864 233.609ZM80.4724 258.652C79.7201 259.743 78.9709 260.764 78.0782 261.848L68.6366 254.396L70.2879 252.081L80.4724 258.652ZM76.7951 205.846L67.64 213.939C67.0275 213.22 66.3775 212.534 65.6927 211.883L74.1103 202.984C75.0579 203.887 75.9543 204.842 76.7951 205.846ZM56.3529 275.773C55.0706 276.137 53.7914 276.431 52.442 276.721L50.2242 265.025C51.1625 264.875 52.0889 264.658 52.9964 264.377L56.3529 275.773ZM50.4463 191.168L48.75 203.883C47.8375 203.842 46.925 203.801 45.9423 203.757L46.4904 191.553C47.8031 191.563 49.1142 191.645 50.4179 191.799L50.4463 191.168ZM31.6162 262.784L26.5467 273.872C25.3202 273.326 24.1267 272.709 22.9723 272.025L29.2833 261.484C29.9663 261.937 30.7897 262.395 31.6162 262.784ZM29.5997 207.451C28.7548 207.911 27.9341 208.413 27.1408 208.957L20.5594 198.892C21.6509 198.128 22.7861 197.428 23.9592 196.796L29.5997 207.451ZM16.472 247.626L5.33712 252.818L3.81631 249.095L15.3921 245.047C15.6653 245.94 16.0271 246.804 16.472 247.626ZM15.5105 223.616L14.6857 226.32L2.87285 223.119C3.20781 221.826 3.6172 220.554 4.09897 219.308L15.5105 223.616Z" fill="#CACBCD"/>
<path d="M130.146 317.741L123.529 317.866L123.598 316.323L130.24 315.637L130.146 317.741ZM126.146 331.618L124.871 333.388L119.716 329.151L120.615 327.926L126.146 331.618ZM124.136 302.782L119.247 306.709L118.101 305.604L122.683 300.679L124.136 302.782ZM112.994 341.008C112.292 340.976 111.642 341.369 110.934 341.477L109.679 334.955C110.186 334.846 110.686 334.704 111.175 334.53L112.994 341.008ZM109.787 294.969L108.929 301.537C108.368 301.512 107.876 301.49 107.315 301.464L107.63 294.45C108.357 294.585 109.077 294.758 109.787 294.969ZM99.5266 333.937L96.7225 339.996C96.0908 339.967 95.4141 339.375 94.7981 338.996L98.1511 333.242L99.5266 333.937ZM98.418 303.806C97.9378 304.024 97.4787 304.286 97.0466 304.588L93.3804 298.519C93.9569 298.107 94.5611 297.735 95.1888 297.406L98.418 303.806ZM91.2458 325.693L85.2111 328.515L84.3994 326.229L90.6195 323.978L91.2458 325.693ZM90.7851 312.459C90.5512 312.892 90.3878 313.359 90.3009 313.843L83.8361 312.147L84.4921 310.068L90.7851 312.459Z" fill="#CACBCD"/>
</svg>
